<?xml version="1.0" encoding="UTF-8"?>
<svg width="413px" height="101px" viewBox="0 0 413 101" version="1.1" xmlns="http://www.w3.org/2000/svg" xmlns:xlink="http://www.w3.org/1999/xlink">
    <title>Illust/email/bg</title>
    <g id="ch01_Login" stroke="none" stroke-width="1" fill="none" fill-rule="evenodd">
        <g id="Ch6_Kakao_001" transform="translate(-606.000000, -581.000000)">
            <g id="Group-7" transform="translate(605.000000, 216.000000)">
                <g id="+bg" transform="translate(0.000000, 24.000000)">
                    <g id="Illust/email/bg" transform="translate(1.000000, 341.000000)">
                        <path d="M3.97903932e-13,7.56066732 C37.4431018,-7.1574272 97.5910741,-0.387110337 180.567905,27.8716179 C216.908493,40.2478292 273.653416,48.8629829 316.475792,41.9693805 C373.664365,32.7630889 413.003767,4.59715161 413.003767,4.59715161 C413.003767,4.59715161 413.003767,36.7314344 413.003767,101 L3.97903932e-13,101 L3.97903932e-13,7.56066732 Z" id="bg" fill="#6BB7D6"></path>
                        <path d="M9.09494702e-13,52.731626 C0.0108458583,52.7362748 0.0189802922,52.7397612 0.0244033019,52.7420853 C80.1822142,87.0945091 168.153649,92.8031333 263.494598,69.867958 C329.595042,53.9668653 379.426288,48.6788243 412.978188,54.0038349 C412.983036,54.0046043 412.990306,54.0057588 413,54.0072986 L413,101 L9.09494702e-13,101 L9.09494702e-13,52.731626 Z" id="bg" fill="#374763"></path>
                    </g>
                </g>
            </g>
        </g>
    </g>
</svg>