<?xml version="1.0" encoding="UTF-8"?>
<svg width="97px" height="18px" viewBox="0 0 97 18" version="1.1" xmlns="http://www.w3.org/2000/svg" xmlns:xlink="http://www.w3.org/1999/xlink">
    <title>logo_hyperauth_small</title>
    <defs>
        <linearGradient x1="-1.24447039%" y1="22.9750975%" x2="93.5217713%" y2="58.0135311%" id="linearGradient-1">
            <stop stop-color="#11F7FF" offset="0%"></stop>
            <stop stop-color="#008BF2" offset="36.1591046%"></stop>
            <stop stop-color="#2841FF" offset="63.8847725%"></stop>
            <stop stop-color="#00277A" offset="100%"></stop>
        </linearGradient>
        <path d="M0.350644073,3.7333252 L2.21731074,4.81935381 L2.21731074,7.425353 L5.15769635,9.12474195 L5.15769635,6.49494099 L7.04629625,7.60899392 L7.04629625,15.3594122 L5.15769635,14.2702803 L5.15769635,11.5075084 L2.21731074,9.81055554 L2.21731074,12.5738227 L0.350644073,11.497636 L0.350644073,3.7333252 Z M7.37704804,0.1 L13.9015662,3.79419477 L13.9015662,11.3378057 L12.3254793,12.3919728 L12.3254793,7.009454 L10.4993923,8.05506433 L10.4993923,13.4462316 L8.67330536,14.4956562 L8.67330536,6.98905902 L1.86064407,3.054793 L7.37704804,0.1 Z M7.35064407,1.79847597 L5.02064407,3.05545706 L8.50633019,5.09849295 L10.6639708,3.79419477 L7.35064407,1.79847597 Z" id="path-2"></path>
        <linearGradient x1="31.0758987%" y1="0%" x2="62.9431203%" y2="89.4861796%" id="linearGradient-4">
            <stop stop-color="#FFFFFF" offset="0%"></stop>
            <stop stop-color="#039EF5" offset="100%"></stop>
        </linearGradient>
    </defs>
    <g id="logo_hyperauth_small" stroke="none" stroke-width="1" fill="none" fill-rule="evenodd">
        <g id="Group-11">
            <path d="M67.3162806,9.85660332 L68.7734372,9.85660332 L68.7119095,7.59117066 C68.7032806,7.30974575 68.7036557,7.03021722 68.7134102,6.7541022 C68.7231645,6.47647008 68.7385465,6.20490641 68.7595559,5.93865265 C68.6972779,6.17342627 68.6214938,6.42526743 68.5299525,6.69455543 C68.4399119,6.96346414 68.329237,7.26309444 68.2001788,7.59117066 L67.3162806,9.85660332 Z M62.4173228,13.9615385 L67.5440082,3 L71.0848538,3 L72.1889764,13.9615385 L68.9647734,13.9615385 L68.8788597,12.2767818 L66.3363389,12.2767818 L65.6475285,13.9615385 L62.4173228,13.9615385 Z M92.6741483,3 L92.0979819,6.59446895 C92.7087483,5.7481542 93.5271153,5.32518632 94.5512023,5.32518632 C95.1412841,5.32518632 95.6783374,5.48891582 96.1702602,5.81637482 C96.6603026,6.14307582 96.9055118,6.71423406 96.9055118,7.52947053 C96.9055118,7.83456833 96.8679031,8.21432981 96.7960703,8.66875498 L95.9088793,13.9615385 L92.7395875,13.9615385 L93.5643481,9.00227804 C93.6354287,8.58764824 93.670781,8.343191 93.670781,8.27193834 C93.670781,7.82319823 93.4045108,7.59844916 92.8655769,7.59844916 C92.6357873,7.59844916 92.4409739,7.65529968 92.2811366,7.76937973 C92.1228036,7.88232277 92.0028317,8.01459498 91.9246054,8.16392234 C91.8448747,8.31400772 91.7696573,8.59409129 91.6982005,9.00379405 L90.8772009,13.9615385 L87.7086614,13.9615385 L89.506737,3 L92.6741483,3 Z M86.8171691,13.540734 C86.5062992,13.6789656 86.1831781,13.7828302 85.8443605,13.8538552 C85.5066914,13.9260259 85.1663424,13.9615385 84.8221649,13.9615385 C83.8987433,13.9615385 83.275472,13.7450265 82.9557966,13.3142938 C82.6365041,12.8820335 82.5679749,12.1488713 82.750209,11.1155709 L83.4393296,7.22141042 L82.5354331,7.22141042 L82.7731797,5.88148016 L86.0116637,3 L86.9197715,3 L86.5265899,5.23079871 L88.2834646,5.23079871 L87.9320131,7.22141042 L86.1732242,7.22141042 L85.6575323,10.1418398 C85.5752206,10.6054122 85.581729,10.9158605 85.675526,11.0682208 C85.77162,11.2213448 85.9894587,11.2992433 86.3298077,11.2992433 C86.4921339,11.2992433 86.6502488,11.2801505 86.8030039,11.2438742 C86.9557588,11.2064524 87.103537,11.152229 87.2509322,11.0838769 L86.8171691,13.540734 Z M77.5060969,12.9352763 C77.100349,13.2812496 76.7002261,13.5384733 76.3079781,13.7084515 C75.9146051,13.8757973 75.5227322,13.9615385 75.1286093,13.9615385 C74.3823631,13.9615385 73.8701157,13.7133402 73.5914922,13.2128071 C73.3136187,12.713026 73.2644939,11.9496283 73.445243,10.9233661 L74.4326129,5.30769231 L77.1123489,5.30769231 L76.1936037,10.5382827 C76.1186041,10.9560831 76.123479,11.253545 76.2093537,11.4314204 C76.2922282,11.6092958 76.4651023,11.6972934 76.7276009,11.6972934 C76.8476003,11.6972934 76.9814747,11.6736018 77.1325988,11.6239621 C77.2814731,11.5750746 77.4494722,11.5032475 77.6317212,11.4118654 L78.7068407,5.30769231 L81.3858268,5.30769231 L80.4689565,10.5228643 C80.4029569,10.9000505 80.4093319,11.1452403 80.4910814,11.2584337 C80.571331,11.3712511 80.758455,11.4381895 81.0524535,11.4588726 L80.1044584,13.8190125 C79.9019595,13.8690282 79.7148355,13.9066341 79.5438364,13.9280693 C79.3724622,13.9506328 79.2145881,13.9615385 79.0675888,13.9615385 C78.6280911,13.9615385 78.2800929,13.8791817 78.0247192,13.71146 C77.7678455,13.5444902 77.5964714,13.2853862 77.5060969,12.9352763 M64.7165354,5.73437077 C64.5554015,5.59886895 64.3757509,5.4823983 64.1535514,5.42340172 C63.9341097,5.34575462 63.7123042,5.30769231 63.4912867,5.30769231 C63.1296218,5.30769231 62.7876552,5.40398994 62.4464766,5.59886895 C62.1049042,5.79184485 61.7641195,6.08416337 61.4233349,6.45184526 L61.5635885,5.42340172 L58.7923991,5.42340172 L57.2440945,13.9615385 L60.0574387,13.9615385 L60.8205599,9.75146666 C60.9206284,9.14894034 61.1026429,8.7226425 61.3622695,8.43032398 C61.623078,8.14105045 61.9654385,8.00402615 62.3865931,8.00402615 C62.5674257,8.00402615 62.7482582,8.04284969 62.9294847,8.10184627 C63.0890427,8.15932036 63.2509647,8.23734809 63.3908243,8.33364572 L64.7165354,5.73437077 Z M43.759499,11.2731259 C43.844725,11.3769883 43.938359,11.4519367 44.0373434,11.501395 C44.1382388,11.5516142 44.2437203,11.5763434 44.3572276,11.5763434 C44.6927812,11.5763434 44.9805623,11.4043806 45.2224818,11.0593138 C45.4628726,10.7153882 45.6394396,10.2246096 45.7529468,9.58773869 C45.8656898,8.96152035 45.8614858,8.46579586 45.7422458,8.10018479 C45.6237702,7.73533461 45.4097497,7.5534802 45.1005665,7.5534802 C44.9866771,7.5534802 44.8685837,7.58543787 44.7459041,7.64973369 C44.6251354,7.71517084 44.4909904,7.81446792 44.3488196,7.95028805 L43.759499,11.2731259 Z M40,17.4230769 L42.1199493,5.44731693 L44.7149475,5.44731693 L44.6763474,6.11005833 C44.9618354,5.83385267 45.2499987,5.63183448 45.5343402,5.50172107 C45.8175351,5.37274901 46.1114311,5.30769231 46.413735,5.30769231 C47.2644664,5.30769231 47.8805397,5.70069568 48.2646299,6.48251748 C48.6468094,7.26586108 48.7220987,8.3094315 48.4924089,9.60942426 C48.2646299,10.9029494 47.7964601,11.9522265 47.0905748,12.7557339 C46.385836,13.5592413 45.6004573,13.9617559 44.7413179,13.9617559 C44.4443645,13.9617559 44.18754,13.90583 43.9708442,13.7951194 C43.7541484,13.6832676 43.5653518,13.5109243 43.405983,13.2780898 L42.669141,17.4230769 L40,17.4230769 Z M53.8326695,8.28722994 C53.8457177,8.22851105 53.8500671,8.16106367 53.8500671,8.08290406 L53.8500671,7.87857816 C53.8500671,7.76034688 53.8409729,7.63299035 53.824366,7.49690534 C53.8065729,7.36042358 53.7642647,7.23227355 53.7006048,7.11443902 C53.6345725,6.99501748 53.5507471,6.89741715 53.4431973,6.82044779 C53.3372293,6.74308167 53.1960705,6.70499374 53.0177436,6.70499374 C52.9588285,6.70499374 52.8722353,6.71689622 52.7599407,6.74109793 C52.6480417,6.76410939 52.530607,6.82917628 52.406055,6.93629858 C52.2818984,7.04223065 52.1605097,7.20291411 52.0422842,7.41636524 C51.9256402,7.62941961 51.8366745,7.9198401 51.7781549,8.28722994 L53.8326695,8.28722994 Z M51.5642418,9.97777871 C51.5531705,10.0361009 51.5401221,10.1194182 51.5290509,10.225747 C51.5179796,10.3328693 51.5112577,10.4280892 51.5112577,10.510613 C51.5112577,10.9494177 51.6571615,11.2576919 51.9454104,11.4354356 C52.2364271,11.6135761 52.581614,11.7024479 52.9825527,11.7024479 C53.5970092,11.7024479 54.1826012,11.6223046 54.7381426,11.4628113 C55.2928932,11.3025246 55.801777,11.080345 56.2620261,10.7946855 L55.960729,12.9653009 C55.7954505,13.0847224 55.5945857,13.202557 55.3569484,13.321185 C55.1208927,13.4402098 54.8543911,13.5465387 54.5594203,13.6413617 C54.2644497,13.735788 53.9520811,13.8127575 53.6211288,13.8726666 C53.2909672,13.932179 52.9477573,13.9615385 52.5926853,13.9615385 C52.0023485,13.9615385 51.465391,13.8667153 50.9802313,13.6770691 C50.4962579,13.487423 50.0775261,13.2140628 49.7295713,12.8585754 C49.3816166,12.503088 49.1103701,12.0670605 48.9146455,11.5516832 C48.7185256,11.0351156 48.6220472,10.4578454 48.6220472,9.81749199 C48.6220472,9.15333366 48.7224796,8.51615429 48.9237398,7.90516037 C49.1246046,7.2945632 49.4144351,6.75220691 49.7912542,6.2780915 C50.1700504,5.80397608 50.6263456,5.42706425 51.1565812,5.14775274 C51.6895845,4.87002823 52.2917835,4.73076923 52.965155,4.73076923 C53.6393173,4.73076923 54.2114656,4.82876631 54.6851586,5.02436372 C55.156479,5.21956437 55.5416017,5.49847913 55.8365724,5.85991774 C56.1319386,6.22214985 56.3438746,6.66650906 56.4759393,7.19378888 C56.603259,7.72146545 56.6692913,8.31777964 56.6692913,8.98114447 C56.6692913,9.18308986 56.6629649,9.35765955 56.6514982,9.50564704 C56.6412177,9.65403128 56.6234246,9.81154075 56.5989096,9.97777871 L51.5642418,9.97777871 Z M36.4789748,5.59537501 L36.7610736,8.35425002 C36.786851,8.614125 36.7995581,8.8605 36.7995581,9.09712502 C36.7995581,9.33525 36.7879402,9.563625 36.7654303,9.78712504 L36.9082043,9.39571875 C36.9318033,9.33271875 36.9552889,9.27082035 36.9786382,9.21000004 L37.1029614,8.89419004 L37.1029614,8.89419004 L37.2083655,8.64168002 L37.2083655,8.64168002 L38.573477,5.59537501 L41.1726348,5.59537501 L35.5499002,17.435625 L33.1453434,17.435625 L34.8891281,13.624875 L33.7298725,5.59537501 L36.4789748,5.59537501 Z M27.2454954,3.62500001 L26.6075869,7.50658294 L29.2930278,7.50658294 L29.9302208,3.62500001 L32.9390881,3.62500001 L31.2067533,14.1875 L28.1964549,14.1875 L28.8933959,9.93690236 L26.2086705,9.93690236 L25.5099407,14.1875 L22.5,14.1875 L24.235197,3.62500001 L27.2454954,3.62500001 Z" id="LNB" fill="#000000" fill-rule="nonzero"></path>
            <g id="Icon">
                <polygon id="Polygon" fill="url(#linearGradient-1)" points="7.875 0 15.75 4.5 15.75 13.5 7.875 18 5.15994988e-15 13.5 0 4.5"></polygon>
                <g id="+logo" transform="translate(0.000000, 1.000000)">
                    <g id="Group-15" transform="translate(0.549356, 0.370000)">
                        <mask id="mask-3" fill="white">
                            <use xlink:href="#path-2"></use>
                        </mask>
                        <use id="Combined-Shape" fill="#FFFFFF" fill-rule="nonzero" xlink:href="#path-2"></use>
                        <polygon id="Path-10" fill="#0D73F7" opacity="0.401296706" mask="url(#mask-3)" points="8.30615062 7.02419231 13.8519484 3.794195 15.0841385 4.7036011 15.0841385 11.8078051 7.99834746 15.2749156 7.46064407 8.23880098"></polygon>
                        <polygon id="Path-10" fill="url(#linearGradient-4)" opacity="0.299214681" mask="url(#mask-3)" points="5.91124076 6.41549631 0.365442952 3.185499 -0.0999999266 4.18288449 -0.0999999266 11.2870885 7.65499197 16.285666 7.9593398 7.64545293"></polygon>
                    </g>
                </g>
            </g>
        </g>
    </g>
</svg>