<?xml version="1.0" encoding="UTF-8"?>
<svg width="137px" height="26px" viewBox="0 0 137 26" version="1.1" xmlns="http://www.w3.org/2000/svg" xmlns:xlink="http://www.w3.org/1999/xlink">
    <title>logo_copyright</title>
    <g id="Ch1_1step_Login" stroke="none" stroke-width="1" fill="none" fill-rule="evenodd">
        <g id="Ch1_1step_Login02" transform="translate(-891.000000, -975.000000)">
            <g id="bg" transform="translate(0.000000, -34.000000)">
                <g id="logo_copyright" transform="translate(808.000000, 1009.000000)">
                    <path d="M198,15.0732793 C197.459715,17.4592275 196.64591,19.2896201 194.41639,21.516611 L196.962484,25.6272453 L191.487876,25.6272453 L190.742452,24.3810205 C189.572397,25.0716897 188.014856,26 184.908217,26 C183.419056,26 180.490542,25.7075187 179.474975,23.5862343 C179.205677,23.0028612 178.821568,21.9140041 179.092554,20.3776824 C179.678426,17.1134955 182.336798,15.9189318 183.846219,15.2314417 C183.260347,14.4891114 181.997431,12.9766333 182.428815,10.6693689 C183.012998,7.37815928 186.123014,6 189.367257,6 C190.925642,6 195.252144,6.32029884 194.438339,10.72103 C193.968123,13.4010491 192.049266,14.7267525 190.449516,15.840248 L192.299148,18.5472898 C193.718241,16.8758544 193.968123,15.6010173 194.100661,15.0732793 L198,15.0732793 Z M186.280879,18.0680337 C184.524108,18.9168654 183.959341,19.6870132 183.801477,20.5096169 C183.622507,21.4903831 184.163636,22.7374026 185.987943,22.7374026 C186.867595,22.7374026 187.903422,22.4186934 188.669952,21.5698617 L186.280879,18.0680337 Z M190.270546,10.483389 C190.449516,9.47480528 189.774159,8.91845494 188.871715,8.91845494 C187.924527,8.91845494 187.070201,9.5542839 186.891232,10.483389 C186.823696,10.9324432 186.777266,11.4641551 188.061287,13.0012717 C188.489294,12.7628358 190.043458,11.7574313 190.270546,10.483389 L190.270546,10.483389 Z" id="Fill-2" fill="#042A54"></path>
                    <path d="M213.305275,11.5061751 C213.501971,9.46097353 212.21,8.70597703 210.610377,8.70597703 C207.220319,8.70597703 205.536638,11.8123682 204.748174,15.5084954 C204.469942,16.7408175 203.428464,21.8362049 207.780145,21.8362049 C210.752435,21.8362049 211.508116,19.6794316 211.78971,18.8950742 L217.624174,18.8950742 C216.249826,25.2236225 209.68658,25.7554756 207.049681,25.7554756 C205.085246,25.7554756 201.692667,25.4199216 199.925768,23.068527 C198.211826,20.7146157 198.522841,17.495814 198.969188,15.395246 C199.559275,12.6252477 200.794087,9.85189393 203.150232,7.69679839 C205.72913,5.34540375 208.534986,4.72966217 211.482058,4.72966217 C214.762841,4.72966217 217.093768,5.51318075 218.32858,7.19346739 C219.59029,8.92912044 219.223797,10.748662 219.085942,11.5061751 L213.305275,11.5061751 Z" id="Fill-4" fill="#042A54"></path>
                    <polygon id="Fill-7" fill="#042A54" points="90.2079055 11.3743067 85 11.3743067 86.2080767 6 105 6 103.790212 11.3743067 98.5788843 11.3743067 95.2985969 26 86.9276181 26"></polygon>
                    <path d="M107.453575,14.6564356 L107.507311,14.6564356 C108.858974,12.7861469 110.804212,12.0814959 112.842867,12.0814959 C114.501238,12.0814959 116.189371,12.950785 116.412581,14.6004586 C117.679094,12.9738343 119.755777,12.051861 121.806007,12 C124.739157,12 126.511613,13.897454 125.868437,16.9012759 L123.930639,26 L118.763731,26 L120.466744,18.0101135 C120.697395,16.6856 120.678381,15.2499559 119.073746,15.2499559 C116.520053,15.2499559 116.24476,18.038102 116.211692,18.2002705 L114.547534,26 L109.380625,26 L111.088599,18.0101135 C111.315943,16.6856 111.297755,15.2499559 109.69312,15.2499559 C107.139427,15.2499559 106.870748,18.038102 106.833546,18.2002705 L105.169388,26 L100,26 L102.160181,15.8978068 C102.418113,14.6819545 102.56692,13.8719351 102.741355,12.410772 L107.853701,12.410772 L107.453575,14.6564356 Z" id="Fill-11" fill="#042A54"></path>
                    <path d="M140.045163,25.6102218 C140.209864,24.0270981 140.228638,23.4524354 140.35835,22.8961811 L141.894419,16.105877 C142.624905,13.1301166 139.426469,12 136.567674,12 C134.996617,12 133.13968,12.1568717 131.533635,12.7899611 C129.966845,13.3950377 128.679107,14.476332 128.284849,16.3459867 L133.311208,16.3459867 C133.460548,15.5536245 134.150072,14.3706837 135.453171,14.31866 C137.605374,14.2386234 136.939744,15.9233936 136.676905,17.081523 L134.996617,17.081523 C130.392677,17.081523 126.948469,18.3997256 126.166781,21.6083924 C125.495178,24.320032 126.854598,26 130.196402,26 C132.836733,26 134.320746,24.7650354 135.180945,23.8150011 L135.240681,23.8150011 C135.020511,24.7650354 134.924934,25.1876286 134.944561,25.6102218 L140.045163,25.6102218 Z M131.386002,21.3682826 C131.595078,20.4478619 132.316177,19.975646 133.190029,19.6074777 C133.996465,19.26252 135.049526,19.3177453 136.167443,19.3177453 C135.773185,21.0809513 135.118649,23.1066773 132.815399,23.1066773 C131.805007,23.1066773 131.167538,22.3191173 131.386002,21.3682826 L131.386002,21.3682826 Z" id="Fill-13" fill="#042A54"></path>
                    <polygon id="Fill-15" fill="#042A54" points="146.5093 26 141 26 147.378553 19.2102011 144.594525 13 150.818409 13 151.710128 16.9831597 154.544272 13 160 13 154.172723 19.2102011 157.425076 26 151.113057 26 149.988039 21.1820935"></polygon>
                    <path d="M168.761362,6 L158,26 L162.91379,26 L164.879771,21.9845592 L171.980394,21.9845592 L172.444574,26 L178,26 L174.755395,6 L168.761362,6 Z M170.749816,9.90337041 L170.824209,9.90337041 L171.539463,18.2986884 L166.722539,18.2986884 L170.749816,9.90337041 Z" id="Fill-1" fill="#042A54"></path>
                    <polygon id="Fill-9" fill="#E21B23" points="92.9024672 9 83 9 85.0871447 0 95 0"></polygon>
                </g>
            </g>
        </g>
    </g>
</svg>