<?xml version="1.0" encoding="UTF-8"?>
<svg width="126px" height="135px" viewBox="0 0 126 135" version="1.1" xmlns="http://www.w3.org/2000/svg" xmlns:xlink="http://www.w3.org/1999/xlink">
    <title>Illust/email/secession/cancel</title>
    <defs>
        <polygon id="path-1" points="1.42480783 4.45478912 9.09494702e-13 0.454789121 25.2854525 0.454789121 24.0212059 4.45478912"></polygon>
        <path d="M6.40685249,1.96010379 C1.67043551,19.1648619 -0.439850405,28.9490692 0.0759947468,31.3127256 C0.591839899,33.676382 6.02798737,34.4763803 16.3844372,33.7127205 L16.7862695,27.9627442 L18.8613088,34.8582102 L36.8700977,32.0248769 C33.6940076,12.942852 30.9864545,2.76177032 28.7474383,1.48163193 C26.508422,0.201493537 19.0615601,0.360984159 6.40685249,1.96010379 Z" id="path-3"></path>
        <path d="M12.6455792,1.49608655 L13.3225833,1.73055857 C16.6876749,2.89601646 15.7235244,8.75817923 14.4987313,11.9602485 L15.426255,14.6586248 C14.2014618,17.8606941 10.4806252,19.5116938 7.11553363,18.3462359 L6.4385295,18.1117639 C4.27143305,17.3612168 2.90655643,15.9330773 2.70885261,14.1166346 C2.61746101,13.2769564 2.62700015,12.4956915 2.73747002,11.7728399 C2.45586063,11.5765864 2.07137721,11.9117825 1.74891492,11.8459916 C1.29836138,11.7540667 0.212521441,10.9730188 2.25313935,10.2837074 L2.25313935,10.2837074 L3.18522858,9.81280908 C3.21815144,9.70177191 3.25095165,9.6035376 3.28362923,9.51810614 L4.3076069,3.64260804 C5.53240005,0.440538813 9.28048769,0.330628663 12.6455792,1.49608655 Z" id="path-5"></path>
    </defs>
    <g id="ch01_Login" stroke="none" stroke-width="1" fill="none" fill-rule="evenodd">
        <g id="Ch4_Sign_Out_06" transform="translate(-874.000000, -480.000000)">
            <g id="Illust/email/secession/cancel" transform="translate(874.000000, 480.000000)">
                <g id="Group-18" transform="translate(7.000000, 0.000000)">
                    <g id="+screen" opacity="0.5">
                        <rect id="Rectangle" stroke="#CDD3DD" fill="#FFFFFF" x="0.5" y="0.5" width="57" height="38" rx="1"></rect>
                        <rect id="Rectangle" fill="#C0CAD8" x="6.6557377" y="10.2903226" width="10.4590164" height="1.87096774" rx="0.935483871"></rect>
                        <rect id="Rectangle-Copy-2" fill="#C0CAD8" x="6.6557377" y="14.9677419" width="32.3278689" height="1.87096774" rx="0.935483871"></rect>
                        <rect id="Rectangle-Copy-14" fill="#C0CAD8" x="6.6557377" y="20" width="32.3278689" height="1.87096774" rx="0.935483871"></rect>
                        <path d="M2,0 L56,0 C57.1045695,-4.1271253e-15 58,0.8954305 58,2 L58,6.5483871 L58,6.5483871 L0,6.5483871 L0,2 C-1.3527075e-16,0.8954305 0.8954305,2.02906125e-16 2,0 Z" id="Rectangle" fill="#C0CAD8"></path>
                    </g>
                    <g id="+screen" transform="translate(42.000000, 15.000000)">
                        <path d="M1,0 L67,0 C67.5522847,-1.01453063e-16 68,0.44771525 68,1 L68,46 C68,46.5522847 67.5522847,47 67,47 L1,47 C0.44771525,47 6.76353751e-17,46.5522847 0,46 L0,1 C-6.76353751e-17,0.44771525 0.44771525,1.01453063e-16 1,0 Z" id="Rectangle" fill="#CDD3DD"></path>
                        <path d="M2,0 L66,0 C67.1045695,-2.02906125e-16 68,0.8954305 68,2 L68,6.60377358 L68,6.60377358 L0,6.60377358 L0,2 C-1.3527075e-16,0.8954305 0.8954305,1.09108455e-15 2,0 Z" id="Rectangle" fill="#C0CAD8"></path>
                        <path d="M4.25,1.88679245 C5.0324034,1.88679245 5.66666667,2.52035177 5.66666667,3.30188679 C5.66666667,4.08342182 5.0324034,4.71698113 4.25,4.71698113 C3.4675966,4.71698113 2.83333333,4.08342182 2.83333333,3.30188679 C2.83333333,2.52035177 3.4675966,1.88679245 4.25,1.88679245 Z M8.02777778,1.88679245 C8.81018117,1.88679245 9.44444444,2.52035177 9.44444444,3.30188679 C9.44444444,4.08342182 8.81018117,4.71698113 8.02777778,4.71698113 C7.24537438,4.71698113 6.61111111,4.08342182 6.61111111,3.30188679 C6.61111111,2.52035177 7.24537438,1.88679245 8.02777778,1.88679245 Z M11.8055556,1.88679245 C12.587959,1.88679245 13.2222222,2.52035177 13.2222222,3.30188679 C13.2222222,4.08342182 12.587959,4.71698113 11.8055556,4.71698113 C11.0231522,4.71698113 10.3888889,4.08342182 10.3888889,3.30188679 C10.3888889,2.52035177 11.0231522,1.88679245 11.8055556,1.88679245 Z" id="Combined-Shape" fill="#FFFFFF"></path>
                    </g>
                </g>
                <g id="Group-15" transform="translate(23.000000, 18.000000)">
                    <circle id="Oval" fill="#FBCC92" cx="7.5" cy="6.5" r="1"></circle>
                    <circle id="Oval-Copy-2" fill="#FBCC92" cx="11.5" cy="6.5" r="1"></circle>
                    <circle id="Oval-Copy-5" fill="#FBCC92" cx="15.5" cy="6.5" r="1"></circle>
                    <path d="M21.7063935,30.8008462 C20.8652253,30.8008462 7.1964936,28.1909005 12.0331269,32.394301 C16.8697602,36.5977016 17.3170915,29.3398619 18.5535344,36.5977016 C19.7899774,43.8555412 21.8126028,54.7776203 27.6885388,51.3517938 C31.6058296,49.0679094 35.3763166,44.1498787 39,36.5977016 L31.248726,31.6744975 L26.2715912,39.7248291 C23.7889049,33.7755072 22.2671723,30.8008462 21.7063935,30.8008462 Z" id="Path-68" fill="#F78C71"></path>
                    <path d="M55.2109089,22 L62.9571721,27.2831537 C60.2464681,35.183364 58.2568513,40.9018737 56.9883219,44.4386827 L56.7460841,47.9184489 L34.2191192,50.8276664 L32.0469503,32.0344987 C31.6030627,28.1940732 34.3565008,24.7209513 38.1969262,24.2770638 C38.4637261,24.2462263 38.7320796,24.2307692 39.0006557,24.2307692 L50.889956,24.2307692 C51.7341365,24.2307692 52.543415,24.3802029 53.2927822,24.6540611 L55.2109089,22 Z" id="Combined-Shape" fill="#2EADCB"></path>
                    <path d="M62.9124514,27 L72.7011681,7.70977012 C74.9003894,7.42504943 76,6.15648002 76,3.90406189 C76,0.525434695 67.0387064,-2.44114452 67.0387064,3.02495743 C67.0387064,6.66902541 63.0258042,12.8935146 55,21.6984249 L62.9124514,27 Z" id="Path-63" fill="#F78C71"></path>
                    <g id="Group-14" transform="translate(32.000000, 45.000000)">
                        <g id="Group-16" transform="translate(0.000000, 0.500000)">
                            <mask id="mask-2" fill="white">
                                <use xlink:href="#path-1"></use>
                            </mask>
                            <use id="Path-64" fill="#CB0D61" xlink:href="#path-1"></use>
                            <line x1="-0.5" y1="1.2" x2="25.5" y2="1.2" id="Path-75" stroke="#070A0D" stroke-width="1.5" stroke-linecap="round" mask="url(#mask-2)"></line>
                        </g>
                    </g>
                    <polygon id="Path-66" fill="#F78C71" points="29 79 30.1029997 111 38.6356389 111 43 79.9192881"></polygon>
                    <path d="M27.9532821,112.776149 L28.0576161,112.770991 L28.0576161,112.770991 C29.298856,112.786797 29.919476,112.65971 29.919476,112.389731 C29.919476,112.031497 29.7609572,108.929713 29.919476,108.929713 C31.8835292,108.929713 34.9103705,109.161199 39,109.624171 L38.4548773,116.929713 L24,116.929713 C24,114.712785 25.7390593,112.885622 27.9532821,112.776149 Z" id="Rectangle" fill="#2C416A"></path>
                    <path d="M47,82.0067404 C48.8208511,94.8206739 54.0115855,99.9346343 62.5722031,97.3486216 C71.1328207,94.7626088 75.9420864,89.3449018 77,81.0955004 L70.9986662,76.938239 C65.00187,85.5176171 61.7413422,86.6543067 61.2170827,80.3483079 C60.6928232,74.042309 55.9537956,74.5951199 47,82.0067404 Z" id="Path-70" fill="#F78C71"></path>
                    <path d="M73.6888628,78.862441 L73.9339062,78.850867 L73.9339062,78.850867 C75.6116065,78.6314393 76.450397,78.39092 76.4502774,78.1293092 C76.4501189,77.7821797 76.1859063,74.7939666 76.75768,75.0173361 C78.3437914,75.6369673 81.0557856,76.2035576 84.8936626,76.7171069 L84.3808472,82.8854628 L69.8594616,82.8788192 C69.858481,80.7321874 71.5446212,78.9637185 73.6888628,78.862441 Z" id="Rectangle" fill="#2C416A" transform="translate(77.375686, 78.945444) rotate(-164.000000) translate(-77.375686, -78.945444) "></path>
                    <g id="Group-13" transform="translate(27.000000, 48.000000)">
                        <mask id="mask-4" fill="white">
                            <use xlink:href="#path-3"></use>
                        </mask>
                        <use id="Path-65" fill="#CB0D61" xlink:href="#path-3"></use>
                        <line x1="5.08668517" y1="3" x2="31.9957761" y2="3" id="Path-74" stroke="#060A0D" stroke-width="1.5" mask="url(#mask-4)"></line>
                        <path d="M23.1455175,3.71236976 C24.4422326,12.1178809 26.9154013,15.8478512 30.5650236,14.9022806" id="Path-76" stroke="#060A0D" stroke-width="1.5" stroke-linecap="round" mask="url(#mask-4)"></path>
                        <polyline id="Path-77" stroke="#060A0D" stroke-width="1.5" mask="url(#mask-4)" points="-9.09494702e-13 28.7987682 16.9788509 31.0821955 38.1366654 28.7987682"></polyline>
                    </g>
                    <polygon id="Path-67" fill="#2EADCB" points="33.2593139 27.2781772 26 38.4302771 34 45"></polygon>
                    <polygon id="Path-69" fill="#83314E" points="1 29 2.20732616 31 19.8010474 31 21 29"></polygon>
                    <rect id="Rectangle" fill="#000000" x="0" y="28" width="22" height="1" rx="0.5"></rect>
                    <rect id="Rectangle" fill="#D8D8D8" x="7" y="8" width="1" height="7" rx="0.5"></rect>
                    <rect id="Rectangle-Copy-4" fill="#D8D8D8" x="11" y="8" width="1" height="7" rx="0.5"></rect>
                    <rect id="Rectangle-Copy-10" fill="#D8D8D8" x="15" y="8" width="1" height="7" rx="0.5"></rect>
                    <path d="M5,13 L17,13 C18.1045695,13 19,13.8954305 19,15 L19,28 L19,28 L3,28 L3,15 C3,13.8954305 3.8954305,13 5,13 Z" id="Rectangle" fill="#CB0D61"></path>
                    <polygon id="Rectangle" fill="#FBCC92" points="3 20 19 20 19 28 3 28"></polygon>
                    <polygon id="Rectangle" fill="#CB0D61" points="3 23 19 23 19 24 3 24"></polygon>
                    <polygon id="Rectangle-Copy-11" fill="#CB0D61" points="3 25 19 25 19 26 3 26"></polygon>
                    <g id="Group-12" transform="translate(48.177361, 17.555341) rotate(12.000000) translate(-48.177361, -17.555341) translate(39.677361, 7.555341)">
                        <mask id="mask-6" fill="white">
                            <use xlink:href="#path-5"></use>
                        </mask>
                        <use id="Combined-Shape" fill="#F78C71" transform="translate(8.343780, 9.768987) rotate(7.000000) translate(-8.343780, -9.768987) " xlink:href="#path-5"></use>
                        <ellipse id="Oval" fill="#1F0C13" mask="url(#mask-6)" cx="4.27631672" cy="9.65824213" rx="1" ry="1"></ellipse>
                        <path d="M5.98286974,15.9399459 C6.12600022,15.7993527 6.35600369,15.8014096 6.49659688,15.9445401 C6.50362745,15.9516976 6.5103585,15.9591432 6.51677271,15.9668579 L11.9601939,22.5139175 C12.6534692,23.3477524 12.5395231,24.5857199 11.7056881,25.2789951 C11.353076,25.5721674 10.908971,25.7326733 10.4504022,25.7326733 C8.09960276,25.7326733 6.15603009,23.9007162 6.01715855,21.5540222 L5.72461456,16.6105241 C5.70980031,16.3601883 5.80396731,16.1156769 5.98286974,15.9399459 Z" id="Rectangle" fill="#F78C71" mask="url(#mask-6)"></path>
                    </g>
                    <path d="M51.4103998,7.99993482 C51.6172172,8.00061906 51.825976,8.0014787 52.0358981,8.0014787 C55.1847303,8.0014787 57.7373631,10.5197391 57.7373631,13.6261706 C57.7373631,13.8629466 57.7225331,14.0963055 57.6937395,14.3253926 C58.5583044,13.8781788 59.5433684,13.6261706 60.5880956,13.6261706 C64.0518109,13.6261706 66.859707,16.396257 66.859707,19.8133318 C66.859707,21.3278645 66.3081005,22.7152974 65.3922705,23.7907707 C66.9715386,24.9137437 68,26.7448035 68,28.8128389 C68,32.2299136 65.1921039,35 61.7283885,35 C58.8391969,35 56.4063074,33.0726455 55.6787137,30.4501117 C55.4201092,30.4835745 55.1553434,30.5002464 54.8866306,30.5002464 C51.4229152,30.5002464 48.6150191,27.7301601 48.6150191,24.3130853 C48.6150191,22.3236773 49.5667624,20.5535675 51.0455649,19.4217215 C50.6834188,19.130964 50.1743535,18.8154543 49.5192347,18.4766774 C47.0777964,17.214154 45.9114407,14.8469186 46.0201675,11.3749711 C46.0066182,11.2168234 46,11.0632234 46,10.9144912 C46,8.2222505 48.1685073,8.00856429 50.7965491,7.99944336 Z" id="Combined-Shape" fill="#000000"></path>
                    <circle id="Oval" fill="#F78C71" cx="50" cy="19" r="2"></circle>
                    <path d="M51,9.07533668 C51.5042775,10.2729944 52.1007469,11.1381182 52.7894082,11.670708 C53.4780695,12.2032978 54.573186,12.6463951 56.0747576,13 L58,5 L51,9.07533668 Z" id="Path-71" fill="#FCD28B"></path>
                    <circle id="Oval" fill="#CD1767" cx="59.5" cy="4.5" r="1.5"></circle>
                    <line x1="32.75" y1="38.75" x2="34.25" y2="46.25" id="Path-73" stroke="#060A0D" stroke-width="1.5" stroke-linecap="round"></line>
                </g>
                <g id="+bubble" transform="translate(112.000000, 45.500000) scale(-1, 1) translate(-112.000000, -45.500000) translate(98.000000, 39.000000)">
                    <path d="M25,0 C25.5522847,-1.01453063e-16 26,0.44771525 26,1 L25.9997398,5.49155058 C26.4254661,5.81699096 26.9705071,5.97971116 27.6348629,5.97971116 C28.4477704,5.97971116 27.9033413,6.23342686 26.0015754,6.74085826 L26,12 C26,12.5522847 25.5522847,13 25,13 L1,13 C0.44771525,13 6.76353751e-17,12.5522847 0,12 L0,1 C-6.76353751e-17,0.44771525 0.44771525,1.01453063e-16 1,0 L25,0 Z" id="Combined-Shape" fill="#6BB7D6"></path>
                    <circle id="Oval" fill="#F4F7FA" cx="21.5" cy="3.5" r="1.5"></circle>
                    <rect id="Rectangle" fill="#FFFFFF" x="12" y="2" width="7" height="1" rx="0.5"></rect>
                    <rect id="Rectangle-Copy-10" fill="#FFFFFF" opacity="0.5" x="2" y="4" width="17" height="1" rx="0.5"></rect>
                    <rect id="Rectangle-Copy-11" fill="#FFFFFF" opacity="0.5" x="2" y="6" width="21" height="1" rx="0.5"></rect>
                    <rect id="Rectangle-Copy-14" fill="#FFFFFF" opacity="0.5" x="2" y="8" width="21" height="1" rx="0.5"></rect>
                    <rect id="Rectangle-Copy-15" fill="#FFFFFF" opacity="0.5" x="2" y="10" width="21" height="1" rx="0.5"></rect>
                </g>
                <g id="+bubble-copy" transform="translate(0.000000, 64.000000)">
                    <path d="M30,0 C30.5522847,-1.01453063e-16 31,0.44771525 31,1 L30.999372,5.77715041 C31.4379525,5.91219091 31.9425453,5.97971116 32.5131505,5.97971116 C33.4952848,5.97971116 32.9914551,6.18803035 31.0016615,6.60466874 L31,12 C31,12.5522847 30.5522847,13 30,13 L1,13 C0.44771525,13 6.76353751e-17,12.5522847 0,12 L0,1 C-6.76353751e-17,0.44771525 0.44771525,1.01453063e-16 1,0 L30,0 Z" id="Combined-Shape" fill="#203E6A"></path>
                    <circle id="Oval" fill="#F4F7FA" opacity="0.5" cx="26.5" cy="3.5" r="1.5"></circle>
                    <rect id="Rectangle" fill="#FFFFFF" opacity="0.5" x="11" y="2" width="12" height="1" rx="0.5"></rect>
                    <rect id="Rectangle-Copy-10" fill="#FFFFFF" opacity="0.5" x="3" y="4" width="20" height="1" rx="0.5"></rect>
                    <rect id="Rectangle-Copy-11" fill="#FFFFFF" opacity="0.5" x="3" y="6" width="25" height="1" rx="0.5"></rect>
                    <rect id="Rectangle-Copy-14" fill="#FFFFFF" opacity="0.5" x="3" y="8" width="25" height="1" rx="0.5"></rect>
                    <rect id="Rectangle-Copy-15" fill="#FFFFFF" opacity="0.5" x="3" y="10" width="25" height="1" rx="0.5"></rect>
                </g>
            </g>
        </g>
    </g>
</svg>