<?xml version="1.0" encoding="UTF-8"?>
<svg width="111px" height="151px" viewBox="0 0 111 151" version="1.1" xmlns="http://www.w3.org/2000/svg" xmlns:xlink="http://www.w3.org/1999/xlink">
    <title>Illust/email/secession_success</title>
    <defs>
        <path d="M24.5393301,62.2056871 C24.7492205,62.1963921 24.8186381,62.0555381 24.747583,61.7831251 L24.7003494,61.6359554 C24.6905262,61.6095999 24.6797274,61.5823308 24.6679531,61.5541481 L24.5856013,61.3740886 L24.4798374,61.1721027 C24.4602591,61.1366111 24.4397052,61.100206 24.4181759,61.0628872 L24.2772938,60.8280115 L24.1129996,60.5712093 L23.9252933,60.2924806 L23.7141748,59.9918254 L23.4796443,59.6692437 L23.0839507,59.144259 L22.6355798,58.5699397 L22.1345317,57.9462858 L21.7712344,57.5031084 L21.1823908,56.7972301 L20.3153236,55.7793163 L19.3546079,54.6736965 L18.0220201,53.1683353 L16.8505953,51.865377 C14.8532053,49.6572018 12.1120027,46.2404811 8.62698761,41.615215 C3.1982832,33.729266 0.483931001,27.425951 0.483931001,22.70527 C0.483931001,9.72657842 11.0052394,0.205270044 23.983931,0.205270044 L30.983931,0.205270044 C43.9626226,0.205270044 54.483931,9.72657842 54.483931,22.70527 C54.483931,27.425951 51.8076956,33.72899 46.4552247,41.614387 C42.8939761,46.2402051 40.1146567,49.6572018 38.1172667,51.865377 L37.2299185,52.8508181 L36.1287301,54.0879969 L34.8839378,55.5111338 L34.2072987,56.2992364 L33.5833369,57.0380045 L33.1966276,57.5031084 L32.6604613,58.159652 L32.1769722,58.7668611 L31.8839113,59.144259 L31.4882178,59.6692437 L31.2536872,59.9918254 L31.0425687,60.2924806 L30.8548624,60.5712093 L30.6905682,60.8280115 L30.5496861,61.0628872 L30.4322161,61.2758365 C30.4145888,61.3095008 30.397937,61.3422515 30.3822607,61.3740886 L30.2999089,61.5541481 C30.2881346,61.5823308 30.2773358,61.6095999 30.2675126,61.6359554 L30.220279,61.7831251 C30.1492239,62.0555381 30.2186415,62.1963921 30.4285319,62.2056871 L24.5393301,62.2056871 Z" id="path-1"></path>
    </defs>
    <g id="ch01_Login" stroke="none" stroke-width="1" fill="none" fill-rule="evenodd">
        <g id="Ch4_Sign_Out_06" transform="translate(-879.000000, -529.000000)">
            <g id="Illust/email/secession_success" transform="translate(879.000000, 529.000000)">
                <g id="Group-14" transform="translate(56.000000, 0.000000)">
                    <g id="Group-15" transform="translate(0.000000, 0.000000)">
                        <mask id="mask-2" fill="white">
                            <use xlink:href="#path-1"></use>
                        </mask>
                        <use id="Path" fill="#0E9FAA" xlink:href="#path-1"></use>
                        <path d="M25.5662417,61.70527 C18.0190766,48.5434841 14.0748847,41.8760898 13.7336662,41.703087 C13.5011217,41.5851836 8.49546782,35.2457146 6.96775789,26.2323478 C5.13299446,15.40739 7.98595006,1.50300838 25.7583752,0.267049209 C58.3289535,-1.99802744 51.0023788,30.4519366 42.5645068,42.20527 C34.1266348,53.9586034 34.0695286,54.0009026 29.483931,61.70527 C26.4268659,66.841515 25.1209695,66.841515 25.5662417,61.70527 Z" id="Path-92" fill="#90DDE1" opacity="0.497811454" mask="url(#mask-2)"></path>
                        <path d="M27.983931,61.70527 L26.5087544,61.70527 C23.7086313,49.7031136 21.272536,41.6372755 19.2004686,37.507756 C16.0923676,31.3134766 11.6540168,-0.0142342421 29.3805748,0.211943215 C47.1071328,0.438120672 42.7790046,28.2690459 40.5237079,36.1628682 C39.0201767,41.4254164 34.8402511,49.9395504 27.983931,61.70527 Z" id="Path-93" fill="#7FCAD1" opacity="0.600000024" mask="url(#mask-2)"></path>
                        <path d="M27.483931,-3.99159664 C31.4978536,23.0433068 31.3311869,45.4489737 26.983931,63.2254041 C22.6366751,81.0018344 10.6420314,62.6278178 -9,8.10335414 C-0.404887226,-0.178160762 4.75790333,-4.20981102 6.48837167,-3.99159664 C8.21884001,-3.77338226 15.2173598,-3.77338226 27.483931,-3.99159664 Z" id="Path-94" fill="#73E1EC" opacity="0.5" mask="url(#mask-2)"></path>
                    </g>
                    <polyline id="Path-91-Copy" stroke="#EE6F79" stroke-linecap="round" stroke-linejoin="round" points="24.483931 62.20527 25.5010771 64.2455381 28.4884438 64.2455381 29.483931 62.20527"></polyline>
                    <polyline id="Path-91" stroke="#EE6F79" stroke-linecap="round" stroke-linejoin="round" points="24.483931 66.20527 25.5010771 64.165002 28.4884438 64.165002 29.483931 66.20527"></polyline>
                    <path d="M24.483931,66.20527 L29.483931,66.20527 L29.483931,69.70527 C29.483931,69.9814124 29.2600734,70.20527 28.983931,70.20527 L24.983931,70.20527 C24.7077886,70.20527 24.483931,69.9814124 24.483931,69.70527 L24.483931,66.20527 L24.483931,66.20527 Z" id="Rectangle" fill="#F6949E"></path>
                    <rect id="Rectangle-Copy-3" fill="#FC515C" x="23.483931" y="66.20527" width="7" height="1" rx="0.5"></rect>
                    <rect id="Rectangle" fill="#FC515C" x="23.483931" y="61.20527" width="7" height="1" rx="0.5"></rect>
                </g>
                <g id="+사람" transform="translate(0.000000, 57.000000)">
                    <path d="M11.0725918,89.6070516 L11.261004,89.5980437 L11.261004,89.5980437 C13.3951665,88.6138722 15.2502846,88.0841105 16.8263585,88.0087588 C18.4024323,87.933407 19.341802,88.3053886 19.6444674,89.1247034 L20.3508138,91.5504805 C20.5052174,92.0807427 20.2005239,92.635774 19.6702617,92.7901776 C19.5794263,92.8166274 19.4852971,92.830053 19.3906892,92.830053 L8,92.830053 L8,92.830053 C8,91.107911 9.35241463,89.6892929 11.0725918,89.6070516 Z" id="Rectangle" fill="#4F7084" transform="translate(14.361702, 90.414646) scale(-1, 1) translate(-14.361702, -90.414646) "></path>
                    <g id="Group-8" transform="translate(35.744681, 1.728972)" fill="#FDBD9D">
                        <g id="Group-12" transform="translate(8.755319, 12.771028) scale(-1, 1) translate(-8.755319, -12.771028) translate(0.255319, 0.271028)">
                            <polygon id="Path-89" points="13.9212035 24.2537553 8.38712764 16.8571521 4.92465215 5.01007246 7.26528071 4.32675617 11.8596434 12.9130614 16.9379174 19.2359442"></polygon>
                            <path d="M8.100424,6.59943624 L9.295332,3.59648807 C9.37992713,3.38389028 9.27616048,3.14296782 9.0635627,3.05837269 C9.04379437,3.05050664 9.02344949,3.04417506 9.00270859,3.03943411 C8.71902454,2.97458973 8.42482368,3.09212527 8.26391171,3.33458924 L7.43607083,4.58198921 L7.43607083,4.58198921 L5.11811185,0.727998937 C4.99778233,0.527931206 4.73804905,0.463290613 4.53798132,0.583620131 C4.52565696,0.591032541 4.5137189,0.599069057 4.50221371,0.607698326 C4.28179049,0.773022985 4.20136527,1.06666933 4.30678624,1.3212377 L5.07568458,3.17795747 L5.07568458,3.17795747 L3.56203966,1.70723622 C3.33684356,1.4884262 2.97690549,1.49360313 2.75809547,1.71879922 C2.75275957,1.72429086 2.74753515,1.72988973 2.74242542,1.7355924 C2.52368318,1.97971804 2.54256802,2.35452139 2.78474114,2.57542336 L4.30269856,3.96005174 L4.30269856,3.96005174 L2.20416134,3.13955858 C1.96071603,3.04437551 1.68620349,3.16456581 1.59102042,3.40801112 C1.58030608,3.43541469 1.57217052,3.46375769 1.5667194,3.49267201 C1.50452539,3.82256714 1.67431759,4.15256348 1.97889365,4.29374532 L3.72605491,5.10361668 L3.72605491,5.10361668 L1.39637281,5.01698914 C1.14535604,5.00765527 0.934300137,5.20357797 0.924966261,5.45459474 C0.924756874,5.4602258 0.924652154,5.46586027 0.924652154,5.47149522 C0.924652154,5.72471718 1.12992911,5.92999414 1.38315107,5.92999414 C1.38536486,5.92999414 1.38757863,5.9299781 1.38979268,5.92998001 C2.42026601,5.91505258 3.19167104,6.01181993 3.70400778,6.22028209 C3.89523803,6.29809081 4.10388331,6.41323185 4.32994362,6.5657052 C5.46626066,7.33212576 6.95057762,7.34540554 8.100424,6.59943624 L8.100424,6.59943624 L8.100424,6.59943624 Z" id="Path-90"></path>
                        </g>
                    </g>
                    <path d="M4.19768502,59.243002 C5.13957148,59.243002 6.24989836,59.0065435 5.66313341,58.1156685 C5.64267421,58.0846057 4.97039133,57.2900319 4.95120448,57.260205 C4.19701719,56.0877846 4.23438038,55.7420874 4.52136206,55.7991456 C4.80834374,55.8562037 5.03390815,56.4570308 5.46808511,56.2429907 C5.90226206,56.0289505 4.46787019,54 3.23404255,54 C2.00021492,54 1.38978979,54.6828613 1.38978979,55.9216309 C1.38978979,56.4658721 1.1930613,57.2862007 1.514175,57.6746277 C1.92396115,58.170315 3.50592748,59.243002 4.19768502,59.243002 Z" id="Oval-Copy-6" fill="#FDBD9D"></path>
                    <path d="M28.9731265,90.7412643 L28.9731265,90.7412643 L28.9731265,90.7412643 L29.3291379,89.557834 L36.3860718,90.411215 L36.8510638,94 L26.1276596,94 L26.1276596,93.7752206 C26.1276596,92.1717693 27.3729679,90.8439693 28.9731265,90.7412643 Z" id="Rectangle" fill="#4F7084" transform="translate(31.489362, 91.778917) scale(-1, 1) translate(-31.489362, -91.778917) "></path>
                    <circle id="Oval" fill="#040170" cx="25.5" cy="8.5" r="3.5"></circle>
                    <path d="M22.2537792,5.00786906 C25.1739336,5.61569404 27.0484469,8.4756864 26.4406219,11.3958408 L26.4281806,11.4540052 L26.4281806,11.4540052 L25.809181,14.2708363 C26.4314559,14.4275814 27.1706685,14.7592612 26.4927675,15.3942357 C26.0714633,15.7888618 25.7216615,15.9710092 25.4433623,15.9406779 L25.252007,16.8083857 C24.722632,19.2182978 22.5640433,20.8498712 20.1874163,20.8002448 C18.9005392,23.4581541 15.9677646,25.0570729 12.913684,24.5246561 L12.6884067,24.4814483 L12.6884067,24.4814483 L12.4647184,24.4306514 C13.1372015,19.0175664 13.7371068,15.0563973 14.2644344,12.5471441 L14.320656,12.2838513 L14.320656,12.2838513 C14.4882111,11.5119154 14.9162697,10.8631398 15.4928778,10.4102239 L15.7495323,9.23139908 C16.390826,6.27692166 19.2939424,4.39178426 22.2537792,5.00786906 Z" id="Combined-Shape" fill="#FDBD9D"></path>
                    <ellipse id="Oval" fill="#434342" cx="24.6" cy="13.6024032" rx="1" ry="1"></ellipse>
                    <line x1="19.8370588" y1="20.6542056" x2="17.6382979" y2="19.9813084" id="Path-4" stroke="#434342" stroke-width="0.5" stroke-linecap="round" stroke-linejoin="round"></line>
                    <polygon id="Path-5" fill="#28AAC9" points="5.57446809 53.9483977 9.15650585 90.411215 16.4188685 90.411215 16.4188685 55.5168347 26.5926516 90.411215 34.1702128 90.411215 27.9521939 50.0373832"></polygon>
                    <path d="M14.522278,22.6660229 L23.932067,21.4898436 C24.7995747,21.3814092 25.6615279,21.2324044 26.5150935,21.0433189 L37.7893617,18.5457944 L37.7893617,18.5457944 L42.8293617,25.4078987 L26.8645386,30.4437745 L28.8085106,53.6261682 L5.68290809,54.7727471 C6.40509774,48.1769997 6.71032009,44.8821051 6.59857514,44.8880633 C6.48683018,44.8940214 6.13868717,48.2200245 5.55414611,54.8660725 L0.510174079,55.7050089 L2.6926601,34.7420288 C3.34718748,28.4552328 8.25030814,23.4499897 14.522278,22.6660229 Z" id="Rectangle" fill="#2F446E"></path>
                    <path d="M19.3456223,14.7118772 C21.3212721,15.2903539 21.7715374,13.7833464 20.6964181,10.1908547 C20.0008384,7.86658753 23.3030761,9.40749626 25.220593,8.87291257 C27.7487763,8.16808145 29.0973092,5.58074128 27.8751207,2.88081899 C25.7259555,-1.86687668 23.7247973,3.23234438 17.4134932,0.638970773 C17.3713476,0.621652741 17.3306526,0.597185026 17.285515,0.589121768 C15.3679848,0.246579375 12.9180376,1.4232057 11.3480174,2.54662128 C9.48076573,3.88271852 8.56733256,4.84178746 8.05687233,8.45206278 C7.67536533,11.150305 9.47647948,15.1146513 10.70247,16.8615352 C11.2272124,17.609228 11.9046782,18.501116 12.7348671,19.5371991 C13.588717,19.6953684 14.3903933,19.7561797 15.139896,19.719633 C16.38441,19.6589489 17.5507073,18.1979132 18.6387879,15.3365258 C17.7495229,15.3066393 17.2417214,15.1407401 17.1153835,14.8388282 C16.4421118,13.2298996 17.5126515,11.5564607 18.9091841,12.0369291 C20.6988011,12.6526359 20.8442805,13.5442852 19.3456223,14.7118772 Z" id="Path-95" fill="#040170"></path>
                </g>
            </g>
        </g>
    </g>
</svg>