<?xml version="1.0" encoding="UTF-8"?>
<svg width="81px" height="88px" viewBox="0 0 81 88" version="1.1" xmlns="http://www.w3.org/2000/svg" xmlns:xlink="http://www.w3.org/1999/xlink">
    <title>Illust/Illust_password</title>
    <defs>
        <filter id="filter-1">
            <feColorMatrix in="SourceGraphic" type="matrix" values="0 0 0 0 0.101961 0 0 0 0 0.215686 0 0 0 0 0.333333 0 0 0 1.000000 0"></feColorMatrix>
        </filter>
        <filter id="filter-2">
            <feColorMatrix in="SourceGraphic" type="matrix" values="0 0 0 0 0.101961 0 0 0 0 0.215686 0 0 0 0 0.333333 0 0 0 1.000000 0"></feColorMatrix>
        </filter>
        <filter id="filter-3">
            <feColorMatrix in="SourceGraphic" type="matrix" values="0 0 0 0 0.101961 0 0 0 0 0.215686 0 0 0 0 0.333333 0 0 0 1.000000 0"></feColorMatrix>
        </filter>
    </defs>
    <g id="ch01_Login" stroke="none" stroke-width="1" fill="none" fill-rule="evenodd">
        <g id="Ch3_Forgot_password_05" transform="translate(-923.000000, -415.000000)">
            <g id="Illust/Illust_password" transform="translate(923.000000, 415.000000)">
                <g id="miscellaneous">
                    <path d="M74.9126023,23.6053227 L74.9099145,23.5376195 C74.8716133,22.7019505 74.846079,21.8178276 74.8306242,20.8341411 C74.7587252,16.037176 70.8983577,12.0692424 66.0414844,11.8010849 C55.9151589,11.242866 48.0815358,7.98116877 41.388216,1.53676125 L41.3311001,1.48299688 C39.1479262,-0.494332293 35.8546866,-0.494332293 33.6708406,1.48299688 L33.6137247,1.53676125 C26.9204051,7.98116877 19.0867818,11.242866 8.96045642,11.8017486 C4.10425506,12.0692424 0.243215434,16.037176 0.171316637,20.8348048 C0.156533594,21.8118537 0.1303274,22.6959768 0.092026146,23.5376195 L0.0879945165,23.6949296 C-0.108887547,33.894869 -0.353478459,46.5892037 3.94567425,58.111345 C6.30960352,64.4475605 9.88976689,69.9554081 14.5860434,74.4828883 C19.934786,79.6389454 26.9405635,83.7323289 35.4085101,86.6488731 C35.6840106,86.7437902 35.9702624,86.8207858 36.2618898,86.8785326 C36.6731248,86.9595109 37.0870475,87 37.5009703,87 C37.9148931,87 38.3294878,86.9595109 38.7400509,86.8785326 C39.0316784,86.8207858 39.319946,86.7431264 39.5967905,86.6475455 C48.0546577,83.7256914 55.0530437,79.6303164 60.3970827,74.4749231 C65.0913434,69.9461156 68.6715068,64.4369404 71.0374519,58.0993975 C75.3527313,46.5427407 75.1088125,33.8245109 74.9126023,23.6053227 Z" id="Path" fill="#EFF1F0" fill-rule="nonzero"></path>
                    <path d="M37.5012224,1 C38.6306882,1 39.7595456,1.40881034 40.660411,2.22539619 C47.5802597,8.87704595 55.6066661,12.2273784 65.9863564,12.7995642 C68.1551812,12.9193093 70.1014412,13.8652197 71.5135938,15.3165623 C72.9212392,16.7632728 73.7987241,18.7133178 73.8307476,20.8498502 C73.8462923,21.8392601 73.8719646,22.729051 73.9103896,23.571857 C74.1070862,33.7439535 74.3677887,46.3218052 70.100607,57.7496525 C67.7883033,63.9435086 64.2908012,69.3289275 59.7027928,73.7552277 C54.4539988,78.8187381 47.5760159,82.8330531 39.270442,85.702296 C39.0362906,85.783137 38.7924577,85.8487386 38.5465418,85.8974341 C38.200097,85.9657659 37.8502546,86 37.5009703,86 C37.1515825,86 36.8022073,85.9657258 36.456134,85.8975794 C36.2094531,85.8487327 35.9672901,85.7837021 35.7341577,85.7033819 C27.4186029,82.8393247 20.5334217,78.8270416 15.2800938,73.7629619 C10.6902477,69.3380867 7.19285003,63.9541515 4.88258094,57.7617655 C0.630752786,46.3664585 0.892920104,33.8102215 1.08763688,23.7245339 C1.13005598,22.7212929 1.15634137,21.8321231 1.17120436,20.8497894 C1.20321572,18.7137506 2.08078738,16.7636095 3.48842558,15.3169065 C4.90063102,13.8655095 6.84689983,12.9196854 9.01556362,12.8002291 C19.4076047,12.2266813 27.440465,8.86861554 34.307423,2.25773389 C35.2533373,1.40882492 36.3758681,1 37.5012224,1 Z" id="Path" stroke="#1A3755" stroke-width="2" fill-opacity="0" fill="#FFFFFF" fill-rule="nonzero"></path>
                    <g id="symbol" transform="translate(20.950299, 25.424938)"></g>
                    <g id="Group-2" transform="translate(10.714286, 32.222222)">
                        <rect id="Rectangle" fill="#1A3755" x="2.14285714" y="21.4814815" width="12.8571429" height="2.14814815" rx="1.07407407"></rect>
                        <rect id="Rectangle-Copy" fill="#1A3755" x="20.3571429" y="21.4814815" width="12.8571429" height="2.14814815" rx="1.07407407"></rect>
                        <rect id="Rectangle-Copy-5" fill="#1A3755" x="38.5714286" y="21.4814815" width="12.8571429" height="2.14814815" rx="1.07407407"></rect>
                        <g id="Icon/important" transform="translate(-0.000000, 0.000000)" filter="url(#filter-1)">
                            <g transform="translate(-0.000000, 0.000000)">
                                <rect id="bg" fill-rule="nonzero" x="0" y="0" width="17.1428571" height="17.1851852"></rect>
                                <polygon id="Path" fill="#000000" transform="translate(8.571429, 8.592593) rotate(90.000000) translate(-8.571429, -8.592593) " points="11.2454832 1.62830688 13.4158925 2.85093668 10.7415952 7.36955688 16.0899471 7.36996279 16.0899471 9.8152224 10.7415952 9.81509259 13.4158925 14.3342485 11.2454832 15.5568783 8.57142857 11.0370569 5.89737398 15.5568783 3.72696464 14.3342485 6.40072487 9.81509259 1.05291005 9.8152224 1.05291005 7.36996279 6.40072487 7.36955688 3.72696464 2.85093668 5.89737398 1.62830688 8.57089153 6.14759259"></polygon>
                            </g>
                        </g>
                        <g id="Icon/important-Copy" transform="translate(18.214286, 0.000000)" filter="url(#filter-2)">
                            <g>
                                <rect id="bg" fill-rule="nonzero" x="0" y="0" width="17.1428571" height="17.1851852"></rect>
                                <polygon id="Path" fill="#000000" transform="translate(8.571429, 8.592593) rotate(90.000000) translate(-8.571429, -8.592593) " points="11.2454832 1.62830688 13.4158925 2.85093668 10.7415952 7.36955688 16.0899471 7.36996279 16.0899471 9.8152224 10.7415952 9.81509259 13.4158925 14.3342485 11.2454832 15.5568783 8.57142857 11.0370569 5.89737398 15.5568783 3.72696464 14.3342485 6.40072487 9.81509259 1.05291005 9.8152224 1.05291005 7.36996279 6.40072487 7.36955688 3.72696464 2.85093668 5.89737398 1.62830688 8.57089153 6.14759259"></polygon>
                            </g>
                        </g>
                        <g id="Icon/important-Copy" transform="translate(36.428571, 0.000000)" filter="url(#filter-3)">
                            <g>
                                <rect id="bg" fill-rule="nonzero" x="0" y="0" width="17.1428571" height="17.1851852"></rect>
                                <polygon id="Path" fill="#000000" transform="translate(8.571429, 8.592593) rotate(90.000000) translate(-8.571429, -8.592593) " points="11.2454832 1.62830688 13.4158925 2.85093668 10.7415952 7.36955688 16.0899471 7.36996279 16.0899471 9.8152224 10.7415952 9.81509259 13.4158925 14.3342485 11.2454832 15.5568783 8.57142857 11.0370569 5.89737398 15.5568783 3.72696464 14.3342485 6.40072487 9.81509259 1.05291005 9.8152224 1.05291005 7.36996279 6.40072487 7.36955688 3.72696464 2.85093668 5.89737398 1.62830688 8.57089153 6.14759259"></polygon>
                            </g>
                        </g>
                    </g>
                </g>
                <path d="M68,62 C75.1797017,62 81,67.8202983 81,75 C81,82.1797017 75.1797017,88 68,88 C60.8202983,88 55,82.1797017 55,75 C55,67.8202983 60.8202983,62 68,62 Z M73.5904572,69.71875 L66.0540625,77.237625 L62.4110728,73.594375 L60.6875,75.3179478 L66.0553639,80.6858117 L67.7789367,78.9622389 L75.31403,71.4423228 L73.5904572,69.71875 Z" id="Shape" fill="#0066CC"></path>
            </g>
        </g>
    </g>
</svg>