<?xml version="1.0" encoding="UTF-8"?>
<svg width="84px" height="88px" viewBox="0 0 84 88" version="1.1" xmlns="http://www.w3.org/2000/svg" xmlns:xlink="http://www.w3.org/1999/xlink">
    <title>Illust/Illust_password_change</title>
    <defs>
        <linearGradient x1="79.687722%" y1="50%" x2="7.63824558%" y2="33.8252259%" id="linearGradient-1">
            <stop stop-color="#FFFFFF" stop-opacity="0.5" offset="0%"></stop>
            <stop stop-color="#F4F5F5" offset="100%"></stop>
        </linearGradient>
        <circle id="path-2" cx="13.5" cy="13.5" r="10.5"></circle>
        <path d="M22.1776063,4.50282208 C17.2065589,-0.297662591 9.30573687,-0.151170127 4.5082525,4.81677037 C-0.289231875,9.78471087 -0.159900388,17.6858324 4.81114701,22.4863171 C9.00617118,26.5374048 15.2716785,27.0490019 20.0172788,24.1379242 L17.6779624,21.8788726 C14.2267413,23.6071314 9.91734666,23.0730556 6.98195442,20.2383802 C3.25929223,16.6434471 3.15366224,10.6984101 6.7463485,6.97807456 C10.3390348,3.25773903 16.2841367,3.15582587 20.0067989,6.75075896 C21.8737533,8.55365592 22.7893384,10.9365962 22.8208934,13.334691 L16.9119149,13.4359849 C16.6358131,13.4407179 16.4158253,13.6683795 16.4205583,13.9444813 C16.4228321,14.0771243 16.4777263,14.2034263 16.5731557,14.2955813 L23.5771512,21.0592612 L30.3368209,14.0594184 C30.5286455,13.8607782 30.5231203,13.5442439 30.3244801,13.3524193 C30.2291287,13.2603395 30.1011156,13.2098907 29.968581,13.2121626 L25.9813007,13.2805141 C25.9243626,10.0759402 24.66313,6.90306442 22.1776063,4.50282208 Z" id="path-3"></path>
        <linearGradient x1="7.57749267%" y1="26.9946974%" x2="63.9707078%" y2="51.8211266%" id="linearGradient-5">
            <stop stop-color="#EFF1F0" offset="0%"></stop>
            <stop stop-color="#FFFFFF" offset="100%"></stop>
        </linearGradient>
        <path d="M22.1776063,4.50282208 C17.2065589,-0.297662591 9.30573687,-0.151170127 4.5082525,4.81677037 C-0.289231875,9.78471087 -0.159900388,17.6858324 4.81114701,22.4863171 C9.00617118,26.5374048 15.2716785,27.0490019 20.0172788,24.1379242 L17.6779624,21.8788726 C14.2267413,23.6071314 9.91734666,23.0730556 6.98195442,20.2383802 C3.25929223,16.6434471 3.15366224,10.6984101 6.7463485,6.97807456 C10.3390348,3.25773903 16.2841367,3.15582587 20.0067989,6.75075896 C21.8737533,8.55365592 22.7893384,10.9365962 22.8208934,13.334691 L16.9119149,13.4359849 C16.6358131,13.4407179 16.4158253,13.6683795 16.4205583,13.9444813 C16.4228321,14.0771243 16.4777263,14.2034263 16.5731557,14.2955813 L23.5771512,21.0592612 L30.3368209,14.0594184 C30.5286455,13.8607782 30.5231203,13.5442439 30.3244801,13.3524193 C30.2291287,13.2603395 30.1011156,13.2098907 29.968581,13.2121626 L25.9813007,13.2805141 C25.9243626,10.0759402 24.66313,6.90306442 22.1776063,4.50282208 Z" id="path-6"></path>
    </defs>
    <g id="ch01_Login" stroke="none" stroke-width="1" fill="none" fill-rule="evenodd">
        <g id="Ch1_Login_19" transform="translate(-927.000000, -415.000000)">
            <g id="@Box" transform="translate(683.000000, 243.000000)">
                <g id="Group" transform="translate(101.000000, 172.000000)">
                    <g id="Illust/Illust_password_change" transform="translate(143.000000, 0.000000)">
                        <g id="Group-3">
                            <rect id="Rectangle-Copy-6" stroke="#1A3755" stroke-width="2" x="13" y="1" width="40" height="69" rx="20"></rect>
                            <rect id="Rectangle" stroke="#1A3755" stroke-width="2" fill="#EFF1F0" x="1" y="32" width="64" height="50" rx="3"></rect>
                            <circle id="Oval" fill="#1A3755" cx="33" cy="65" r="4"></circle>
                            <rect id="Rectangle" fill="#1A3755" x="31" y="66" width="4" height="9" rx="1"></rect>
                            <path d="M14.2132007,44.625 L14.2134375,47.736875 L16.8492993,46.1810231 L17.5625,47.4439769 L14.92625,48.9996875 L17.5625,50.5560231 L16.8492993,51.8189769 L14.2134375,50.2628125 L14.2132007,53.375 L12.7867993,53.375 L12.786875,50.2628125 L10.1507007,51.8189769 L9.4375,50.5560231 L12.0740625,49 L9.4375,47.4439769 L10.1507007,46.1810231 L12.786875,47.736875 L12.7867993,44.625 L14.2132007,44.625 Z M27.2132007,44.625 L27.2134375,47.736875 L29.8492993,46.1810231 L30.5625,47.4439769 L27.92625,48.9996875 L30.5625,50.5560231 L29.8492993,51.8189769 L27.2134375,50.2628125 L27.2132007,53.375 L25.7867993,53.375 L25.786875,50.2628125 L23.1507007,51.8189769 L22.4375,50.5560231 L25.0740625,49 L22.4375,47.4439769 L23.1507007,46.1810231 L25.786875,47.736875 L25.7867993,44.625 L27.2132007,44.625 Z M40.2132007,44.625 L40.2134375,47.736875 L42.8492993,46.1810231 L43.5625,47.4439769 L40.92625,48.9996875 L43.5625,50.5560231 L42.8492993,51.8189769 L40.2134375,50.2628125 L40.2132007,53.375 L38.7867993,53.375 L38.786875,50.2628125 L36.1507007,51.8189769 L35.4375,50.5560231 L38.0740625,49 L35.4375,47.4439769 L36.1507007,46.1810231 L38.786875,47.736875 L38.7867993,44.625 L40.2132007,44.625 Z M53.2132007,44.625 L53.2134375,47.736875 L55.8492993,46.1810231 L56.5625,47.4439769 L53.92625,48.9996875 L56.5625,50.5560231 L55.8492993,51.8189769 L53.2134375,50.2628125 L53.2132007,53.375 L51.7867993,53.375 L51.786875,50.2628125 L49.1507007,51.8189769 L48.4375,50.5560231 L51.0740625,49 L48.4375,47.4439769 L49.1507007,46.1810231 L51.786875,47.736875 L51.7867993,44.625 L53.2132007,44.625 Z" id="Shape" fill="#1A3755"></path>
                        </g>
                        <g id="refresh" transform="translate(51.000000, 60.000000)">
                            <g id="Oval">
                                <use fill="#FFFFFF" xlink:href="#path-2"></use>
                                <use fill="url(#linearGradient-1)" xlink:href="#path-2"></use>
                            </g>
                            <mask id="mask-4" fill="white">
                                <use xlink:href="#path-3"></use>
                            </mask>
                            <use id="Icon" fill="#0066CC" xlink:href="#path-3"></use>
                            <mask id="mask-7" fill="white">
                                <use xlink:href="#path-6"></use>
                            </mask>
                            <path stroke="url(#linearGradient-5)" stroke-width="2" d="M13.2630765,-0.0032590332 C16.7141637,-0.0645777962 20.1885465,1.19184583 22.8722646,3.78348228 C25.2978652,6.12585755 26.6447337,9.14934045 26.9271097,12.2641537 L26.9271097,12.2641537 L30.2115973,12.2078498 C30.9091422,12.5489947 31.2007865,12.9392113 31.3341404,13.2460354 C31.4122957,13.425857 31.474301,13.6649725 31.4666537,13.9816337 L31.4666537,13.9816337 L23.6184571,22.4893134 L15.6911905,14.834041 C15.4391256,14.0993287 15.5088507,13.6171136 15.6315097,13.3058684 C15.7026651,13.1253127 15.8260969,12.9148433 16.0510383,12.6986311 L16.0510383,12.6986311 L21.7554613,12.390741 C21.530439,10.5832348 20.7297157,8.83903524 19.3121405,7.47009876 C17.6491759,5.86419256 15.4897487,5.08427757 13.3449726,5.12104413 C11.2005166,5.15780519 9.07037195,6.01103436 7.4656883,7.67273293 C5.86100464,9.3344315 5.08263622,11.4930558 5.12073798,13.6374883 C5.15884543,15.7822411 6.01364824,17.9131342 7.67661279,19.5190404 C8.96945528,20.7675239 10.5606128,21.5166542 12.2113063,21.7698281 C14.1330565,22.0645752 16.1353769,21.6883065 17.8408535,20.6460111 L17.8408535,20.6460111 L21.5958427,24.2721621 C18.7865758,26.3831247 15.3415669,27.2695733 12.0029877,26.906955 C9.14016292,26.5960106 6.35531293,25.3676644 4.11648864,23.2056569 C1.43277054,20.6140204 0.0558580735,17.1856027 -0.00330172418,13.7344778 C-0.0624925488,10.2815429 1.19752623,6.80557123 3.7889127,4.122112 C6.38029916,1.43865276 9.81017931,0.0580918891 13.2630765,-0.0032590332 Z"></path>
                        </g>
                    </g>
                </g>
            </g>
        </g>
    </g>
</svg>