<?xml version="1.0" encoding="UTF-8"?>
<svg width="84px" height="75px" viewBox="0 0 84 75" version="1.1" xmlns="http://www.w3.org/2000/svg" xmlns:xlink="http://www.w3.org/1999/xlink">
    <title>Illust_signout</title>
    <g id="ch01_Login" stroke="none" stroke-width="1" fill="none" fill-rule="evenodd">
        <g id="Ch4_Sign_Out_03" transform="translate(-920.000000, -284.000000)">
            <g id="Illust_signout" transform="translate(920.000000, 284.000000)">
                <g id="Group-4">
                    <rect id="Rectangle" stroke="#1A3755" stroke-width="2" fill="#EFF1F0" x="1" y="1" width="77" height="51" rx="5"></rect>
                    <circle id="Oval" stroke="#1A3755" stroke-width="2" fill="#FFFFFF" cx="40" cy="19" r="9"></circle>
                    <path d="M40,28 C43.0375661,28 45.7875661,29.2312169 47.7781746,31.2218254 C49.7687831,33.2124339 51,35.9624339 51,39 L51,39 L51,41 L29,41 L29,39 C29,35.9624339 30.2312169,33.2124339 32.2218254,31.2218254 C34.2124339,29.2312169 36.9624339,28 40,28 Z" id="Combined-Shape" stroke="#1A3755" stroke-width="2" fill="#FFFFFF"></path>
                    <rect id="Rectangle" fill="#FFFFFF" x="30" y="39" width="20" height="3"></rect>
                    <rect id="Rectangle" stroke="#1A3755" fill="#D8D8D8" x="39.5" y="53.5" width="1" height="13"></rect>
                    <rect id="Rectangle-Copy-6" stroke="#1A3755" fill="#D8D8D8" x="16.5" y="67.5" width="47" height="1"></rect>
                </g>
                <path d="M71,49 C78.1797017,49 84,54.8202983 84,62 C84,69.1797017 78.1797017,75 71,75 C63.8202983,75 58,69.1797017 58,62 C58,54.8202983 63.8202983,49 71,49 Z M66.4107078,55.7344642 L64.878415,57.2854359 L69.399375,61.8610625 L64.7414214,66.5759004 L66.2737262,68.1268844 L70.9309375,63.4113125 L75.726278,68.2655439 L77.2585707,66.7145722 L72.4633125,61.8610625 L76.8476142,57.4241167 L75.3153089,55.8731322 L70.9309375,60.31 L66.4107078,55.7344642 Z" id="Combined-Shape" fill="#1A3755"></path>
            </g>
        </g>
    </g>
</svg>