<?xml version="1.0" encoding="UTF-8"?>
<svg width="88px" height="81px" viewBox="0 0 88 81" version="1.1" xmlns="http://www.w3.org/2000/svg" xmlns:xlink="http://www.w3.org/1999/xlink">
    <title>Illust_email</title>
    <defs>
        <path d="M4,0.804516612 L73,0.804516612 C75.209139,0.804516612 77,2.59537761 77,4.80451661 L77,47.8045166 C77,50.0136556 75.209139,51.8045166 73,51.8045166 L4,51.8045166 C1.790861,51.8045166 3.75067146e-15,50.0136556 0,47.8045166 L0,4.80451661 C-7.1463071e-16,2.59537761 1.790861,0.804516612 4,0.804516612 Z" id="path-1"></path>
        <path d="M4.53010529,0 L73.5301053,0 C75.7392443,-8.49901461e-16 77.5301053,1.790861 77.5301053,4 L77.5301053,47 C77.5301053,49.209139 75.7392443,51 73.5301053,51 L4.53010529,51 C2.32096629,51 0.530105286,49.209139 0.530105286,47 L0.530105286,4 C0.530105286,1.790861 2.32096629,-3.82769592e-17 4.53010529,0 Z" id="path-3"></path>
    </defs>
    <g id="ch01_Login" stroke="none" stroke-width="1" fill="none" fill-rule="evenodd">
        <g id="Ch2_Create-Account_07" transform="translate(-921.000000, -419.000000)">
            <g id="Illust_email" transform="translate(921.000000, 419.000000)">
                <g id="Group-5">
                    <g id="Group-3" transform="translate(0.530105, 20.000000)">
                        <mask id="mask-2" fill="white">
                            <use xlink:href="#path-1"></use>
                        </mask>
                        <path stroke="#2C4157" stroke-width="2" d="M73,1.80451661 C73.8284271,1.80451661 74.5784271,2.14030305 75.1213203,2.68319627 C75.6642136,3.22608949 76,3.97608949 76,4.80451661 L76,4.80451661 L76,47.8045166 C76,48.6329437 75.6642136,49.3829437 75.1213203,49.925837 C74.5784271,50.4687302 73.8284271,50.8045166 73,50.8045166 L73,50.8045166 L4,50.8045166 C3.17157288,50.8045166 2.42157288,50.4687302 1.87867966,49.925837 C1.33578644,49.3829437 1,48.6329437 1,47.8045166 L1,47.8045166 L1,4.80451661 C1,3.97608949 1.33578644,3.22608949 1.87867966,2.68319627 C2.42157288,2.14030305 3.17157288,1.80451661 4,1.80451661 L4,1.80451661 Z"></path>
                        <polygon id="Path-7" stroke="#2C4157" stroke-width="2" fill="#EFF1F0" mask="url(#mask-2)" points="1.87827828 49.9535152 33.9286969 23.0171812 42.5763274 22.8045166 77 49.9535152 77 52.9391798 -1 53.8045166"></polygon>
                        <path d="M-3.1103456,-0.163090753 L78.2744596,0.747459227 L38.9552017,33.5133803 L-3.1103456,-0.163090753 Z" id="Path-6" stroke="#2C4157" stroke-width="2" fill="#C6D1CC" mask="url(#mask-2)"></path>
                    </g>
                    <g id="Group-4" transform="translate(0.000000, 20.804517)">
                        <mask id="mask-4" fill="white">
                            <use xlink:href="#path-3"></use>
                        </mask>
                        <path stroke="#2C4157" stroke-width="2" d="M73.5301053,1 C74.3585324,1 75.1085324,1.33578644 75.6514256,1.87867966 C76.1943188,2.42157288 76.5301053,3.17157288 76.5301053,4 L76.5301053,4 L76.5301053,47 C76.5301053,47.8284271 76.1943188,48.5784271 75.6514256,49.1213203 C75.1085324,49.6642136 74.3585324,50 73.5301053,50 L73.5301053,50 L4.53010529,50 C3.70167816,50 2.95167816,49.6642136 2.40878494,49.1213203 C1.86589172,48.5784271 1.53010529,47.8284271 1.53010529,47 L1.53010529,47 L1.53010529,4 C1.53010529,3.17157288 1.86589172,2.42157288 2.40878494,1.87867966 C2.95167816,1.33578644 3.70167816,1 4.53010529,1 L4.53010529,1 Z"></path>
                    </g>
                    <path d="M62,1.80451661 C62.2761424,1.80451661 62.5261424,1.91644542 62.7071068,2.09740983 C62.8880712,2.27837424 63,2.52837424 63,2.80451661 L63,2.80451661 L63,33.5544565 L39.9750599,53.5013895 L15.0005352,33.3644977 L15.0347236,2.80339792 C15.0350323,2.52747413 15.1470702,2.2777538 15.3280119,2.09701442 C15.5089535,1.91627504 15.7587991,1.80451661 16.034723,1.80451661 L16.034723,1.80451661 Z" id="Rectangle" stroke="#2C4157" stroke-width="2" fill="#FFFFFF"></path>
                    <rect id="Rectangle" fill="#2C4157" x="24.5301053" y="18" width="18" height="3"></rect>
                    <rect id="Rectangle" fill="#2C4157" x="24.5301053" y="33" width="14" height="3"></rect>
                    <rect id="Rectangle" fill="#2C4157" x="24.5301053" y="10.8045166" width="23" height="3"></rect>
                    <rect id="Rectangle" fill="#2C4157" x="24.5301053" y="25" width="28" height="3"></rect>
                </g>
                <g id="Group-6" transform="translate(62.000000, 55.000000)">
                    <path d="M13,0 C20.1797017,0 26,5.82029825 26,13 C26,20.1797017 20.1797017,26 13,26 C5.82029825,26 0,20.1797017 0,13 C0,5.82029825 5.82029825,0 13,0 Z" id="Path" fill="#0066CC"></path>
                    <polygon id="Path" fill="#FFFFFF" points="18.5904572 7.71875 11.0540625 15.237625 7.41107278 11.594375 5.6875 13.3179478 11.0553639 18.6858117 12.7789367 16.9622389 20.31403 9.44232278"></polygon>
                </g>
            </g>
        </g>
    </g>
</svg>