<?xml version="1.0" encoding="UTF-8"?>
<svg width="381px" height="104px" viewBox="0 0 381 104" version="1.1" xmlns="http://www.w3.org/2000/svg" xmlns:xlink="http://www.w3.org/1999/xlink">
    <title>Illust_signout_logo</title>
    <defs>
        <polygon id="path-1" points="0.164485027 0.0885604396 11.5580947 0.0885604396 11.5580947 18 0.164485027 18"></polygon>
        <polygon id="path-3" points="0 18 96.9533155 18 96.9533155 0.0883076923 0 0.0883076923"></polygon>
        <filter id="filter-5">
            <feColorMatrix in="SourceGraphic" type="matrix" values="0 0 0 0 0.227451 0 0 0 0 0.227451 0 0 0 0 0.227451 0 0 0 1.000000 0"></feColorMatrix>
        </filter>
        <polygon id="path-6" points="0.0405880198 0.0370992303 9.50367351 0.0370992303 9.50367351 13.9764706 0.0405880198 13.9764706"></polygon>
        <polygon id="path-8" points="0.099380959 0.00929647059 9.92892979 0.00929647059 9.92892979 13.8904729 0.099380959 13.8904729"></polygon>
    </defs>
    <g id="ch01_Login" stroke="none" stroke-width="1" fill="none" fill-rule="evenodd">
        <g id="Ch4_Sign_Out_01-2" transform="translate(-770.000000, -284.000000)">
            <g id="@Contents" transform="translate(650.000000, 0.000000)">
                <g id="Illust_signout_logo" transform="translate(120.000000, 284.000000)">
                    <rect id="Rectangle" fill="#EDEDED" x="0" y="0" width="190" height="52"></rect>
                    <rect id="Rectangle" fill="#EDEDED" x="0" y="0" width="381" height="104"></rect>
                    <rect id="Rectangle-Copy-3" fill="#EDEDED" x="190" y="52" width="190" height="52"></rect>
                    <rect id="Rectangle-Copy-4" fill="#F3F3F3" x="190" y="0" width="190" height="52"></rect>
                    <rect id="Rectangle-Copy-5" fill="#F3F3F3" x="0" y="52" width="190" height="52"></rect>
                    <g id="Group-3" transform="translate(41.000000, 17.000000)">
                        <g id="Icon/logo/TeeSpace" transform="translate(196.000000, 0.000000)">
                            <polygon id="Fill-1" fill="#6C56E5" points="14.1458333 0.395604396 14.1458333 17.8021978 24.25 17.8021978 24.25 15.535154 16.8609995 15.535154 16.8609995 13.6579872 16.8589169 13.6579872 16.8589169 5.12513546 16.8609995 5.12513546 16.8609995 2.63891214 24.25 2.63891214 24.25 0.395604396"></polygon>
                            <g id="Group-18">
                                <g id="Group-4" transform="translate(35.791444, 0.000000)">
                                    <mask id="mask-2" fill="white">
                                        <use xlink:href="#path-1"></use>
                                    </mask>
                                    <g id="Clip-3"></g>
                                    <path d="M11.5580947,13.0464066 C11.5580947,14.5922088 10.9823193,15.8038791 9.83024973,16.6819231 C8.67818021,17.560978 7.1007631,18.0002527 5.09747968,18.0002527 C4.1124369,18.0002527 3.19430856,17.9224066 2.34309465,17.7682308 C1.49136203,17.6135495 0.76567754,17.3901209 0.164485027,17.0969341 L0.164485027,14.6078791 C0.832073262,14.9005604 1.61689144,15.1654396 2.51842086,15.401 C3.41995027,15.6370659 4.33807861,15.7548462 5.27280588,15.7548462 C6.47467219,15.7548462 7.3762016,15.5273736 7.97739412,15.0719231 C8.57806791,14.615967 8.87840481,14.0063407 8.87840481,13.2415275 C8.87840481,12.7046923 8.74509465,12.2532857 8.47795561,11.8873077 C8.21081658,11.5208242 7.78080053,11.1796154 7.1884262,10.8621648 C6.59553316,10.5452198 5.82368289,10.2075495 4.87183797,9.84965934 C4.00402513,9.52412088 3.22750642,9.14146154 2.54331925,8.70269231 C1.85861337,8.26341758 1.32433529,7.71849451 0.940485027,7.06792308 C0.556634759,6.41735165 0.364709626,5.62018681 0.364709626,4.67592308 C0.364709626,3.24436264 0.898987701,2.12267033 1.96754385,1.30831868 C3.03558128,0.495483516 4.43767219,0.0885604396 6.17433529,0.0885604396 C7.14226043,0.0885604396 8.03964011,0.186120879 8.86647433,0.381241758 C9.69227112,0.576362637 10.481239,0.82910989 11.2328594,1.13746154 L10.3811267,3.30957143 C9.69642086,3.03306593 8.99978449,2.80559341 8.29018021,2.62664835 C7.58057594,2.4471978 6.85022299,2.35772527 6.09912139,2.35772527 C5.11407861,2.35772527 4.36245829,2.56952747 3.84529786,2.99212088 C3.32761872,3.41521978 3.06929786,3.96873626 3.06929786,4.65216484 C3.06929786,5.18849451 3.19430856,5.64040659 3.44484866,6.00587912 C3.69487005,6.37236264 4.09583797,6.70598901 4.64671497,7.00675824 C5.19759198,7.30752747 5.92379519,7.62902198 6.8253246,7.97073626 C7.82696631,8.36047253 8.68232995,8.77194505 9.39193422,9.20262637 C10.1010198,9.63431868 10.6394476,10.1544725 11.0072176,10.7646044 C11.374469,11.3747363 11.5580947,12.135 11.5580947,13.0464066" id="Fill-2" fill="#BCBEFF" mask="url(#mask-2)"></path>
                                </g>
                                <path d="M52.9812444,2.5529978 L50.8773299,2.5529978 L50.8773299,8.92222857 L52.5055813,8.92222857 C54.0238647,8.92222857 55.1723032,8.67403077 55.9483032,8.17814066 C56.7248219,7.68174505 57.1128219,6.83959121 57.1128219,5.65218462 C57.1128219,4.61137143 56.7787684,3.83442637 56.1111802,3.32185495 C55.443592,2.80928352 54.3994155,2.5529978 52.9812444,2.5529978 L52.9812444,2.5529978 Z M53.181469,0.33236044 C55.5188059,0.33236044 57.2212337,0.79236044 58.2897898,1.71134945 C59.3578273,2.63033846 59.8921053,3.91176703 59.8921053,5.55462418 C59.8921053,6.53073407 59.6711321,7.44214066 59.2286668,8.28783297 C58.7862016,9.13403077 58.0475492,9.8215033 57.0127096,10.3497451 C55.9773513,10.8789978 54.5752604,11.1428659 52.8059182,11.1428659 L50.8773299,11.1428659 L50.8773299,17.7557451 L48.1732604,17.7557451 L48.1732604,0.33236044 L53.181469,0.33236044 Z" id="Fill-5" fill="#BCBEFF"></path>
                                <path d="M80.9914209,2.35797802 C79.2215599,2.35797802 77.8319182,2.95597802 76.821977,4.15147253 C75.8120358,5.34696703 75.3073246,6.98628571 75.3073246,9.06841758 C75.3073246,11.1348791 75.7741695,12.7615604 76.7094155,13.9494725 C77.6441428,15.1368791 79.0633513,15.7303297 80.9665225,15.7303297 C81.734223,15.7303297 82.4728754,15.6610769 83.1824797,15.5230769 C83.892084,15.3850769 84.6136187,15.2020879 85.3486401,14.9741099 L85.3486401,17.2432747 C84.6473353,17.5041099 83.9294316,17.6951868 83.1949289,17.817011 C82.4604262,17.9388352 81.6086936,18 80.6407684,18 C78.803993,18 77.2810412,17.629978 76.0708754,16.8899341 C74.8601909,16.1493846 73.9586615,15.1085714 73.3662872,13.765978 C72.7733941,12.4238901 72.477207,10.8502857 72.477207,9.04465934 C72.477207,7.28756044 72.8071107,5.73771429 73.4669182,4.39562637 C74.126207,3.05353846 75.0899824,2.00059341 76.3587631,1.23527473 C77.6275439,0.470967033 79.1800626,0.0888131868 81.0163193,0.0888131868 C81.9178487,0.0888131868 82.7981107,0.18232967 83.6586615,0.368857143 C84.5176561,0.556395604 85.3066241,0.820769231 86.0245278,1.16248352 L85.0228861,3.35835165 C84.4382925,3.09852747 83.8122016,2.86650549 83.1446134,2.6632967 C82.4770251,2.45958242 81.7591214,2.35797802 80.9914209,2.35797802" id="Fill-7" fill="#BCBEFF"></path>
                                <mask id="mask-4" fill="white">
                                    <use xlink:href="#path-3"></use>
                                </mask>
                                <g id="Clip-10"></g>
                                <polygon id="Fill-9" fill="#6C56E5" mask="url(#mask-4)" points="18.6468235 10.178989 24.2769733 10.178989 24.2769733 7.90982418 18.6468235 7.90982418"></polygon>
                                <polygon id="Fill-11" fill="#6C56E5" mask="url(#mask-4)" points="27.6644 13.5524066 27.6628439 13.5524066 27.6628439 5.01157143 27.6644 5.01157143 27.6644 2.52251648 35.0265444 2.52251648 35.0265444 0.277615385 24.9603305 0.277615385 24.9603305 17.701 35.0265444 17.701 35.0265444 15.4318352 27.6644 15.4318352"></polygon>
                                <polygon id="Fill-12" fill="#BCBEFF" mask="url(#mask-4)" points="89.5912749 13.6077077 89.5902374 13.6077077 89.5902374 5.06687253 89.5912749 5.06687253 89.5912749 2.57781758 96.9534193 2.57781758 96.9534193 0.332410989 86.8872053 0.332410989 86.8872053 17.7557956 96.9534193 17.7557956 96.9534193 15.4866308 89.5912749 15.4866308"></polygon>
                                <path d="M61.118092,15.3907385 L61.9464824,13.2024527 L62.929969,10.4348703 L62.9268567,10.4348703 L63.0150385,10.1957714 L63.0155572,10.1947604 L64.7299155,5.53005714 C64.8300278,5.25355165 64.9638567,4.83095824 65.1303647,4.26126593 C65.2973914,3.69207912 65.4473005,3.15524396 65.5811294,2.65076044 C65.6475251,2.89440879 65.7398567,3.21185934 65.8570866,3.60260659 C65.9732791,3.99284835 66.0905091,4.36691429 66.2072203,4.7248044 C66.3239316,5.08269451 66.4157444,5.35161758 66.4831775,5.53005714 L68.2857176,10.4348703 L68.2800118,10.4348703 L69.3407872,13.5300132 L70.0446856,15.3907385 L61.118092,15.3907385 Z M67.0086374,0.259265934 L64.2039369,0.259265934 L57.4180866,17.7559473 L59.721707,17.7559473 L60.2227872,17.7559473 L70.9405091,17.7559473 L71.802616,17.7559473 L73.7695893,17.7559473 L67.0086374,0.259265934 Z" id="Fill-13" fill="#BCBEFF" mask="url(#mask-4)"></path>
                                <polygon id="Fill-14" fill="#FF486D" mask="url(#mask-4)" points="5.35886096 17.7558462 8.06293048 17.7558462 8.06293048 4.16815385 5.35886096 4.16815385"></polygon>
                                <polygon id="Fill-15" fill="#FF486D" mask="url(#mask-4)" points="-5.18716577e-05 0.332562637 -5.18716577e-05 2.60172747 4.70937594 2.60172747 5.35880909 2.60172747 8.06287861 2.60172747 8.99293743 2.60172747 13.4217396 2.60172747 13.4217396 0.332562637"></polygon>
                                <polygon id="Fill-16" fill="#6C56E5" mask="url(#mask-4)" points="29.3961872 10.178989 35.0263369 10.178989 35.0263369 7.90982418 29.3961872 7.90982418"></polygon>
                                <polygon id="Fill-17" fill="#BCBEFF" mask="url(#mask-4)" points="91.3236845 10.178989 96.9538342 10.178989 96.9538342 7.90982418 91.3236845 7.90982418"></polygon>
                            </g>
                        </g>
                        <g id="CI_TmaxA&amp;amp;amp;C" transform="translate(6.000000, 0.000000)">
                            <path d="M60.0712902,4 L64.5660597,4 L67,17 L62.8335916,17 L62.4848896,14.3899635 L57.1596281,14.3899635 L55.6851995,17 L52,17 L60.0712902,4 Z M62.1542038,11.9941474 L61.618365,6.53719077 L61.5619915,6.53719077 L58.5422317,11.9941474 L62.1542038,11.9941474 Z" id="Fill-1" fill="#004277"></path>
                            <g id="Group-6" transform="translate(68.000000, 4.000000)" fill="#004277">
                                <path d="M13.5954959,6.37059231 C13.2167204,7.98705385 12.6461898,9.22713077 11.083149,10.7359 L12.8681286,13.5208231 L9.03006735,13.5208231 L8.50747551,12.6765154 C7.6871898,13.1444385 6.59525102,13.7733615 4.41729184,13.7733615 C3.37329184,13.7733615 1.3202102,13.5752077 0.608230612,12.1380538 C0.419434694,11.7428231 0.15014898,11.0051308 0.340128571,9.96428462 C0.750863265,7.75282308 2.61455714,6.94351538 3.67276122,6.47774615 C3.26202653,5.97482308 2.37663878,4.95013077 2.67906735,3.38697692 C3.08861837,1.15720769 5.2689449,0.223515385 7.54337347,0.223515385 C8.63590408,0.223515385 11.6690673,0.440515385 11.0985367,3.42197692 C10.7688837,5.23766923 9.42363878,6.13582308 8.30210816,6.89020769 L9.59882245,8.72420769 C10.5937,7.59182308 10.7688837,6.72813077 10.861802,6.37059231 L13.5954959,6.37059231 Z M5.37961837,8.39951538 C4.14800612,8.97459231 3.75206735,9.49636154 3.64139388,10.0536692 C3.51592449,10.7181308 3.89529184,11.5629769 5.17425102,11.5629769 C5.7909449,11.5629769 6.51712857,11.3470538 7.05451633,10.7719769 L5.37961837,8.39951538 Z M8.17663878,3.26097692 C8.30210816,2.57766923 7.82863878,2.20074615 7.19596531,2.20074615 C6.53192449,2.20074615 5.93298571,2.63151538 5.80751633,3.26097692 C5.76016939,3.56520769 5.72761837,3.92543846 6.62780204,4.96682308 C6.92786327,4.80528462 8.01743469,4.12413077 8.17663878,3.26097692 L8.17663878,3.26097692 Z" id="Fill-2"></path>
                                <path d="M24.3075041,4.62716154 C24.4459939,3.31439231 23.5363408,2.82977692 22.4100755,2.82977692 C20.023198,2.82977692 18.837749,4.8237 18.2826061,7.19616154 C18.0867082,7.98716154 17.3534224,11.2577769 20.4173612,11.2577769 C22.5100959,11.2577769 23.0421571,9.87339231 23.2404224,9.36993077 L27.3483612,9.36993077 C26.3807082,13.4320846 21.7596469,13.7734692 19.9030551,13.7734692 C18.5199327,13.7734692 16.1312796,13.5580846 14.8872388,12.0487769 C13.6804837,10.5378538 13.8994633,8.47177692 14.2137286,7.12346923 C14.629198,5.34546923 15.4986061,3.56531538 17.1575245,2.18200769 C18.9732796,0.6727 20.9488306,0.277469231 23.0238102,0.277469231 C25.333749,0.277469231 26.9749122,0.780392308 27.8443204,1.85893077 C28.7326673,2.97300769 28.4746265,4.14093077 28.3775653,4.62716154 L24.3075041,4.62716154 Z" id="Fill-4"></path>
                            </g>
                            <polygon id="Fill-7" fill="#004277" points="5.64553388 8.49329932 2 8.49329932 2.84565366 5 16 5 15.1531485 8.49329932 11.505219 8.49329932 9.2090178 18 3.34933265 18"></polygon>
                            <polygon id="Fill-8" fill="#D0232B" points="7.42685038 6 0 6 1.56535853 0 9 0"></polygon>
                            <g id="Group-15" transform="translate(12.000000, 9.000000)" fill="#004277">
                                <path d="M5.40444306,1.66065 L5.4432625,1.66065 C6.41972083,0.52465 7.82498472,0.09665 9.29773472,0.09665 C10.4957625,0.09665 11.7152903,0.62465 11.8765403,1.62665 C12.7914847,0.63865 14.2917069,0.07865 15.7728181,0.04715 C17.8917625,0.04715 19.1722069,1.19965 18.7075681,3.02415 L17.3076792,8.55065 L13.5750403,8.55065 L14.8053181,3.69765 C14.9719431,2.89315 14.9582069,2.02115 13.7989986,2.02115 C11.9541792,2.02115 11.7553042,3.71465 11.7314153,3.81315 L10.5292069,8.55065 L6.79656806,8.55065 L8.03042917,3.69765 C8.19466528,2.89315 8.18152639,2.02115 7.02231806,2.02115 C5.17749861,2.02115 4.98340139,3.71465 4.95652639,3.81315 L3.75431806,8.55065 L0.0198875,8.55065 L1.58042917,2.41465 C1.7667625,1.67615 1.8742625,1.18415 2.00027639,0.29665 L5.69349861,0.29665 L5.40444306,1.66065 Z" id="Fill-9"></path>
                                <path d="M28.6065861,8.5508 C28.72185,7.5618 28.7349889,7.2028 28.8257667,6.8553 L29.9007667,2.6133 C30.4119889,0.7543 28.1736,0.0483 26.1729056,0.0483 C25.0734194,0.0483 23.7738639,0.1463 22.6498917,0.5418 C21.5533917,0.9198 20.6521833,1.5953 20.3762667,2.7633 L23.8939056,2.7633 C23.9984194,2.2683 24.480975,1.5293 25.3929333,1.4968 C26.8991278,1.4468 26.4332944,2.4993 26.24935,3.2228 L25.0734194,3.2228 C21.8514056,3.2228 19.4410167,4.0463 18.8939611,6.0508 C18.4239472,7.7448 19.3753222,8.7943 21.7140444,8.7943 C23.56185,8.7943 24.6004194,8.0228 25.2024194,7.4293 L25.244225,7.4293 C25.0901417,8.0228 25.0232528,8.2868 25.0369889,8.5508 L28.6065861,8.5508 Z M22.5465722,5.9008 C22.6928917,5.3258 23.1975444,5.0308 23.8091,4.8008 C24.373475,4.5853 25.1104472,4.6198 25.8928083,4.6198 C25.6168917,5.7213 25.1588222,6.9868 23.5469194,6.9868 C22.8398083,6.9868 22.3936833,6.4948 22.5465722,5.9008 L22.5465722,5.9008 Z" id="Fill-11"></path>
                                <polygon id="Fill-13" points="33.1341875 8.5508 29.3262986 8.5508 33.7349931 4.2398 31.8107431 0.2968 36.1125347 0.2968 36.7288681 2.8258 38.6877569 0.2968 42.4586181 0.2968 38.4309514 4.2398 40.6788958 8.5508 36.3161875 8.5508 35.5386042 5.4918"></polygon>
                            </g>
                        </g>
                        <g id="CI_TmaxCloud" transform="translate(0.000000, 52.000000)">
                            <polygon id="Fill-1" fill="#004277" points="5.64594618 7.76180598 2 7.76180598 2.84618691 4 16 4 15.1544149 7.76180598 11.5054595 7.76180598 9.20823661 18 3.3481214 18"></polygon>
                            <polygon id="Fill-2" fill="#D0232B" points="6.60105805 5 0 5 1.39430394 0 8 0"></polygon>
                            <g id="Group-19" transform="translate(12.000000, 4.000000)" fill="#004277">
                                <path d="M5.39994217,5.935216 L5.43579759,5.935216 C6.37786988,4.667376 7.73227952,4.194736 9.15203855,4.194736 C10.3040386,4.194736 11.4803277,4.779936 11.635894,5.899376 C12.5195566,4.796736 13.9664964,4.173456 15.3903036,4.135936 C17.4352193,4.135936 18.6670265,5.420016 18.2223036,7.454496 L16.8707855,13.617296 L13.2725205,13.617296 L14.458641,8.207136 C14.6188337,7.307776 14.6066892,6.338976 13.4899663,6.338976 C11.7099181,6.338976 11.5208096,8.227296 11.4965205,8.334816 L10.3375807,13.617296 L6.74162892,13.617296 L7.93179759,8.207136 C8.08794217,7.307776 8.07464096,6.338976 6.95676145,6.338976 C5.18018313,6.338976 4.99223133,8.227296 4.96794217,8.334816 L3.80900241,13.617296 L0.211893976,13.617296 L1.71319518,6.777456 C1.89420723,5.953136 1.99599036,5.405456 2.11801446,4.412576 L5.67753253,4.412576 L5.39994217,5.935216 Z" id="Fill-3"></path>
                                <path d="M27.7599036,13.617184 C27.8703614,12.515104 27.8848193,12.113584 27.9715663,11.727184 L29.006747,6.997424 C29.5000482,4.924864 27.3423614,4.135824 25.4131084,4.135824 C24.3536386,4.135824 23.0998554,4.246704 22.018988,4.687424 C20.961253,5.110224 20.0943614,5.861744 19.8283373,7.164304 L23.2178313,7.164304 C23.3196145,6.613264 23.7834217,5.788944 24.6630361,5.750304 C26.1140241,5.695424 25.665253,6.870304 25.4882892,7.676704 L24.3536386,7.676704 C21.249253,7.676704 18.9284819,8.594544 18.398747,10.830624 C17.9453494,12.718384 18.8642892,13.887664 21.1168193,13.887664 C22.8974458,13.887664 23.8979277,13.027504 24.4785542,12.367824 L24.5184578,12.367824 C24.3715663,13.027504 24.3050602,13.322064 24.3200964,13.617184 L27.7599036,13.617184 Z M21.921253,10.662624 C22.0594699,10.022544 22.5481446,9.692144 23.1368675,9.435104 C23.6810602,9.196544 24.3900723,9.235184 25.1459277,9.235184 C24.878747,10.463264 24.4351807,11.875024 22.8835663,11.875024 C22.2023133,11.875024 21.7732048,11.323984 21.921253,10.662624 L21.921253,10.662624 Z" id="Fill-5"></path>
                                <polygon id="Fill-7" points="32.122641 13.617184 28.4509301 13.617184 32.7032675 8.811824 30.8491952 4.412464 34.9939663 4.412464 35.5884723 7.234864 37.4749301 4.412464 41.1102072 4.412464 37.2262554 8.811824 39.3926169 13.617184 35.1900145 13.617184 34.4405205 10.207344"></polygon>
                                <path d="M51.4337349,4.476696 C51.5569157,3.129896 50.6963855,2.632616 49.6085783,2.632616 C47.304,2.632616 46.1485301,4.680536 45.6141687,7.115416 C45.4360482,7.926856 44.7166265,11.285176 47.6712289,11.285176 C49.6906988,11.285176 50.2140723,9.865016 50.403759,9.347576 L54.3657831,9.347576 C53.4306506,13.520136 48.9735904,13.869576 47.1808193,13.869576 C45.8460723,13.869576 43.5328193,13.649496 42.3472771,12.097736 C41.1837108,10.548776 41.381494,8.426936 41.6833735,7.042056 C42.0858795,5.214776 42.9238554,3.388056 44.5333012,1.965096 C46.2844337,0.416696 48.1841928,0.011256 50.1845783,0.011256 C52.4139759,0.011256 53.9968193,0.528696 54.8394217,1.635816 C55.693012,2.779336 55.4489639,3.979416 55.3610602,4.476696 L51.4337349,4.476696 Z" id="Fill-9"></path>
                                <polygon id="Fill-11" points="57.3264578 0.288176 60.9091084 0.288176 57.9863133 13.611136 54.4019277 13.611136"></polygon>
                                <path d="M63.7274024,11.157888 C63.9928482,11.859568 64.6318843,11.894848 64.9551614,11.894848 C66.5183422,11.894848 67.1839807,10.253488 67.4673542,8.960448 C67.819547,7.354928 67.7154506,6.008688 66.2870169,6.008688 C64.7041735,6.008688 64.0558843,7.577248 63.7511133,8.960448 C63.6181012,9.569728 63.4764145,10.473568 63.7274024,11.157888 M66.7207518,4.031888 C69.8268723,4.031888 71.9151614,5.547808 71.1945831,8.833328 C70.8973301,10.180128 70.1975711,11.543728 68.9952578,12.504128 C68.0283181,13.261248 66.7219084,13.831888 64.7596916,13.831888 C62.6442217,13.831888 61.3800289,13.334608 60.638053,12.468288 C59.7549687,11.453008 59.7908241,10.069808 60.0406554,8.943088 C60.6629205,6.101088 62.9287518,4.031888 66.7207518,4.031888" id="Fill-13"></path>
                                <path d="M76.7134843,4.348176 L75.5273639,9.754416 C75.4134361,10.270736 75.1277494,11.562656 76.5584964,11.562656 C78.0644241,11.562656 78.355894,10.235456 78.4675084,9.716896 L79.6466892,4.348176 L83.2310747,4.348176 L81.5487614,12.007296 C81.4134361,12.798576 81.3931952,12.893216 81.2544,13.611136 L77.7290024,13.611136 L77.9695807,12.171376 C76.6683759,13.668256 75.4452434,13.777456 74.6037976,13.777456 C71.2883277,13.777456 71.6150747,11.341456 72.0025446,9.569616 L73.1487614,4.348176 L76.7134843,4.348176 Z" id="Fill-15"></path>
                                <path d="M90.5511904,8.943032 C90.8912386,7.394072 90.6425639,6.175512 89.3853108,6.175512 C87.7851181,6.175512 87.1431904,8.131592 86.9558169,8.999032 C86.760347,9.884952 86.5336482,11.783912 88.1147566,11.783912 C89.4124916,11.783912 90.2013108,10.528952 90.5511904,8.943032 L90.5511904,8.943032 Z M95.9931181,0.288232 L93.5769253,11.304552 C93.4063229,12.079592 93.2767807,12.835592 93.1651663,13.611192 L89.7716241,13.611192 L89.996588,12.247032 C89.4986602,12.781832 88.5247807,13.831832 86.4081542,13.831832 C83.1111904,13.831832 82.7451181,11.248552 83.2430458,8.978872 C83.6756241,7.005992 84.4314795,6.081992 85.2289735,5.400472 C86.3052145,4.496072 87.4485398,4.144952 88.6502747,4.144952 C90.2498892,4.144952 90.7963952,4.791192 91.2821783,5.436872 L92.4116241,0.288232 L95.9931181,0.288232 Z" id="Fill-17"></path>
                            </g>
                        </g>
                        <g id="logo/logotype" transform="translate(184.000000, 52.000000)" filter="url(#filter-5)">
                            <g id="Group-29">
                                <path d="M10.1056034,0.494036471 C9.87886429,0.255483529 9.57096875,0.129483529 9.2150652,0.129483529 L9.21423389,0.129483529 C8.86903342,0.129907059 8.57267227,0.249554118 8.33304787,0.485777647 C8.09342346,0.722212941 7.9669608,1.03901294 7.96727254,1.40208353 L7.97038994,5.78127176 L2.49924308,5.78614235 L2.49612568,1.40706 C2.49591785,1.04684824 2.3734039,0.731848235 2.141573,0.495730588 C1.91005384,0.260565882 1.6014309,0.13626 1.24885258,0.13626 L1.24718997,0.13626 C0.906873428,0.136471765 0.602199204,0.259507059 0.365900027,0.492448235 C0.12627562,0.728989412 -0.000187044203,1.04578941 2.05269473e-05,1.40886 L0.00791820461,12.6938012 C0.0081260315,13.0435306 0.133549561,13.3558835 0.370264392,13.5965541 C0.606875309,13.8372247 0.913212149,13.9646012 1.25612652,13.9646012 L1.25685392,13.9646012 C1.61317312,13.9646012 1.92408215,13.8350012 2.15591305,13.5904129 C2.38389915,13.3493188 2.50423092,13.0387659 2.5040231,12.6918953 L2.50080178,8.12953059 L7.97194864,8.12455412 L7.97516996,12.6868129 C7.97537779,13.0367541 8.10080131,13.3490012 8.33751615,13.5897776 C8.57423098,13.83066 8.8804639,13.9578247 9.22348219,13.9578247 L9.22420958,13.9578247 C9.58323054,13.9574012 9.8927887,13.8263188 10.1196317,13.5783424 C10.3423183,13.3348129 10.4551683,13.0344247 10.4548572,12.6852247 L10.447063,1.40028353 C10.4467513,1.03753059 10.3319269,0.732695294 10.1056034,0.494036471" id="Fill-1" fill="#FFFFFF"></path>
                                <g id="Group-5" transform="translate(12.053960, 3.977788)">
                                    <mask id="mask-7" fill="white">
                                        <use xlink:href="#path-6"></use>
                                    </mask>
                                    <g id="Clip-4"></g>
                                    <path d="M8.74914848,0.158950588 C8.0800498,-0.125872941 7.5174624,0.0929858824 7.20198118,0.769785882 L4.91692449,6.03986824 L2.2971626,0.747232941 C2.15386596,0.439856471 1.93772599,0.228197647 1.65383445,0.117656471 C1.37035857,0.00785647059 1.07285438,0.0181270588 0.768907546,0.148468235 C0.469117253,0.277644706 0.246430738,0.498621176 0.124955919,0.787785882 C-0.00400066768,1.09516235 0.0152233199,1.42604471 0.180237873,1.74422118 L3.77107092,8.68258588 L2.22369579,12.2514565 C2.07000781,12.58848 2.04340596,12.9003035 2.14461766,13.1784565 C2.24707632,13.4598918 2.47204893,13.6826682 2.82119811,13.8439271 C3.02549195,13.93308 3.20495047,13.9764918 3.36954937,13.9764918 L3.3705885,13.9764918 C3.63608736,13.9761741 4.11824575,13.8759035 4.37470413,13.2100094 L9.36774523,1.74962118 C9.52143321,1.40423294 9.54491765,1.08743294 9.43757506,0.808221176 C9.32960899,0.527315294 9.09840157,0.309091765 8.74914848,0.158950588" id="Fill-3" fill="#FFFFFF" mask="url(#mask-7)"></path>
                                </g>
                                <path d="M29.5195136,10.3839035 C29.2953723,10.7975859 29.001609,11.11428 28.6213897,11.3521976 C28.2458465,11.5870447 27.8268675,11.7012918 27.3407604,11.7017153 L27.3385782,11.7017153 C26.8632781,11.7017153 26.4468969,11.5875741 26.0655346,11.3526212 C25.6814705,11.1165035 25.3885385,10.8016094 25.1699046,10.3902565 C24.9516863,9.98049176 24.8409146,9.50995059 24.8406022,8.99155059 C24.8402911,8.46235059 24.9504394,7.98577412 25.1680341,7.57548 C25.3861485,7.16391529 25.6787687,6.84859765 26.0622093,6.61173882 C26.4441952,6.37583294 26.8610959,6.26126824 27.3369156,6.26095059 L27.3390978,6.26095059 C27.8241657,6.26095059 28.2425213,6.37466824 28.6180645,6.60856235 C28.9984916,6.84584471 29.2927745,7.16211529 29.5173314,7.57537412 C29.739914,7.98513882 29.8528679,8.46033882 29.8531803,8.98773882 C29.8534914,9.50444471 29.7412649,9.97424471 29.5195136,10.3839035 M29.8438275,4.61320941 C29.1094711,4.17369176 28.266837,3.95070353 27.338786,3.95070353 L27.335253,3.95070353 C26.4166581,3.95133882 25.5783883,4.17559765 24.8437203,4.61702118 C24.1107148,5.05749176 23.5234999,5.66578588 23.09839,6.42485647 C22.6741114,7.18286824 22.4533993,8.04517412 22.4425923,8.99313882 L22.4479958,16.5941153 C22.4482036,16.9438447 22.5707175,17.2532329 22.8022367,17.4888212 C23.0334441,17.7239859 23.3366635,17.8482918 23.6792662,17.8482918 L23.6808249,17.8482918 C24.0367284,17.8479741 24.3447279,17.7216565 24.5718827,17.4821506 C24.7941535,17.2466682 24.9116797,16.9389741 24.9114718,16.5925271 L24.9089779,13.0458918 C25.1583702,13.2443153 25.4285451,13.4170094 25.7179441,13.5625976 C26.3096272,13.8605506 26.9649054,14.0116447 27.6654899,14.0116447 L27.6694386,14.0116447 C28.5383628,14.0111153 29.3303911,13.7847388 30.0237016,13.3391859 C30.7117126,12.8975506 31.2614147,12.2909506 31.6579484,11.5364329 C32.0522999,10.7855153 32.2519177,9.92733882 32.2511923,8.98615059 C32.2504629,8.04009176 32.0309977,7.17566824 31.5988217,6.41649176 C31.1672691,5.65911529 30.5768329,5.05230353 29.8438275,4.61320941" id="Fill-6" fill="#FFFFFF"></path>
                                <path d="M36.0334319,7.82835882 C36.0698016,7.72120588 36.1114709,7.61754706 36.1587515,7.51748824 C36.3558753,7.10105294 36.636026,6.78245294 37.0149983,6.54358235 C37.391165,6.30682941 37.8575285,6.18665294 38.4010998,6.18612353 L38.403282,6.18612353 C38.8659046,6.18612353 39.2598405,6.29253529 39.5735552,6.50207647 C39.8969338,6.71860588 40.140403,7.00586471 40.3176794,7.38037059 C40.3839762,7.52077059 40.4390503,7.66911176 40.4827978,7.82528824 L36.0334319,7.82835882 Z M42.8001716,7.82348824 C42.71808,7.28232353 42.5673016,6.78118235 42.3491872,6.32588824 C41.9949463,5.58693529 41.4738204,4.99833529 40.8005652,4.57628824 C40.1299078,4.15593529 39.3236433,3.9429 38.4042172,3.9429 L38.3995411,3.9429 C37.4711783,3.94332353 36.633532,4.16144118 35.9097749,4.59121765 C35.1849786,5.02184118 34.6101294,5.62388824 34.2007104,6.38041765 C33.7939932,7.13302941 33.5880368,8.00941765 33.5887622,8.98522941 C33.5893876,9.95426471 33.8091646,10.8276882 34.2419641,11.5809353 C34.6755949,12.3363 35.2828651,12.9360176 36.0469406,13.3635706 C36.805301,13.7882647 37.6800444,14.0036294 38.6471668,14.0036294 L38.6519468,14.0036294 L38.6519468,14.0036294 C39.1952063,14.0033118 39.7690164,13.9003941 40.3573743,13.6979471 C40.9486418,13.4945471 41.4540768,13.2249706 41.8537279,12.9012882 C42.2209581,12.6146647 42.2829944,12.2749941 42.270213,12.0399353 C42.2529634,11.7288529 42.1086276,11.4494294 41.8346079,11.2033588 C41.6192992,11.0185941 41.355359,10.9277471 41.0677266,10.9335706 C40.7953695,10.9419353 40.541405,11.0331 40.3095741,11.2064294 C40.1239847,11.3483118 39.8707476,11.4777 39.5565134,11.5911 C39.2466435,11.7032294 38.9418653,11.7599824 38.650492,11.7603 L38.6482059,11.7603 C38.0996469,11.7603 37.6105263,11.6381118 37.1940412,11.3973353 C36.7726722,11.1540176 36.4513718,10.8322412 36.2119552,10.4132647 C36.1321497,10.2738176 36.0656451,10.1264294 36.0125453,9.97162941 L41.7246674,9.96760588 C42.0434739,9.96739412 42.3253911,9.8559 42.5396606,9.64551176 C42.7586062,9.43088824 42.874158,9.14828824 42.8737434,8.82841765 C42.8736384,8.51659412 42.8538949,8.21525294 42.8147195,7.92502941 L42.8001716,7.82348824 Z" id="Fill-8" fill="#FFFFFF"></path>
                                <path d="M50.7709772,4.29256588 C50.3795352,4.02955412 49.8305605,3.90175412 49.0925672,3.90175412 L49.0873715,3.90175412 C48.367667,3.90217765 47.6970096,4.07709529 47.0942077,4.42163647 C46.9391689,4.51004824 46.7920274,4.60693059 46.6527834,4.71207176 C46.5991641,4.56415412 46.519982,4.43656588 46.415549,4.33015412 C46.2024225,4.11394235 45.9021127,4.00435412 45.5231403,4.00435412 L45.5212699,4.00435412 C45.1514419,4.00446 44.8534182,4.11764824 44.6353039,4.34021294 C44.4169817,4.56288353 44.3064178,4.86697765 44.3067289,5.24349529 L44.3119252,12.6947541 C44.3123409,13.0857776 44.4251909,13.3942129 44.6470461,13.61106 C44.8645369,13.8242012 45.1605863,13.9320953 45.527193,13.9320953 L45.5281282,13.9320953 L45.528336,13.9320953 C45.9118805,13.9316718 46.2144765,13.8167894 46.4281225,13.5904129 C46.6371964,13.3683776 46.7429803,13.0662953 46.7426685,12.6928482 L46.7395511,8.23033059 L46.7396551,8.23033059 L46.7392394,7.82543647 C46.7389277,7.42096588 46.8592594,7.09950706 47.1073008,6.84231882 C47.3716566,6.56766 47.7474077,6.37516588 48.2239547,6.27002471 C48.7235706,6.15990706 49.3018489,6.17123647 49.9322918,6.30083647 C50.1268177,6.34636588 50.3131346,6.35314235 50.4850074,6.32095412 C50.6761042,6.28558941 50.8479771,6.20035412 50.9965733,6.06694235 C51.1520278,5.92664824 51.2566686,5.73500118 51.3076901,5.49793059 C51.3749221,5.22306 51.3903013,4.70953059 50.7709772,4.29256588" id="Fill-10" fill="#FFFFFF"></path>
                                <path d="M65.5642825,0.334281176 L65.5640746,0.334069412 C65.3383746,0.112351765 65.0588475,1.05882353e-05 64.732871,1.05882353e-05 L64.7322475,1.05882353e-05 C64.2877058,0.000434117647 63.9298279,0.220034118 63.6975813,0.635198824 L59.3394514,9.89852824 L54.8562096,0.657434118 L54.8480005,0.641869412 C54.6148187,0.22734 54.2571486,0.00826941176 53.8132304,0.00826941176 L53.8123991,0.00826941176 C53.4863187,0.00858705882 53.2065837,0.121351765 52.9809876,0.343810588 C52.7527937,0.569128235 52.637138,0.859669412 52.6373455,1.20738706 L52.645555,12.7432694 C52.6457628,13.0778576 52.7604833,13.3642694 52.9867028,13.5942459 C53.2127146,13.8241165 53.4933848,13.9406929 53.8211278,13.9406929 L53.8222709,13.9406929 C54.1506373,13.9403753 54.4315154,13.8233753 54.6574232,13.5930812 C54.8832271,13.3625753 54.9975319,13.0760576 54.9973241,12.7416812 L54.9924402,5.75196353 L58.20295,12.7217753 C58.4218956,13.1821518 58.7945293,13.4253635 59.2806364,13.4253635 L59.2818833,13.4253635 C59.696498,13.4250459 60.0452315,13.2228106 60.2903633,12.8402576 L60.3006507,12.8241635 L63.5604156,5.60690471 L63.5654034,12.7350106 C63.5657151,13.0694929 63.6804356,13.3557988 63.9066552,13.5860929 C64.1326669,13.8157518 64.4133371,13.9324341 64.7409762,13.9324341 L64.7421193,13.9324341 C65.0570809,13.9322224 65.3340103,13.8164929 65.5654255,13.5883165 C65.7991268,13.3573871 65.9174843,13.0697047 65.9172767,12.7334224 L65.9090673,1.19743412 C65.9088594,0.849504706 65.792892,0.559175294 65.5642825,0.334281176" id="Fill-12" fill="#FFFFFF"></path>
                                <path d="M69.8557311,7.88532353 C69.9028039,7.72247647 69.9610994,7.56735882 70.029994,7.42145294 C70.2398991,6.97780588 70.5385464,6.63824118 70.9427697,6.38348824 C71.3430443,6.13148824 71.8374645,6.00347647 72.4122097,6.00305294 L72.4151193,6.00305294 C72.9074612,6.00305294 73.3282068,6.1173 73.6656137,6.34261765 C74.0118533,6.57428824 74.2721565,6.88145294 74.4614868,7.28137059 C74.5493976,7.46751176 74.6187079,7.66837059 74.669002,7.88193529 L69.8557311,7.88532353 Z M74.8127143,4.54579412 C74.1429921,4.12607647 73.3364159,3.91325294 72.4149115,3.91325294 L72.410651,3.91325294 C71.4793787,3.91388824 70.6400698,4.13242941 69.9157931,4.56231176 C69.190789,4.99304118 68.6155242,5.5953 68.2060013,6.35246471 C67.7984527,7.10634706 67.5920806,7.98548824 67.5927027,8.96585294 C67.5934315,9.93838235 67.8135202,10.8138176 68.2467353,11.5681235 C68.680574,12.3242294 69.2886755,12.9245824 70.0538941,13.3527706 C70.8142288,13.7785235 71.6921935,13.9944176 72.6635764,13.9944176 L72.6686681,13.9944176 C73.2127589,13.9939941 73.7884394,13.8906529 74.3799148,13.6871471 C74.9735723,13.4830059 75.4800464,13.2132176 75.8807367,12.8885824 C76.2216767,12.6227118 76.2792447,12.3102529 76.2676064,12.0945706 C76.2513959,11.8046647 76.1152693,11.5426059 75.8578757,11.3114647 C75.6542054,11.1363353 75.4129183,11.0532176 75.1409768,11.0595706 C74.8835832,11.0675118 74.6429197,11.1538059 74.4229349,11.3183471 C74.2253955,11.4694412 73.9576105,11.6065588 73.6266462,11.7258882 C73.2994227,11.8443706 72.9766676,11.9045118 72.6672133,11.9047235 L72.6640959,11.9047235 C72.0864411,11.9047235 71.5700952,11.7755471 71.1289826,11.5204765 C70.6884935,11.2662529 70.3383052,10.9151471 70.0880816,10.4771118 C69.9809468,10.2898059 69.8960496,10.0875706 69.834325,9.87284118 L75.809556,9.86839412 C76.1133989,9.86839412 76.3704807,9.76706471 76.5737354,9.56768824 C76.7773019,9.36778235 76.8847484,9.10434706 76.8844373,8.80586471 C76.8838132,7.86552353 76.7068486,7.01984118 76.3584268,6.29232353 C76.0044976,5.55432353 75.4844108,4.96688824 74.8127143,4.54579412 L74.8127143,4.54579412 Z" id="Fill-14" fill="#FFFFFF"></path>
                                <path d="M80.3218623,7.87798588 C80.3689351,7.71513882 80.4272305,7.56002118 80.496229,7.41400941 C80.7059264,6.97057412 81.0044697,6.63100941 81.4087969,6.37615059 C81.8092793,6.12415059 82.3036995,5.99613882 82.878237,5.99560941 L82.880627,5.99560941 C83.3731767,5.99560941 83.794234,6.10985647 84.131641,6.33528 C84.4779845,6.56695059 84.7382877,6.87411529 84.927514,7.27392706 C85.0154248,7.46006824 85.084839,7.66113882 85.1351331,7.87449176 L80.3218623,7.87798588 Z M85.2788454,4.53845647 L85.2788454,4.53835059 C84.6089154,4.11863294 83.8022353,3.90580941 82.8809387,3.90580941 L82.8767822,3.90580941 C81.945302,3.90655059 81.1058892,4.12509176 80.3820282,4.55497412 C79.657128,4.98559765 79.0818631,5.58775059 78.6721324,6.34502118 C78.2644799,7.09890353 78.0581078,7.97815059 78.0589367,8.95862118 C78.0595626,9.93104471 78.2796513,10.8065859 78.7128665,11.5607859 C79.1467051,12.31668 79.7548066,12.9171388 80.5199213,13.3453271 C81.2803599,13.77108 82.1583246,13.9869741 83.1297075,13.9869741 L83.1347993,13.9869741 C83.6787862,13.9866565 84.2545706,13.8834212 84.8460459,13.6799153 C85.4393917,13.47588 85.9458658,13.2059859 86.3469717,12.8812447 C86.6879117,12.6150565 86.7453759,12.3028094 86.7336336,12.0872329 C86.7175271,11.7972212 86.5812965,11.5351624 86.3240068,11.3041271 C86.1202326,11.1289976 85.8791534,11.0465153 85.6069002,11.0521271 C85.3495065,11.06028 85.108843,11.1465741 84.8889622,11.3109035 C84.6915266,11.4619976 84.4237417,11.5992212 84.0928812,11.7185506 C83.7652421,11.8370329 83.442487,11.8971741 83.1333445,11.8973859 L83.1302271,11.8973859 C82.5525722,11.8973859 82.0361224,11.7681035 81.5952176,11.5132447 C81.1545207,11.2588094 80.8043324,10.9077035 80.5541088,10.4697741 C80.447078,10.2823624 80.3621807,10.0802329 80.3003522,9.86550353 L86.275791,9.86105647 C86.5797378,9.86084471 86.8367158,9.75972706 87.0398666,9.56045647 C87.2433291,9.36044471 87.3508795,9.09700941 87.3505685,8.79842118 C87.3499443,7.85808 87.1729797,7.01239765 86.824454,6.28477412 C86.4706287,5.54698588 85.9505419,4.95955059 85.2788454,4.53845647 L85.2788454,4.53845647 Z" id="Fill-16" fill="#FFFFFF"></path>
                                <path d="M93.2209293,11.5833494 L93.2204098,11.5833494 L92.6516915,11.5837729 L92.6508602,11.5837729 C92.3853613,11.5837729 92.1741053,11.4742906 91.985918,11.23902 C91.7845337,10.9877612 91.6864395,10.6787965 91.6862316,10.2948671 L91.683426,6.39807882 L92.7986251,6.39733765 C93.1109889,6.39702 93.3721234,6.30024353 93.5749624,6.10933765 C93.7814384,5.91451412 93.8903397,5.65827882 93.8901319,5.36869059 C93.890028,5.05644353 93.7806071,4.78877294 93.5737155,4.59437294 C93.3710842,4.40410235 93.1103654,4.30774941 92.7984172,4.30774941 L92.7971703,4.30774941 L91.6820751,4.30849059 L91.6805164,2.16680824 C91.6802046,1.83253765 91.5711994,1.55216118 91.3559947,1.33287882 C91.1409978,1.11433765 90.865835,1.00358471 90.5382998,1.00358471 L90.5371567,1.00358471 C90.2087903,1.00390235 89.9334196,1.11507882 89.7188384,1.33404353 C89.5040493,1.55322 89.3953558,1.83402 89.3955636,2.16850235 L89.3971223,4.31018471 L88.934084,4.31050235 C88.6213045,4.31071412 88.3600661,4.40759647 88.1581623,4.59818471 C87.9514785,4.79258471 87.8423693,5.06057294 87.8425769,5.37313765 C87.842785,5.66336118 87.9522059,5.91938471 88.1589936,6.11346706 C88.361417,6.30373765 88.6222398,6.40009059 88.9342918,6.40009059 L88.9356427,6.40009059 L89.3984732,6.39977294 L89.4012789,10.2965612 C89.4017984,10.9695494 89.5433285,11.5857847 89.8220244,12.1276906 C90.1024868,12.6738318 90.4932014,13.1119729 90.9832572,13.42962 C91.4765343,13.7497024 92.037563,13.9119141 92.6508602,13.9119141 L92.653458,13.9119141 L92.9544952,13.9117024 C93.3177766,13.9113847 93.62349,13.8060318 93.8630105,13.5985024 C94.1141693,13.3812318 94.2468668,13.0866671 94.2466592,12.7465729 C94.2463472,12.4193965 94.1497077,12.1432553 93.9589226,11.9253494 C93.7621105,11.7015141 93.5068991,11.5833494 93.2209293,11.5833494" id="Fill-18" fill="#FFFFFF"></path>
                                <path d="M97.0420346,0.197894118 L97.0409954,0.197894118 C96.6572431,0.198211765 96.3228496,0.341047059 96.0470633,0.622376471 C95.7713809,0.903705882 95.6317213,1.24464706 95.6320325,1.63567059 C95.6322408,2.02669412 95.7723162,2.36752941 96.0485181,2.64864706 C96.3244083,2.92912941 96.6585939,3.07143529 97.0419307,3.07143529 L97.0429698,3.07143529 C97.4268261,3.07111765 97.7612195,2.92838824 98.0369019,2.64705882 C98.3126882,2.36572941 98.4522439,2.02468235 98.4520363,1.63365882 C98.4518283,1.24252941 98.3116491,0.9018 98.035551,0.621 C97.7597647,0.340305882 97.4254752,0.197894118 97.0420346,0.197894118" id="Fill-20" fill="#FFFFFF"></path>
                                <path d="M97.8794315,4.29328588 L97.8791197,4.29296824 C97.6641228,4.07442706 97.3834526,3.96378 97.0447987,3.96378 L97.0436556,3.96378 C96.7172635,3.96399176 96.4404381,4.07400353 96.220765,4.29053294 C95.9978707,4.51002706 95.8851246,4.79781529 95.8853321,5.14574471 L95.890632,12.7284035 C95.8909438,13.0634153 96.0029624,13.3469682 96.223259,13.5706976 C96.4433476,13.7949565 96.72142,13.90878 97.0500982,13.90878 L97.0507217,13.90878 C97.3919735,13.9085682 97.6742024,13.7931565 97.8895111,13.5657212 C98.1018062,13.3416741 98.2092527,13.0592859 98.2090452,12.7267094 L98.2037453,5.14415647 C98.2034336,4.79855647 98.0943245,4.51235647 97.8794315,4.29328588" id="Fill-22" fill="#FFFFFF"></path>
                                <path d="M109.081031,6.00725647 L109.081031,6.00725647 C108.702266,5.31012706 108.17688,4.77309176 107.519316,4.41086824 C106.869649,4.05340941 106.127187,3.87224471 105.312298,3.87224471 L105.307934,3.87224471 C104.523699,3.87277412 103.804826,4.05245647 103.171161,4.40631529 C103.008225,4.49726824 102.852563,4.59817412 102.705213,4.70808 C102.651386,4.54925647 102.56545,4.40928 102.447612,4.28920941 C102.232615,4.07088 101.951945,3.96012706 101.613499,3.96012706 L101.612252,3.96012706 C101.285964,3.96023294 101.009034,4.07024471 100.789257,4.28698588 C100.566467,4.50658588 100.453617,4.79426824 100.453824,5.14209176 L100.459228,12.7417976 C100.459436,13.0767035 100.571455,13.3601506 100.791855,13.5841976 C101.011944,13.8085624 101.289912,13.9221741 101.617967,13.9221741 L101.61911,13.9221741 C101.96057,13.9220682 102.242799,13.8066565 102.458107,13.5793271 C102.670299,13.3550682 102.777849,13.07268 102.777641,12.7402094 L102.774316,7.93399765 C102.774108,7.57622118 102.865136,7.27032706 103.052492,6.99789176 C103.24442,6.71868 103.509815,6.49113882 103.841299,6.32204471 C104.175485,6.15125647 104.556847,6.06475059 104.975099,6.06443294 L104.977904,6.06443294 C105.439488,6.06443294 105.851609,6.15369176 106.202524,6.32956235 C106.54679,6.50225647 106.813847,6.76008 107.018972,7.11775059 C107.224513,7.47637412 107.328946,7.95655059 107.329362,8.54504471 L107.332375,12.7368212 C107.332583,13.0716212 107.444498,13.3550682 107.665002,13.5791153 C107.885195,13.80348 108.163163,13.9171976 108.491322,13.9171976 L108.492361,13.9171976 C108.820832,13.91688 109.099008,13.8028447 109.3192,13.5780565 C109.539393,13.3532682 109.650892,13.0696094 109.650685,12.7352329 L109.647775,8.54345647 C109.647047,7.55176235 109.456366,6.69845647 109.081031,6.00725647" id="Fill-24" fill="#FFFFFF"></path>
                                <g id="Group-28" transform="translate(110.979561, 3.871906)">
                                    <mask id="mask-9" fill="white">
                                        <use xlink:href="#path-8"></use>
                                    </mask>
                                    <g id="Clip-27"></g>
                                    <path d="M7.33591522,6.56224941 C7.11302088,6.98683765 6.79951401,7.32502588 6.40391552,7.56728471 C6.00831703,7.80943765 5.54372001,7.93236706 5.02332147,7.93279059 L5.02093146,7.93279059 C4.50105249,7.93279059 4.03707895,7.81049647 3.64200003,7.56929647 C3.24525849,7.32724941 2.92790683,6.98874353 2.69877768,6.56309647 C2.46840157,6.13522588 2.35129111,5.62963765 2.35087435,5.06041412 C2.35045981,4.49097882 2.46705069,3.98189647 2.69753072,3.54724941 C2.92593247,3.11641412 3.24255674,2.77494353 3.63846697,2.53257882 C4.03385764,2.29042588 4.49835074,2.16749647 5.01916493,2.16707294 L5.02145103,2.16707294 C5.54112218,2.16707294 6.00509571,2.28947294 6.40027855,2.53056706 C6.79577313,2.77208471 7.10959173,3.11217882 7.33310956,3.54142588 C7.55943304,3.97649647 7.67446523,4.48621412 7.67488201,5.05649647 C7.67529654,5.62635529 7.56119957,6.13300235 7.33591522,6.56224941 L7.33591522,6.56224941 Z M9.92637352,5.05490824 C9.92554221,4.07327294 9.71179226,3.19328471 9.29083888,2.43887294 C8.86884638,1.68340235 8.28142367,1.08273176 7.54488516,0.653484706 C6.81032101,0.226037647 5.96145207,0.00929647059 5.02176277,0.00929647059 L5.01760623,0.00929647059 C4.06482384,0.00993176471 3.20909661,0.228049412 2.47453246,0.657296471 C1.73851352,1.08739059 1.15202603,1.68901412 0.731176573,2.44522588 C0.311158424,3.19974353 0.0986554259,4.08026118 0.099380959,5.06210824 C0.100110214,6.02934353 0.298273156,6.90086118 0.688468147,7.65273176 C1.08126097,8.40926118 1.6278457,9.01109647 2.31315488,9.44108471 C2.99939928,9.87244941 3.7978702,10.0908847 4.68643408,10.0908847 L4.69038279,10.0908847 C5.51763774,10.0902494 6.26134627,9.86842588 6.90051788,9.43155529 C7.18513681,9.23704941 7.44419303,9.00760235 7.67602393,8.74490824 C7.66199561,9.37321412 7.54020905,9.91130824 7.31326209,10.3456376 C7.07519638,10.8013553 6.75254513,11.1494965 6.35445272,11.3806376 C5.95189203,11.6137906 5.50485638,11.7322729 5.02602322,11.7325906 L5.02300973,11.7325906 C4.49211593,11.7325906 4.01307495,11.6336965 3.59918769,11.4389788 C3.1881061,11.24532 2.8426978,10.9716141 2.57782243,10.6325788 C2.39815608,10.3886259 2.15905124,10.2342494 1.86726228,10.1735788 C1.56778373,10.11132 1.27900826,10.1728376 1.00519633,10.3590847 C0.759129291,10.5315671 0.606792178,10.7645082 0.552445446,11.0511318 C0.496955666,11.3417788 0.57187726,11.6342259 0.772845865,11.9014729 C1.28077479,12.5508494 1.91017854,13.05072 2.64349573,13.3875318 C3.3704742,13.7212729 4.15959291,13.8904729 4.98923786,13.8904729 L4.99391397,13.8904729 C5.96062076,13.8898376 6.82705107,13.6560494 7.56920091,13.1955671 C8.30916856,12.7363553 8.89430517,12.1085788 9.30840026,11.32992 C9.72083273,10.5540141 9.92959484,9.68101412 9.92897275,8.73548471 L9.92637352,5.05490824 Z" id="Fill-26" fill="#FFFFFF" mask="url(#mask-9)"></path>
                                </g>
                            </g>
                        </g>
                    </g>
                </g>
            </g>
        </g>
    </g>
</svg>