<?xml version="1.0" encoding="UTF-8"?>
<svg width="90px" height="59px" viewBox="0 0 90 59" version="1.1" xmlns="http://www.w3.org/2000/svg" xmlns:xlink="http://www.w3.org/1999/xlink">
    <title>img_login_register</title>
    <g id="Ch2_2step_Register/Password/Error" stroke="none" stroke-width="1" fill="none" fill-rule="evenodd">
        <g id="Ch2_2step_Register/Password/Error10" transform="translate(-915.000000, -221.000000)">
            <g id="key" transform="translate(915.000000, 220.000000)">
                <path d="M83.313804,45.6663432 L84.0596798,44 L85.0604076,45.5262583 C85.8623241,46.7496665 86.9978166,47.7169193 88.3334546,48.3146149 L90,49.0590661 L88.4722222,50.0596725 C87.2486657,50.862826 86.2826298,51.9981807 85.6848617,53.3336568 L84.9389859,55 L83.9382581,53.4724075 C83.1363416,52.2503335 82.0008491,51.2817465 80.6665454,50.6853851 L79,49.9395998 L80.5251092,48.9389933 C81.7486657,48.137174 82.7173702,47.0004851 83.313804,45.6663432" id="Fill-1" fill="#0992AC"></path>
                <path d="M9.233,6.249 L9.792,5 L10.542,6.144 C11.143,7.061 11.994,7.786 12.995,8.234 L14.244,8.792 L13.099,9.542 C12.182,10.144 11.458,10.995 11.01,11.996 L10.451,13.245 L9.701,12.1 C9.1,11.184 8.249,10.458 7.249,10.011 L6,9.452 L7.143,8.702 C8.06,8.101 8.786,7.249 9.233,6.249" id="Fill-1" fill="#1A3755"></path>
                <path d="M2.35298399,20.9089145 L2.75982533,20 L3.30567686,20.8325045 C3.74308588,21.4998181 4.36244541,22.0274106 5.09097525,22.3534263 L6,22.7594906 L5.16666667,23.3052759 C4.4992722,23.7433596 3.97234352,24.362644 3.64628821,25.0910855 L3.23944687,26 L2.69359534,25.1667677 C2.25618632,24.5001819 1.63682678,23.9718617 0.909024745,23.6465737 L0,23.2397817 L0.831877729,22.6939964 C1.4992722,22.2566404 2.02765648,21.6366283 2.35298399,20.9089145" id="Fill-1" fill="#ED425C"></path>
                <g id="clipboard" transform="translate(23.000000, 1.000000)">
                    <rect id="Rectangle" fill="#B9DCFF" x="6" y="14" width="39" height="45" rx="4"></rect>
                    <path d="M36.6545211,7.20603515 L31.8181818,7.20603515 L31.8181818,4.98004371 C31.8181818,4.25985158 31.0545942,3.9325257 30.3545881,3.9325257 L26.6001096,3.9325257 C25.7092371,1.31366801 23.4819339,0.00423916218 20.9364793,0.00423916218 C18.4190397,-0.0931315156 16.1292512,1.49500053 15.2728491,3.9325257 L11.5819522,3.9325257 C10.8819461,3.9325257 10.18194,4.25985158 10.18194,4.98004371 L10.18194,7.20603515 L5.34547891,7.20603515 C2.47943692,7.23748951 0.134714936,9.56360859 0,12.5091656 L0,50.0241955 C0,52.904964 2.54545455,55 5.34547891,55 L36.6545211,55 C39.4545455,55 42,52.904964 42,50.0241955 L42,12.5092909 C41.8652851,9.56360859 39.5205631,7.23748951 36.6545211,7.20603515 Z M12.6,6.30914665 L16.1538509,6.30914665 C16.7742134,6.23116821 17.272507,5.7449497 17.3815898,5.11092893 C17.7642456,3.39412909 19.2262283,2.16176395 20.9354407,2.11538462 C22.6288226,2.16826215 24.0687908,3.40444977 24.4246087,5.11092893 C24.5404938,5.76686521 25.0716854,6.25932709 25.7169069,6.30914665 L29.4,6.30914665 L29.4,11.6346154 L12.6,11.6346154 L12.6,6.30914665 Z M39.9,50.4828622 C39.9,51.9506287 38.4661944,52.8846154 37.0323888,52.8846154 L4.96761116,52.8846154 C3.53380558,52.8846154 2.1,51.9506287 2.1,50.4828622 L2.1,12.2546601 C2.23297692,10.7268754 3.46943776,9.54732444 4.96761116,9.51923077 L9.92068966,9.51923077 L9.92068966,12.9218847 C9.98954825,13.6694316 10.6219995,14.2286233 11.3544952,14.1895475 L30.5802637,14.1895475 C31.3262318,14.2313049 31.9785173,13.6797752 32.0791856,12.9218847 L32.0791856,9.51923077 L37.0322641,9.51923077 C38.5303128,9.54732444 39.7668983,10.7267477 39.9,12.2545324 L39.9,50.4828622 L39.9,50.4828622 Z" id="Shape" fill="#1A3755" fill-rule="nonzero"></path>
                    <path d="M13.6517212,30.3274637 C13.2270257,29.9122001 12.5219813,29.888778 12.0664009,30.2749903 L8.44288897,33.4785814 L6.91424529,32.0080196 C6.4895498,31.592756 5.78450544,31.5694345 5.32892498,31.9555462 C4.89035834,32.3817668 4.89035834,33.0523607 5.32892498,33.4785814 L7.65017463,35.6843738 C7.85108951,35.8930611 8.1412999,36.0084624 8.4427806,35.9995158 C8.74144372,35.9955953 9.02634406,35.8823051 9.23538657,35.6843738 L13.6515044,31.7980255 C14.0893125,31.4254845 14.1185719,30.7941954 13.7168505,30.38818 C13.6962606,30.3669695 13.6744785,30.3467642 13.6517212,30.3274637 Z" id="Path" fill="#1A3755" fill-rule="nonzero"></path>
                    <path d="M34.6666619,31 L19.3333381,31 C18.5969332,31 18,31.4476983 18,32 C18,32.5523017 18.5969332,33 19.3333381,33 L34.6666619,33 C35.4030668,33 36,32.5523017 36,32 C36,31.4476983 35.4030668,31 34.6666619,31 Z" id="Path" fill="#1A3755" fill-rule="nonzero"></path>
                    <path d="M13.6517212,20.3274637 C13.2270257,19.9122001 12.5219813,19.888778 12.0664009,20.2749903 L8.44288897,23.4785814 L6.91424529,22.0080196 C6.4895498,21.592756 5.78450544,21.569334 5.32892498,21.9555462 C4.89035834,22.3817668 4.89035834,23.0523607 5.32892498,23.4785814 L7.65017463,25.6843738 C7.85108951,25.8930611 8.1412999,26.0084624 8.4427806,25.9995158 C8.74144372,25.9955953 9.02634406,25.8823051 9.23538657,25.6843738 L13.6515044,21.7980255 C14.0893125,21.4254845 14.1185719,20.7941954 13.7168505,20.38818 C13.6962606,20.3669695 13.6744785,20.3467642 13.6517212,20.3274637 Z" id="Path" fill="#1A3755" fill-rule="nonzero"></path>
                    <path d="M34.6666619,22 L19.3333381,22 C18.5969332,22 18,22.4476983 18,23 C18,23.5523017 18.5969332,24 19.3333381,24 L34.6666619,24 C35.4030668,24 36,23.5523017 36,23 C36,22.4476983 35.4030668,22 34.6666619,22 Z" id="Path" fill="#1A3755" fill-rule="nonzero"></path>
                    <path d="M13.6517212,39.3274264 C13.2270257,38.9121601 12.5219813,38.8888384 12.0664009,39.2749527 L8.44288897,42.4785648 L6.91424529,41.0079934 C6.4895498,40.5927271 5.78450544,40.5694054 5.32892498,40.9555196 C4.89035834,41.3817431 4.89035834,42.0523414 5.32892498,42.4785648 L7.65017463,44.6843718 C7.85108951,44.8930604 8.1412999,45.0084624 8.4427806,44.9995158 C8.74144372,44.9955953 9.02634406,44.8823043 9.23538657,44.6843718 L13.6515044,40.7979979 C14.0893125,40.4254545 14.1185719,39.7941612 13.7168505,39.3881432 C13.6962606,39.367033 13.6744785,39.3468276 13.6517212,39.3274264 Z" id="Path" fill="#1A3755" fill-rule="nonzero"></path>
                    <path d="M34.6666619,41 L19.3333381,41 C18.5969332,41 18,41.4476983 18,42 C18,42.5523017 18.5969332,43 19.3333381,43 L34.6666619,43 C35.4030668,43 36,42.5523017 36,42 C36,41.4476983 35.4030668,41 34.6666619,41 Z" id="Path" fill="#1A3755" fill-rule="nonzero"></path>
                </g>
                <rect id="img_login_register" opacity="0" x="0" y="0" width="90" height="60"></rect>
            </g>
        </g>
    </g>
</svg>