<?xml version="1.0" encoding="UTF-8"?>
<svg width="90px" height="50px" viewBox="0 0 90 50" version="1.1" xmlns="http://www.w3.org/2000/svg" xmlns:xlink="http://www.w3.org/1999/xlink">
    <title>img_login_password</title>
    <g id="Ch2_2step_Register/Password/Error" stroke="none" stroke-width="1" fill="none" fill-rule="evenodd">
        <g id="Ch2_2step_Register/Password/Error06" transform="translate(-135.000000, -105.000000)">
            <g id="Group-5" transform="translate(72.000000, 100.000000)">
                <g id="key" transform="translate(63.000000, 0.000000)">
                    <path d="M57.9047619,57.8174699 L57.1428571,57.8174699 L57.1428571,57.0204819 C57.1428571,55.7629108 56.1194667,54.7433735 54.8571429,54.7433735 L52.5714286,54.7433735 L52.5714286,38.2155133 C59.1733333,36.2511277 64,30.146959 64,22.939759 C64,14.1505759 56.8224,7 48,7 C39.1776,7 32,14.1505759 32,22.939759 C32,30.146959 36.8266667,36.2511277 43.4285714,38.2155133 L43.4285714,65.4457831 C43.4285714,67.9569783 45.4793143,70 48,70 C50.5206857,70 52.5714286,67.9569783 52.5714286,65.4457831 L54.8571429,65.4457831 C56.1194667,65.4457831 57.1428571,64.4262458 57.1428571,63.1686747 L57.1428571,62.3716867 L57.9047619,62.3716867 C59.1670857,62.3716867 60.1904762,61.3521494 60.1904762,60.0945783 C60.1904762,58.8370072 59.1670857,57.8174699 57.9047619,57.8174699 Z" id="XMLID_27_" fill="#B9DCFF" fill-rule="nonzero" transform="translate(48.000000, 38.500000) rotate(-90.000000) translate(-48.000000, -38.500000) "></path>
                    <path d="M53.9047619,53.8174699 L53.1428571,53.8174699 L53.1428571,53.0204819 C53.1428571,51.7629108 52.1194667,50.7433735 50.8571429,50.7433735 L48.5714286,50.7433735 L48.5714286,34.2155133 C55.1733333,32.2511277 60,26.146959 60,18.939759 C60,10.1505759 52.8224,3 44,3 C35.1776,3 28,10.1505759 28,18.939759 C28,26.146959 32.8266667,32.2511277 39.4285714,34.2155133 L39.4285714,61.4457831 C39.4285714,63.9569783 41.4793143,66 44,66 C46.5206857,66 48.5714286,63.9569783 48.5714286,61.4457831 L50.8571429,61.4457831 C52.1194667,61.4457831 53.1428571,60.4262458 53.1428571,59.1686747 L53.1428571,58.3716867 L53.9047619,58.3716867 C55.1670857,58.3716867 56.1904762,57.3521494 56.1904762,56.0945783 C56.1904762,54.8370072 55.1670857,53.8174699 53.9047619,53.8174699 Z" id="XMLID_27_" stroke="#1A3755" stroke-width="2" fill-opacity="0" fill="#FFFFFF" fill-rule="nonzero" transform="translate(44.000000, 34.500000) rotate(-90.000000) translate(-44.000000, -34.500000) "></path>
                    <path d="M83.313804,45.6663432 L84.0596798,44 L85.0604076,45.5262583 C85.8623241,46.7496665 86.9978166,47.7169193 88.3334546,48.3146149 L90,49.0590661 L88.4722222,50.0596725 C87.2486657,50.862826 86.2826298,51.9981807 85.6848617,53.3336568 L84.9389859,55 L83.9382581,53.4724075 C83.1363416,52.2503335 82.0008491,51.2817465 80.6665454,50.6853851 L79,49.9395998 L80.5251092,48.9389933 C81.7486657,48.137174 82.7173702,47.0004851 83.313804,45.6663432" id="Fill-1" fill="#0992AC"></path>
                    <path d="M9.233,6.249 L9.792,5 L10.542,6.144 C11.143,7.061 11.994,7.786 12.995,8.234 L14.244,8.792 L13.099,9.542 C12.182,10.144 11.458,10.995 11.01,11.996 L10.451,13.245 L9.701,12.1 C9.1,11.184 8.249,10.458 7.249,10.011 L6,9.452 L7.143,8.702 C8.06,8.101 8.786,7.249 9.233,6.249" id="Fill-1" fill="#1A3755"></path>
                    <path d="M2.35298399,20.9089145 L2.75982533,20 L3.30567686,20.8325045 C3.74308588,21.4998181 4.36244541,22.0274106 5.09097525,22.3534263 L6,22.7594906 L5.16666667,23.3052759 C4.4992722,23.7433596 3.97234352,24.362644 3.64628821,25.0910855 L3.23944687,26 L2.69359534,25.1667677 C2.25618632,24.5001819 1.63682678,23.9718617 0.909024745,23.6465737 L0,23.2397817 L0.831877729,22.6939964 C1.4992722,22.2566404 2.02765648,21.6366283 2.35298399,20.9089145" id="Fill-1" fill="#ED425C"></path>
                    <path d="M23,38 C20.7908,38 19,36.2092 19,34 C19,31.7908 20.7908,30 23,30 C25.2092,30 27,31.7908 27,34 C27,36.2092 25.2092,38 23,38 Z" id="XMLID_27_-path" stroke="#1A3755" stroke-width="2" fill="#B9DCFF" fill-rule="nonzero"></path>
                    <rect id="img_login_password" opacity="0" x="0" y="0" width="90" height="60"></rect>
                </g>
            </g>
        </g>
    </g>
</svg>