<?xml version="1.0" encoding="UTF-8"?>
<svg width="266px" height="51px" viewBox="0 0 266 51" version="1.1" xmlns="http://www.w3.org/2000/svg" xmlns:xlink="http://www.w3.org/1999/xlink">
    <title>login_logo</title>
    <g id="Ch1_1step_Login" stroke="none" stroke-width="1" fill="none" fill-rule="evenodd">
        <g id="Ch1_1step_Login02" transform="translate(-827.000000, -325.000000)" fill="#FFFFFF">
            <g id="bg" transform="translate(0.000000, -34.000000)">
                <g id="Group-19" transform="translate(827.000000, 359.000000)">
                    <path d="M160.549605,24.3951947 L165.766222,24.3951947 L165.546349,16.336164 C165.516854,15.334507 165.516854,14.3395816 165.550372,13.356773 C165.587911,12.3672328 165.642879,11.4032726 165.716617,10.4541218 C165.494063,11.2928749 165.223244,12.1868268 164.893434,13.1440555 C164.574351,14.1012842 164.176166,15.1675642 163.712288,16.336164 L160.549605,24.3951947 Z M143,39 L161.363403,0 L174.044971,0 L178,39 L166.451314,39 L166.145637,33.0048674 L157.038344,33.0048674 L154.571478,39 L143,39 Z" id="Fill-1"></path>
                    <path d="M249.818842,0 L247.749357,12.7869955 C249.942715,9.77892377 252.876617,8.27219731 256.553756,8.27219731 C258.670366,8.27219731 260.598474,8.85605381 262.362316,10.0210762 C264.122118,11.1820628 265,13.2161435 265,16.1165919 C265,17.2022422 264.866702,18.5529148 264.608185,20.1686099 L261.423844,39 L250.053123,39 L253.013954,21.3565022 C253.267086,19.8793722 253.394998,19.0116592 253.394998,18.7573991 C253.394998,17.1591928 252.437676,16.361435 250.505529,16.361435 C249.681505,16.361435 248.980007,16.5632287 248.406422,16.9681614 C247.838223,17.3704036 247.410053,17.8399103 247.128647,18.373991 C246.841854,18.9067265 246.571219,19.9022422 246.315394,21.3605381 L243.370721,39 L232,39 L238.453507,0 L249.818842,0 Z" id="Fill-3"></path>
                    <path d="M195.017302,35.3230589 C193.555799,36.5621451 192.115868,37.4854121 190.701554,38.0928599 C189.284544,38.6935882 187.87023,39 186.453219,39 C183.762113,39 181.913663,38.1103308 180.910565,36.3175532 C179.910163,34.5274635 179.733543,31.7926042 180.383399,28.1183509 L183.94143,8 L193.600291,8 L190.287642,26.7368102 C190.01934,28.2366151 190.038216,29.2996488 190.345616,29.9366628 C190.646276,30.5723328 191.267819,30.8894958 192.212942,30.8894958 C192.644382,30.8894958 193.129752,30.8034855 193.671749,30.6274331 C194.211048,30.4513808 194.815064,30.1946937 195.470314,29.8654355 L199.346532,8 L209,8 L205.69544,26.6817098 C205.458148,28.0336845 205.482416,28.9126024 205.776335,29.3171197 C206.063512,29.721637 206.737637,29.9608532 207.798709,30.0361122 L204.383593,38.4879698 C203.65419,38.66671 202.980065,38.803789 202.361218,38.879048 C201.745068,38.9610266 201.176107,39 200.644896,39 C199.062051,39 197.810875,38.7043395 196.887324,38.1022673 C195.962425,37.5069146 195.346275,36.578272 195.017302,35.3230589" id="Fill-5"></path>
                    <path d="M227.898651,37.5035451 C226.816708,37.992875 225.694889,38.3642778 224.513258,38.6150424 C223.336944,38.8725845 222.153984,39 220.956403,39 C217.742474,39 215.575929,38.2287293 214.462085,36.6956764 C213.350901,35.1585569 213.114309,32.5506048 213.745664,28.8758863 L216.143484,15.0187682 L213,15.0187682 L213.825414,10.2515293 L225.095434,0 L228.254868,0 L226.888483,7.93636174 L233,7.93636174 L231.777165,15.0187682 L225.657673,15.0187682 L223.864624,25.4072014 C223.576195,27.059537 223.60012,28.1629014 223.924437,28.7064507 C224.259387,29.2486445 225.017013,29.5265188 226.203961,29.5265188 C226.768858,29.5265188 227.319133,29.4573891 227.849472,29.3313291 C228.381139,29.1957806 228.895527,29.0033018 229.407257,28.7620256 L227.898651,37.5035451 Z" id="Fill-7"></path>
                    <polygon id="Fill-9" points="23.884125 23.3025303 13.8541024 23.3025303 11.2436767 39 0 39 6.48128727 0 17.7263006 0 15.3444376 14.331009 25.3798067 14.331009 27.7576599 0 39 0 32.5280691 39 21.2817191 39"></polygon>
                    <path d="M43.5148363,37.4819941 L39.1820156,9 L49.4543152,9 L50.5141125,18.7879834 C50.6077438,19.7085168 50.6552379,20.5811611 50.6552379,21.4205492 C50.6552379,22.2652583 50.6118147,23.0753809 50.5276823,23.8682102 C50.8859236,22.91176 51.2400941,22.0204922 51.5874796,21.1864251 C51.9294373,20.3603395 52.2523973,19.630032 52.5522888,19.008805 L57.2827031,9 L67,9 L45.9845305,51 L37,51 L43.5148363,37.4819941 Z" id="Fill-11"></path>
                    <path d="M149,9.52592788 C148.460924,9.04040537 147.86005,8.62696324 147.117177,8.41072212 C146.378248,8.13464069 145.638004,8 144.899074,8 C143.689439,8 142.54686,8.34272177 141.404281,9.04040537 C140.259072,9.72992893 139.117808,10.7798543 137.980488,12.0977011 L138.448564,8.41072212 L129.180393,8.41072212 L124,39 L133.410171,39 L135.964868,23.9175222 C136.296203,21.757831 136.907594,20.2278231 137.772746,19.1846977 C138.648417,18.1456524 139.796255,17.6546898 141.203113,17.6546898 C141.806616,17.6546898 142.418008,17.7920505 143.02414,18.0069316 C143.552698,18.2122927 144.093089,18.4938142 144.56248,18.8365359 L149,9.52592788 Z" id="Fill-13"></path>
                    <path d="M63,51 L70.6221379,8.49433028 L79.9507245,8.49433028 L79.8122897,10.8461032 C80.8430122,9.86552437 81.8751053,9.14760055 82.893492,8.68290314 C83.9132493,8.22898133 84.9727553,8 86.0596741,8 C89.1175755,8 91.3366442,9.39139832 92.7127683,12.172848 C94.0888925,14.9502569 94.3616502,18.6516727 93.5310414,23.2636261 C92.7127683,27.8567222 91.0309911,31.5823832 88.4966748,34.4338742 C85.9555053,37.2853652 83.1360956,38.7117842 80.0452988,38.7117842 C78.9761983,38.7117842 78.0523859,38.5137827 77.2738615,38.1177797 C76.4953371,37.7258176 75.8209814,37.1143027 75.2480532,36.288623 L72.602715,51 L63,51 Z M76.5158967,29.1699975 C76.8270323,29.5377146 77.1614689,29.8044105 77.5150944,29.9781669 C77.8783144,30.161352 78.2566115,30.2462097 78.6664333,30.2462097 C79.8739686,30.2462097 80.908803,29.633348 81.7736778,28.4103183 C82.6440352,27.1913294 83.2704184,25.4497243 83.6829816,23.1922378 C84.0873208,20.9643842 84.0708731,19.2052688 83.6459742,17.9108508 C83.2169634,16.6137389 82.4507748,15.9658564 81.3378138,15.9658564 C80.927992,15.9658564 80.5030931,16.0790001 80.0603758,16.3106754 C79.6272531,16.5450445 79.1447873,16.8952512 78.6335379,17.376112 L76.5158967,29.1699975 Z" id="Fill-15"></path>
                    <path d="M105.239584,26.6189537 C105.199784,26.8183533 105.15175,27.0988422 105.116067,27.4577616 C105.073522,27.8153516 105.054308,28.1330617 105.054308,28.4135506 C105.054308,29.8904374 105.557985,30.9233276 106.566709,31.5215266 C107.574061,32.1130789 108.777669,32.4135077 110.172042,32.4135077 C112.307519,32.4135077 114.348299,32.1489708 116.280659,31.6092624 C118.207529,31.069554 119.982061,30.326458 121.582296,29.3680103 L120.535144,36.6593911 C119.95873,37.0568611 119.258798,37.4503431 118.432605,37.8531304 C117.616018,38.2479417 116.682776,38.6108491 115.658955,38.9285592 C114.632389,39.24494 113.544064,39.5015009 112.393981,39.7022298 C111.246642,39.9069468 110.048525,40 108.814724,40 C106.761592,40 104.896481,39.6836192 103.208411,39.0508576 C101.527203,38.4114494 100.065582,37.490223 98.8523674,36.3004717 C97.6460151,35.1040738 96.6990491,33.6364923 96.0183315,31.9083619 C95.3321243,30.1789022 95,28.2314322 95,26.0872213 C95,23.8512864 95.3513381,21.7123928 96.0512695,19.6585763 C96.748456,17.6074185 97.7585531,15.790223 99.0664641,14.1923671 C100.388099,12.5984991 101.971866,11.3396226 103.82188,10.4024443 C105.673267,9.46526587 107.767572,9 110.107538,9 C112.458484,9 114.449858,9.32435678 116.095383,9.98636364 C117.734046,10.6403945 119.079012,11.5789022 120.102833,12.7939108 C121.129399,14.0062607 121.866386,15.4964408 122.324772,17.2724271 C122.769434,19.0430961 123,21.0503859 123,23.2770154 C123,23.9523156 122.976669,24.5372213 122.938241,25.0357204 C122.901186,25.5342196 122.842172,26.0606346 122.757083,26.6189537 L105.239584,26.6189537 Z M113.130968,20.9427101 C113.173512,20.7433105 113.192726,20.5199828 113.192726,20.2581046 L113.192726,19.5695111 C113.192726,19.1773585 113.159788,18.7439966 113.102147,18.2867067 C113.040388,17.8280875 112.894912,17.4013722 112.669836,17.0025729 C112.439271,16.6051029 112.146946,16.2780875 111.772277,16.0175386 C111.401725,15.758319 110.920008,15.6307033 110.295559,15.6307033 C110.088325,15.6307033 109.790511,15.6705832 109.399373,15.7476844 C109.008234,15.8314322 108.600627,16.0467839 108.1642,16.4096913 C107.737379,16.7686106 107.314675,17.3003431 106.901578,18.0221698 C106.491226,18.7307033 106.185178,19.7104202 105.984805,20.9427101 L113.130968,20.9427101 Z" id="Fill-17"></path>
                </g>
            </g>
        </g>
    </g>
</svg>