<?xml version="1.0" encoding="UTF-8"?>
<svg width="41px" height="14px" viewBox="0 0 41 14" version="1.1" xmlns="http://www.w3.org/2000/svg" xmlns:xlink="http://www.w3.org/1999/xlink">
    <title>logo_tmax</title>
    <g id="ch01_Login" stroke="none" stroke-width="1" fill="none" fill-rule="evenodd">
        <g id="Ch4_Sign_Out_04" transform="translate(-605.000000, -256.000000)">
            <g id="logo_footer_copyright" transform="translate(605.000000, 256.000000)">
                <polygon id="Fill-7" fill="#042A54" points="3.59371489 6.03712251 0.773584906 6.03712251 1.42776981 3.11111111 11.6037736 3.11111111 10.9486621 6.03712251 8.12667887 6.03712251 6.35037226 14 1.81740828 14"></polygon>
                <path d="M13.2748466,7.69801977 L13.3036253,7.69801977 C14.0275204,6.65897049 15.0693095,6.2674977 16.1611293,6.2674977 C17.0492844,6.2674977 17.9533784,6.75043609 18.0729208,7.66692146 C18.7512127,6.76324128 19.8633989,6.25103389 20.9614172,6.22222222 C22.5322917,6.22222222 23.4815462,7.27636333 23.1370873,8.9451533 L22.0992829,14 L19.3320998,14 L20.2441633,9.56117416 C20.3676904,8.82533336 20.3575072,8.02775328 19.4981308,8.02775328 C18.1304782,8.02775328 17.9830426,9.57672331 17.9653327,9.66681693 L17.0740783,14 L14.3068952,14 L15.2216153,9.56117416 C15.3433713,8.82533336 15.3336308,8.02775328 14.4742544,8.02775328 C13.1066018,8.02775328 12.9627083,9.57672331 12.9427846,9.66681693 L12.0515303,14 L9.28301887,14 L10.4399228,8.38767044 C10.5780606,7.71219694 10.6577554,7.26218616 10.7511756,6.45042891 L13.4891372,6.45042891 L13.2748466,7.69801977 Z" id="Fill-11" fill="#042A54"></path>
                <path d="M30.6773214,13.7834566 C30.7649157,12.9039434 30.7749006,12.5846863 30.8438868,12.2756562 L31.6608291,8.50326498 C32.0493305,6.85006479 30.3482752,6.22222222 28.8278548,6.22222222 C27.9923044,6.22222222 27.004712,6.30937317 26.1505534,6.66108951 C25.3172723,6.99724318 24.6324024,7.59796224 24.4227205,8.6366593 L27.0959372,8.6366593 C27.1753621,8.19645806 27.5420785,7.53926875 28.2351178,7.51036664 C29.3797447,7.46590187 29.0257364,8.40188531 28.8859485,9.04529055 L27.9923044,9.04529055 C25.5437469,9.04529055 23.7119807,9.77762533 23.2962479,11.560218 C22.9390626,13.0666845 23.6620565,14 25.4393598,14 C26.8435928,14 27.6328498,13.3139086 28.0903375,12.7861117 L28.1221075,12.7861117 C28.0050124,13.3139086 27.9541805,13.5486826 27.9646192,13.7834566 L30.6773214,13.7834566 Z M26.0720362,11.4268237 C26.1832311,10.9154788 26.5667402,10.6531367 27.0314895,10.4485987 C27.4603842,10.2569556 28.0204435,10.2876363 28.614996,10.2876363 C28.4053141,11.2671952 28.0572059,12.3925985 26.8322464,12.3925985 C26.2948799,12.3925985 25.9558489,11.9550652 26.0720362,11.4268237 L26.0720362,11.4268237 Z" id="Fill-13" fill="#042A54"></path>
                <polygon id="Fill-15" fill="#042A54" points="33.8594409 14 30.9433962 14 34.319532 10.3439544 32.8459599 7 36.1402305 7 36.6122126 9.14477829 38.1123109 7 41 7 37.9156517 10.3439544 39.6371059 14 36.2961858 14 35.70072 11.4057427"></polygon>
                <polygon id="Fill-9" fill="#E21B23" points="5.10693276 4.66666667 0 4.66666667 1.0763891 0 6.18867925 0"></polygon>
            </g>
        </g>
    </g>
</svg>