<?xml version="1.0" encoding="UTF-8"?>
<svg width="118px" height="112px" viewBox="0 0 118 112" version="1.1" xmlns="http://www.w3.org/2000/svg" xmlns:xlink="http://www.w3.org/1999/xlink">
    <title>Illust/password_change</title>
    <defs>
        <filter x="-38.6%" y="-34.5%" width="178.8%" height="168.9%" filterUnits="objectBoundingBox" id="filter-1">
            <feOffset dx="1" dy="3" in="SourceAlpha" result="shadowOffsetOuter1"></feOffset>
            <feGaussianBlur stdDeviation="5" in="shadowOffsetOuter1" result="shadowBlurOuter1"></feGaussianBlur>
            <feColorMatrix values="0 0 0 0 0   0 0 0 0 0   0 0 0 0 0  0 0 0 0.2 0" type="matrix" in="shadowBlurOuter1" result="shadowMatrixOuter1"></feColorMatrix>
            <feMerge>
                <feMergeNode in="shadowMatrixOuter1"></feMergeNode>
                <feMergeNode in="SourceGraphic"></feMergeNode>
            </feMerge>
        </filter>
        <rect id="path-2" x="0" y="0" width="42" height="74" rx="5"></rect>
        <linearGradient x1="12.6185149%" y1="13.4387767%" x2="120.707287%" y2="100%" id="linearGradient-4">
            <stop stop-color="#FFFFFF" stop-opacity="0.5" offset="0%"></stop>
            <stop stop-color="#000000" stop-opacity="0.153784692" offset="100%"></stop>
        </linearGradient>
        <path d="M11,7 C17.0751322,7 22,11.9248678 22,18 C22,24.0751322 17.0751322,29 11,29 C4.92486775,29 0,24.0751322 0,18 C0,11.9248678 4.92486775,7 11,7 Z" id="path-5"></path>
        <path d="M11,7 C17.0751322,7 22,11.9248678 22,18 C22,24.0751322 17.0751322,29 11,29 C4.92486775,29 0,24.0751322 0,18 C0,11.9248678 4.92486775,7 11,7 Z" id="path-6"></path>
        <path d="M11,20.5 C11.8284271,20.5 12.5,21.1715729 12.5,22 C12.5,22.8284271 11.8284271,23.5 11,23.5 C10.1715729,23.5 9.5,22.8284271 9.5,22 C9.5,21.1715729 10.1715729,20.5 11,20.5 Z M11,12.5 C11.8284271,12.5 12.5,13.1715729 12.5,14 L12.5,18 C12.5,18.8284271 11.8284271,19.5 11,19.5 C10.1715729,19.5 9.5,18.8284271 9.5,18 L9.5,14 C9.5,13.1715729 10.1715729,12.5 11,12.5 Z" id="path-7"></path>
        <filter x="-116.7%" y="-22.7%" width="333.3%" height="163.6%" filterUnits="objectBoundingBox" id="filter-8">
            <feOffset dx="0" dy="1" in="SourceAlpha" result="shadowOffsetOuter1"></feOffset>
            <feGaussianBlur stdDeviation="1" in="shadowOffsetOuter1" result="shadowBlurOuter1"></feGaussianBlur>
            <feColorMatrix values="0 0 0 0 0   0 0 0 0 0.603921569   0 0 0 0 0.588235294  0 0 0 0.2 0" type="matrix" in="shadowBlurOuter1"></feColorMatrix>
        </filter>
        <path d="M38,0 C39.1045695,-2.02906125e-16 40,0.8954305 40,2 L40,13 C40,14.1045695 39.1045695,15 38,15 L11.25,15 L9,18 L6.75,15 L2,15 C0.8954305,15 1.3527075e-16,14.1045695 0,13 L0,2 C-1.3527075e-16,0.8954305 0.8954305,2.02906125e-16 2,0 L38,0 Z" id="path-9"></path>
        <filter x="-5.0%" y="-5.6%" width="110.0%" height="122.2%" filterUnits="objectBoundingBox" id="filter-10">
            <feOffset dx="0" dy="1" in="SourceAlpha" result="shadowOffsetOuter1"></feOffset>
            <feGaussianBlur stdDeviation="0.5" in="shadowOffsetOuter1" result="shadowBlurOuter1"></feGaussianBlur>
            <feComposite in="shadowBlurOuter1" in2="SourceAlpha" operator="out" result="shadowBlurOuter1"></feComposite>
            <feColorMatrix values="0 0 0 0 0   0 0 0 0 0   0 0 0 0 0  0 0 0 0.101082755 0" type="matrix" in="shadowBlurOuter1"></feColorMatrix>
        </filter>
        <filter x="-7.5%" y="-11.1%" width="115.0%" height="133.3%" filterUnits="objectBoundingBox" id="filter-11">
            <feGaussianBlur stdDeviation="2" in="SourceAlpha" result="shadowBlurInner1"></feGaussianBlur>
            <feOffset dx="0" dy="0" in="shadowBlurInner1" result="shadowOffsetInner1"></feOffset>
            <feComposite in="shadowOffsetInner1" in2="SourceAlpha" operator="arithmetic" k2="-1" k3="1" result="shadowInnerInner1"></feComposite>
            <feColorMatrix values="0 0 0 0 1   0 0 0 0 1   0 0 0 0 1  0 0 0 0.5 0" type="matrix" in="shadowInnerInner1"></feColorMatrix>
        </filter>
    </defs>
    <g id="Ch01_Login" stroke="none" stroke-width="1" fill="none" fill-rule="evenodd">
        <g id="Ch1_Login_15" transform="translate(-910.000000, -372.000000)">
            <g id="@Contents" transform="translate(700.000000, 220.000000)">
                <g id="Illust/password_change" transform="translate(210.000000, 152.000000)">
                    <g id="+illust" filter="url(#filter-1)" transform="translate(32.000000, 19.000000)">
                        <g id="+phone">
                            <mask id="mask-3" fill="white">
                                <use xlink:href="#path-2"></use>
                            </mask>
                            <use id="Rectangle" fill="#233558" xlink:href="#path-2"></use>
                            <g id="check" mask="url(#mask-3)">
                                <g transform="translate(10.000000, 29.000000)" id="Combined-Shape">
                                    <path d="M11,0.5 C12.2426407,0.5 13.3676407,1.00367966 14.1819805,1.81801948 C14.9963203,2.63235931 15.5,3.75735931 15.5,5 L15.5,5 L15.5,12.5 L6.5,12.5 L6.5,5 C6.5,3.75735931 7.00367966,2.63235931 7.81801948,1.81801948 C8.63235931,1.00367966 9.75735931,0.5 11,0.5 Z" stroke="#FFFFFF" stroke-width="1" fill-opacity="0.5" fill="#FFFFFF" fill-rule="evenodd"></path>
                                    <g stroke="none" fill="none" fill-rule="evenodd">
                                        <use fill="#FFFFFF" xlink:href="#path-5"></use>
                                        <path stroke="#FFFFFF" stroke-width="1" d="M11,7.5 C13.8994949,7.5 16.5244949,8.67525253 18.4246212,10.5753788 C20.3247475,12.4755051 21.5,15.1005051 21.5,18 C21.5,20.8994949 20.3247475,23.5244949 18.4246212,25.4246212 C16.5244949,27.3247475 13.8994949,28.5 11,28.5 C8.10050506,28.5 5.47550506,27.3247475 3.5753788,25.4246212 C1.67525253,23.5244949 0.5,20.8994949 0.5,18 C0.5,15.1005051 1.67525253,12.4755051 3.5753788,10.5753788 C5.47550506,8.67525253 8.10050506,7.5 11,7.5 L11,7.5 Z" stroke-linejoin="square" fill-opacity="0.1" fill="url(#linearGradient-4)"></path>
                                    </g>
                                    <g stroke="none" fill="none" fill-rule="evenodd">
                                        <use fill="#FFFFFF" xlink:href="#path-6"></use>
                                        <path stroke="#FFFFFF" stroke-width="1" d="M11,7.5 C13.8994949,7.5 16.5244949,8.67525253 18.4246212,10.5753788 C20.3247475,12.4755051 21.5,15.1005051 21.5,18 C21.5,20.8994949 20.3247475,23.5244949 18.4246212,25.4246212 C16.5244949,27.3247475 13.8994949,28.5 11,28.5 C8.10050506,28.5 5.47550506,27.3247475 3.5753788,25.4246212 C1.67525253,23.5244949 0.5,20.8994949 0.5,18 C0.5,15.1005051 1.67525253,12.4755051 3.5753788,10.5753788 C5.47550506,8.67525253 8.10050506,7.5 11,7.5 L11,7.5 Z" stroke-linejoin="square" fill-opacity="0.1" fill="url(#linearGradient-4)"></path>
                                    </g>
                                    <g stroke="none" fill="none">
                                        <use fill="black" fill-opacity="1" filter="url(#filter-8)" xlink:href="#path-7"></use>
                                        <use fill="#233558" fill-rule="evenodd" xlink:href="#path-7"></use>
                                    </g>
                                </g>
                            </g>
                            <polygon id="Rectangle-Copy-5" fill="#1A3755" fill-rule="nonzero" mask="url(#mask-3)" points="44 64 44 65 -2 65 -2 64"></polygon>
                            <polygon id="Rectangle-Copy-7" fill="#1A3755" fill-rule="nonzero" mask="url(#mask-3)" points="44 8 44 9 -2 9 -2 8"></polygon>
                            <polygon id="Rectangle-Copy-6" fill="#FFFFFF" fill-rule="nonzero" mask="url(#mask-3)" points="44 65 44 74 -2 74 -2 65"></polygon>
                            <polygon id="Rectangle-Copy-8" fill="#FFFFFF" fill-rule="nonzero" mask="url(#mask-3)" points="44 0 44 8 -2 8 -2 0"></polygon>
                            <rect id="Rectangle" fill="#1A3755" mask="url(#mask-3)" x="16" y="3" width="10" height="2" rx="1"></rect>
                        </g>
                        <g id="Group" transform="translate(26.000000, 13.000000)">
                            <g id="Combined-Shape" opacity="0.800000012">
                                <use fill="black" fill-opacity="1" filter="url(#filter-10)" xlink:href="#path-9"></use>
                                <use fill="#FF2645" fill-rule="evenodd" xlink:href="#path-9"></use>
                                <use fill="black" fill-opacity="1" filter="url(#filter-11)" xlink:href="#path-9"></use>
                                <path stroke-opacity="0.32" stroke="#FF0025" stroke-width="1" d="M38,0.5 C38.4142136,0.5 38.7892136,0.667893219 39.0606602,0.939339828 C39.3321068,1.21078644 39.5,1.58578644 39.5,2 L39.5,2 L39.5,13 C39.5,13.4142136 39.3321068,13.7892136 39.0606602,14.0606602 C38.7892136,14.3321068 38.4142136,14.5 38,14.5 L38,14.5 L11,14.5 L9,17.1666667 L7,14.5 L2,14.5 C1.58578644,14.5 1.21078644,14.3321068 0.939339828,14.0606602 C0.667893219,13.7892136 0.5,13.4142136 0.5,13 L0.5,13 L0.5,2 C0.5,1.58578644 0.667893219,1.21078644 0.939339828,0.939339828 C1.21078644,0.667893219 1.58578644,0.5 2,0.5 L2,0.5 Z" stroke-linejoin="square"></path>
                            </g>
                            <path d="M10.0026937,4 C10.270015,4 10.4867217,4.21676509 10.4867217,4.48415839 L10.4860607,6.634 L12.268962,5.57104331 C12.4723341,5.44975184 12.7288557,5.49546071 12.8791592,5.667848 L12.9369573,5.75 L12.9369573,5.75 C13.0738226,5.99488014 12.9938937,6.29339331 12.7614363,6.43203133 L10.9699303,7.499 L12.7614363,8.56796867 C12.9680651,8.69120246 13.0541776,8.94075736 12.9780081,9.16064975 L12.9369573,9.25 C12.821415,9.456729 12.5763926,9.54538435 12.3600722,9.471216 L12.268962,9.42895669 L12.268962,9.42895669 L10.4860607,8.365 L10.4867217,10.5158416 C10.4867217,10.7832349 10.270015,11 10.0026937,11 C9.73537245,11 9.51866575,10.7832349 9.51866575,10.5158416 L9.51832145,8.365 L7.7364254,9.42895669 C7.53305333,9.55024816 7.27653171,9.50453929 7.12622826,9.332152 L7.0636315,9.2414143 C6.93156479,9.00511986 7.01149373,8.70660669 7.24395116,8.56796867 L9.03445183,7.5 L7.24395116,6.43203133 C7.03732233,6.30879754 6.95120984,6.05924264 7.02737938,5.83935025 L7.0684301,5.75 C7.18397246,5.543271 7.42899487,5.45461565 7.64531527,5.528784 L7.7364254,5.57104331 L7.7364254,5.57104331 L9.51832145,6.634 L9.51866575,4.48415839 C9.51866575,4.21676509 9.73537245,4 10.0026937,4 Z M20,4 C20.2673213,4 20.484028,4.21676509 20.484028,4.48415839 L20.4838696,6.633 L22.2662683,5.57104331 C22.4696404,5.44975184 22.726162,5.49546071 22.8764655,5.667848 L22.9342636,5.75 L22.9342636,5.75 C23.0711289,5.99488014 22.9912,6.29339331 22.7587426,6.43203133 L20.9677392,7.499 L22.7587426,8.56796867 C22.9653714,8.69120246 23.0514839,8.94075736 22.9753143,9.16064975 L22.9342636,9.25 C22.8187213,9.456729 22.5736988,9.54538435 22.3573784,9.471216 L22.2662683,9.42895669 L22.2662683,9.42895669 L20.4838696,8.366 L20.484028,10.5158416 C20.484028,10.7832349 20.2673213,11 20,11 C19.7326787,11 19.515972,10.7832349 19.515972,10.5158416 L19.5151306,8.366 L17.7337317,9.42895669 C17.5303596,9.55024816 17.273838,9.50453929 17.1235345,9.332152 L17.0609378,9.2414143 C16.9288711,9.00511986 17.0088,8.70660669 17.2412574,8.56796867 L19.031261,7.5 L17.2412574,6.43203133 C17.0346286,6.30879754 16.9485161,6.05924264 17.0246857,5.83935025 L17.0657364,5.75 C17.1812787,5.543271 17.4263012,5.45461565 17.6426216,5.528784 L17.7337317,5.57104331 L17.7337317,5.57104331 L19.5151306,6.633 L19.515972,4.48415839 C19.515972,4.21676509 19.7326787,4 20,4 Z M29.9973063,4 C30.2646275,4 30.4813343,4.21676509 30.4813343,4.48415839 L30.4811759,6.633 L32.2635746,5.57104331 C32.4669467,5.44975184 32.7234683,5.49546071 32.8737717,5.667848 L32.9315699,5.75 L32.9315699,5.75 C33.0684352,5.99488014 32.9885063,6.29339331 32.7560488,6.43203133 L30.9650455,7.499 L32.7560488,8.56796867 C32.9626777,8.69120246 33.0487902,8.94075736 32.9726206,9.16064975 L32.9315699,9.25 C32.8160275,9.456729 32.5710051,9.54538435 32.3546847,9.471216 L32.2635746,9.42895669 L32.2635746,9.42895669 L30.4811759,8.366 L30.4813343,10.5158416 C30.4813343,10.7832349 30.2646275,11 29.9973063,11 C29.729985,11 29.5132783,10.7832349 29.5132783,10.5158416 L29.5124369,8.366 L27.731038,9.42895669 C27.5276659,9.55024816 27.2711443,9.50453929 27.1208408,9.332152 L27.0582441,9.2414143 C26.9261774,9.00511986 27.0061063,8.70660669 27.2385637,8.56796867 L29.0285673,7.5 L27.2385637,6.43203133 C27.0319349,6.30879754 26.9458224,6.05924264 27.0219919,5.83935025 L27.0630427,5.75 C27.178585,5.543271 27.4236074,5.45461565 27.6399278,5.528784 L27.731038,5.57104331 L27.731038,5.57104331 L29.5124369,6.633 L29.5132783,4.48415839 C29.5132783,4.21676509 29.729985,4 29.9973063,4 Z" id="Shape" fill="#FFFFFF"></path>
                        </g>
                    </g>
                </g>
            </g>
        </g>
    </g>
</svg>