<?xml version="1.0" encoding="UTF-8"?>
<svg width="110px" height="115px" viewBox="0 0 110 115" version="1.1" xmlns="http://www.w3.org/2000/svg" xmlns:xlink="http://www.w3.org/1999/xlink">
    <title>Illust/password_regist</title>
    <defs>
        <filter x="-44.0%" y="-33.6%" width="189.7%" height="168.4%" filterUnits="objectBoundingBox" id="filter-1">
            <feOffset dx="1" dy="3" in="SourceAlpha" result="shadowOffsetOuter1"></feOffset>
            <feGaussianBlur stdDeviation="5" in="shadowOffsetOuter1" result="shadowBlurOuter1"></feGaussianBlur>
            <feColorMatrix values="0 0 0 0 0   0 0 0 0 0   0 0 0 0 0  0 0 0 0.2 0" type="matrix" in="shadowBlurOuter1" result="shadowMatrixOuter1"></feColorMatrix>
            <feMerge>
                <feMergeNode in="shadowMatrixOuter1"></feMergeNode>
                <feMergeNode in="SourceGraphic"></feMergeNode>
            </feMerge>
        </filter>
        <rect id="path-2" x="0" y="0" width="42" height="74" rx="5"></rect>
        <linearGradient x1="12.6185149%" y1="13.4387767%" x2="120.707287%" y2="100%" id="linearGradient-4">
            <stop stop-color="#FFFFFF" stop-opacity="0.5" offset="0%"></stop>
            <stop stop-color="#000000" stop-opacity="0.153784692" offset="100%"></stop>
        </linearGradient>
        <path d="M11,0 C17.0751322,0 22,4.92486775 22,11 C22,17.0751322 17.0751322,22 11,22 C4.92486775,22 0,17.0751322 0,11 C0,4.92486775 4.92486775,0 11,0 Z" id="path-5"></path>
        <filter x="-9.1%" y="-4.5%" width="118.2%" height="118.2%" filterUnits="objectBoundingBox" id="filter-6">
            <feOffset dx="0" dy="1" in="SourceAlpha" result="shadowOffsetOuter1"></feOffset>
            <feGaussianBlur stdDeviation="0.5" in="shadowOffsetOuter1" result="shadowBlurOuter1"></feGaussianBlur>
            <feComposite in="shadowBlurOuter1" in2="SourceAlpha" operator="out" result="shadowBlurOuter1"></feComposite>
            <feColorMatrix values="0 0 0 0 0   0 0 0 0 0   0 0 0 0 0  0 0 0 0.5 0" type="matrix" in="shadowBlurOuter1"></feColorMatrix>
        </filter>
        <filter x="-31.2%" y="-75.0%" width="162.5%" height="237.5%" filterUnits="objectBoundingBox" id="filter-7">
            <feOffset dx="0" dy="1" in="SourceAlpha" result="shadowOffsetOuter1"></feOffset>
            <feGaussianBlur stdDeviation="0.5" in="shadowOffsetOuter1" result="shadowBlurOuter1"></feGaussianBlur>
            <feColorMatrix values="0 0 0 0 0.362584617   0 0 0 0 0.393216119   0 0 0 0 0.392864033  0 0 0 0.192964994 0" type="matrix" in="shadowBlurOuter1" result="shadowMatrixOuter1"></feColorMatrix>
            <feMerge>
                <feMergeNode in="shadowMatrixOuter1"></feMergeNode>
                <feMergeNode in="SourceGraphic"></feMergeNode>
            </feMerge>
        </filter>
        <rect id="path-8" x="0" y="0" width="27" height="22" rx="2"></rect>
        <rect id="path-10" x="-1" y="5" width="29" height="12"></rect>
        <filter x="-6.9%" y="-8.3%" width="113.8%" height="133.3%" filterUnits="objectBoundingBox" id="filter-11">
            <feOffset dx="0" dy="1" in="SourceAlpha" result="shadowOffsetOuter1"></feOffset>
            <feGaussianBlur stdDeviation="0.5" in="shadowOffsetOuter1" result="shadowBlurOuter1"></feGaussianBlur>
            <feColorMatrix values="0 0 0 0 0   0 0 0 0 0   0 0 0 0 0  0 0 0 0.101082755 0" type="matrix" in="shadowBlurOuter1"></feColorMatrix>
        </filter>
        <path d="M13.5,9 C14.3284271,9 15,9.67157288 15,10.5 C15,11.1528467 14.5829319,11.7082819 14.000703,11.9143985 L14,13.5 C14,13.7761424 13.7761424,14 13.5,14 C13.2238576,14 13,13.7761424 13,13.5 L13.0002925,11.9147505 C12.4175435,11.7089149 12,11.1532187 12,10.5 C12,9.67157288 12.6715729,9 13.5,9 Z" id="path-12"></path>
        <filter x="-166.7%" y="-80.0%" width="433.3%" height="300.0%" filterUnits="objectBoundingBox" id="filter-13">
            <feOffset dx="0" dy="1" in="SourceAlpha" result="shadowOffsetOuter1"></feOffset>
            <feGaussianBlur stdDeviation="1.5" in="shadowOffsetOuter1" result="shadowBlurOuter1"></feGaussianBlur>
            <feColorMatrix values="0 0 0 0 0   0 0 0 0 0.374651591   0 0 0 0 0.364920381  0 0 0 0.0553482162 0" type="matrix" in="shadowBlurOuter1"></feColorMatrix>
        </filter>
    </defs>
    <g id="Ch01_Login" stroke="none" stroke-width="1" fill="none" fill-rule="evenodd">
        <g id="Ch2_Forgot_password_06" transform="translate(-910.000000, -372.000000)">
            <g id="@Contents" transform="translate(700.000000, 220.000000)">
                <g transform="translate(70.000000, 152.000000)" id="Illust/password_regist">
                    <g transform="translate(140.000000, 0.000000)">
                        <g id="+illust" filter="url(#filter-1)" transform="translate(32.000000, 19.000000)">
                            <g id="+phone">
                                <mask id="mask-3" fill="white">
                                    <use xlink:href="#path-2"></use>
                                </mask>
                                <use id="Rectangle" fill="#233558" xlink:href="#path-2"></use>
                                <g id="check" mask="url(#mask-3)">
                                    <g transform="translate(10.000000, 35.000000)">
                                        <g id="Combined-Shape">
                                            <use fill="black" fill-opacity="1" filter="url(#filter-6)" xlink:href="#path-5"></use>
                                            <use fill="#FFFFFF" fill-rule="evenodd" xlink:href="#path-5"></use>
                                            <path stroke="#FFFFFF" stroke-width="1" d="M11,0.5 C13.8994949,0.5 16.5244949,1.67525253 18.4246212,3.5753788 C20.3247475,5.47550506 21.5,8.10050506 21.5,11 C21.5,13.8994949 20.3247475,16.5244949 18.4246212,18.4246212 C16.5244949,20.3247475 13.8994949,21.5 11,21.5 C8.10050506,21.5 5.47550506,20.3247475 3.5753788,18.4246212 C1.67525253,16.5244949 0.5,13.8994949 0.5,11 C0.5,8.10050506 1.67525253,5.47550506 3.5753788,3.5753788 C5.47550506,1.67525253 8.10050506,0.5 11,0.5 Z" stroke-linejoin="square" fill-opacity="0.1" fill="url(#linearGradient-4)" fill-rule="evenodd"></path>
                                        </g>
                                        <g id="key" filter="url(#filter-7)" stroke-width="1" fill-rule="evenodd" transform="translate(3.000000, 7.000000)">
                                            <path d="M5.29,7.15 L3.86,7.15 L3.86,4.29 L2.43,4.29 L2.43,7.15 L1,7.15 L1,4.29 L0,4.29 L0,2.86 L13.5,2.86 L13.5,4.29 L5.29,4.29 L5.29,7.15 Z" id="Combined-Shape" stroke="#233558" stroke-width="0.5" fill="#233558"></path>
                                            <circle id="Oval-Copy-2" stroke="#233558" stroke-width="2.5" fill="#FFFFFF" cx="11.725" cy="3.575" r="3.575"></circle>
                                        </g>
                                    </g>
                                </g>
                                <polygon id="Rectangle-Copy-5" fill="#1A3755" fill-rule="nonzero" mask="url(#mask-3)" points="44 64 44 65 -2 65 -2 64"></polygon>
                                <polygon id="Rectangle-Copy-7" fill="#1A3755" fill-rule="nonzero" mask="url(#mask-3)" points="44 8 44 9 -2 9 -2 8"></polygon>
                                <polygon id="Rectangle-Copy-6" fill="#FFFFFF" fill-rule="nonzero" mask="url(#mask-3)" points="44 65 44 74 -2 74 -2 65"></polygon>
                                <polygon id="Rectangle-Copy-8" fill="#FFFFFF" fill-rule="nonzero" mask="url(#mask-3)" points="44 0 44 8 -2 8 -2 0"></polygon>
                                <path d="M11.0035028,20 C11.2708961,20 11.4876612,20.2167651 11.4876612,20.4841584 L11.487,22.634 L13.2703817,21.5710433 C13.4738086,21.4497518 13.7303993,21.4954607 13.8807433,21.667848 L13.938557,21.75 L13.938557,21.75 C14.0754592,21.9948801 13.9955087,22.2933933 13.7629887,22.4320313 L11.971,23.499 L13.7629887,24.5679687 C13.9696732,24.6912025 14.0558089,24.9407574 13.9796188,25.1606497 L13.938557,25.25 C13.8229835,25.456729 13.5778951,25.5453843 13.3615164,25.471216 L13.2703817,25.4289567 L13.2703817,25.4289567 L11.487,24.365 L11.4876612,26.5158416 C11.4876612,26.7832349 11.2708961,27 11.0035028,27 C10.7361095,27 10.5193444,26.7832349 10.5193444,26.5158416 L10.519,24.365 L8.73662383,25.4289567 C8.53319696,25.5502482 8.27660622,25.5045393 8.12626227,25.332152 L8.06364864,25.2414143 C7.93154635,25.0051199 8.01149682,24.7066067 8.24401689,24.5679687 L10.035,23.5 L8.24401689,22.4320313 C8.03733239,22.3087975 7.9511967,22.0592426 8.02738675,21.8393503 L8.06844854,21.75 C8.18402203,21.543271 8.42911046,21.4546157 8.64548915,21.528784 L8.73662383,21.5710433 L8.73662383,21.5710433 L10.519,22.634 L10.5193444,20.4841584 C10.5193444,20.2167651 10.7361095,20 11.0035028,20 Z M21.0035028,20 C21.2708961,20 21.4876612,20.2167651 21.4876612,20.4841584 L21.4875028,22.633 L23.2703817,21.5710433 C23.4738086,21.4497518 23.7303993,21.4954607 23.8807433,21.667848 L23.938557,21.75 L23.938557,21.75 C24.0754592,21.9948801 23.9955087,22.2933933 23.7629887,22.4320313 L21.9715028,23.499 L23.7629887,24.5679687 C23.9696732,24.6912025 24.0558089,24.9407574 23.9796188,25.1606497 L23.938557,25.25 C23.8229835,25.456729 23.5778951,25.5453843 23.3615164,25.471216 L23.2703817,25.4289567 L23.2703817,25.4289567 L21.4875028,24.366 L21.4876612,26.5158416 C21.4876612,26.7832349 21.2708961,27 21.0035028,27 C20.7361095,27 20.5193444,26.7832349 20.5193444,26.5158416 L20.5185028,24.366 L18.7366238,25.4289567 C18.533197,25.5502482 18.2766062,25.5045393 18.1262623,25.332152 L18.0636486,25.2414143 C17.9315464,25.0051199 18.0114968,24.7066067 18.2440169,24.5679687 L20.0345028,23.5 L18.2440169,22.4320313 C18.0373324,22.3087975 17.9511967,22.0592426 18.0273868,21.8393503 L18.0684485,21.75 C18.184022,21.543271 18.4291105,21.4546157 18.6454892,21.528784 L18.7366238,21.5710433 L18.7366238,21.5710433 L20.5185028,22.633 L20.5193444,20.4841584 C20.5193444,20.2167651 20.7361095,20 21.0035028,20 Z M31.0035028,20 C31.2708961,20 31.4876612,20.2167651 31.4876612,20.4841584 L31.4875028,22.633 L33.2703817,21.5710433 C33.4738086,21.4497518 33.7303993,21.4954607 33.8807433,21.667848 L33.938557,21.75 L33.938557,21.75 C34.0754592,21.9948801 33.9955087,22.2933933 33.7629887,22.4320313 L31.9715028,23.499 L33.7629887,24.5679687 C33.9696732,24.6912025 34.0558089,24.9407574 33.9796188,25.1606497 L33.938557,25.25 C33.8229835,25.456729 33.5778951,25.5453843 33.3615164,25.471216 L33.2703817,25.4289567 L33.2703817,25.4289567 L31.4875028,24.366 L31.4876612,26.5158416 C31.4876612,26.7832349 31.2708961,27 31.0035028,27 C30.7361095,27 30.5193444,26.7832349 30.5193444,26.5158416 L30.5185028,24.366 L28.7366238,25.4289567 C28.533197,25.5502482 28.2766062,25.5045393 28.1262623,25.332152 L28.0636486,25.2414143 C27.9315464,25.0051199 28.0114968,24.7066067 28.2440169,24.5679687 L30.0345028,23.5 L28.2440169,22.4320313 C28.0373324,22.3087975 27.9511967,22.0592426 28.0273868,21.8393503 L28.0684485,21.75 C28.184022,21.543271 28.4291105,21.4546157 28.6454892,21.528784 L28.7366238,21.5710433 L28.7366238,21.5710433 L30.5185028,22.633 L30.5193444,20.4841584 C30.5193444,20.2167651 30.7361095,20 31.0035028,20 Z" id="Shape" fill="#FFFFFF" mask="url(#mask-3)"></path>
                                <rect id="Rectangle" fill="#1A3755" mask="url(#mask-3)" x="16" y="3" width="10" height="2" rx="1"></rect>
                            </g>
                            <g id="lock" transform="translate(31.000000, 42.000000)">
                                <path d="M13.5,19 C12.8346622,19 12.1895594,18.9133639 11.5753573,18.7507575 L15.4246427,18.7507575 C14.8104406,18.9133639 14.1653378,19 13.5,19 Z M13.5,0 C17.6421356,-7.6089797e-16 21,3.35786438 21,7.5 L21,11.5 C21,11.5839144 20.9986219,11.6675069 20.995887,11.7507561 L6.00411297,11.7507561 C6.00137812,11.6675069 6,11.5839144 6,11.5 L6,7.5 C6,3.35786438 9.35786438,7.6089797e-16 13.5,0 Z" id="Combined-Shape" fill-opacity="0.7" fill="#FFFFFF"></path>
                                <path d="M13.5,0 C17.6421356,0 21,3.35786438 21,7.5 L21,11.9984952 L6,11.9984952 L6,7.5 C6,3.35786438 9.35786438,0 13.5,0 Z M13.5,1 C9.98818936,1 7.12684944,3.78499621 7.00410301,7.26686587 L7,7.5 L7,11.5 C7,11.6103738 7.00274194,11.7203572 7.0082029,11.8298852 L7.021,12 L19.978,12 L19.9917971,11.8298852 L20,11.5 L20,7.5 C20,3.91014913 17.0898509,1 13.5,1 Z" id="Combined-Shape" fill="#152748" fill-rule="nonzero"></path>
                                <g id="Group" transform="translate(0.000000, 12.000000)">
                                    <mask id="mask-9" fill="white">
                                        <use xlink:href="#path-8"></use>
                                    </mask>
                                    <use id="Rectangle" stroke-opacity="0.8" stroke="#FFFFFF" stroke-width="0.5" fill="#F1FFFF" opacity="0.903359549" xlink:href="#path-8"></use>
                                    <g id="Rectangle" opacity="0.800000012" mask="url(#mask-9)">
                                        <use fill="black" fill-opacity="1" filter="url(#filter-11)" xlink:href="#path-10"></use>
                                        <use fill="#009A96" fill-rule="evenodd" xlink:href="#path-10"></use>
                                    </g>
                                    <g id="Combined-Shape" mask="url(#mask-9)">
                                        <use fill="black" fill-opacity="1" filter="url(#filter-13)" xlink:href="#path-12"></use>
                                        <use fill-opacity="0.73" fill="#FFFFFF" fill-rule="evenodd" xlink:href="#path-12"></use>
                                        <use fill="#FFFFFF" fill-rule="evenodd" xlink:href="#path-12"></use>
                                    </g>
                                    <path d="M13.5,8 C12.1192881,8 11,9.11928813 11,10.5 L11.0069435,10.6870589 C11.0575934,11.3673563 11.3823768,11.9824344 11.8835896,12.4075068 L12,12.499 L12,13.4998155 C12,14.3284271 12.6715729,15 13.5,15 L13.64446,14.9931334 C14.4051119,14.9204487 15,14.2796961 15,13.5 L15,12.498 L15.1173493,12.40671 C15.6635887,11.9429902 16,11.2535022 16,10.5 C16,9.11928813 14.8807119,8 13.5,8 Z M13.5,9 C14.3284271,9 15,9.67157288 15,10.5 C15,11.1528467 14.5829319,11.7082819 14.000703,11.9143985 L14,13.5 C14,13.7761424 13.7761424,14 13.5,14 C13.2238576,14 13,13.7761424 13,13.5 L13.0002925,11.9147505 C12.4175435,11.7089149 12,11.1532187 12,10.5 C12,9.67157288 12.6715729,9 13.5,9 Z" id="Combined-Shape" fill="#5BBCBA" fill-rule="nonzero" mask="url(#mask-9)"></path>
                                </g>
                            </g>
                        </g>
                        <g id="+deco" transform="translate(0.000000, 4.000000)" fill="#00FFF8" stroke="#000000">
                            <path d="M17.6464466,75.6464466 C18.1380712,75.5 18.2630712,75.5559644 18.3535534,75.6464466 C18.4440356,75.7369288 18.5,75.8619288 18.5,76 C18.5,76.1380712 18.4440356,76.2630712 18.3535534,76.3535534 C18.2630712,76.4440356 18.1380712,76.5 18,76.5 C17.8619288,76.5 17.7369288,76.4440356 17.6464466,76.3535534 C17.5559644,76.2630712 17.5,76.1380712 17.5,76 C17.5,75.8619288 17.5559644,75.7369288 17.6464466,75.6464466 Z M94.5,72.5 C94.7761424,72.5 95.0261424,72.6119288 95.2071068,72.7928932 C95.3880712,72.9738576 95.5,73.2238576 95.5,73.5 C95.5,73.7761424 95.3880712,74.0261424 95.2071068,74.2071068 C95.0261424,74.3880712 94.7761424,74.5 94.5,74.5 C94.2238576,74.5 93.9738576,74.3880712 93.7928932,74.2071068 C93.6119288,74.0261424 93.5,73.7761424 93.5,73.5 C93.5,73.2238576 93.6119288,72.9738576 93.7928932,72.7928932 C93.9738576,72.6119288 94.2238576,72.5 94.5,72.5 Z M8,63.5 C8.41421356,63.5 8.78921356,63.6678932 9.06066017,63.9393398 C9.33210678,64.2107864 9.5,64.5857864 9.5,65 C9.5,65.4142136 9.33210678,65.7892136 9.06066017,66.0606602 C8.78921356,66.3321068 8.41421356,66.5 8,66.5 C7.58578644,66.5 7.21078644,66.3321068 6.93933983,66.0606602 C6.66789322,65.7892136 6.5,65.4142136 6.5,65 C6.5,64.5857864 6.66789322,64.2107864 6.93933983,63.9393398 C7.21078644,63.6678932 7.58578644,63.5 8,63.5 Z M21.5,47.5 C21.7761424,47.5 22.0261424,47.6119288 22.2071068,47.7928932 C22.3880712,47.9738576 22.5,48.2238576 22.5,48.5 C22.5,48.7761424 22.3880712,49.0261424 22.2071068,49.2071068 C22.0261424,49.3880712 21.7761424,49.5 21.5,49.5 C21.2238576,49.5 20.9738576,49.3880712 20.7928932,49.2071068 C20.6119288,49.0261424 20.5,48.7761424 20.5,48.5 C20.5,48.2238576 20.6119288,47.9738576 20.7928932,47.7928932 C20.9738576,47.6119288 21.2238576,47.5 21.5,47.5 Z M87.6464466,40.6464466 C88.1380712,40.5 88.2630712,40.5559644 88.3535534,40.6464466 C88.4440356,40.7369288 88.5,40.8619288 88.5,41 C88.5,41.1380712 88.4440356,41.2630712 88.3535534,41.3535534 C88.2630712,41.4440356 88.1380712,41.5 88,41.5 C87.8619288,41.5 87.7369288,41.4440356 87.6464466,41.3535534 C87.5559644,41.2630712 87.5,41.1380712 87.5,41 C87.5,40.8619288 87.5559644,40.7369288 87.6464466,40.6464466 Z M95.6464466,19.6464466 C96.1380712,19.5 96.2630712,19.5559644 96.3535534,19.6464466 C96.4440356,19.7369288 96.5,19.8619288 96.5,20 C96.5,20.1380712 96.4440356,20.2630712 96.3535534,20.3535534 C96.2630712,20.4440356 96.1380712,20.5 96,20.5 C95.8619288,20.5 95.7369288,20.4440356 95.6464466,20.3535534 C95.5559644,20.2630712 95.5,20.1380712 95.5,20 C95.5,19.8619288 95.5559644,19.7369288 95.6464466,19.6464466 Z M85.5,13.5 C85.7761424,13.5 86.0261424,13.6119288 86.2071068,13.7928932 C86.3880712,13.9738576 86.5,14.2238576 86.5,14.5 C86.5,14.7761424 86.3880712,15.0261424 86.2071068,15.2071068 C86.0261424,15.3880712 85.7761424,15.5 85.5,15.5 C85.2238576,15.5 84.9738576,15.3880712 84.7928932,15.2071068 C84.6119288,15.0261424 84.5,14.7761424 84.5,14.5 C84.5,14.2238576 84.6119288,13.9738576 84.7928932,13.7928932 C84.9738576,13.6119288 85.2238576,13.5 85.5,13.5 Z M13.6464466,8.64644661 C14.1380712,8.5 14.2630712,8.55596441 14.3535534,8.64644661 C14.4440356,8.73692881 14.5,8.86192881 14.5,9 C14.5,9.13807119 14.4440356,9.26307119 14.3535534,9.35355339 C14.2630712,9.44403559 14.1380712,9.5 14,9.5 C13.8619288,9.5 13.7369288,9.44403559 13.6464466,9.35355339 C13.5559644,9.26307119 13.5,9.13807119 13.5,9 C13.5,8.86192881 13.5559644,8.73692881 13.6464466,8.64644661 Z M98,3.5 C98.4142136,3.5 98.7892136,3.66789322 99.0606602,3.93933983 C99.3321068,4.21078644 99.5,4.58578644 99.5,5 C99.5,5.41421356 99.3321068,5.78921356 99.0606602,6.06066017 C98.7892136,6.33210678 98.4142136,6.5 98,6.5 C97.5857864,6.5 97.2107864,6.33210678 96.9393398,6.06066017 C96.6678932,5.78921356 96.5,5.41421356 96.5,5 C96.5,4.58578644 96.6678932,4.21078644 96.9393398,3.93933983 C97.2107864,3.66789322 97.5857864,3.5 98,3.5 L98,3.5 Z M27.5,0.5 C27.7761424,0.5 28.0261424,0.611928813 28.2071068,0.792893219 C28.3880712,0.973857625 28.5,1.22385763 28.5,1.5 C28.5,1.77614237 28.3880712,2.02614237 28.2071068,2.20710678 C28.0261424,2.38807119 27.7761424,2.5 27.5,2.5 C27.2238576,2.5 26.9738576,2.38807119 26.7928932,2.20710678 C26.6119288,2.02614237 26.5,1.77614237 26.5,1.5 C26.5,1.22385763 26.6119288,0.973857625 26.7928932,0.792893219 C26.9738576,0.611928813 27.2238576,0.5 27.5,0.5 L27.5,0.5 Z" id="Combined-Shape"></path>
                        </g>
                    </g>
                </g>
            </g>
        </g>
    </g>
</svg>