<?xml version="1.0" encoding="UTF-8"?>
<svg width="183px" height="40px" viewBox="0 0 183 40" version="1.1" xmlns="http://www.w3.org/2000/svg" xmlns:xlink="http://www.w3.org/1999/xlink">
    <title>supervds/gnb/logo_color</title>
    <defs>
        <polygon id="path-1" points="0.3623 0.5488 21.204 0.5488 21.204 30.5658 0.3623 30.5658"></polygon>
        <polygon id="path-3" points="0.7125 0.1241 23.2956772 0.1241 23.2956772 32 0.7125 32"></polygon>
    </defs>
    <g id="supervds/gnb/logo_color" stroke="none" stroke-width="1" fill="none" fill-rule="evenodd">
        <g id="Group-19" transform="translate(2.000000, 0.000000)">
            <g id="Group-3" transform="translate(159.000000, 0.557900)">
                <mask id="mask-2" fill="white">
                    <use xlink:href="#path-1"></use>
                </mask>
                <g id="Clip-2"></g>
                <path d="M0.3623,28.2488 L1.7163,21.6958 C2.4133,22.5388 3.2163,23.2168 4.1183,23.7278 C5.0213,24.2368 6.0433,24.4908 7.1783,24.4908 C9.3623,24.4908 10.4563,23.4728 10.4563,21.4348 C10.4563,20.7038 10.1743,20.0128 9.6193,19.3578 C9.0623,18.7008 8.4173,18.0978 7.6853,17.5428 C6.1043,16.3508 4.9443,15.1848 4.2113,14.0478 C3.4773,12.9128 3.1153,11.7058 3.1153,10.4228 C3.1153,9.1098 3.4043,7.8648 3.9923,6.6858 C4.5773,5.5048 5.3883,4.4588 6.4283,3.5408 C7.4693,2.6248 8.6823,1.8938 10.0713,1.3548 C11.4613,0.8178 12.9573,0.5488 14.5603,0.5488 C15.7853,0.5488 16.9513,0.7218 18.0593,1.0708 C19.1633,1.4198 20.2133,1.9758 21.2043,2.7308 L19.8483,9.1998 C19.2673,8.4998 18.6163,7.9388 17.9043,7.5168 C17.1883,7.0918 16.3363,6.8828 15.3493,6.8828 C14.2413,6.8828 13.4473,7.1828 12.9653,7.7788 C12.4863,8.3768 12.2473,9.0828 12.2473,9.8968 C12.2473,10.8318 12.5083,11.5598 13.0353,12.0818 C13.5553,12.6068 14.2413,13.2328 15.0883,13.9618 C15.6973,14.5158 16.2523,15.0388 16.7483,15.5358 C17.2393,16.0308 17.6653,16.5478 18.0103,17.0838 C18.3653,17.6248 18.6263,18.2148 18.7973,18.8538 C18.9763,19.4938 19.0623,20.2248 19.0623,21.0388 C19.0623,22.2038 18.8073,23.3568 18.2973,24.4908 C17.7863,25.6268 17.0513,26.6468 16.0913,27.5488 C15.1283,28.4538 13.9463,29.1818 12.5283,29.7328 C11.1193,30.2878 9.5203,30.5658 7.7453,30.5658 C6.2883,30.5658 4.9513,30.3898 3.7243,30.0408 C2.5023,29.6898 1.3803,29.0948 0.3623,28.2488" id="Fill-1" fill="#042A54" mask="url(#mask-2)"></path>
            </g>
            <path d="M142.2246,24.2032 L142.4386,24.2032 C142.7006,24.2032 143.0466,24.1992 143.4806,24.1822 C143.9156,24.1722 144.3746,24.1182 144.8686,24.0312 C145.3566,23.9452 145.8576,23.8112 146.3626,23.6232 C146.8666,23.4342 147.3086,23.1642 147.6826,22.8192 C148.5786,21.9802 149.2816,20.8102 149.7876,19.3082 C150.2896,17.8072 150.5436,16.1772 150.5436,14.4132 C150.5436,13.6322 150.4716,12.8592 150.3266,12.0952 C150.1836,11.3292 149.9306,10.6402 149.5686,10.0342 C149.2086,9.4272 148.7086,8.9382 148.0726,8.5602 C147.4376,8.1842 146.6436,7.9952 145.6896,7.9952 L144.9536,7.9952 L142.2246,24.2032 Z M137.3706,1.7572 L145.2576,1.7572 C146.1216,1.7572 146.9836,1.7792 147.8346,1.8222 C148.6876,1.8662 149.5356,1.9812 150.3706,2.1692 C151.2076,2.3582 152.0296,2.6392 152.8416,3.0162 C153.6536,3.3902 154.4446,3.9082 155.2266,4.5742 C156.6966,5.8742 157.7316,7.3982 158.3246,9.1452 C158.9146,10.8922 159.2126,12.7512 159.2126,14.7172 C159.2126,17.5162 158.6776,20.1032 157.6066,22.4742 C156.5386,24.8442 154.9226,26.7772 152.7546,28.2792 C151.9166,28.8552 151.0856,29.3042 150.2616,29.6222 C149.4396,29.9412 148.5656,30.1822 147.6386,30.3382 C146.7146,30.4992 145.7406,30.5922 144.7146,30.6202 C143.6876,30.6502 142.5706,30.6642 141.3576,30.6642 L132.5176,30.6642 L137.3706,1.7572 Z" id="Fill-4" fill="#042A54"></path>
            <path d="M134.1826,1.7686 L121.1846,30.7246 L112.7586,30.7246 L107.1586,1.7686 L115.9946,1.7686 L119.1846,20.4576 C119.3806,19.9056 120.3006,17.7026 121.9416,13.8386 L127.1126,1.7686 L134.1826,1.7686 Z" id="Fill-6" fill="#042A54"></path>
            <path d="M0,28.7823 L1.357,22.2093 C2.058,23.0543 2.861,23.7353 3.769,24.2473 C4.672,24.7583 5.695,25.0133 6.836,25.0133 C9.025,25.0133 10.121,23.9913 10.121,21.9463 C10.121,21.2163 9.842,20.5213 9.284,19.8643 C8.726,19.2063 8.078,18.5993 7.345,18.0453 C5.758,16.8483 4.596,15.6793 3.859,14.5393 C3.124,13.4003 2.762,12.1893 2.762,10.9023 C2.762,9.5883 3.051,8.3383 3.64,7.1563 C4.227,5.9703 5.041,4.9223 6.084,4.0013 C7.128,3.0813 8.343,2.3483 9.738,1.8083 C11.132,1.2703 12.632,1.0003 14.241,1.0003 C15.469,1.0003 16.637,1.1733 17.749,1.5233 C18.855,1.8743 19.91,2.4303 20.903,3.1893 L19.545,9.6773 C18.959,8.9743 18.309,8.4123 17.593,7.9883 C16.876,7.5643 16.021,7.3523 15.03,7.3523 C13.92,7.3523 13.122,7.6543 12.64,8.2513 C12.158,8.8503 11.919,9.5593 11.919,10.3763 C11.919,11.3123 12.181,12.0423 12.71,12.5673 C13.233,13.0943 13.92,13.7213 14.768,14.4533 C15.379,15.0093 15.936,15.5333 16.434,16.0313 C16.928,16.5273 17.354,17.0463 17.701,17.5853 C18.053,18.1273 18.316,18.7183 18.49,19.3603 C18.669,20.0023 18.756,20.7343 18.756,21.5513 C18.756,22.7203 18.499,23.8753 17.988,25.0133 C17.476,26.1523 16.738,27.1753 15.774,28.0803 C14.81,28.9873 13.621,29.7173 12.201,30.2703 C10.787,30.8273 9.186,31.1043 7.404,31.1043 C5.942,31.1043 4.601,30.9293 3.373,30.5783 C2.146,30.2273 1.021,29.6303 0,28.7823" id="Fill-8" fill="#042A54"></path>
            <path d="M32.2187,28.3722 C31.1357,29.2932 30.0687,29.9782 29.0207,30.4312 C27.9717,30.8762 26.9247,31.1042 25.8737,31.1042 C23.8807,31.1042 22.5127,30.4432 21.7697,29.1112 C21.0287,27.7812 20.8977,25.7492 21.3787,23.0172 L24.0147,8.0692 L31.1687,8.0692 L28.7157,21.9912 C28.5157,23.1042 28.5297,23.8952 28.7577,24.3692 C28.9787,24.8432 29.4407,25.0772 30.1407,25.0772 C30.4607,25.0772 30.8197,25.0142 31.2227,24.8822 C31.6197,24.7512 32.0677,24.5612 32.5547,24.3172 L35.4247,8.0692 L42.5757,8.0692 L40.1277,21.9512 C39.9517,22.9552 39.9697,23.6082 40.1877,23.9082 C40.4017,24.2092 40.9017,24.3872 41.6857,24.4432 L39.1557,30.7252 C38.6147,30.8572 38.1147,30.9582 37.6577,31.0152 C37.2007,31.0752 36.7797,31.1042 36.3867,31.1042 C35.2137,31.1042 34.2857,30.8842 33.6037,30.4382 C32.9177,29.9942 32.4607,29.3042 32.2187,28.3722" id="Fill-10" fill="#042A54"></path>
            <path d="M105.8281,8.8731 C105.4181,8.5171 104.9621,8.2111 104.3971,8.0551 C103.8391,7.8521 103.2761,7.7521 102.7141,7.7521 C101.7961,7.7521 100.9281,8.0041 100.0591,8.5171 C99.1921,9.0241 98.3261,9.7931 97.4601,10.7601 L97.8161,8.0551 L90.7751,8.0551 L86.8421,30.5101 L93.9901,30.5101 L95.9291,19.4371 C96.1831,17.8531 96.6451,16.7311 97.3061,15.9641 C97.9681,15.2021 98.8381,14.8431 99.9081,14.8431 C100.3671,14.8431 100.8271,14.9441 101.2871,15.0991 C101.6931,15.2511 102.1041,15.4561 102.4591,15.7101 L105.8281,8.8731 Z" id="Fill-12" fill="#042A54"></path>
            <g id="Group-16" transform="translate(41.000000, 7.557900)">
                <mask id="mask-4" fill="white">
                    <use xlink:href="#path-3"></use>
                </mask>
                <g id="Clip-15"></g>
                <path d="M10.5595,15.8191 C10.7825,16.0931 11.0275,16.2891 11.2875,16.4201 C11.5515,16.5521 11.8285,16.6171 12.1255,16.6171 C13.0035,16.6171 13.7585,16.1651 14.3915,15.2561 C15.0215,14.3511 15.4835,13.0601 15.7805,11.3851 C16.0755,9.7371 16.0655,8.4321 15.7525,7.4711 C15.4425,6.5111 14.8815,6.0321 14.0725,6.0321 C13.7735,6.0321 13.4645,6.1171 13.1425,6.2861 C12.8265,6.4591 12.4755,6.7191 12.1035,7.0761 L10.5595,15.8191 Z M0.7125,32.0001 L6.2655,0.4911 L13.0615,0.4911 L12.9615,2.2341 C13.7085,1.5071 14.4635,0.9771 15.2075,0.6341 C15.9505,0.2951 16.7195,0.1241 17.5115,0.1241 C19.7395,0.1241 21.3535,1.1571 22.3595,3.2151 C23.3615,5.2761 23.5575,8.0211 22.9555,11.4411 C22.3595,14.8461 21.1335,17.6061 19.2845,19.7201 C17.4385,21.8351 15.3815,22.8941 13.1305,22.8941 C12.3535,22.8941 11.6805,22.7461 11.1125,22.4541 C10.5455,22.1611 10.0505,21.7071 9.6335,21.0931 L7.7045,32.0001 L0.7125,32.0001 Z" id="Fill-14" fill="#042A54" mask="url(#mask-4)"></path>
            </g>
            <path d="M78.7236,16.7891 C78.7566,16.6411 78.7676,16.4701 78.7676,16.2731 L78.7676,15.7571 C78.7676,15.4591 78.7446,15.1371 78.7016,14.7941 C78.6566,14.4501 78.5506,14.1271 78.3886,13.8291 C78.2216,13.5291 78.0096,13.2821 77.7376,13.0871 C77.4696,12.8931 77.1116,12.7961 76.6606,12.7961 C76.5116,12.7961 76.2916,12.8261 76.0076,12.8881 C75.7246,12.9461 75.4276,13.1101 75.1116,13.3801 C74.7976,13.6471 74.4916,14.0521 74.1916,14.5911 C73.8956,15.1281 73.6706,15.8611 73.5216,16.7891 L78.7236,16.7891 Z M72.9806,21.0531 C72.9526,21.2011 72.9196,21.4111 72.8916,21.6801 C72.8636,21.9501 72.8466,22.1891 72.8466,22.3981 C72.8466,23.5051 73.2156,24.2831 73.9456,24.7311 C74.6816,25.1811 75.5566,25.4051 76.5716,25.4051 C78.1266,25.4051 79.6096,25.2031 81.0156,24.8001 C82.4206,24.3951 83.7086,23.8361 84.8726,23.1151 L84.1106,28.5921 C83.6916,28.8931 83.1846,29.1891 82.5816,29.4891 C81.9856,29.7891 81.3106,30.0581 80.5636,30.2971 C79.8166,30.5361 79.0256,30.7291 78.1876,30.8801 C77.3526,31.0301 76.4826,31.1041 75.5836,31.1041 C74.0896,31.1041 72.7296,30.8651 71.5026,30.3871 C70.2766,29.9091 69.2166,29.2191 68.3356,28.3221 C67.4546,27.4261 66.7686,26.3251 66.2736,25.0231 C65.7766,23.7221 65.5336,22.2651 65.5336,20.6491 C65.5336,18.9731 65.7866,17.3661 66.2956,15.8241 C66.8036,14.2841 67.5386,12.9151 68.4926,11.7191 C69.4516,10.5231 70.6066,9.5721 71.9496,8.8681 C73.2976,8.1661 74.8216,7.8161 76.5266,7.8161 C78.2336,7.8161 79.6826,8.0621 80.8816,8.5571 C82.0746,9.0491 83.0496,9.7521 83.7966,10.6641 C84.5436,11.5781 85.0796,12.6991 85.4146,14.0301 C85.7376,15.3611 85.9046,16.8651 85.9046,18.5391 C85.9046,19.0491 85.8886,19.4891 85.8596,19.8631 C85.8326,20.2371 85.7876,20.6341 85.7266,21.0531 L72.9806,21.0531 Z" id="Fill-17" fill="#042A54"></path>
        </g>
    </g>
</svg>