<?xml version="1.0" encoding="UTF-8"?>
<svg width="81px" height="16px" viewBox="0 0 81 16" version="1.1" xmlns="http://www.w3.org/2000/svg" xmlns:xlink="http://www.w3.org/1999/xlink">
    <title>footer_anc_logo</title>
    <g id="Fotter_200514" stroke="none" stroke-width="1" fill="none" fill-rule="evenodd">
        <g id="footer-copy" transform="translate(-316.000000, -1215.000000)">
            <g id="Footer" transform="translate(296.000000, 855.000000)">
                <g id="#FOOTER-2" transform="translate(0.000000, 329.000000)">
                    <g id="Group-3" transform="translate(20.000000, 28.000000)">
                        <g id="logo" transform="translate(0.000000, 3.000000)">
                            <g id="Group-17">
                                <path d="M67.8218413,8.79943548 C67.5098115,10.2520161 67.0398164,11.366371 65.7522056,12.7221774 L67.2226465,15.2247581 L64.0609061,15.2247581 L63.6304024,14.4660484 C62.9546626,14.8865323 62.055139,15.4516935 60.2609671,15.4516935 C59.4009347,15.4516935 57.7096352,15.273629 57.1231166,13.9821774 C56.9675892,13.6270161 56.7457554,12.9641129 56.9022579,12.0287903 C57.2406153,10.0415323 58.7758999,9.31427419 59.6476334,8.89572581 C59.309276,8.44379032 58.5799061,7.52298387 58.8290425,6.11830645 C59.1664248,4.11459677 60.9625468,3.27556452 62.8361888,3.27556452 C63.7362,3.27556452 66.2348768,3.47056452 65.7648818,6.14975806 C65.4933183,7.78137097 64.3851247,8.58846774 63.4612237,9.26637097 L64.5294385,10.9144355 C65.3490045,9.89685484 65.4933183,9.12072581 65.5698631,8.79943548 L67.8218413,8.79943548 Z M61.0537181,10.6226613 C60.0391334,11.1394355 59.7129646,11.6083065 59.6217934,12.1091129 C59.5184335,12.7062097 59.8309509,13.4654032 60.8845394,13.4654032 C61.392563,13.4654032 61.9907828,13.271371 62.4334752,12.7545968 L61.0537181,10.6226613 Z M63.3578638,6.00508065 C63.4612237,5.39104839 63.0711863,5.05233871 62.5499989,5.05233871 C62.0029715,5.05233871 61.5095742,5.43943548 61.4062143,6.00508065 C61.3672106,6.27846774 61.3403955,6.60217742 62.081954,7.53798387 C62.3291402,7.39282258 63.2267137,6.78072581 63.3578638,6.00508065 L63.3578638,6.00508065 Z" id="Fill-2" fill="#00448D"></path>
                                <g id="Group-6" transform="translate(67.768991, 2.903226)" fill="#00448D">
                                    <path d="M8.87725031,4.32958065 C8.99133624,3.14990323 8.24197696,2.71441935 7.31417559,2.71441935 C5.34789975,2.71441935 4.37134371,4.50619355 3.91402491,6.63812903 C3.75264695,7.34893548 3.14857659,10.2879677 5.67260585,10.2879677 C7.39657098,10.2879677 7.83487547,9.04393548 7.99820361,8.59151613 L11.3822653,8.59151613 C10.5851264,12.2418387 6.77836177,12.5486129 5.24892777,12.5486129 C4.10953113,12.5486129 2.14179265,12.3550645 1.11696949,10.9987742 C0.122861768,9.64103226 0.303254047,7.78441935 0.562141345,6.57280645 C0.904399128,4.97506452 1.62060523,3.3753871 2.98719863,2.13232258 C4.48299191,0.776032258 6.11042279,0.420870968 7.81976152,0.420870968 C9.72265629,0.420870968 11.0746233,0.872806452 11.7908294,1.842 C12.522637,2.84312903 12.3100666,3.89264516 12.230109,4.32958065 L8.87725031,4.32958065 Z" id="Fill-4"></path>
                                </g>
                                <polygon id="Fill-7" fill="#00448D" points="4.36125149 6.74419355 1.39355473 6.74419355 2.08197067 3.53274194 12.7904464 3.53274194 12.1010554 6.74419355 9.13140841 6.74419355 7.26215436 15.483871 2.49199745 15.483871"></polygon>
                                <polygon id="Fill-9" fill="#FF0012" points="5.5770467 5.26848387 0 5.26848387 1.17547509 0.121064516 6.75837235 0.121064516"></polygon>
                                <path d="M14.7170847,8.55280645 L14.7487752,8.55280645 C15.5459141,7.45345161 16.6931115,7.03925806 17.8954016,7.03925806 C18.8734203,7.03925806 19.8689907,7.55022581 20.0006283,8.51990323 C20.7475498,7.56377419 21.9722671,7.02183871 23.1813829,6.99135484 C24.9111986,6.99135484 25.9564988,8.10667742 25.5771874,9.87232258 L24.434378,15.2205484 L21.3872111,15.2205484 L22.3915573,10.5240968 C22.5275828,9.74554839 22.5163692,8.90167742 21.5700411,8.90167742 C20.0640093,8.90167742 19.9016563,10.5405484 19.8821544,10.635871 L18.9007229,15.2205484 L15.853556,15.2205484 L16.8608275,10.5240968 C16.9949029,9.74554839 16.9841768,8.90167742 16.0378487,8.90167742 C14.5318169,8.90167742 14.3733643,10.5405484 14.3514247,10.635871 L13.3699932,15.2205484 L10.3213636,15.2205484 L11.5953232,9.28248387 C11.7474377,8.56780645 11.8351961,8.09167742 11.9380685,7.23280645 L14.9530573,7.23280645 L14.7170847,8.55280645 Z" id="Fill-11" fill="#00448D"></path>
                                <path d="M33.6583227,15.2206935 C33.7524192,14.2635968 33.7631453,13.9161774 33.8372524,13.5798871 L34.7148364,9.47472581 C35.1321764,7.67569355 33.3048514,6.99246774 31.6715699,6.99246774 C30.7739965,6.99246774 29.7130948,7.08730645 28.7955319,7.47004839 C27.9003962,7.83585484 27.1646882,8.48956452 26.9394417,9.6198871 L29.8110917,9.6198871 C29.8964124,9.14085484 30.2903501,8.42569355 31.0348339,8.39424194 C32.2644267,8.34585484 31.8841403,9.36440323 31.7339759,10.0645645 L30.7739965,10.0645645 C28.143682,10.0645645 26.1759435,10.8615 25.7293507,12.8013387 C25.3456515,14.4406935 26.1223134,15.4563387 28.0315463,15.4563387 C29.5400158,15.4563387 30.3878595,14.7097258 30.8793065,14.135371 L30.9134348,14.135371 C30.7876478,14.7097258 30.7330425,14.9652097 30.7442561,15.2206935 L33.6583227,15.2206935 Z M28.7111864,12.6561774 C28.8306353,12.0997258 29.2426123,11.8142419 29.7418601,11.5916613 C30.2025917,11.3831129 30.8042243,11.4165 31.4429105,11.4165 C31.2176639,12.4824677 30.8437156,13.7071452 29.5278271,13.7071452 C28.9505718,13.7071452 28.5863744,13.2310161 28.7111864,12.6561774 L28.7111864,12.6561774 Z" id="Fill-13" fill="#00448D"></path>
                                <polygon id="Fill-15" fill="#00448D" points="37.354463 15.2206935 34.2458653 15.2206935 37.844935 11.0487581 36.2740595 7.23295161 39.7858584 7.23295161 40.2890066 9.68037097 41.8881598 7.23295161 44.9665296 7.23295161 41.6785147 11.0487581 43.5136405 15.2206935 39.9521118 15.2206935 39.317326 12.260371"></polygon>
                                <path d="M50.3961465,3.31034483 L43.8287671,14.8965517 L46.8275251,14.8965517 L48.0273121,12.5703653 L52.360638,12.5703653 L52.6439144,14.8965517 L56.0342466,14.8965517 L54.0541488,3.31034483 L50.3961465,3.31034483 Z M51.609648,5.57160769 L51.6550479,5.57160769 L52.091549,10.4351022 L49.1519054,10.4351022 L51.609648,5.57160769 Z" id="Fill-1" fill="#00448D"></path>
                            </g>
                        </g>
                    </g>
                </g>
            </g>
        </g>
    </g>
</svg>