<?xml version="1.0" encoding="UTF-8"?>
<svg class='camera-ic' width="18px" height="16px" viewBox="0 0 18 16" version="1.1" xmlns="http://www.w3.org/2000/svg" xmlns:xlink="http://www.w3.org/1999/xlink">
   <link xmlns="http://www.w3.org/1999/xhtml" rel="stylesheet" href="../css/account.css" type="text/css"/>
    <title>camera</title>
    <defs>
        <path d="M7.49999999,2.49999997 L5.97499998,4.16666664 L3.33333331,4.16666664 C2.41666664,4.16666664 1.66666663,4.91666664 1.66666663,5.83333331 L1.66666663,15.8333334 C1.66666663,16.75 2.41666664,17.5 3.33333331,17.5 L16.6666666,17.5 C17.5833334,17.5 18.3333334,16.75 18.3333334,15.8333334 L18.3333334,5.83333331 C18.3333334,4.91666664 17.5833334,4.16666664 16.6666666,4.16666664 L14.025,4.16666664 L12.5,2.49999997 L7.49999999,2.49999997 L7.49999999,2.49999997 Z M10,6.66666665 C12.3,6.66666665 14.1666667,8.53333332 14.1666667,10.8333333 C14.1666667,13.1333333 12.3,15 10,15 C7.69999999,15 5.83333332,13.1333333 5.83333332,10.8333333 C5.83333332,8.53333332 7.69999999,6.66666665 10,6.66666665 Z M10,8.16666666 C8.52724066,8.16666666 7.33333332,9.36057399 7.33333332,10.8333333 C7.33333332,12.3060927 8.52724066,13.5 10,13.5 C11.4727593,13.5 12.6666667,12.3060927 12.6666667,10.8333333 C12.6666667,9.36057399 11.4727593,8.16666666 10,8.16666666 Z" id="path-1"></path>
    </defs>
    <g id="Ch01_Login" stroke="none" stroke-width="1" fill="none" fill-rule="evenodd">
        <g id="Ch4_Account_Setting_01" transform="translate(-561.000000, -304.000000)">
            <g id="@Contents" transform="translate(360.000000, 94.000000)">
                <g id="+txtbox" transform="translate(0.000000, 134.000000)">
                    <g id="3" transform="translate(160.000000, 0.000000)">
                        <g id="camera_alt" transform="translate(40.000000, 74.000000)">
                            <polygon id="Base" points="-4.16666642e-08 -4.16666997e-08 20 -4.16666997e-08 20 20 -4.16666642e-08 20"></polygon>
                            <mask id="mask-2" fill="white">
                                <use xlink:href="#path-1"></use>
                            </mask>
                            <g id="Icon" fill-rule="nonzero"></g>
                            <rect id="↳-🎨-Color" fill="#ffffff" mask="url(#mask-2)" x="0" y="0" width="20" height="20"></rect>
                        </g>
                    </g>
                </g>
            </g>
        </g>
    </g>
</svg>