<?xml version="1.0" encoding="UTF-8"?>
<svg width="222px" height="30px" viewBox="0 0 222 30" version="1.1" xmlns="http://www.w3.org/2000/svg" xmlns:xlink="http://www.w3.org/1999/xlink">
    <title>LNB_Logo</title>
    <g id="Symbols" stroke="none" stroke-width="1" fill="none" fill-rule="evenodd">
        <g id="GNB/gnb" transform="translate(-30.000000, -16.000000)">
            <g id="LNB_Logo" transform="translate(30.000000, 16.000000)">
                <text id="Tmax-OneAccount" font-family="NotoSansCJKkr-Bold, Noto Sans CJK KR" font-size="20" font-weight="bold" letter-spacing="-0.444444444" fill="#FFFFFF">
                    <tspan x="40" y="23">Tmax </tspan>
                    <tspan x="96.1777778" y="23" letter-spacing="0.655556">OneAccount</tspan>
                </text>
                <g id="Favicono_Tmax_Oneaccount" transform="translate(0.000000, 5.000000)" fill-rule="nonzero">
                    <g id="Group" transform="translate(7.000000, 0.000000)">
                        <path d="M18.9473684,0 L17.7770499,6.80893488 C16.9136127,6.44340344 15.9694528,6.25 15,6.25 C13.2269219,6.25 11.5384494,6.89694392 10.2736987,8.06067023 C8.98348479,9.24782597 8.25,10.867935 8.25,12.5852804 C8.25,13.3681509 8.39887346,14.1920341 8.66773291,14.9513369 C8.67607286,15.3418581 8.72520316,15.6426363 8.81848869,15.808304 L7.21291866,22 L0.107655502,22 L5.81339713,0 L18.9473684,0 Z M15,7.75 C15.6857057,7.75 16.3508287,7.87164921 16.9657971,8.10027947 L13.0342028,8.10027947 C13.6491713,7.87164921 14.3142943,7.75 15,7.75 Z" id="Combined-Shape" fill="#0CC7EB"></path>
                        <path d="M4.3062201,5.81132075 L8.27470328,14.5575198 C8.41325706,14.9948186 8.59603024,15.4130713 8.8179052,15.8072675 L7.21291866,22 L0.107655502,22 L4.3062201,5.81132075 Z" id="Combined-Shape" fill="#343575"></path>
                        <path d="M4.3062201,5.81132075 L4.8737799,7.06220755 L4.53538559,8.38682389 C4.54965354,8.41883885 4.56386979,8.45073597 4.57803428,8.48251526 L4.52906699,8.37432075 L1.21069378,21.1698113 L6.54028708,21.1698113 L7.90363636,15.9089057 L7.9005353,15.9024737 C7.74712511,15.5983505 7.61470682,15.2841744 7.50435246,14.961848 L7.486843,14.9087433 C7.48689222,14.9049479 7.48361175,14.8935676 7.47700159,14.8746023 C7.33470014,14.4663246 7.19185789,13.8078789 7.15000367,12.9941567 C7.13990067,12.797736 7.13435869,12.4541557 7.13337776,11.9634156 L7.1334689,12.0423019 L8.27470328,14.5575198 C8.41325706,14.9948186 8.59603024,15.4130713 8.8179052,15.8072675 L7.21291866,22 L0.107655502,22 L4.3062201,5.81132075 Z" id="Combined-Shape" fill="#343575"></path>
                    </g>
                    <polygon id="Rectangle-Copy" fill="#EF5D3E" transform="translate(5.500000, 3.000000) scale(-1, 1) translate(-5.500000, -3.000000) " points="11 -8.54316617e-14 8.22030227 6 0 6 2.50172797 -8.54316617e-14"></polygon>
                    <path d="M22,7.75 C23.409444,7.75 24.7319272,8.26396014 25.7106429,9.16449901 C26.6886775,10.0644113 27.25,11.2835762 27.25,12.5852804 C27.25,13.7204499 26.833782,15.0184691 26.1840085,15.8066424 C25.5020066,16.6339086 24.5500493,17.239108 23.4674825,17.5290922 L23.291,17.571 L23.291,18.127 L24.4806755,19.264801 L23.291,20.402 L23.291,20.718 L24.897342,22.2552009 L24.3790132,22.7510913 L22.5076706,24.6360807 L20.8014694,23.2611649 L20.7083347,23.0665012 L20.708,17.571 L20.6480137,17.5587758 C19.6931571,17.3250589 18.8328396,16.8464786 18.162367,16.1851775 L17.9842894,16.0003391 L17.8160552,15.8067203 C17.1662432,15.0185331 16.75,13.7204835 16.75,12.5852804 C16.75,11.2835763 17.3113225,10.0644114 18.2893572,9.16449901 C19.2680727,8.26396015 20.5905559,7.75 22,7.75 Z M22,10.95 C21.5293303,10.95 21.0887959,11.1363303 20.7625631,11.4625631 C20.4363303,11.7887959 20.25,12.2293303 20.25,12.7 C20.25,13.1706697 20.4363303,13.6112041 20.7625631,13.9374369 C21.0887959,14.2636697 21.5293303,14.45 22,14.45 C22.4706697,14.45 22.9112041,14.2636697 23.2374369,13.9374369 C23.5636697,13.6112041 23.75,13.1706696 23.75,12.7 C23.75,12.2293304 23.5636697,11.7887959 23.237437,11.4625631 C22.9112041,11.1363303 22.4706697,10.95 22,10.95 Z" id="Shape" fill="#FFE2A4"></path>
                </g>
            </g>
        </g>
    </g>
</svg>