<?xml version="1.0" encoding="UTF-8"?>
<svg width="20px" height="18px" viewBox="0 0 20 18" version="1.1" xmlns="http://www.w3.org/2000/svg" xmlns:xlink="http://www.w3.org/1999/xlink">
    <title>Icon/hide</title>
    <g id="ch01_Login" stroke="none" stroke-width="1" fill="none" fill-rule="evenodd">
        <g id="Ch6_Account_Setting_03" transform="translate(-961.000000, -357.000000)">
            <g id="@textbox" transform="translate(360.000000, 202.000000)">
                <g id="+txtbox-copy-2" transform="translate(0.000000, 144.000000)">
                    <g id="Icon/hide" transform="translate(601.000000, 10.000000)">
                        <rect id="bg" fill-rule="nonzero" x="0" y="0" width="20" height="20"></rect>
                        <path d="M1.4682765,2.69619109 L2.7030326,1.45875422 L18.3432765,17.1329545 L17.1085204,18.3703914 L1.4682765,2.69619109 Z M3.64154882,6.64321039 L5.0379572,8.04316049 C4.6155269,8.71555369 4.375,9.4892424 4.375,10.3125 C4.375,12.9013348 6.75348727,15 9.6875,15 C10.3806772,15 11.0428468,14.8828593 11.6499693,14.6697892 L12.8100939,15.8326044 C11.9439429,16.0941913 11.0046688,16.25 10,16.25 C6.44012507,16.25 3.70129374,14.2937908 2.12732485,12.6070903 L1.91043351,12.3682068 L1.7096134,12.1344321 C1.61325827,12.0190623 1.52301338,11.906149 1.43900403,11.7965033 L1.27933651,11.5818093 C1.2036969,11.4768811 1.13437636,11.3757612 1.0715002,11.2792609 L0.954377477,11.09266 L0.902330097,11.0044297 L0.902330097,11.0044297 L0.811402516,10.8390107 C0.688261858,10.6024644 0.625,10.4196608 0.625,10.3125 C0.625,10.2053392 0.688261858,10.0225356 0.811402516,9.78598933 L0.902330097,9.62057029 L1.01077679,9.4406695 C1.08886479,9.31622885 1.1784837,9.18309502 1.27933651,9.0431907 L1.43900403,8.82849666 C1.52301338,8.71885103 1.61325827,8.60593774 1.7096134,8.49056791 L1.91043351,8.2567932 L2.12732485,8.01790971 C2.55020437,7.56474249 3.05716834,7.09212105 3.64154882,6.64321039 Z M10,4.375 C13.5598749,4.375 16.2987063,6.3312092 17.8726751,8.01790971 L18.0895665,8.2567932 L18.2903866,8.49056791 C18.3867417,8.60593774 18.4769866,8.71885103 18.560996,8.82849666 L18.7206635,9.0431907 C18.7963031,9.14811894 18.8656236,9.24923878 18.9284998,9.34573908 L19.0456225,9.53233999 L19.0976699,9.62057029 L19.0976699,9.62057029 L19.1885975,9.78598933 C19.3117381,10.0225356 19.375,10.2053392 19.375,10.3125 C19.375,10.4196608 19.3117381,10.6024644 19.1885975,10.8390107 L19.0976699,11.0044297 L18.9892232,11.1843305 C18.9111352,11.3087712 18.8215163,11.441905 18.7206635,11.5818093 L18.560996,11.7965033 C18.4769866,11.906149 18.3867417,12.0190623 18.2903866,12.1344321 L18.0895665,12.3682068 L17.8726751,12.6070903 C17.5335948,12.9704564 17.140453,13.3463305 16.6966873,13.7124595 L14.7434985,11.7555615 C14.910029,11.3009718 15,10.8160067 15,10.3125 C15,7.72366524 12.6215127,5.625 9.6875,5.625 C9.35181877,5.625 9.02340921,5.65247093 8.70500139,5.7050039 L7.66447174,4.66176639 C8.39615934,4.47978661 9.17608959,4.375 10,4.375 Z M6.90320862,9.91263116 L10.0810871,13.0976783 C9.95247545,13.1156882 9.82107517,13.125 9.6875,13.125 C8.13419914,13.125 6.875,11.8658009 6.875,10.3125 C6.875,10.1767493 6.88461761,10.043245 6.90320862,9.91263116 Z M10.6757272,7.67851988 C11.4359373,7.96387179 12.0397986,8.5689031 12.3235782,9.32988067 L10.6757272,7.67851988 Z" id="Shape" fill="#757575"></path>
                    </g>
                </g>
            </g>
        </g>
    </g>
</svg>