<?xml version="1.0" encoding="UTF-8"?>
<svg width="14px" height="14px" viewBox="0 0 14 14" version="1.1" xmlns="http://www.w3.org/2000/svg" xmlns:xlink="http://www.w3.org/1999/xlink">
    <title>ic_back</title>
    <g id="-" stroke="none" stroke-width="1" fill="none" fill-rule="evenodd">
        <g id="gnb_back-copy" transform="translate(0.000000, -5.000000)" fill="#FFFFFF" fill-rule="nonzero">
            <g id="Group" transform="translate(0.000000, 5.000000)">
                <path d="M13.9433629,6.0608867 C13.8977109,5.6809513 13.6968419,5.3505355 13.3924853,5.15370959 C13.0936071,4.96079393 12.7326706,4.92496019 12.3984976,5.05855008 C12.1331165,5.16412673 11.8360643,5.01813402 11.7155429,4.73008941 C11.5737077,4.38989799 11.3984038,4.06403396 11.1957087,3.76166196 C11.0198057,3.49967546 11.0526751,3.1555738 11.2711773,2.96265814 C11.5420366,2.72477465 11.6930022,2.3728525 11.686297,1.99746887 C11.6789927,1.61621987 11.5115924,1.26429771 11.2255252,1.03295166 C10.7604735,0.655612909 10.2528227,0.341479618 9.71658229,0.0997164292 C9.38483455,-0.0495144496 9.01476762,-0.0299632188 8.7025076,0.154459875 C8.39572583,0.334972724 8.18632558,0.651061138 8.12911786,1.02122092 C8.08223891,1.32230988 7.81808473,1.51718066 7.51738039,1.49045046 C7.17712995,1.45198953 6.82224233,1.45198953 6.48139271,1.49045046 C6.17643702,1.51718066 5.91653419,1.3229514 5.87025443,1.02186245 C5.8130467,0.651030589 5.60424564,0.334972724 5.29746387,0.154429327 C4.98397695,-0.0299937676 4.61510838,-0.050217072 4.28276146,0.0990443556 C3.74589335,0.341479618 3.23824256,0.655612909 2.77381855,1.03227959 C2.48835058,1.26429771 2.32035103,1.61554779 2.31364589,1.99679679 C2.30634156,2.37218042 2.45790636,2.7247441 2.72876568,2.96394119 C2.94789552,3.15685685 2.98016581,3.49964492 2.80423423,3.76227293 C2.60093994,4.06595854 2.42563607,4.39118104 2.28440004,4.73005886 C2.16327945,5.01941707 1.86317428,5.16409618 1.59536795,5.05592289 C1.26790009,4.92492964 0.908161934,4.96076338 0.608056772,5.15367904 C0.303700262,5.34983287 0.102232059,5.68024867 0.0565800093,6.06021463 C0.0188600031,6.37239279 0,6.68848121 0,6.9999873 C0,7.3114934 0.0188600031,7.62758181 0.0566085418,7.9390879 C0.102260592,8.31902331 0.303129611,8.65011118 0.607486121,8.84626501 C0.907562751,9.0398222 1.26792862,9.07696954 1.60210162,8.94142452 C1.86263217,8.837803 2.16330798,8.98052698 2.28445711,9.2698852 C2.4256646,9.60876301 2.60096848,9.93462704 2.80429129,10.2383126 C2.98019435,10.5002991 2.94732487,10.8437593 2.72819503,11.0373165 C2.4579349,11.2752 2.30696927,11.6271221 2.31367442,12.0025057 C2.32097875,12.3837547 2.48837911,12.7356769 2.77384708,12.967695 C3.23767191,13.3437202 3.7453227,13.6578535 4.28278999,13.9009302 C4.43010345,13.9674044 4.5846927,14 4.73871131,14 C4.93167682,14 5.12341543,13.9485253 5.29689321,13.8455453 C5.60367499,13.6650324 5.81307524,13.3483025 5.87028296,12.9787842 C5.91716191,12.6776953 6.18436906,12.4776312 6.48202043,12.5101962 C6.82227086,12.5486572 7.17715849,12.5486572 7.5180081,12.5101962 C7.82053853,12.4782727 8.08226744,12.6776953 8.12914639,12.9787842 C8.18698183,13.348944 8.39575436,13.6650324 8.70253613,13.8455453 C9.01602305,14.0306404 9.38489162,14.0495196 9.71661082,13.9009302 C10.2534789,13.658495 10.7611297,13.3443617 11.2255537,12.967695 C11.5110217,12.7356769 11.6784221,12.3837547 11.6857264,12.0025057 C11.6924315,11.6271221 11.5408667,11.2752 11.2693797,11.0366749 C11.050849,10.8437593 11.0186073,10.5009712 11.1945103,10.2383432 C11.3978046,9.93594064 11.5725093,9.60943509 11.7143445,9.27055727 C11.8360928,8.98055753 12.1379955,8.83847507 12.3972992,8.94145507 L12.4040043,8.94405172 C12.7326991,9.07700009 13.0930364,9.03985275 13.3919147,8.84693709 C13.6968704,8.65011118 13.8971402,8.31969538 13.9427923,7.9404015 C13.98114,7.63017846 14,7.31412059 14,6.9999873 C14,6.68585401 13.9810829,6.36979615 13.9433629,6.0608867 Z M7,9 C5.89733333,9 5,8.10266667 5,7 C5,5.89733333 5.89733333,5 7,5 C8.10266667,5 9,5.89733333 9,7 C9,8.10266667 8.10266667,9 7,9 Z" id="Shape"></path>
            </g>
        </g>
    </g>
</svg>