<?xml version="1.0" encoding="UTF-8"?>
<svg width="23px" height="23px" viewBox="0 0 23 23" version="1.1" xmlns="http://www.w3.org/2000/svg" xmlns:xlink="http://www.w3.org/1999/xlink">
    <title>ic_google</title>
    <g id="Ch3_Control" stroke="none" stroke-width="1" fill="none" fill-rule="evenodd">
        <g id="Ch3_Control02" transform="translate(-923.000000, -832.000000)" fill="#FFFFFF">
            <g id="Btn_SNS" transform="translate(908.000000, 600.000000)">
                <g id="Group-3-Copy-7" transform="translate(0.000000, 217.000000)">
                    <g id="Group-10" transform="translate(15.000000, 15.000000)">
                        <path d="M22.9811023,10.8093741 L11.8038175,10.8093741 L11.8169005,13.8737224 L19.3527367,13.8737224 C18.4630894,17.6029634 15.7112881,19.889749 12.0189609,19.889749 C7.17677917,19.889749 3.25186449,16.1340792 3.25186449,11.4993045 C3.25186449,6.86592077 7.17677917,3.10885999 12.0189609,3.10885999 C14.3215776,3.10885999 16.4148654,3.96014515 17.9804702,5.34835198 L20.4531665,3.30916238 C18.2842877,1.26301784 15.3057136,0 12.0189609,0 C5.38149412,0 0,5.14804959 0,11.4993045 C0,17.8505594 5.38149412,23 12.0189609,23 C18.3933131,23 23,18.3471424 23,11.9972785 L22.9811023,10.8093741 Z" id="Fill-1"></path>
                    </g>
                </g>
            </g>
        </g>
    </g>
</svg>