<?xml version="1.0" encoding="UTF-8"?>
<svg width="20px" height="20px" viewBox="0 0 20 20" version="1.1" xmlns="http://www.w3.org/2000/svg" xmlns:xlink="http://www.w3.org/1999/xlink">
    <title>language</title>
    <defs>
        <path d="M10.9908333,1.8333333 C5.93083331,1.8333333 1.8333333,5.93999998 1.8333333,11 C1.8333333,16.06 5.93083331,20.1666667 10.9908333,20.1666667 C16.06,20.1666667 20.1666667,16.06 20.1666667,11 C20.1666667,5.93999998 16.06,1.8333333 10.9908333,1.8333333 L10.9908333,1.8333333 Z M17.3433334,7.33333332 L14.6391667,7.33333332 C14.3458333,6.18749998 13.9241667,5.08749998 13.3741667,4.06999997 C15.0608334,4.64749997 16.4633334,5.82083331 17.3433334,7.33333332 L17.3433334,7.33333332 Z M11,3.7033333 C11.7608333,4.80333331 12.3566667,6.02249998 12.7508333,7.33333332 L9.24916666,7.33333332 C9.64333333,6.02249998 10.2391667,4.80333331 11,3.7033333 L11,3.7033333 Z M3.90499997,12.8333333 C3.7583333,12.2466667 3.66666664,11.6325 3.66666664,11 C3.66666664,10.3675 3.7583333,9.75333333 3.90499997,9.16666666 L7.00333332,9.16666666 C6.92999998,9.77166666 6.87499998,10.3766667 6.87499998,11 C6.87499998,11.6233333 6.92999998,12.2283333 7.00333332,12.8333333 L3.90499997,12.8333333 L3.90499997,12.8333333 Z M4.65666664,14.6666667 L7.36083332,14.6666667 C7.65416665,15.8125 8.07583332,16.9125 8.62583332,17.93 C6.93916665,17.3525 5.53666664,16.1883334 4.65666664,14.6666667 L4.65666664,14.6666667 Z M7.36083332,7.33333332 L4.65666664,7.33333332 C5.53666664,5.81166665 6.93916665,4.64749997 8.62583332,4.06999997 C8.07583332,5.08749998 7.65416665,6.18749998 7.36083332,7.33333332 L7.36083332,7.33333332 Z M11,18.2966667 C10.2391667,17.1966667 9.64333333,15.9775 9.24916666,14.6666667 L12.7508333,14.6666667 C12.3566667,15.9775 11.7608333,17.1966667 11,18.2966667 L11,18.2966667 Z M13.145,12.8333333 L8.85499999,12.8333333 C8.77249999,12.2283333 8.70833332,11.6233333 8.70833332,11 C8.70833332,10.3766667 8.77249999,9.76249999 8.85499999,9.16666666 L13.145,9.16666666 C13.2275,9.76249999 13.2916667,10.3766667 13.2916667,11 C13.2916667,11.6233333 13.2275,12.2283333 13.145,12.8333333 L13.145,12.8333333 Z M13.3741667,17.93 C13.9241667,16.9125 14.3458333,15.8125 14.6391667,14.6666667 L17.3433334,14.6666667 C16.4633334,16.1791667 15.0608334,17.3525 13.3741667,17.93 L13.3741667,17.93 Z M14.9966667,12.8333333 C15.07,12.2283333 15.125,11.6233333 15.125,11 C15.125,10.3766667 15.07,9.77166666 14.9966667,9.16666666 L18.095,9.16666666 C18.2416667,9.75333333 18.3333334,10.3675 18.3333334,11 C18.3333334,11.6325 18.2416667,12.2466667 18.095,12.8333333 L14.9966667,12.8333333 L14.9966667,12.8333333 Z" id="path-1"></path>
    </defs>
    <g id="Symbols" stroke="none" stroke-width="1" fill="none" fill-rule="evenodd" opacity="0.800000012">
        <g id="GNB/gnb" transform="translate(-1693.000000, -23.000000)">
            <g id="@Username" transform="translate(1684.000000, 0.000000)">
                <g id="language" transform="translate(8.000000, 22.000000)">
                    <polygon id="Base" points="-4.58333306e-08 -4.58332655e-08 22 -4.58332655e-08 22 22 -4.58333306e-08 22"></polygon>
                    <mask id="mask-2" fill="white">
                        <use xlink:href="#path-1"></use>
                    </mask>
                    <g id="Icon" fill-rule="nonzero"></g>
                    <rect id="↳-🎨-Color" fill="#FFFFFF" mask="url(#mask-2)" x="0" y="0" width="22" height="22"></rect>
                </g>
            </g>
        </g>
    </g>
</svg>