<?xml version="1.0" encoding="UTF-8"?>
<svg width="14px" height="14px" viewBox="0 0 14 14" version="1.1" xmlns="http://www.w3.org/2000/svg" xmlns:xlink="http://www.w3.org/1999/xlink">
    <title>ic_signout</title>
    <g id="-" stroke="none" stroke-width="1" fill="none" fill-rule="evenodd">
        <g id="gnb_singout" transform="translate(0.000000, -5.000000)" fill="#FFFFFF" fill-rule="nonzero">
            <g id="Shape" transform="translate(0.000000, 5.000000)">
                <path d="M8.80977805,6.30010535 L7.20499438,4.69532166 C6.93166851,4.4219958 6.93166851,3.97884702 7.20499438,3.70552116 C7.47832025,3.4321953 7.92146904,3.4321953 8.19479491,3.70552116 L10.9943735,6.50509973 C11.2676994,6.7784256 11.2676994,7.22157439 10.9943735,7.49490026 L8.19479491,10.2944788 C7.92146904,10.5678047 7.47832025,10.5678047 7.20499438,10.2944788 C6.93166851,10.021153 6.93166851,9.57800418 7.20499438,9.30467832 L8.80977805,7.69989464 L3.50052677,7.69989464 C3.11398563,7.69989464 2.80063212,7.3865411 2.80063212,7 C2.80063212,6.61345889 3.11398563,6.30010535 3.50052677,6.30010535 L8.80977805,6.30010535 Z M12.999268,3.39527609 C13.1983515,3.72660651 13.091144,4.15659188 12.7598136,4.35567528 C12.4284832,4.55475869 11.9984978,4.44755129 11.7994144,4.11622087 C10.2067472,1.46557747 6.76686425,0.607918328 4.11622087,2.20058556 C1.46557747,3.7932528 0.607918328,7.23313574 2.20058556,9.88377912 C3.7932528,12.5344225 7.23313574,13.3920817 9.88377912,11.7994144 C10.6790297,11.3215797 11.3290597,10.6681249 11.7962478,9.89147531 C11.9954973,9.56024471 12.4255363,9.45325286 12.7567669,9.6525023 C13.0879975,9.85175174 13.1949894,10.2817908 12.9957399,10.6130214 C12.4112526,11.5846683 11.5974016,12.4028071 10.6047239,12.999268 C7.29141968,14.9901021 2.991566,13.9180281 1.00073195,10.6047239 C-0.99010209,7.29141968 0.0819718367,2.991566 3.39527609,1.00073195 C6.70858031,-0.99010209 11.008434,0.0819718367 12.999268,3.39527609 Z"></path>
            </g>
        </g>
    </g>
</svg>