<?xml version="1.0" encoding="UTF-8"?>
<svg width="580px" height="157px" viewBox="0 0 580 157" version="1.1" xmlns="http://www.w3.org/2000/svg" xmlns:xlink="http://www.w3.org/1999/xlink">
    <title>Illust/account_setting_2ndconfirm</title>
    <defs>
        <path d="M4,0.53867174 L47.5957066,0.53867174 C49.8048456,0.53867174 51.5957066,2.32953274 51.5957066,4.53867174 L51.5957066,30.6862063 C51.5957066,32.8953453 49.8048456,34.6862063 47.5957066,34.6862063 L4,34.6862063 C1.790861,34.6862063 2.705415e-16,32.8953453 0,30.6862063 L0,4.53867174 C-7.1463071e-16,2.32953274 1.790861,0.53867174 4,0.53867174 Z" id="path-1"></path>
        <path d="M4.35520983,0 L47.9509164,0 C50.1600554,3.51840692e-15 51.9509164,1.790861 51.9509164,4 L51.9509164,30.1475345 C51.9509164,32.3566735 50.1600554,34.1475345 47.9509164,34.1475345 L4.35520983,34.1475345 C2.14607083,34.1475345 0.355209829,32.3566735 0.355209829,30.1475345 L0.355209829,4 C0.355209829,1.790861 2.14607083,4.05812251e-16 4.35520983,0 Z" id="path-3"></path>
        <filter id="filter-5">
            <feColorMatrix in="SourceGraphic" type="matrix" values="0 0 0 0 0.411765 0 0 0 0 0.411765 0 0 0 0 0.411765 0 0 0 1.000000 0"></feColorMatrix>
        </filter>
        <filter id="filter-6">
            <feColorMatrix in="SourceGraphic" type="matrix" values="0 0 0 0 0.411765 0 0 0 0 0.411765 0 0 0 0 0.411765 0 0 0 1.000000 0"></feColorMatrix>
        </filter>
    </defs>
    <g id="ch01_Login" stroke="none" stroke-width="1" fill="none" fill-rule="evenodd">
        <g id="Ch6_Account_Setting_04" transform="translate(-690.000000, -356.000000)">
            <g id="Illust/account_setting_2ndconfirm" transform="translate(690.000000, 356.000000)">
                <rect id="Rectangle" fill="#F3F3F3" x="0" y="0" width="580" height="157"></rect>
                <g id="Group" transform="translate(50.000000, 32.000000)">
                    <g id="Group-14">
                        <g id="Group-3" transform="translate(32.000000, 0.000000)">
                            <rect id="Rectangle-Copy-7" stroke="#1A3755" stroke-width="2" fill="#FFFFFF" x="1" y="10.5412844" width="51.0847458" height="11.2110092" rx="2"></rect>
                            <rect id="Rectangle-Copy-10" stroke="#1A3755" stroke-width="2" fill="#FFFFFF" x="6.16101695" y="25.2201835" width="45.9237288" height="11.2110092" rx="2"></rect>
                            <rect id="Rectangle" fill="#0066CC" x="3.68644068" y="12.4770642" width="1" height="7.33944954"></rect>
                            <path d="M1.19735593,7.56256881 L1.19735593,0 L0,0 L0,7.56256881 L1.19735593,7.56256881 Z M5.22294915,7.56256881 C7.49379661,7.56256881 8.82533898,6.20623853 8.82533898,3.75045872 C8.82533898,1.28440367 7.49379661,0 5.16101695,0 L3.18950847,0 L3.18950847,7.56256881 L5.22294915,7.56256881 Z M5.07844068,6.58642202 L4.38686441,6.58642202 L4.38686441,0.96587156 L5.07844068,0.96587156 C6.70932203,0.96587156 7.58669492,1.85981651 7.58669492,3.75045872 C7.58669492,5.63082569 6.70932203,6.58642202 5.07844068,6.58642202 Z" id="ID" fill="#1A3755" fill-rule="nonzero"></path>
                            <g id="Group-13" transform="translate(17.694915, 16.880734)">
                                <g id="Group-12" stroke="#1A3755" stroke-width="2">
                                    <rect id="Rectangle-Copy-6" fill="#FFFFFF" x="6.22804314" y="1" width="16.298151" height="28.7637891" rx="8.1490755"></rect>
                                    <rect id="Rectangle" fill="#EFF1F0" x="1" y="14.4862385" width="26.7542373" height="20.4770642" rx="3"></rect>
                                </g>
                                <path d="M14.3771186,25.7390418 C15.3522387,25.7390418 16.1427297,26.5217448 16.1427297,27.4872579 C16.1427297,28.1843584 15.7306594,28.7861628 15.1345452,29.0668914 L15.1338091,31.4757254 C15.1338091,31.893634 14.7950272,32.2324159 14.3771186,32.2324159 C13.95921,32.2324159 13.6204282,31.893634 13.6204282,31.4757254 L13.6191328,29.0666279 C13.0233202,28.7857864 12.6115076,28.1841403 12.6115076,27.4872579 C12.6115076,26.5217448 13.4019986,25.7390418 14.3771186,25.7390418 Z" id="Combined-Shape" fill="#1A3755"></path>
                                <path d="M5.62063649,19.2615953 L5.62074399,20.6605116 L6.81746286,19.961092 L7.14126617,20.5288418 L5.94437104,21.2281979 L7.14126617,21.9278351 L6.81746286,22.4955849 L5.62074399,21.7960248 L5.62063649,23.1950815 L4.97302988,23.1950815 L4.97306426,21.7960248 L3.77620351,22.4955849 L3.4524002,21.9278351 L4.64943721,21.2283384 L3.4524002,20.5288418 L3.77620351,19.961092 L4.97306426,20.6605116 L4.97302988,19.2615953 L5.62063649,19.2615953 Z M11.6741601,19.2615953 L11.6742676,20.6605116 L12.8709865,19.961092 L13.1947898,20.5288418 L11.9978947,21.2281979 L13.1947898,21.9278351 L12.8709865,22.4955849 L11.6742676,21.7960248 L11.6741601,23.1950815 L11.0265535,23.1950815 L11.0265879,21.7960248 L9.82972715,22.4955849 L9.50592384,21.9278351 L10.7029608,21.2283384 L9.50592384,20.5288418 L9.82972715,19.961092 L11.0265879,20.6605116 L11.0265535,19.2615953 L11.6741601,19.2615953 Z M17.7276838,19.2615953 L17.7277913,20.6605116 L18.9245101,19.961092 L19.2483134,20.5288418 L18.0514183,21.2281979 L19.2483134,21.9278351 L18.9245101,22.4955849 L17.7277913,21.7960248 L17.7276838,23.1950815 L17.0800772,23.1950815 L17.0801115,21.7960248 L15.8832508,22.4955849 L15.5594475,21.9278351 L16.7564845,21.2283384 L15.5594475,20.5288418 L15.8832508,19.961092 L17.0801115,20.6605116 L17.0800772,19.2615953 L17.7276838,19.2615953 Z M23.7812074,19.2615953 L23.7813149,20.6605116 L24.9780338,19.961092 L25.3018371,20.5288418 L24.104942,21.2281979 L25.3018371,21.9278351 L24.9780338,22.4955849 L23.7813149,21.7960248 L23.7812074,23.1950815 L23.1336008,23.1950815 L23.1336352,21.7960248 L21.9367744,22.4955849 L21.6129711,21.9278351 L22.8100081,21.2283384 L21.6129711,20.5288418 L21.9367744,19.961092 L23.1336352,20.6605116 L23.1336008,19.2615953 L23.7812074,19.2615953 Z" id="Combined-Shape" fill="#0066CC"></path>
                            </g>
                        </g>
                        <text id="아이디,-비밀번호-입력" font-family="NotoSansCJKkr-Regular, Noto Sans CJK KR" font-size="13" font-weight="normal" fill="#000000">
                            <tspan x="0.461" y="89">아이디, 비밀번호 입력</tspan>
                        </text>
                    </g>
                    <g id="Group-17" transform="translate(415.000000, 0.000000)">
                        <g id="Illust/account_mng_login" transform="translate(11.000000, 0.000000)">
                            <g id="Group-7">
                                <rect id="Rectangle" stroke="#1A3755" stroke-width="2" fill="#EFF1F0" x="1" y="4.5444171" width="37.4285714" height="46.9773999" rx="1"></rect>
                                <g id="Group-4" transform="translate(10.988290, 13.211009)">
                                    <path d="M8.72599532,11.5999105 C13.5452295,11.5999105 17.4519906,15.5066717 17.4519906,20.3259058 L17.451,21.9109105 L0,21.9109105 L0,20.3259058 C-2.36654281e-15,15.5066717 3.90676118,11.5999105 8.72599532,11.5999105 Z" id="Combined-Shape" stroke="#1A3755" stroke-width="2" fill="#FFFFFF" stroke-linejoin="round"></path>
                                    <path d="M8.56440281,0 C11.3581221,-5.13197903e-16 13.622879,2.26475694 13.622879,5.0584762 C13.622879,5.14740986 13.6205337,5.23632806 13.6158455,5.32513806 L13.4976216,7.56468318 C13.35913,10.1881644 11.1915369,12.24435 8.56440281,12.24435 C5.93726873,12.24435 3.76967565,10.1881644 3.63118405,7.56468318 L3.51296015,5.32513806 C3.36568687,2.53530332 5.50790621,0.15430682 8.29774095,0.00703354274 C8.38655096,0.00234532951 8.47546915,1.63368484e-17 8.56440281,0 Z" id="Rectangle" stroke="#1A3755" stroke-width="2" fill="#FFFFFF"></path>
                                    <path d="M8.07962529,12.5665697 L7.11007026,17.6282036 L8.46929763,19.8754402 C8.55504648,20.0172104 8.73948713,20.0626247 8.88125735,19.9768758 C8.92277462,19.9517644 8.95758153,19.9169574 8.982693,19.8754402 L10.3419204,17.6282036 L10.3419204,17.6282036 L9.37229181,12.5665697 L8.07962529,12.5665697 Z" id="Path-4" fill="#1A3755"></path>
                                </g>
                                <rect id="Rectangle" stroke="#1A3755" stroke-width="2" fill="#FFFFFF" x="11.9882904" y="1" width="15.4519906" height="6.37771313" rx="1"></rect>
                                <rect id="Rectangle" fill="#1A3755" x="14.2201405" y="3.22219736" width="10.9882904" height="1.93331842" rx="0.966659208"></rect>
                            </g>
                            <polygon id="Path" fill="#0066CC" points="24.0243815 38.8990826 18.5216171 44.4175229 15.8616563 41.743578 14.6031746 43.0085855 18.5225673 46.9483021 19.781049 45.6832946 25.2828632 40.1640901"></polygon>
                        </g>
                        <g id="Group-10" transform="translate(0.000000, 73.055046)" fill="#000000" font-family="NotoSansCJKkr-Regular, Noto Sans CJK KR" font-size="13" font-weight="normal">
                            <text id="로그인-완료">
                                <tspan x="0.144" y="15.9449541">로그인 완료</tspan>
                            </text>
                        </g>
                    </g>
                    <g id="Group-16" transform="translate(190.000000, 2.000000)">
                        <g id="Illust/account_mng_otp" transform="translate(37.000000, 0.000000)">
                            <g id="Group-5">
                                <g id="Group-3" transform="translate(0.355210, 13.391190)">
                                    <mask id="mask-2" fill="white">
                                        <use xlink:href="#path-1"></use>
                                    </mask>
                                    <path stroke="#2C4157" stroke-width="2" d="M47.5957066,1.53867174 C48.4241337,1.53867174 49.1741337,1.87445818 49.717027,2.4173514 C50.2599202,2.96024462 50.5957066,3.71024462 50.5957066,4.53867174 L50.5957066,4.53867174 L50.5957066,30.6862063 C50.5957066,31.5146334 50.2599202,32.2646334 49.717027,32.8075266 C49.1741337,33.3504198 48.4241337,33.6862063 47.5957066,33.6862063 L47.5957066,33.6862063 L4,33.6862063 C3.17157288,33.6862063 2.42157288,33.3504198 1.87867966,32.8075266 C1.33578644,32.2646334 1,31.5146334 1,30.6862063 L1,30.6862063 L1,4.53867174 C1,3.71024462 1.33578644,2.96024462 1.87867966,2.4173514 C2.42157288,1.87445818 3.17157288,1.53867174 4,1.53867174 L4,1.53867174 Z"></path>
                                    <polygon id="Path-7" stroke="#2C4157" stroke-width="2" fill="#EFF1F0" mask="url(#mask-2)" points="1.25858565 33.4468507 22.7347415 15.4113723 28.5292948 15.2689807 51.5957066 33.4468507 51.5957066 35.4459308 -0.670074112 36.0253253"></polygon>
                                    <path d="M-1.02954701,0.963821541 L51.5069466,1.55115925 L26.4263687,22.0196789 L-1.02954701,0.963821541 Z" id="Path-6" stroke="#2C4157" stroke-width="2" fill="#C6D1CC" mask="url(#mask-2)"></path>
                                </g>
                                <g id="Group-4" transform="translate(0.000000, 13.929862)">
                                    <mask id="mask-4" fill="white">
                                        <use xlink:href="#path-3"></use>
                                    </mask>
                                    <path stroke="#2C4157" stroke-width="2" d="M47.9509164,1 C48.7793436,1 49.5293436,1.33578644 50.0722368,1.87867966 C50.61513,2.42157288 50.9509164,3.17157288 50.9509164,4 L50.9509164,4 L50.9509164,30.1475345 C50.9509164,30.9759616 50.61513,31.7259616 50.0722368,32.2688549 C49.5293436,32.8117481 48.7793436,33.1475345 47.9509164,33.1475345 L47.9509164,33.1475345 L4.35520983,33.1475345 C3.5267827,33.1475345 2.7767827,32.8117481 2.23388949,32.2688549 C1.69099627,31.7259616 1.35520983,30.9759616 1.35520983,30.1475345 L1.35520983,30.1475345 L1.35520983,4 C1.35520983,3.17157288 1.69099627,2.42157288 2.23388949,1.87867966 C2.7767827,1.33578644 3.5267827,1 4.35520983,1 L4.35520983,1 Z"></path>
                                </g>
                                <path d="M40.8852926,1.53867159 C41.1476265,1.53852745 41.3863897,1.63948595 41.5646556,1.80484709 C41.737113,1.96482022 41.8534122,2.18485395 41.8792544,2.43194204 L41.8792544,2.43194204 L41.8777917,23.0799398 L26.7812401,35.4200169 L10.3302766,22.8303931 L10.3990435,2.53528342 C10.3999769,2.259804 10.512235,2.01065108 10.6931299,1.83036802 C10.8740249,1.65008495 11.1235567,1.53867174 11.3990377,1.53867174 L11.3990377,1.53867174 Z" id="Rectangle" stroke="#2C4157" stroke-width="2" fill="#FFFFFF"></path>
                                <rect id="Rectangle" fill="#2C4157" x="15.4651163" y="19.7307692" width="21.3565891" height="1.46153846"></rect>
                                <rect id="Rectangle-Copy-8" fill="#2C4157" x="15.4651163" y="23.3846154" width="16.9379845" height="1.46153846"></rect>
                                <rect id="Rectangle-Copy-9" fill="#2C4157" x="16.9379845" y="27.0384615" width="13.255814" height="1.46153846"></rect>
                            </g>
                            <path d="M19.3520155,6.57692308 C21.5603099,6.57692308 23.0297674,8.2539611 23.0297674,10.8197692 C23.0297674,13.3949872 21.5520952,15.1137692 19.3520155,15.1137692 C17.1538172,15.1137692 15.6845736,13.3972126 15.6845736,10.8197692 C15.6845736,8.2517929 17.145652,6.57692308 19.3520155,6.57692308 Z M29.5869767,6.72015385 L29.5869767,8.44330769 L27.3489535,8.44330769 L27.3496899,14.9807692 L25.4172868,14.9807692 L25.4165504,8.44330769 L23.1903101,8.44330769 L23.1903101,6.72015385 L29.5869767,6.72015385 Z M32.8272868,6.72015385 C34.8889634,6.72015385 36.0926357,7.55444249 36.0926357,9.35676923 C36.0926357,11.0830521 34.8971915,12.0656956 33.044159,12.1236646 L32.8685271,12.1263846 L32.0915891,12.1263846 L32.0923256,14.9807692 L30.1599225,14.9807692 L30.1599225,6.72015385 L32.8272868,6.72015385 Z M19.3520155,8.341 C18.315388,8.341 17.647907,9.24699543 17.647907,10.8197692 C17.647907,12.4048028 18.3263293,13.3496923 19.3520155,13.3496923 C20.3807039,13.3496923 21.0664341,12.4013982 21.0664341,10.8197692 C21.0664341,9.25034737 20.3916983,8.341 19.3520155,8.341 Z M32.0915891,8.40238462 L32.0915891,10.4441538 L32.7551163,10.4441538 C33.7865571,10.4441538 34.1808527,10.1260403 34.1808527,9.35676923 C34.1808527,8.68096247 33.8416021,8.42480465 32.8527719,8.40380757 L32.0915891,8.40238462 Z" id="Shape" fill="#0066CC" fill-rule="nonzero"></path>
                        </g>
                        <g id="Group-2" transform="translate(0.000000, 72.000000)" fill="#0066CC" font-family="NotoSansCJKkr-Medium, Noto Sans CJK KR" font-size="13" font-weight="400">
                            <text id="OTP-인증-(이메일-전송)">
                                <tspan x="0.066" y="15">OTP 인증 (이메일 전송)</tspan>
                            </text>
                        </g>
                    </g>
                    <g transform="translate(144.000000, 36.000000)" id="Icon/arrow/next" filter="url(#filter-5)">
                        <g transform="translate(8.000000, 8.000000) rotate(-90.000000) translate(-8.000000, -8.000000) ">
                            <rect id="Rectangle" fill="#D8D8D8" opacity="0" x="0" y="0" width="16" height="16"></rect>
                            <polygon id="Path" fill="#000000" points="2 5.60526316 8 11.5 14 5.60526316 12.875 4.5 8 9.28947368 3.125 4.5"></polygon>
                        </g>
                    </g>
                    <g transform="translate(345.000000, 35.000000)" id="Icon/arrow/next" filter="url(#filter-6)">
                        <g transform="translate(8.000000, 8.000000) rotate(-90.000000) translate(-8.000000, -8.000000) ">
                            <rect id="Rectangle" fill="#D8D8D8" opacity="0" x="0" y="0" width="16" height="16"></rect>
                            <polygon id="Path" fill="#000000" points="2 5.60526316 8 11.5 14 5.60526316 12.875 4.5 8 9.28947368 3.125 4.5"></polygon>
                        </g>
                    </g>
                </g>
            </g>
        </g>
    </g>
</svg>