<?xml version="1.0" encoding="UTF-8"?>
<svg width="16px" height="16px" viewBox="0 0 16 16" version="1.1" xmlns="http://www.w3.org/2000/svg" xmlns:xlink="http://www.w3.org/1999/xlink">
    <title>info</title>
    <defs>
        <filter id="filter-1">
            <feColorMatrix in="SourceGraphic" type="matrix" values="0 0 0 0 1.000000 0 0 0 0 0.031373 0 0 0 0 0.000000 0 0 0 1.000000 0"></feColorMatrix>
        </filter>
        <path d="M8.99999997,1.49999997 C4.85999998,1.49999997 1.49999997,4.85999998 1.49999997,8.99999997 C1.49999997,13.14 4.85999998,16.5 8.99999997,16.5 C13.14,16.5 16.5,13.14 16.5,8.99999997 C16.5,4.85999998 13.14,1.49999997 8.99999997,1.49999997 L8.99999997,1.49999997 Z M9.75,12.75 L8.25,12.75 L8.25,8.25 L9.75,8.25 L9.75,12.75 L9.75,12.75 Z M9.75,6.74999998 L8.25,6.74999998 L8.25,5.24999998 L9.75,5.24999998 L9.75,6.74999998 L9.75,6.74999998 Z" id="path-2"></path>
    </defs>
    <g id="Ch01_Login" stroke="none" stroke-width="1" fill="none" fill-rule="evenodd">
        <g id="Ch6_Account_Setting_01_02" transform="translate(-924.000000, -310.000000)">
            <g id="@Contents" transform="translate(360.000000, 94.000000)">
                <g id="+txtbox" transform="translate(0.000000, 134.000000)">
                    <g id="Group" transform="translate(458.000000, 0.000000)">
                        <g transform="translate(105.000000, 81.000000)" id="info" filter="url(#filter-1)">
                            <g>
                                <mask id="mask-3" fill="white">
                                    <use xlink:href="#path-2"></use>
                                </mask>
                                <g id="Icon" fill-rule="nonzero"></g>
                                <polygon id="Base" mask="url(#mask-3)" points="-3.75000084e-08 -3.74999445e-08 18 -3.74999445e-08 18 18 -3.75000084e-08 18"></polygon>
                                <rect id="↳-🎨-Color" fill="#080808" mask="url(#mask-3)" x="0" y="0" width="18" height="18"></rect>
                            </g>
                        </g>
                    </g>
                </g>
            </g>
        </g>
    </g>
</svg>