<?xml version="1.0" encoding="UTF-8"?>
<svg width="22px" height="12px" viewBox="0 0 22 12" version="1.1" xmlns="http://www.w3.org/2000/svg" xmlns:xlink="http://www.w3.org/1999/xlink">
    <title>Icn_change_password</title>
    <defs>
        <path d="M12.65,9.99999997 C11.83,7.66999998 9.60999999,5.99999997 6.99999995,5.99999997 C3.68999997,5.99999997 0.999999954,8.68999999 0.999999954,12 C0.999999954,15.31 3.68999997,18 6.99999995,18 C9.60999999,18 11.83,16.33 12.65,14 L17,14 L17,18 L21,18 L21,14 L23,14 L23,9.99999997 L12.65,9.99999997 L12.65,9.99999997 Z M6.99999997,14 C5.89999997,14 4.99999997,13.1 4.99999997,12 C4.99999997,10.9 5.89999997,9.99999999 6.99999997,9.99999999 C8.09999998,9.99999999 8.99999997,10.9 8.99999997,12 C8.99999997,13.1 8.09999998,14 6.99999997,14 L6.99999997,14 Z" id="path-1"></path>
    </defs>
    <g id="ch01_Login" stroke="none" stroke-width="1" fill="none" fill-rule="evenodd">
        <g id="LNB/LNB-Group" transform="translate(-1.000000, -79.000000)">
            <g id="Group" transform="translate(0.000000, 11.000000)">
                <g id="LNB/1depth/icon+text-Copy" transform="translate(0.000000, 48.000000)">
                    <g id="ICON" transform="translate(0.000000, 14.000000)">
                        <polygon id="Base" points="-4.99999828e-08 -5.00003807e-08 24.0000001 -5.00003807e-08 24.0000001 24 -4.99999828e-08 24"></polygon>
                        <mask id="mask-2" fill="white">
                            <use xlink:href="#path-1"></use>
                        </mask>
                        <g id="Icon" fill-rule="nonzero"></g>
                        <rect id="↳-🎨-Color" fill="#757575" mask="url(#mask-2)" x="0" y="0" width="24" height="24"></rect>
                    </g>
                </g>
            </g>
        </g>
    </g>
</svg>