<?xml version="1.0" encoding="UTF-8"?>
<svg width="22px" height="20px" viewBox="0 0 22 20" version="1.1" xmlns="http://www.w3.org/2000/svg" xmlns:xlink="http://www.w3.org/1999/xlink">
    <title>Icn_Session_setting</title>
    <defs>
        <path d="M21,1.99999996 L2.99999995,1.99999996 C1.89999996,1.99999996 0.999999954,2.89999996 0.999999954,3.99999996 L0.999999954,16 C0.999999954,17.1 1.89999996,18 2.99999995,18 L9.99999995,18 L9.99999995,20 L7.99999995,20 L7.99999995,22 L16,22 L16,20 L14,20 L14,18 L21,18 C22.1,18 23,17.1 23,16 L23,3.99999996 C23,2.89999996 22.1,1.99999996 21,1.99999996 L21,1.99999996 Z M21,16 L2.99999996,16 L2.99999996,3.99999997 L21,3.99999997 L21,16 L21,16 Z" id="path-1"></path>
    </defs>
    <g id="ch01_Login" stroke="none" stroke-width="1" fill="none" fill-rule="evenodd">
        <g id="LNB/LNB-Group" transform="translate(-1.000000, -267.000000)">
            <g id="Group" transform="translate(0.000000, 11.000000)">
                <g id="LNB/1depth/icon+text-Copy-5" transform="translate(0.000000, 240.000000)">
                    <g id="ICON" transform="translate(0.000000, 14.000000)">
                        <polygon id="Base" points="-5.00000112e-08 -4.9999926e-08 24 -4.9999926e-08 24 24.0000001 -5.00000112e-08 24.0000001"></polygon>
                        <mask id="mask-2" fill="white">
                            <use xlink:href="#path-1"></use>
                        </mask>
                        <g id="Icon" fill-rule="nonzero"></g>
                        <rect id="↳-🎨-Color" fill="#757575" mask="url(#mask-2)" x="0" y="0" width="24" height="24"></rect>
                    </g>
                </g>
            </g>
        </g>
    </g>
</svg>