<?xml version="1.0" encoding="UTF-8"?>
<svg width="16px" height="21px" viewBox="0 0 16 21" version="1.1" xmlns="http://www.w3.org/2000/svg" xmlns:xlink="http://www.w3.org/1999/xlink">
    <title>Icn_2nd_confirm</title>
    <defs>
        <path d="M18,7.99999995 L17,7.99999995 L17,5.99999995 C17,3.23999996 14.76,0.999999954 12,0.999999954 C9.23999999,0.999999954 6.99999997,3.23999996 6.99999997,5.99999995 L6.99999997,7.99999995 L5.99999997,7.99999995 C4.89999997,7.99999995 3.99999997,8.89999999 3.99999997,9.99999995 L3.99999997,20 C3.99999997,21.1 4.89999997,22 5.99999997,22 L18,22 C19.1,22 20,21.1 20,20 L20,9.99999995 C20,8.89999999 19.1,7.99999995 18,7.99999995 L18,7.99999995 Z M12,17 C10.9,17 9.99999999,16.1 9.99999999,15 C9.99999999,13.9 10.9,13 12,13 C13.1,13 14,13.9 14,15 C14,16.1 13.1,17 12,17 L12,17 Z M15.1,7.99999998 L8.89999999,7.99999998 L8.89999999,5.99999998 C8.89999999,4.28999997 10.29,2.89999996 12,2.89999996 C13.71,2.89999996 15.1,4.28999997 15.1,5.99999998 L15.1,7.99999998 L15.1,7.99999998 Z" id="path-1"></path>
    </defs>
    <g id="ch01_Login" stroke="none" stroke-width="1" fill="none" fill-rule="evenodd">
        <g id="LNB/LNB-Group" transform="translate(-4.000000, -122.000000)">
            <g id="Group" transform="translate(0.000000, 11.000000)">
                <g id="LNB/1depth/icon+text-Copy-2" transform="translate(0.000000, 96.000000)">
                    <g id="ICON" transform="translate(0.000000, 14.000000)">
                        <polygon id="Base" points="-4.9999997e-08 -4.9999926e-08 24.0000001 -4.9999926e-08 24.0000001 24.0000001 -4.9999997e-08 24.0000001"></polygon>
                        <mask id="mask-2" fill="white">
                            <use xlink:href="#path-1"></use>
                        </mask>
                        <g id="Icon" fill-rule="nonzero"></g>
                        <rect id="↳-🎨-Color" fill="#757575" mask="url(#mask-2)" x="0" y="0" width="24" height="24"></rect>
                    </g>
                </g>
            </g>
        </g>
    </g>
</svg>