<?xml version="1.0" encoding="UTF-8"?>
<svg width="108px" height="18px" viewBox="0 0 108 18" version="1.1" xmlns="http://www.w3.org/2000/svg" xmlns:xlink="http://www.w3.org/1999/xlink">
    <title>CI_TmaxCloud</title>
    <g id="ch01_Login" stroke="none" stroke-width="1" fill="none" fill-rule="evenodd">
        <g id="Ch4_Sign_Out_01-1" transform="translate(-811.000000, -353.000000)">
            <g id="Illust_signout_logo" transform="translate(770.000000, 284.000000)">
                <g id="Group-3" transform="translate(41.000000, 12.000000)">
                    <g id="CI_TmaxCloud" transform="translate(0.000000, 57.000000)">
                        <path d="M16,4 L15.1544149,7.76180598 L11.5054595,7.76180598 L9.20823661,18 L3.3481214,18 L5.64594618,7.76180598 L2,7.76180598 L2.84618691,4 L16,4 Z M37.4131084,8.135824 C39.2856187,8.135824 41.373323,8.87913244 41.0434671,10.8178694 L41.006747,10.997424 L39.9540228,15.8104652 L39.9540228,15.8104652 L39.9109901,16.0780738 L39.9109901,16.0780738 L39.8746265,16.403804 L39.8746265,16.403804 L39.7821651,17.3914971 L39.7821651,17.3914971 L39.7599036,17.617184 L36.3200964,17.617184 C36.3125783,17.469624 36.3254458,17.322204 36.3585542,17.129214 L36.4079907,16.872827 L36.4079907,16.872827 L36.5184578,16.367824 L36.4785542,16.367824 C35.8979277,17.027504 34.8974458,17.887664 33.1168193,17.887664 C30.8642892,17.887664 29.9453494,16.718384 30.398747,14.830624 C30.9124294,12.662304 33.1102449,11.7335412 36.0736084,11.6792436 L36.3536386,11.676704 L37.4882892,11.676704 L37.618127,11.1232701 L37.6558887,10.9325407 C37.6614248,10.9008803 37.6665163,10.8693324 37.6710641,10.8379697 L37.6910362,10.6525989 C37.7246563,10.1369811 37.5439931,9.716984 36.6630361,9.750304 C35.8383976,9.786529 35.3792146,10.5132931 35.2411713,11.05804 L35.2178313,11.164304 L31.8283373,11.164304 C32.0943614,9.861744 32.961253,9.110224 34.018988,8.687424 C35.0998554,8.246704 36.3536386,8.135824 37.4131084,8.135824 Z M62.1845783,4.011256 C64.4139759,4.011256 65.9968193,4.528696 66.8394217,5.635816 C67.468383,6.47840968 67.5013965,7.35171184 67.4400486,7.9519342 L67.4094418,8.1915675 L67.4094418,8.1915675 L67.3610602,8.476696 L67.3610602,8.476696 L63.4337349,8.476696 C63.5569157,7.129896 62.6963855,6.632616 61.6085783,6.632616 C59.3760181,6.632616 58.2218692,8.55454092 57.6661008,10.8883304 L57.569251,11.3261268 L57.569251,11.3261268 L57.51698,11.6018911 L57.51698,11.6018911 L57.466573,11.9297966 L57.466573,11.9297966 L57.4385555,12.1709912 L57.4385555,12.1709912 L57.418194,12.4257951 C57.4155901,12.4691839 57.413419,12.5129804 57.4117376,12.5571049 L57.4079807,12.8251492 C57.4211091,13.9982008 57.8421893,15.285176 59.6712289,15.285176 C61.0923373,15.285176 61.7725805,14.5819143 62.1170271,13.9848526 L62.2151099,13.8007812 L62.2151099,13.8007812 L62.2937031,13.6294348 L62.2937031,13.6294348 L62.3812505,13.4086662 C62.3892504,13.3871432 62.3967336,13.3667404 62.403759,13.347576 L66.3657831,13.347576 C65.6949272,16.3409343 63.2115101,17.3667227 61.1995182,17.7074436 L60.8394046,17.7621295 L60.8394046,17.7621295 L60.4927313,17.8034303 L60.4927313,17.8034303 L60.1625488,17.8330593 L60.1625488,17.8330593 L59.7048687,17.8593652 L59.7048687,17.8593652 L59.3014529,17.8690449 L59.3014529,17.8690449 L59.0013458,17.8682365 L59.0013458,17.8682365 L58.6132583,17.8558764 C57.261801,17.7895076 55.3781833,17.4470925 54.3472771,16.097736 C53.1837108,14.548776 53.381494,12.426936 53.6833735,11.042056 C54.0858795,9.214776 54.9238554,7.388056 56.5333012,5.965096 C58.2844337,4.416696 60.1841928,4.011256 62.1845783,4.011256 Z M78.7207518,8.031888 C81.8268723,8.031888 83.9151614,9.547808 83.1945831,12.833328 C82.8973301,14.180128 82.1975711,15.543728 80.9952578,16.504128 C80.0283181,17.261248 78.7219084,17.831888 76.7596916,17.831888 C74.6442217,17.831888 73.3800289,17.334608 72.638053,16.468288 C71.7549687,15.453008 71.7908241,14.069808 72.0406554,12.943088 C72.6629205,10.101088 74.9287518,8.031888 78.7207518,8.031888 Z M107.993118,4.288232 L105.576925,15.304552 C105.406323,16.079592 105.276781,16.835592 105.165166,17.611192 L101.771624,17.611192 L101.996588,16.247032 L101.786252,16.468675 L101.786252,16.468675 L101.617381,16.6342124 C101.043279,17.1737591 100.083817,17.831832 98.4081542,17.831832 C95.4858453,17.831832 94.8661636,15.8023026 95.1098018,13.7605244 L95.1539016,13.4465801 C95.1791631,13.2898317 95.2090962,13.1336229 95.2430458,12.978872 C95.6756241,11.005992 96.4314795,10.081992 97.2289735,9.400472 C98.3052145,8.496072 99.4485398,8.144952 100.650275,8.144952 C102.009947,8.144952 102.608748,8.6118604 103.056128,9.14846115 L103.282178,9.436872 L103.282178,9.436872 L104.411624,4.288232 L107.993118,4.288232 Z M85.1487614,8.348176 L88.7134843,8.348176 L87.4839678,13.9609442 L87.4839678,13.9609442 L87.456009,14.1236391 L87.456009,14.1236391 L87.4348439,14.2997541 C87.3840209,14.8727401 87.5129505,15.562656 88.5584964,15.562656 C89.6879422,15.562656 90.1342554,14.816106 90.333909,14.2240635 L90.3919234,14.0336745 L90.3919234,14.0336745 L90.4352591,13.8621466 L90.4352591,13.8621466 L91.6466892,8.348176 L95.2310747,8.348176 L93.5487614,16.007296 L93.3790011,16.9643315 L93.3790011,16.9643315 L93.2544,17.611136 L93.2544,17.611136 L89.7290024,17.611136 L89.9695807,16.171376 C88.9512465,17.3428473 87.9807297,17.6643974 87.2035617,17.7488392 L86.9518664,17.7690454 C86.9111772,17.7712296 86.8711347,17.7728922 86.8317639,17.7741383 L86.6037976,17.777456 L86.6037976,17.777456 C84.1925468,17.777456 83.7077578,16.4889932 83.7717259,15.104616 L83.7898143,14.8442124 L83.7898143,14.8442124 L83.8187461,14.5833077 L83.8187461,14.5833077 L83.8565032,14.3236488 L83.8565032,14.3236488 L83.9252714,13.9403178 L83.9252714,13.9403178 L84.0025446,13.569616 L84.0025446,13.569616 L85.1487614,8.348176 Z M27.3903036,8.135936 C29.4352193,8.135936 30.6670265,9.420016 30.2223036,11.454496 L28.8707855,17.617296 L25.2725205,17.617296 L26.458641,12.207136 L26.4784817,12.0895197 L26.4784817,12.0895197 L26.5104603,11.8539723 C26.5968731,11.071528 26.4610296,10.338976 25.4899663,10.338976 C24.2373398,10.338976 23.7725449,11.27407 23.5986167,11.8656676 L23.5527811,12.0395785 L23.5527811,12.0395785 L23.522805,12.1817053 L23.522805,12.1817053 L23.4965205,12.334816 L23.4965205,12.334816 L22.3375807,17.617296 L18.7416289,17.617296 L19.9317976,12.207136 C19.9521643,12.0898282 19.9696481,11.9713389 19.982174,11.8539723 L20.0000002,11.6214184 C20.0299578,10.9323431 19.8316237,10.338976 18.9567614,10.338976 C17.6407775,10.338976 17.1964679,11.3750912 17.0446674,11.9560368 L17.0073233,12.1151741 L17.0073233,12.1151741 L16.9679422,12.334816 L16.9679422,12.334816 L15.8090024,17.617296 L12.211894,17.617296 L13.7131952,10.777456 C13.7534201,10.5942738 13.7897324,10.4247528 13.8232238,10.2609716 L13.9163267,9.77892607 L13.9163267,9.77892607 L13.9990533,9.28379081 C14.0123402,9.19753699 14.0254677,9.1087574 14.0385721,9.01646187 L14.1180145,8.412576 L14.1180145,8.412576 L17.6775325,8.412576 L17.3999422,9.935216 L17.4357976,9.935216 C18.3778699,8.667376 19.7322795,8.194736 21.1520386,8.194736 C22.3040386,8.194736 23.4803277,8.779936 23.635894,9.899376 C24.5195566,8.796736 25.9664964,8.173456 27.3903036,8.135936 Z M46.9939663,8.412464 L47.5884723,11.234864 L49.4749301,8.412464 L53.1102072,8.412464 L49.2262554,12.811824 L51.3926169,17.617184 L47.1900145,17.617184 L46.4405205,14.207344 L44.122641,17.617184 L40.4509301,17.617184 L44.7032675,12.811824 L42.8491952,8.412464 L46.9939663,8.412464 Z M72.9091084,4.288176 L69.9863133,17.611136 L66.4019277,17.611136 L69.3264578,4.288176 L72.9091084,4.288176 Z M78.2870169,10.008688 C76.7650521,10.008688 76.1071352,11.4589099 75.7878373,12.8001252 L75.7511133,12.960448 C75.6181012,13.569728 75.4764145,14.473568 75.7274024,15.157888 C75.939759,15.719232 76.3912135,15.85408 76.7288189,15.8855654 L76.8865002,15.8941906 C76.9106545,15.8946912 76.9336096,15.894848 76.9551614,15.894848 C78.3379752,15.894848 79.0184223,14.610411 79.3532038,13.4188944 L79.4329315,13.1110775 C79.4449908,13.0604279 79.4564552,13.0101803 79.4673542,12.960448 C79.819547,11.354928 79.7154506,10.008688 78.2870169,10.008688 Z M37.1459277,13.235184 L36.6502585,13.2329256 C36.083095,13.2316996 35.5601285,13.2495573 35.1368675,13.435104 C34.5481446,13.692144 34.0594699,14.022544 33.921253,14.662624 C33.7732048,15.323984 34.2023133,15.875024 34.8835663,15.875024 C36.0627933,15.875024 36.6020116,15.0595914 36.9101989,14.1290861 L37.0003185,13.8322341 C37.0142175,13.7823935 37.0275957,13.7324384 37.0405129,13.6824709 L37.1129597,13.3833332 C37.124271,13.3337243 37.1352405,13.2843072 37.1459277,13.235184 Z M101.385311,10.175512 C100.092847,10.175512 99.4255244,11.4515938 99.1179306,12.3994587 L99.039606,12.6599604 L99.039606,12.6599604 L98.9794828,12.8942848 L98.9794828,12.8942848 L98.9355599,13.0941732 L98.9355599,13.0941732 L98.8779763,13.4157973 L98.8779763,13.4157973 L98.8467677,13.6532165 C98.7439259,14.5894413 98.8607741,15.783912 100.114757,15.783912 C101.412492,15.783912 102.201311,14.528952 102.55119,12.943032 C102.891239,11.394072 102.642564,10.175512 101.385311,10.175512 Z" id="Shape" fill="#004277"></path>
                        <polygon id="Fill-2" fill="#D0232B" points="6.60105805 5 0 5 1.39430394 0 8 0"></polygon>
                    </g>
                </g>
            </g>
        </g>
    </g>
</svg>