<?xml version="1.0" encoding="UTF-8"?>
<svg version="1.1" id="Layer_1" xmlns="http://www.w3.org/2000/svg" xmlns:xlink="http://www.w3.org/1999/xlink" x="0px" y="0px"
	 width="41px" height="14px" viewBox="0 0 3359 400">
	<title>logo_tmax</title>
	<g id="ch01_Login" stroke="none" stroke-width="1" fill="none" fill-rule="evenodd">
		<g id="Ch4_Sign_Out_04" transform="translate(-605.000000, -256.000000)">
			<g id="logo_footer_copyright" transform="translate(605.000000, 256.000000)">
				<path fill="#0064FF" opacity="1.000000" stroke="none"
					d="
				M1711.000000,759.000000
					C1677.312378,759.000000 1643.624878,759.000000 1609.370728,758.659424
					C1607.859863,757.698914 1606.964233,756.983643 1605.963867,756.473572
					C1593.931152,750.338379 1587.949707,740.703979 1587.956055,727.030090
					C1588.026001,575.726929 1588.056885,424.423767 1587.868164,273.120850
					C1587.855957,263.345703 1586.983398,253.329285 1584.743042,243.842636
					C1576.610596,209.407166 1557.662109,182.446487 1527.330933,163.679169
					C1499.302856,146.336746 1468.875488,140.774750 1436.949097,147.301086
					C1404.428833,153.948837 1378.087402,171.316223 1358.803101,198.716675
					C1344.255005,219.387848 1336.132690,242.409073 1336.099731,267.660004
					C1335.899902,420.962494 1336.001221,574.265320 1335.995605,727.568054
					C1335.995361,733.918518 1334.077637,739.610413 1330.629517,744.993896
					C1326.109741,752.050415 1319.535889,756.098145 1312.000000,759.000000
					C1279.312378,759.000000 1246.624878,759.000000 1213.332764,758.647827
					C1199.066284,755.353638 1188.953003,741.346863 1188.958984,727.317078
					C1189.024414,573.328125 1189.008667,419.339203 1188.956055,265.350281
					C1188.954590,260.923340 1188.726318,256.412872 1187.875122,252.084686
					C1184.729614,236.093597 1180.060303,220.668701 1171.323975,206.625275
					C1163.279175,193.693268 1153.987305,181.836945 1141.918091,172.580795
					C1124.687012,159.365952 1105.606079,150.313110 1083.808228,146.712509
					C1068.245483,144.141815 1052.843750,144.178864 1037.723877,147.339920
					C1008.632568,153.421982 984.401184,168.330902 965.929871,191.717697
					C947.058777,215.610611 937.183838,243.198776 937.127991,273.556183
					C936.848328,425.544739 937.061279,577.534180 936.757263,729.522644
					C936.746094,735.107117 933.724976,740.967468 931.103516,746.196350
					C927.471497,753.440918 920.072205,756.175964 913.000000,759.000000
					C880.312439,759.000000 847.624878,759.000000 814.339111,758.652649
					C797.346130,753.061646 790.080505,741.550537 790.099304,723.554749
					C790.258606,571.330200 790.555603,419.105408 791.171936,266.882202
					C791.233459,251.675812 792.669189,236.301895 795.270203,221.318726
					C799.357666,197.772293 807.163696,175.205078 817.751160,153.722824
					C827.354370,134.237656 838.373413,115.523010 853.174927,99.526154
					C865.917847,85.754265 878.765930,71.846199 893.116699,59.851917
					C912.990417,43.241611 935.462585,30.373407 959.654419,20.701574
					C981.617676,11.920686 1004.165649,5.553794 1027.730103,2.960645
					C1031.512817,2.544369 1035.244629,1.665191 1039.000000,1.000000
					C1056.687622,1.000000 1074.375122,1.000000 1092.693726,1.370941
					C1095.225586,2.159683 1097.125732,2.580756 1099.027466,2.994796
					C1114.234741,6.305660 1129.585571,9.075229 1144.614258,13.059398
					C1164.164429,18.242146 1182.711670,26.346262 1199.770630,37.146782
					C1213.908325,46.097717 1227.240112,56.346622 1240.715210,66.309654
					C1249.443604,72.763260 1258.401978,76.889618 1269.672363,74.101234
					C1278.375488,71.948006 1283.984985,65.421951 1290.901123,60.691193
					C1305.115356,50.968582 1319.131470,40.844944 1334.018188,32.253525
					C1345.198242,25.801332 1357.301270,20.562487 1369.553955,16.455772
					C1383.797607,11.681759 1398.640625,8.683270 1413.248901,5.015416
					C1419.131104,3.538504 1425.080933,2.330415 1431.000000,0.999993
					C1448.687622,1.000000 1466.375122,1.000000 1484.718506,1.386902
					C1489.291626,2.180597 1493.207642,2.603899 1497.126953,2.991327
					C1514.015625,4.660767 1530.428345,8.533501 1546.499756,13.864248
					C1562.371582,19.128771 1577.677002,25.619556 1592.433228,33.633701
					C1612.056641,44.291195 1630.194336,57.005489 1646.378052,72.205162
					C1657.409912,82.566360 1667.496216,94.060913 1677.097168,105.792107
					C1695.576660,128.372055 1708.942139,153.974274 1718.946533,181.306793
					C1730.185059,212.010818 1734.822021,243.995041 1734.881104,276.475586
					C1735.151367,425.250854 1735.015869,574.026917 1734.924561,722.802612
					C1734.921753,727.318237 1734.164673,731.918274 1733.131958,736.332092
					C1730.343140,748.250366 1721.569824,754.555786 1711.000000,759.000000
				z"/>
				<path fill="#0064FF" opacity="1.000000" stroke="none"
					d="
				M2540.000000,759.000000
					C2506.312500,759.000000 2472.625000,759.000000 2438.340332,758.653503
					C2426.636230,755.726807 2419.604980,744.436401 2419.864990,734.957886
					C2420.135986,725.069946 2419.919189,715.087341 2418.831055,705.266357
					C2417.754639,695.552368 2411.016357,689.541504 2402.091797,686.791809
					C2394.857666,684.563049 2387.532227,685.471069 2381.164795,690.316895
					C2378.970215,691.987061 2376.705811,693.566345 2374.462158,695.171387
					C2356.062012,708.332886 2336.740479,719.938721 2315.964844,728.942078
					C2304.694580,733.825989 2293.392090,738.836487 2281.701172,742.505615
					C2259.549561,749.457764 2237.104492,755.431519 2213.758789,757.061584
					C2209.481689,757.360168 2205.251709,758.336487 2201.000000,759.000000
					C2182.645752,759.000000 2164.291748,759.000000 2145.291992,758.619507
					C2131.110840,756.159729 2117.501953,754.468689 2104.056641,751.915222
					C2080.394043,747.421265 2057.645508,739.703491 2035.742554,729.845459
					C2000.998047,714.207703 1969.353882,693.526794 1941.405273,667.631836
					C1928.793457,655.946838 1916.995605,643.244507 1905.893921,630.103699
					C1892.137573,613.820618 1880.315308,596.094604 1869.654297,577.530029
					C1858.689819,558.436768 1849.461304,538.632507 1842.004150,517.989990
					C1832.209229,490.875580 1824.730103,463.158508 1821.990845,434.347260
					C1820.529663,418.980408 1819.036987,403.606293 1818.127197,388.201874
					C1817.710693,381.149811 1818.470947,374.001038 1819.040039,366.923676
					C1820.237061,352.037689 1821.358521,337.135223 1823.061646,322.302704
					C1825.570190,300.455872 1831.230347,279.292633 1837.897217,258.377716
					C1846.459229,231.517227 1857.979370,205.987442 1872.070801,181.592499
					C1887.349487,155.142456 1905.596069,130.838425 1926.824951,108.973778
					C1938.504272,96.944740 1951.544067,86.198936 1964.312500,75.274284
					C1982.963989,59.316132 2003.926270,46.774506 2025.768066,35.786270
					C2043.446045,26.892818 2061.707520,19.131887 2080.906494,14.186390
					C2096.449951,10.182525 2112.291016,7.331362 2128.007324,4.002339
					C2132.993164,2.946211 2138.001709,1.997739 2143.000000,0.999997
					C2161.687500,1.000000 2180.375000,1.000000 2199.718262,1.386880
					C2213.456299,3.610154 2226.712158,4.652907 2239.582031,7.462283
					C2260.785156,12.090757 2281.393555,18.810820 2301.325195,27.623344
					C2328.344238,39.569519 2353.836670,54.067589 2377.335205,71.951973
					C2384.619385,77.495918 2392.077637,80.795692 2401.299561,78.242661
					C2414.418213,74.610855 2419.355957,65.238686 2419.906006,53.273514
					C2420.364014,43.306000 2419.963135,33.300419 2420.037842,23.312395
					C2420.049805,21.729753 2420.513916,20.139587 2420.856934,18.572130
					C2422.916748,9.158072 2429.937744,4.567611 2438.000000,1.000000
					C2471.687500,1.000000 2505.375000,1.000000 2539.648193,1.338893
					C2543.323486,3.456298 2546.709229,4.868868 2549.444824,7.084482
					C2556.584229,12.866776 2557.954590,21.166355 2557.957764,29.651789
					C2558.016113,180.133179 2558.000000,330.614594 2558.000000,481.096008
					C2558.000000,564.252380 2558.039062,647.408875 2557.921631,730.565063
					C2557.912598,736.858887 2557.835693,743.644653 2552.979492,748.502380
					C2549.067139,752.415649 2544.356445,755.530701 2540.000000,759.000000
				M2146.061768,143.433655
					C2134.694580,146.609482 2123.190918,149.368942 2111.986328,153.040634
					C2080.534424,163.347122 2053.994141,181.706284 2030.279663,204.357819
					C2024.584473,209.797989 2019.257568,215.767746 2014.580933,222.099426
					C2005.793091,233.997086 1996.724609,245.831619 1989.380493,258.615906
					C1979.600830,275.639923 1972.135498,293.811584 1966.855103,312.883240
					C1961.158691,333.457855 1958.157715,354.383514 1957.111206,375.606323
					C1956.746704,382.999603 1957.454346,390.473206 1958.051147,397.879639
					C1958.853638,407.838684 1959.341675,417.895203 1961.166870,427.685791
					C1966.005249,453.639740 1974.471924,478.380402 1987.166992,501.663544
					C1996.754272,519.247070 2008.380127,535.343018 2021.764160,550.114014
					C2033.273926,562.816467 2046.588867,573.572571 2060.708252,583.312439
					C2075.102295,593.241943 2090.569336,601.170837 2106.874756,607.329346
					C2128.337646,615.435852 2150.578857,620.343994 2173.572754,620.900757
					C2183.984863,621.152893 2194.467041,620.816406 2204.836182,619.861938
					C2214.703369,618.953674 2224.606689,617.493896 2234.242676,615.213440
					C2254.519775,610.414734 2274.182129,603.585999 2291.897461,592.407837
					C2304.396240,584.521362 2316.887451,576.366821 2328.177002,566.895935
					C2338.463867,558.266052 2347.899170,548.319153 2356.298340,537.823181
					C2365.401855,526.447632 2373.479492,514.124451 2380.904541,501.564240
					C2390.511963,485.312714 2397.305908,467.748718 2402.278564,449.465088
					C2407.183838,431.430939 2410.599609,413.177216 2410.900635,394.493866
					C2411.095215,382.410370 2410.787598,370.276550 2409.860596,358.230286
					C2409.086914,348.173584 2407.693115,338.076813 2405.512451,328.232971
					C2399.507568,301.127625 2389.497559,275.547607 2374.990479,251.769501
					C2359.280029,226.019135 2339.620361,203.737686 2315.704590,185.463516
					C2299.681152,173.219971 2282.226562,163.215424 2263.373779,155.678879
					C2238.878662,145.886887 2213.465088,140.516800 2187.199463,140.206589
					C2173.768799,140.047958 2160.312744,142.039886 2146.061768,143.433655
				z"/>
				<path fill="#0064FF" opacity="1.000000" stroke="none"
					d="
				M3211.000000,1.000000
					C3254.354248,1.000000 3297.708252,1.000000 3341.659668,1.346512
					C3343.314453,2.063314 3344.364746,2.455152 3345.430664,2.800253
					C3353.013916,5.255949 3356.235840,11.886805 3360.000000,18.000000
					C3360.000000,23.354929 3360.000000,28.709860 3359.661377,34.628471
					C3355.676270,40.184414 3352.069336,45.206272 3348.376465,50.164165
					C3326.967285,78.909348 3305.618164,107.699753 3284.091064,136.356522
					C3265.288086,161.387222 3246.203613,186.206116 3227.376953,211.219299
					C3204.546143,241.552612 3181.882324,272.011597 3159.097168,302.379364
					C3139.733643,328.186676 3120.300537,353.941528 3100.730957,379.941925
					C3112.037598,395.029755 3123.220703,410.039124 3134.496338,424.978516
					C3149.232178,444.501984 3164.099854,463.926147 3178.802979,483.474030
					C3194.471436,504.304749 3209.967773,525.264709 3225.625977,546.103271
					C3239.339600,564.354492 3253.214600,582.484375 3266.940674,600.726440
					C3278.497070,616.084778 3289.939453,631.528809 3301.434814,646.933289
					C3314.976318,665.079224 3328.501953,683.237183 3342.072510,701.361389
					C3347.999512,709.277405 3354.021240,717.122620 3360.000000,725.000000
					C3360.000000,730.688049 3360.000000,736.376038 3359.660645,742.628906
					C3355.703857,750.825378 3349.781982,755.931824 3342.000000,759.000000
					C3297.979248,759.000000 3253.958252,759.000000 3209.348145,758.657959
					C3200.932617,755.137085 3194.088623,750.790894 3188.910889,743.807495
					C3173.566895,723.111938 3158.016113,702.569336 3142.492432,682.007446
					C3128.730957,663.779480 3114.853027,645.639771 3101.110352,627.397644
					C3089.443359,611.910217 3077.925293,596.310913 3066.290527,580.799133
					C3051.905518,561.621399 3037.462646,542.487244 3023.056396,523.325500
					C3018.120850,516.760986 3013.219971,510.170471 3008.034912,503.232635
					C2996.093018,519.037781 2984.685303,534.108459 2973.307861,549.202148
					C2958.877197,568.346069 2944.459473,587.499512 2930.057861,606.665161
					C2913.217041,629.077209 2896.384277,651.495605 2879.575195,673.931274
					C2865.015381,693.364319 2850.479980,712.815430 2835.960693,732.278564
					C2827.607666,743.475525 2819.812500,755.296875 2805.000000,759.000000
					C2761.645752,759.000000 2718.291748,759.000000 2674.340820,758.653809
					C2655.554932,753.502380 2650.871094,730.814880 2660.941650,718.453979
					C2667.531982,710.364868 2673.600098,701.848267 2679.848145,693.482971
					C2697.302979,670.112549 2714.658203,646.666992 2732.188232,623.352966
					C2749.931152,599.756348 2767.910889,576.337769 2785.652344,552.740234
					C2810.434570,519.778564 2835.063477,486.701965 2859.811523,453.714813
					C2878.201904,429.201721 2896.677734,404.752563 2915.199707,380.162872
					C2912.148193,375.932068 2909.274414,371.803162 2906.254883,367.783661
					C2876.975098,328.806854 2847.712402,289.817200 2818.361572,250.894058
					C2791.457031,215.215210 2764.391357,179.657944 2737.505615,143.965210
					C2712.494385,110.761269 2687.748779,77.356522 2662.610840,44.249088
					C2656.236816,35.854233 2654.061035,26.979841 2657.133057,17.149883
					C2659.708740,8.909155 2666.350342,4.274340 2674.000000,1.000000
					C2717.354248,1.000000 2760.708252,1.000000 2804.673584,1.356777
					C2814.914062,3.682381 2821.856201,9.291320 2827.690430,17.068016
					C2853.515625,51.490952 2879.627197,85.698914 2905.519287,120.071693
					C2919.041992,138.023224 2932.243652,156.216187 2945.734863,174.191391
					C2966.177734,201.428558 2986.746582,228.570984 3007.844238,256.525452
					C3011.062012,252.373734 3014.108398,248.529892 3017.062744,244.616379
					C3032.581543,224.059982 3048.058594,203.471802 3063.585938,182.921936
					C3077.347656,164.708618 3091.199951,146.563858 3104.930908,128.327515
					C3115.509277,114.278038 3125.951904,100.126373 3136.471680,86.032578
					C3150.988770,66.583710 3165.528809,47.152039 3180.045410,27.702591
					C3188.395508,16.514692 3196.191650,4.696207 3211.000000,1.000000
				z"/>
				<path fill="#0064FF" opacity="1.000000" stroke="none"
			d="
		M714.531372,1.000000
			C719.394348,3.542971 724.026367,5.755076 728.130005,8.702751
			C735.124268,13.726709 738.804077,21.079224 738.886536,29.480162
			C739.177490,59.132698 739.508179,88.802437 738.773499,118.439613
			C738.434204,132.125534 728.373840,142.840607 713.810791,145.903503
			C709.353088,146.841080 704.661621,146.953140 700.076721,146.957016
			C627.604309,147.018173 555.130554,147.229279 482.660492,146.813797
			C467.482697,146.726791 451.859894,161.949677 451.876801,177.928726
			C452.070404,360.858948 452.012268,543.789429 451.977936,726.719849
			C451.975037,742.237610 442.786774,754.093079 428.129700,758.652466
			C389.979095,759.000000 351.958221,759.000000 313.332336,758.647583
			C298.825806,755.536194 288.851501,741.005615 288.867004,727.259155
			C289.067749,549.132141 289.010406,371.004822 288.957916,192.877609
			C288.956024,186.455811 288.534088,180.016388 287.961731,173.616135
			C286.670563,159.178436 273.281403,147.003998 258.906158,147.002823
			C184.422638,146.996750 109.939125,147.018173 35.455631,146.978500
			C25.408772,146.973160 16.336515,144.193939 9.708273,136.128204
			C6.555132,132.291229 3.887539,128.055237 0.999998,124.000000
			C1.000000,124.000000 1.000000,123.500000 1.326256,123.148178
			C1.435007,121.864235 1.217503,120.932114 1.000000,120.000000
			C1.000000,87.979103 1.000000,55.958210 1.342089,23.369766
			C3.037854,20.457483 4.374124,18.102493 5.748413,15.769900
			C10.175005,8.256605 17.522745,4.541941 25.000000,1.000000
			C254.687561,1.000000 484.375122,1.000000 714.531372,1.000000
		z"/>
			</g>
		</g>
	</g>
</svg>