<?xml version="1.0" encoding="UTF-8"?>
<svg width="103px" height="40px" viewBox="0 0 103 40" version="1.1" xmlns="http://www.w3.org/2000/svg" xmlns:xlink="http://www.w3.org/1999/xlink">
    <title>logo/yeolmae_kr</title>
    <g id="logo/yeolmae_kr" stroke="none" stroke-width="1" fill="none" fill-rule="evenodd">
        <path d="M44.7403141,24.5897485 C46.3281997,24.5897485 47.3342146,25.3477697 47.4152924,26.4372771 L47.4205942,26.5812316 L47.421577,28.7863292 L47.428173,29.4643398 L47.4416125,29.9173348 L47.4511678,30.038527 L47.45022,30.4292222 L47.4386717,31.0380238 L47.4200762,31.3873265 C47.3550309,32.2906233 46.6714044,32.9265849 45.7338181,32.9944593 L45.4993993,33 L45.4281866,32.9985871 L45.1134352,32.9843075 L44.9508757,32.9724893 L44.6518359,32.94092 L44.4951923,32.914912 C44.4731326,32.9102934 44.4533368,32.9055422 44.4361648,32.9006725 C43.5634372,32.6361548 43.2300101,32.0566476 43.1129449,31.0112859 L43.0934518,30.8097845 L43.0689607,30.4631071 L43.0676626,30.2566228 L43.0577833,29.8028773 L43.0272845,29.1215922 L43.0062116,28.8300212 L42.9772401,28.5747364 L42.7664592,28.5531993 L42.5483697,28.539256 L42.276586,28.5278454 L41.5571333,28.5139225 L41.1020631,28.5120603 L40.388605,28.5160455 L39.9059161,28.5270801 L39.6494475,28.5414501 L28.5974863,28.5423874 C28.124293,28.5423874 27.1310837,27.9911417 27.0202236,27.2488448 C26.8896097,26.4066962 27.0237401,25.7414487 27.4326526,25.2682406 C27.5662933,25.1108211 27.7226546,24.9832839 27.8972422,24.8823782 C28.0374063,24.8013681 28.1831125,24.7405279 28.3344184,24.6950177 L28.487593,24.6544383 L28.6133383,24.6289477 L28.7655952,24.6043892 L28.6979495,24.648966 L28.8420746,24.5897485 L44.7403141,24.5897485 Z M57.640186,22.730078 L63.7191621,22.7510237 L72.5247565,22.7599117 C74.6593364,22.7599117 75.8442516,23.4120801 75.9261657,24.7736245 L75.9307204,24.9278293 L75.9307204,27.2182129 C75.9307204,27.8963805 75.594267,28.5189851 74.9459434,28.8813308 C74.6812114,29.0336478 74.3983152,29.1172567 74.0729037,29.1536328 L73.9774439,29.1631254 L73.7823692,29.1744759 L73.6703086,29.1770393 L59.0015548,29.1763 L59.0015548,29.9758544 L74.3436041,29.9777448 C75.169202,30.0546526 75.7007392,30.3599941 75.8897845,31.0078572 C76.167553,31.8229281 75.8434277,32.4388772 74.9752456,32.7785003 C74.5924448,32.9189094 74.1911025,32.9813516 73.7148957,32.9963268 L73.4702928,33 L58.9959178,32.9990409 L58.3931413,32.9905846 L56.6873922,32.9402058 C55.7871916,32.9087593 55.1168217,32.283136 54.9585015,31.3638226 L54.9359354,31.1986033 L54.8447622,28.9925733 C54.78815,28.2173457 54.8523955,27.6936821 55.201456,27.3238313 C55.6848066,26.7985273 56.4882077,26.5987014 57.6335281,26.5743927 L57.8841953,26.5718155 L61.9987217,26.5867335 L72.015387,26.6016492 L72.015387,25.7522347 L56.9810077,25.7527476 C56.7313528,25.7511515 56.5420963,25.7438059 56.3722196,25.7250419 L56.247805,25.7087393 L56.1268124,25.6876233 L55.7782491,25.6106485 C55.4944661,25.5404331 55.3301109,25.4523074 55.2033258,25.2691093 L55.0532677,25.0236432 C54.8161146,24.5976629 54.7680525,24.1932258 54.9156826,23.7312526 C55.042136,23.3601936 55.3538553,23.1274806 55.8040042,22.9857242 L55.9591167,22.9417758 L56.1001357,22.9079968 L56.2350241,22.8820393 L56.6547712,22.8234415 C56.8961745,22.7762174 57.1357097,22.7473125 57.3859338,22.7358115 L57.640186,22.730078 Z M101.040601,7 C101.702687,7 102.300233,7.43283428 102.570362,8.09864057 L102.673509,8.3853255 C102.795821,8.74403813 102.863647,9.0884565 102.903701,9.55590791 L102.921537,9.80052214 L102.94183,10.2307773 L102.955512,10.7342399 L102.964439,11.2737781 L102.974553,11.7057403 L102.989627,12.6033429 L102.998222,13.5572153 L103,15.1233643 L102.969016,19.5901486 L102.964486,28.8100345 L102.976493,29.5676706 L102.963115,29.9587706 L102.902228,30.5442839 L102.855384,30.8993256 C102.834623,31.0323731 102.810588,31.1582661 102.780963,31.2847457 L102.73204,31.475873 L102.564202,31.9221598 C102.434146,32.2191845 102.248554,32.4840947 102.00519,32.6911437 C101.567481,32.9910374 101.005577,33.0735341 100.487726,32.9342752 C100.180262,32.8640561 99.9088934,32.7223979 99.6928206,32.5107593 C99.3976259,32.201765 99.2108582,31.7249231 99.104588,31.1365567 C99.0492591,30.8302273 99.0214011,30.5306729 99.0116959,30.2575846 L99.007675,30.0580385 L99.007,21.599 L95.968,21.599 L95.9644859,28.8100345 L95.9764928,29.5676706 L95.9631154,29.9587706 L95.9022281,30.5442839 L95.8553841,30.8993256 C95.8346226,31.0323731 95.8105884,31.1582661 95.7809625,31.2847457 L95.7320399,31.475873 L95.5642022,31.9221598 C95.4341457,32.2191845 95.2485541,32.4840947 95.00519,32.6911437 C94.5674807,32.9910374 94.005577,33.0735341 93.4877262,32.9342752 C93.180262,32.8640561 92.9088934,32.7223979 92.6928206,32.5107593 C92.3976259,32.201765 92.2108582,31.7249231 92.104588,31.1365567 C92.0492591,30.8302273 92.0214011,30.5306729 92.0116959,30.2575846 L92.007675,30.0580385 L92.0078783,10.7891351 C91.9637104,9.22563307 92.0987645,8.0767004 92.5782238,7.55812283 C92.9513137,7.13208923 93.3754529,7 94.0406009,7 C94.7026873,7 95.3002327,7.43283428 95.5703615,8.09864057 L95.6735094,8.3853255 C95.7958209,8.74403813 95.863647,9.0884565 95.903701,9.55590791 L95.9215373,9.80052214 L95.9418305,10.2307773 L95.955512,10.7342399 L95.9644386,11.2737781 L95.9745532,11.7057403 L95.9896273,12.6033429 L95.9982222,13.5572153 L96,15.1233643 L95.987,16.999 L99.007,16.999 L99.0078783,10.7891351 C98.9637104,9.22563307 99.0987645,8.0767004 99.5782238,7.55812283 C99.9513137,7.13208923 100.375453,7 101.040601,7 Z M23,26.7019416 C23,27.8895801 22.0900022,28.4811086 20.5393955,28.6909006 L20.3240037,28.7171625 L20.0140719,28.7466696 L19.7022757,28.7668027 L19.3551367,28.7798077 L18.6949259,28.7908637 L17.1875979,28.7956308 L16.9371313,28.8034265 L16.3927196,28.8093259 L14.8236067,28.795781 L13.8821131,28.7947646 L13.9279037,29.2360602 C13.9398844,29.9245073 13.924608,29.8957872 13.870859,30.3373948 L13.8148842,30.7392734 C13.6756007,31.59425 13.3299913,32.2633839 12.7281518,32.6499688 C12.0581528,33.089569 11.0708974,33.1191695 10.371496,32.7157297 C9.86423862,32.4145332 9.55623839,31.7581877 9.43029233,30.9947526 C9.39528089,30.818047 9.37938078,30.6282222 9.37682291,30.3993544 L9.37731604,30.219978 L9.39634773,30.054449 L9.38344203,29.6712478 L9.37136904,29.0070092 L9.36596479,28.7642718 L8.81486627,28.7652696 L4.78281504,28.8316024 L4.29112037,28.8342859 L3.32097565,28.8316476 L2.82439875,28.8261681 C1.58449797,28.7857947 0.829406918,28.5197433 0.334944711,27.7563575 C-0.151923306,26.9840749 -0.112688524,26.00387 0.483278726,25.3689776 C0.770336412,25.0792169 1.20683703,24.8970648 1.74435792,24.793608 C2.0075438,24.7429525 2.26564924,24.715961 2.50443139,24.705121 L2.73624492,24.6993866 L19.5567385,24.6998107 C21.7210444,24.595778 23,25.0536323 23,26.7019416 Z M88,8 C89.1045695,8 90,8.8954305 90,10 L90,29 C90,30.1045695 89.1045695,31 88,31 L81,31 C79.8954305,31 79,30.1045695 79,29 L79,10 C79,8.8954305 79.8954305,8 81,8 L88,8 Z M85,12 L84,12 C83.4871642,12 83.0644928,12.3860402 83.0067277,12.8833789 L83,13 L83,26 C83,26.5128358 83.3860402,26.9355072 83.8833789,26.9932723 L84,27 L85,27 C85.5128358,27 85.9355072,26.6139598 85.9932723,26.1166211 L86,26 L86,13 C86,12.4477153 85.5522847,12 85,12 Z M32.8166344,7 C33.7761467,7 34.5948518,7.56457535 34.763286,8.34630847 L34.7861558,8.4864449 L34.7937232,8.62755719 L34.7927041,9.39483415 L38.8396213,9.39584506 C39.8460144,9.39584506 40.6707279,10.0570014 40.8223351,10.9410765 L40.8412862,11.0904113 L40.8472836,11.2356923 C40.8472836,12.1303564 40.1286987,12.8773451 39.1672499,13.0208491 L39.0048412,13.0391005 L38.8895581,13.0421797 L38.9817347,13.1666433 C39.5873428,14.025358 39.9565163,15.0234792 40.0557742,16.1367327 L40.0761273,16.4431836 L40.0829452,16.7552341 C40.0829452,18.721251 39.1485912,20.5919055 37.5547614,21.7698944 C33.1482639,25.0159947 25.9783532,22.1000213 25.9783532,16.7552341 C25.9783532,15.372634 26.3530661,14.1591378 27.0631097,13.1493962 L27.1411667,13.0442015 L27.0076623,13.0452124 C26.0064261,13.0452124 25.1775638,12.3883515 25.0250964,11.5235157 L25.0060345,11.3775277 L25,11.2356923 C25,10.318285 25.7140806,9.56485334 26.6793177,9.42033383 L26.8424367,9.40196162 L27.0076623,9.39584506 L30.8385266,9.39483415 L30.8395457,8.62755719 C30.8395457,7.8111101 31.558925,7.14953586 32.4893478,7.02216995 L32.6556274,7.00531624 L32.8166344,7 Z M46.85618,8.83485439 C47.0272008,9.04690767 47.1148499,9.23134554 47.2067008,9.54170755 L47.3398724,10.0360673 C47.3973552,10.3038353 47.4157405,10.6068014 47.4041712,10.9450898 L47.3900207,11.2054309 L47.3888606,13.3212909 L47.3823443,13.4377696 L47.3758884,13.7216129 L47.3808486,14.0763356 L48.7659155,14.1399871 L49.0866082,14.1608048 L49.3356007,14.1832387 C49.4068615,14.1910663 49.4664922,14.1992836 49.5148128,14.2080112 L49.7564943,14.260169 C50.3821706,14.4145757 50.7275503,14.7081025 50.8655775,15.1500859 L50.9404876,15.4446182 C51.0511024,15.9673976 51.0122567,16.5842846 50.7840214,16.9521781 C50.3914754,17.5849247 49.8742156,17.7613723 48.5941736,17.8167271 L48.0162502,17.8338995 L47.3890016,17.8358916 L47.3895027,20.4088972 C47.35703,20.859851 47.2974677,21.2120358 47.1758253,21.5345075 L47.1096687,21.6935869 L47.0321935,21.8496324 C46.8958839,22.1200546 46.691209,22.3583889 46.4470232,22.5313905 C46.1228737,22.7564665 45.7224584,22.8712099 45.3212113,22.8712099 C44.9561555,22.8712099 44.6227933,22.792892 44.3612425,22.6306734 C43.7177406,22.2524121 43.369533,21.4529342 43.3197703,20.940729 L43.313549,20.8190726 L43.3175071,10.8507631 C43.2586782,10.5589892 43.3891822,9.58221319 43.6074709,9.14937464 C43.8239873,8.68403635 44.3470168,8.3727476 44.9891136,8.3057658 C45.7457995,8.20786302 46.4577129,8.40299066 46.85618,8.83485439 Z M11.2811136,7 C12.641748,7 13.6139744,7.74686042 13.692631,9.05501873 L13.6977816,9.22881598 L13.6977816,10.4637005 C13.6977816,13.8370436 17.1717418,16.367051 21.2196607,18.174199 C22.3373696,18.6561052 22.8811199,19.8909897 22.367578,21.0053977 C21.8842444,22.0595675 20.6759104,22.5113545 19.4675764,22.0896866 C16.1748663,20.9451595 13.0936146,18.8669392 11.2811136,16.5778849 C9.4686126,18.8669392 6.38736093,20.9451595 3.0946508,22.0896866 C1.88631681,22.5113545 0.677982815,22.0595675 0.194649218,21.0053977 C-0.318892729,19.8909897 0.224857568,18.6561052 1.34256651,18.174199 C5.29410636,16.4100783 8.69869356,13.9571104 8.85857666,10.703221 L8.86444561,10.4637005 L8.86444561,9.22881598 C8.86444561,7.81321664 9.86132115,7 11.2811136,7 Z M75.5342723,8.04472925 C75.6966344,8.24504681 75.8177654,8.44146387 75.8840878,8.63796055 C75.9686663,8.9050975 75.9990322,9.17334567 76,9.55156845 L75.9981489,9.7503484 L75.989681,10.103688 L75.9880731,19.1697005 C75.9991703,19.4911738 75.986266,19.8654454 75.9185799,20.2709845 C75.8067511,20.9410031 75.5750669,21.444286 75.1597744,21.696299 C74.8645165,21.8582014 74.3398078,21.9699044 73.9601798,21.9699044 C73.550821,21.9699044 73.1640828,21.8397737 72.8040996,21.5910461 C72.5366547,21.4024944 72.338688,21.1901071 72.2082004,20.9323653 C72.0704768,20.6774864 71.9815532,20.4136983 71.9225408,20.106519 L71.8835947,19.8674599 L71.8535066,19.6101363 L71.3177054,19.6101363 C70.3912904,19.6101363 69.5248295,19.4071713 69.0640857,18.922831 L68.9651196,18.8060297 L68.881502,18.6790245 C68.6485467,18.3177049 68.5754427,17.3436147 68.6964235,16.9486631 C68.8019971,16.4276487 69.241459,15.9938928 69.8486931,15.7700515 L69.8782016,15.7628528 L69.9119651,15.7559747 L70.0874451,15.7315503 L70.3225069,15.7117822 L70.3897851,15.7075232 L70.4602561,15.7035256 L70.9441773,15.6846974 L71.8636544,15.6698443 L71.8392998,14.4559058 L71.3177054,14.4559058 C70.3912904,14.4559058 69.5248295,14.2529409 69.0622583,13.7656823 L68.9628373,13.6481543 L68.8786949,13.520311 C68.1562118,12.331807 68.9129705,10.7592939 70.2873064,10.5903607 L70.4368806,10.577713 L71.0975855,10.5897546 L71.2810654,10.5896772 L71.5948495,10.5830256 C71.6572327,10.5805486 71.7144854,10.5773889 71.7661422,10.573513 L71.8393724,10.5671577 L71.8896085,10.5623115 C71.9231568,10.5621935 71.95096,10.5748796 71.9378565,10.6398403 C71.9662603,10.5183556 71.9813552,10.3790736 71.9876537,10.196995 L71.9907986,10.052021 L71.9913872,9.52656808 C72.0008033,8.68560697 72.1498845,8.18383964 72.6454023,7.82156468 C72.9766704,7.58377053 73.3892424,7.48923843 73.9979223,7.44325222 C74.5546598,7.37456362 75.1252605,7.60365871 75.5342723,8.04472925 Z M60.5,7.1 C64.5869071,7.1 67.9,10.4130929 67.9,14.5 C67.9,18.5869071 64.5869071,21.9 60.5,21.9 C56.4130929,21.9 53.1,18.5869071 53.1,14.5 C53.1,10.4130929 56.4130929,7.1 60.5,7.1 Z M33.0275613,14.1824574 C31.4242606,14.1583608 30.2076926,15.1436816 30.2076926,16.7552341 C30.2076926,18.6025685 31.8014697,19.6133291 33.6039821,19.2557405 C34.9436003,19.0026314 35.8536058,18.0766144 35.8536058,16.7552341 C35.8536058,15.2180066 34.6198317,14.2063883 33.0275613,14.1824574 Z M60.6,11.6 C58.9431458,11.6 57.6,12.9431458 57.6,14.6 C57.6,16.2568542 58.9431458,17.6 60.6,17.6 C62.2568542,17.6 63.6,16.2568542 63.6,14.6 C63.6,12.9431458 62.2568542,11.6 60.6,11.6 Z" id="Combined-Shape" fill="#000000"></path>
    </g>
</svg>