<?xml version="1.0" encoding="UTF-8"?>
<svg width="175px" height="32px" viewBox="0 0 175 32" version="1.1" xmlns="http://www.w3.org/2000/svg" xmlns:xlink="http://www.w3.org/1999/xlink">
    <title>logo_hyperauth_gnb</title>
    <defs>
        <filter x="-2.0%" y="-7.8%" width="103.5%" height="121.9%" filterUnits="objectBoundingBox" id="filter-1">
            <feOffset dx="0" dy="0" in="SourceAlpha" result="shadowOffsetOuter1"></feOffset>
            <feGaussianBlur stdDeviation="0.5" in="shadowOffsetOuter1" result="shadowBlurOuter1"></feGaussianBlur>
            <feColorMatrix values="0 0 0 0 0   0 0 0 0 0   0 0 0 0 0  0 0 0 1 0" type="matrix" in="shadowBlurOuter1" result="shadowMatrixOuter1"></feColorMatrix>
            <feMerge>
                <feMergeNode in="shadowMatrixOuter1"></feMergeNode>
                <feMergeNode in="SourceGraphic"></feMergeNode>
            </feMerge>
        </filter>
        <linearGradient x1="11.71875%" y1="27.2483582%" x2="88.28125%" y2="50%" id="linearGradient-2">
            <stop stop-color="#11F7FF" offset="0%"></stop>
            <stop stop-color="#11CEFF" offset="19.2516834%"></stop>
            <stop stop-color="#5A52FF" offset="100%"></stop>
        </linearGradient>
        <polygon id="path-3" points="14 0 28 8 28 24 14 32 9.17324422e-15 24 0 8"></polygon>
        <filter x="-7.1%" y="-3.1%" width="114.3%" height="112.5%" filterUnits="objectBoundingBox" id="filter-4">
            <feOffset dx="0" dy="1" in="SourceAlpha" result="shadowOffsetOuter1"></feOffset>
            <feGaussianBlur stdDeviation="0.5" in="shadowOffsetOuter1" result="shadowBlurOuter1"></feGaussianBlur>
            <feColorMatrix values="0 0 0 0 0   0 0 0 0 0   0 0 0 0 0  0 0 0 0.79865569 0" type="matrix" in="shadowBlurOuter1"></feColorMatrix>
        </filter>
        <path d="M0,6.9 L3.06666667,8.68418985 L3.06666667,12.9654742 L7.89730016,15.7573275 L7.89730016,11.4369402 L11,13.26717 L11,26 L7.89730016,24.2107119 L7.89730016,19.6718724 L3.06666667,16.8840213 L3.06666667,21.4236745 L0,19.6556534 L0,6.9 Z M11.8704344,0.682428092 L23,7 L23,19.3930751 L20,21.124921 L20,12.2822116 L17,14 L17,22.8569176 L14,24.5809723 L14,12.2487056 L2.80777074,5.78526852 L11.8704344,0.682428092 Z M12.1776423,3.68588257 L8.5,5.78635948 L14.2264843,9.14277559 L17.9182793,7 L12.1776423,3.68588257 Z" id="path-5"></path>
        <linearGradient x1="31.0758987%" y1="0%" x2="62.9431203%" y2="89.4861796%" id="linearGradient-7">
            <stop stop-color="#FFFFFF" offset="0%"></stop>
            <stop stop-color="#27F3FF" offset="100%"></stop>
        </linearGradient>
    </defs>
    <g id="logo_hyperauth_gnb" stroke="none" stroke-width="1" fill="none" fill-rule="evenodd">
        <g id="gnb_hyperauth" filter="url(#filter-1)">
            <path d="M81.6971159,9.71733336 C83.1383897,9.71733336 84.1820707,10.406 84.8300953,11.782 C85.4781198,13.158 85.6052721,14.99 85.2154246,17.272 C84.8300953,19.5446667 84.0381369,21.3886667 82.8447132,22.8006667 C81.6493531,24.2126667 80.3203864,24.9186667 78.8649129,24.9186667 C78.3614675,24.9186667 77.92773,24.8206667 77.5598276,24.624 C77.1945069,24.4306667 76.8756582,24.1266667 76.6058631,23.718 L75.3588676,31 L70.8381863,31 L74.4274937,9.96133336 L78.8203774,9.96133336 L78.7564785,11.1253334 C79.2405606,10.64 79.726579,10.286 80.206143,10.056 C80.6876434,9.8306667 81.1865707,9.71733336 81.6971159,9.71733336 Z M64.8515107,9.94733336 L65.3530197,14.852 C65.3988462,15.314 65.4214367,15.752 65.4214367,16.1726667 C65.4214367,16.596 65.4007825,17.002 65.360765,17.3993334 L65.6145854,16.7035 C65.6565392,16.5915 65.6982913,16.4814584 65.7398013,16.3733334 L65.9608203,15.8118934 L65.9608203,15.8118934 L66.1482053,15.3629867 L66.1482053,15.3629867 L68.5750702,9.94733336 L73.1957952,9.94733336 L63.1998225,30.9966667 L58.9250549,30.9966667 L62.0251167,24.222 L59.9642178,9.94733336 L64.8515107,9.94733336 Z M93.3279306,9.71213336 C94.4322832,9.71213336 95.3675299,9.87480003 96.142707,10.2061334 C96.914011,10.5354667 97.545899,11.0061334 98.028691,11.6141334 C98.511482,12.2234667 98.856794,12.9694667 99.072372,13.8614667 C99.282786,14.7494667 99.389929,15.7554667 99.389929,16.8721334 C99.389929,17.2101334 99.380248,17.5048 99.360884,17.7548 C99.343457,18.0048 99.315703,18.2688 99.275686,18.5488 L91.0372541,18.5488 L91.0079671,18.72855 C91.0028439,18.763675 90.9977409,18.8013209 90.9928698,18.8413938 L90.9791643,18.9688 C90.9604464,19.1481334 90.9501193,19.3068 90.9501193,19.4488 C90.9501193,20.1894667 91.1882877,20.7074667 91.6613973,21.0074667 C92.1364432,21.3041334 92.7012057,21.4541334 93.3569755,21.4541334 C94.3612845,21.4541334 95.321058,21.3214667 96.228551,21.0514667 C97.137334,20.7808 97.970601,20.4068 98.723187,19.9274667 L98.230714,23.5834667 C97.959628,23.7828 97.631743,23.9801334 97.241896,24.1828 C96.857857,24.3801334 96.420247,24.5628 95.9374558,24.7208 C95.4546646,24.8794667 94.9441194,25.0088 94.4019474,25.1094667 C93.8610664,25.2114667 93.2988857,25.2594667 92.7186326,25.2594667 C91.7530502,25.2594667 90.8746025,25.1008 90.0819988,24.7834667 C89.2900405,24.4621334 88.6039348,24.0008 88.0333633,23.4034667 C87.4660191,22.8034667 87.0219545,22.0681334 86.7018148,21.2014667 C86.3790934,20.3341334 86.2216054,19.3574667 86.2216054,18.2814667 C86.2216054,17.1608 86.3868387,16.0874667 86.7160146,15.0581334 C87.0438995,14.0288 87.5189454,13.1168 88.1353433,12.3168 C88.7556138,11.5174667 89.5004548,10.8848 90.3705117,10.4154667 C91.241214,9.94613336 92.2261598,9.71213336 93.3279306,9.71213336 Z M139.877054,9.71000002 L138.275711,19.0946667 C138.144686,19.8466667 138.152431,20.378 138.302174,20.698 C138.44869,21.0173334 138.748175,21.1766667 139.204503,21.1766667 C139.415563,21.1766667 139.649859,21.1326667 139.911908,21.0433334 C140.170731,20.956 140.465698,20.8273334 140.780674,20.664 L142.65504,9.71000002 L147.324819,9.71000002 L145.726057,19.066 C145.611168,19.744 145.624077,20.1853334 145.765429,20.3866667 C145.906136,20.5906667 146.230148,20.7093334 146.743275,20.7473334 L145.090941,24.9813334 C144.737884,25.0733334 144.41129,25.14 144.115032,25.18 C143.814901,25.2186667 143.538651,25.24 143.283056,25.24 C142.517561,25.24 141.914072,25.0906667 141.467426,24.7906667 C141.020134,24.49 140.720003,24.0246667 140.562515,23.3966667 C139.855109,24.018 139.158031,24.4806667 138.473862,24.7853334 C137.790338,25.086 137.106814,25.24 136.418772,25.24 C135.120141,25.24 134.226848,24.7926667 133.740184,23.8953334 C133.256102,22.998 133.171549,21.628 133.485234,19.7866667 L135.207276,9.71000002 L139.877054,9.71000002 Z M157.332275,5.00000003 L156.563287,9.61644592 L159.299195,9.61644592 L158.68356,13.4297393 L155.9195,13.4297393 L154.997159,18.9449689 L154.963544,19.208048 L154.903138,19.6202446 L154.880593,19.8180218 C154.875425,19.8758189 154.872699,19.9254873 154.872699,19.9670271 C154.872699,20.4414475 155.037164,20.7477661 155.366095,20.8807532 C155.692804,21.0152345 156.000992,21.0817281 156.287696,21.0817281 C156.572918,21.0817281 156.833692,21.0615559 157.069278,21.0212115 L157.404784,20.9582668 L157.699729,20.8964427 L157.056684,24.8950215 C156.644779,24.9764574 156.199536,25.0541578 155.719474,25.1258811 C155.239412,25.1983516 154.637113,25.2349605 153.920724,25.2349605 C153.346576,25.2349605 152.86281,25.2043286 152.461277,25.1430649 C152.062707,25.0803069 151.715996,24.9884113 151.418179,24.8636425 C151.121104,24.7403679 150.866257,24.5887029 150.650673,24.4146242 C150.43509,24.2390514 150.236546,24.0373293 150.049114,23.8094582 C149.823159,23.5404955 149.625356,23.2110161 149.450519,22.8187789 C149.276422,22.4272887 149.189003,21.8789037 149.189003,21.1751179 L149.189003,20.9435112 C149.189003,20.8734688 149.194004,20.786196 149.206818,20.6816928 L149.268107,20.2359958 L149.467558,18.9449689 L150.389158,13.4297393 L148.3,13.4297393 L148.574109,11.5679197 L155.948393,5.00000003 L157.332275,5.00000003 Z M48.4364362,6.44444447 L47.3023767,13.3450363 L52.0764939,13.3450363 L53.2092814,6.44444447 L58.5583788,6.44444447 L55.4786725,25.2222223 L50.1270309,25.2222223 L51.3660371,17.6656042 L46.593192,17.6656042 L45.3510056,25.2222223 L40,25.2222223 L43.0847946,6.44444447 L48.4364362,6.44444447 Z M167.081055,5 L165.914708,12.3128881 C166.398991,11.9512115 166.877961,11.665211 167.350766,11.4546667 C168.03429,11.154 168.717814,11 169.405856,11 C170.704487,11 171.59778,11.4473333 172.084444,12.3446667 C172.568526,13.242 172.653079,14.612 172.339394,16.4533333 L171.289904,25.0656992 L166.620125,25.0656992 L167.543809,17.173 L167.615361,16.6795289 C167.669605,16.1690719 167.639145,15.7913679 167.522454,15.542 C167.375938,15.2226667 167.076453,15.0633333 166.620125,15.0633333 C166.409065,15.0633333 166.174769,15.1073333 165.91272,15.1966667 C165.761256,15.2477743 165.597415,15.313037 165.424429,15.3911187 L163.747952,25.0656992 L158.6,25.0656992 L159.732809,19.307 L161.87654,5 L167.081055,5 Z M128.917626,6.00000002 L132.080748,25.2586654 L126.803093,25.2586654 L126.281375,21.1853313 L120.39467,21.1853313 L118.098986,25.2586654 L112.773461,25.2586654 L122.911912,6.00000002 L128.917626,6.00000002 Z M110.435908,9.71940003 C110.726099,9.71940003 111.01753,9.7620667 111.307556,9.84842403 L111.52477,9.92140003 C111.828666,10.0091778 112.084154,10.1650111 112.314018,10.3522488 L112.449044,10.4680667 L110.270675,15.0314 C110.040252,14.8634 109.774975,14.7260667 109.514216,14.6254 C109.216667,14.5200667 108.917827,14.4527334 108.621569,14.4527334 C107.930945,14.4527334 107.367473,14.6934 106.938899,15.2014 C106.551634,15.6674606 106.269452,16.3285626 106.098175,17.2413049 L104.796029,24.9147334 L100.176595,24.9147334 L102.71964,9.92140003 L107.270657,9.92140003 L107.039588,11.7287334 C107.599187,11.0820667 108.159432,10.5674 108.721612,10.2300667 C109.281211,9.8880667 109.843392,9.71940003 110.435908,9.71940003 Z M79.4722746,13.6606667 C79.2805781,13.6606667 79.0804908,13.7166667 78.8720128,13.8313334 C78.6680529,13.946 78.4421479,14.12 78.2001068,14.3573334 L77.2028977,20.1953334 C77.3481223,20.3773334 77.5069013,20.51 77.6734255,20.596 C77.8444678,20.6866667 78.0226101,20.7273334 78.2168883,20.7273334 C78.7842326,20.7273334 79.2715419,20.4246667 79.6788163,19.8193334 C80.0886725,19.216 80.3849307,18.3546667 80.5779181,17.236 C80.7683237,16.134 80.7618693,15.264 80.5604911,14.6233334 C80.3584675,13.9813334 79.997665,13.6606667 79.4722746,13.6606667 Z M125.431078,10 L121.847081,17.3053012 L126.3,17.3053012 L125.431078,10 Z M93.4150654,13.0368 C93.3176035,13.0368 93.1775424,13.0581334 92.9935912,13.0961334 C92.8109309,13.1374667 92.6192344,13.2461334 92.4126927,13.4281334 C92.21196,13.6081334 92.0144545,13.8754667 91.8188853,14.2374667 C91.6258979,14.5928 91.4819642,15.0841334 91.3864387,15.7021334 L94.7472593,15.7021334 C94.7698498,15.6021334 94.7775951,15.4901334 94.7775951,15.3574667 L94.7775951,15.0134667 C94.7775951,14.8161334 94.7621045,14.5988 94.7349959,14.3688 C94.705951,14.1401334 94.637534,13.9254667 94.5316814,13.7261334 C94.423247,13.5254667 94.2870586,13.3614667 94.1108527,13.2314667 C93.9365832,13.1021334 93.7087419,13.0368 93.4150654,13.0368 Z" id="LNB" fill="#FFFFFF" fill-rule="nonzero"></path>
            <g id="Icon">
                <g id="Polygon">
                    <use fill="black" fill-opacity="1" filter="url(#filter-4)" xlink:href="#path-3"></use>
                    <use fill="url(#linearGradient-2)" fill-rule="evenodd" xlink:href="#path-3"></use>
                </g>
                <g id="+logo" transform="translate(2.000000, 3.000000)">
                    <mask id="mask-6" fill="white">
                        <use xlink:href="#path-5"></use>
                    </mask>
                    <use id="Combined-Shape" fill="#FFFFFF" fill-rule="nonzero" xlink:href="#path-5"></use>
                    <polygon id="Path-10" fill="#2E9CFF" opacity="0.5" mask="url(#mask-6)" points="13.8890465 12.3064242 23 7 25.0243123 8.4940243 25.0243123 20.1652166 13.3833699 25.8611839 12.5 14.3018527"></polygon>
                    <polygon id="Path-10" fill="url(#linearGradient-7)" opacity="0.0969717843" mask="url(#mask-6)" points="9.13526586 11.3064242 0.0243123232 6 -0.740343835 7.63856188 -0.740343835 19.3097542 12 27.521703 12.5 13.3270672"></polygon>
                </g>
            </g>
        </g>
    </g>
</svg>