<svg xmlns="http://www.w3.org/2000/svg" viewBox="0 0 371.7 46.46"><g id="레이어_2" data-name="레이어 2"><g id="Layer_1" data-name="Layer 1"><path d="M81,1A19.1,19.1,0,0,0,62,20.13V42a4.78,4.78,0,0,0,4.75,4.43h.35a4.8,4.8,0,0,0,4.42-4.78V36.89H90.55V42a4.77,4.77,0,0,0,9.52-.36V20.13A19.12,19.12,0,0,0,81,1Zm9.53,26.33H71.49V20.14a9.53,9.53,0,1,1,19.05,0Z"/><path d="M123.9,1a19.09,19.09,0,0,0-19.05,19.14V42a4.76,4.76,0,0,0,9.51-.36V36.71a18.86,18.86,0,0,0,9.53,2.56A19.15,19.15,0,0,0,123.9,1Zm0,28.74a9.58,9.58,0,1,1,9.53-9.58A9.56,9.56,0,0,1,123.9,29.72Z"/><path d="M171.54,36.88H157.25V5.41a4.77,4.77,0,0,0-9.52,0V41.66a4.78,4.78,0,0,0,4.77,4.79H171.9a4.79,4.79,0,0,0,4.4-4.78v-.35A4.77,4.77,0,0,0,171.54,36.88Z"/><path d="M52.42,1a4.86,4.86,0,0,0-4.8,4.43v24.3a7.15,7.15,0,1,1-14.29,0V5.41a4.76,4.76,0,0,0-9.5,0v24.3a7.14,7.14,0,1,1-14.28,0V5.41a4.76,4.76,0,0,0-9.5,0v24.3A16.65,16.65,0,0,0,28.59,41.42a16.53,16.53,0,0,0,11.91,5A16.71,16.71,0,0,0,57.18,29.71V5.41A4.78,4.78,0,0,0,52.42,1Z"/><path d="M195.82,6.21a17.89,17.89,0,0,1,9.54-2.73q7.24,0,11.66,3.94a2.33,2.33,0,0,0,1.45.7,1.56,1.56,0,0,0,1.27-.55,1.89,1.89,0,0,0,.47-1.25,1.41,1.41,0,0,0-.52-1.16A21.78,21.78,0,0,0,205.36,0,21.48,21.48,0,0,0,194,3.16a23.3,23.3,0,0,0-8.23,8.5,23.31,23.31,0,0,0,0,23.11,23.39,23.39,0,0,0,8.29,8.53,21.51,21.51,0,0,0,11.31,3.16q9.28,0,14.27-5a1.79,1.79,0,0,0,.4-1.22,1.66,1.66,0,0,0-.55-1.27,1.75,1.75,0,0,0-1.24-.53,1.49,1.49,0,0,0-.87.29,18.89,18.89,0,0,1-21.61,1.57,19.53,19.53,0,0,1-7-7.22,19.73,19.73,0,0,1-2.58-9.89,19.26,19.26,0,0,1,2.61-9.72A20.14,20.14,0,0,1,195.82,6.21Z"/><path d="M256.81,42.75H233V2.32a1.7,1.7,0,0,0-.5-1.25,1.66,1.66,0,0,0-1.24-.49,1.71,1.71,0,0,0-1.22.49,1.65,1.65,0,0,0-.52,1.25V44.14a1.61,1.61,0,0,0,.52,1.24,1.72,1.72,0,0,0,1.22.5h25.58a1.81,1.81,0,0,0,1.24-.44,1.53,1.53,0,0,0,0-2.26A1.8,1.8,0,0,0,256.81,42.75Z"/><path d="M282.21,1.8A1.76,1.76,0,0,0,280.53.58a1.68,1.68,0,0,0-1.68,1.22L261.27,43.38a1.82,1.82,0,0,0,.29,2,1.66,1.66,0,0,0,1.28.52,1.58,1.58,0,0,0,1.62-1.1l4.29-10.27h23.61l4.29,10.27a1.65,1.65,0,0,0,1.63,1.1,1.73,1.73,0,0,0,1.56-2.5ZM270.09,31.38,280.53,6.32,291,31.38Z"/><path d="M320.31,20.3q-5.56-.93-8.23-3.13a6.81,6.81,0,0,1-2.67-5.45,7.37,7.37,0,0,1,2.7-6.07c1.8-1.44,4.3-2.17,7.51-2.17a11.25,11.25,0,0,1,9.92,5,1.83,1.83,0,0,0,1.62.87,1.6,1.6,0,0,0,.7-.12,1.81,1.81,0,0,0,.72-.61,1.39,1.39,0,0,0,.26-.84,1.78,1.78,0,0,0-.23-.93A13.88,13.88,0,0,0,327.39,2a15.38,15.38,0,0,0-7.77-2,17,17,0,0,0-7.16,1.42,11.24,11.24,0,0,0-4.82,4,10.54,10.54,0,0,0-1.71,5.95,10.28,10.28,0,0,0,3.68,8q3.69,3.29,10.12,4.21c3.68.5,6.45,1.61,8.33,3.33a8.5,8.5,0,0,1,2.81,6.53A8.87,8.87,0,0,1,328,40.48Q325.14,43,320.14,43a16,16,0,0,1-7.45-1.6A10.68,10.68,0,0,1,308,36.89a1.74,1.74,0,0,0-1.68-1.1,1.82,1.82,0,0,0-1.31.46,1.53,1.53,0,0,0-.49,1.16,1.67,1.67,0,0,0,.17.7,14.32,14.32,0,0,0,6,6.11,19.06,19.06,0,0,0,9.45,2.24,16.74,16.74,0,0,0,7.45-1.57,11.52,11.52,0,0,0,5-4.52,13.29,13.29,0,0,0,1.77-7A11.51,11.51,0,0,0,331,24.79C328.74,22.61,325.19,21.11,320.31,20.3Z"/><path d="M368.34,24.79Q365,21.52,357.67,20.3c-3.72-.62-6.46-1.66-8.24-3.13a6.81,6.81,0,0,1-2.67-5.45,7.37,7.37,0,0,1,2.7-6.07c1.8-1.44,4.3-2.17,7.51-2.17a11.23,11.23,0,0,1,9.92,5,1.84,1.84,0,0,0,1.62.87,1.6,1.6,0,0,0,.7-.12,1.81,1.81,0,0,0,.72-.61,1.39,1.39,0,0,0,.26-.84A1.78,1.78,0,0,0,370,6.9,13.88,13.88,0,0,0,364.74,2,15.38,15.38,0,0,0,357,0a17,17,0,0,0-7.16,1.42,11.24,11.24,0,0,0-4.82,4,10.54,10.54,0,0,0-1.71,5.95,10.26,10.26,0,0,0,3.69,8q3.67,3.29,10.12,4.21,5.51.75,8.32,3.33a8.5,8.5,0,0,1,2.81,6.53,8.84,8.84,0,0,1-2.87,7.07Q362.49,43,357.49,43a16,16,0,0,1-7.45-1.6,10.68,10.68,0,0,1-4.67-4.49,1.74,1.74,0,0,0-1.68-1.1,1.84,1.84,0,0,0-1.31.46,1.53,1.53,0,0,0-.49,1.16,1.67,1.67,0,0,0,.17.7,14.32,14.32,0,0,0,6,6.11,19.09,19.09,0,0,0,9.45,2.24A16.81,16.81,0,0,0,365,44.89a11.55,11.55,0,0,0,5-4.52,13.29,13.29,0,0,0,1.77-7A11.51,11.51,0,0,0,368.34,24.79Z"/></g></g></svg>