<?xml version="1.0" encoding="UTF-8"?>
<svg width="134px" height="20px" viewBox="0 0 134 20" version="1.1" xmlns="http://www.w3.org/2000/svg" xmlns:xlink="http://www.w3.org/1999/xlink">
    <title>logo/logotype/hypermeeting</title>
    <defs>
        <filter id="filter-1">
            <feColorMatrix in="SourceGraphic" type="matrix" values="0 0 0 0 0.227451 0 0 0 0 0.227451 0 0 0 0 0.227451 0 0 0 1.000000 0"></feColorMatrix>
        </filter>
        <polygon id="path-2" points="0.0449487162 0.041221367 10.5247293 0.041221367 10.5247293 15.5294118 0.0449487162 15.5294118"></polygon>
        <polygon id="path-4" points="0.110058252 0.0103294118 10.9956743 0.0103294118 10.9956743 15.4338588 0.110058252 15.4338588"></polygon>
    </defs>
    <g id="ch01_Login" stroke="none" stroke-width="1" fill="none" fill-rule="evenodd">
        <g id="Ch6_Account_Setting_14" transform="translate(-360.000000, -935.000000)">
            <g id="+Contents" transform="translate(360.000000, 202.000000)">
                <g id="logo/logotype" transform="translate(0.000000, 733.000000)" filter="url(#filter-1)">
                    <g id="Group-29">
                        <path d="M11.1913294,0.548929412 C10.9402299,0.283870588 10.5992547,0.143870588 10.2051135,0.143870588 L10.2041929,0.143870588 C9.82190478,0.144341176 9.49370318,0.277282353 9.228334,0.539752941 C8.96296482,0.802458824 8.82291526,1.15445882 8.82326049,1.55787059 L8.82671283,6.42363529 L2.7677568,6.42904706 L2.76430447,1.5634 C2.76407431,1.16316471 2.6283977,0.813164706 2.37165935,0.550811765 C2.11526623,0.289517647 1.77348546,0.1514 1.38302682,0.1514 L1.38118558,0.1514 C1.00430611,0.151635294 0.666898292,0.288341176 0.4052116,0.547164706 C0.139842422,0.809988235 -0.000207139862,1.16198824 2.27323218e-05,1.5654 L0.0087689208,14.1042235 C0.00899907621,14.4928118 0.147897861,14.8398706 0.410044864,15.1072824 C0.672076788,15.3746941 1.01132585,15.5162235 1.39108226,15.5162235 L1.39188781,15.5162235 C1.78648924,15.5162235 2.13080172,15.3722235 2.38754008,15.1004588 C2.64002055,14.8325765 2.77328053,14.4875176 2.77305037,14.1021059 L2.76948296,9.03281176 L8.82843899,9.02728235 L8.8320064,14.0964588 C8.83223656,14.4852824 8.97113534,14.8322235 9.23328234,15.0997529 C9.49542935,15.3674 9.83456333,15.5086941 10.2144348,15.5086941 L10.2152404,15.5086941 C10.6128338,15.5082235 10.9556503,15.3625765 11.2068649,15.0870471 C11.4534764,14.8164588 11.5784508,14.4826941 11.5781063,14.0946941 L11.5694747,1.55587059 C11.5691295,1.15281176 11.4419687,0.814105882 11.1913294,0.548929412" id="Fill-1" fill="#FFFFFF"></path>
                        <g id="Group-5" transform="translate(13.349013, 4.419765)">
                            <mask id="mask-3" fill="white">
                                <use xlink:href="#path-2"></use>
                            </mask>
                            <g id="Clip-4"></g>
                            <path d="M9.68913964,0.176611765 C8.94815432,-0.139858824 8.32512365,0.103317647 7.97574775,0.855317647 L5.44518911,6.71096471 L2.54396519,0.830258824 C2.38527304,0.488729412 2.14591143,0.253552941 1.83151915,0.130729412 C1.51758718,0.00872941176 1.18811972,0.0201411765 0.851517447,0.164964706 C0.51951828,0.308494118 0.272906768,0.554023529 0.138380935,0.875317647 C-0.00443049148,1.21684706 0.0168588832,1.58449412 0.199602272,1.93802353 L4.1762273,9.64731765 L2.46260526,13.6127294 C2.29240534,13.9872 2.26294545,14.3336706 2.37503113,14.6427294 C2.48849774,14.9554353 2.73764096,15.2029647 3.12430204,15.3821412 C3.3505448,15.4812 3.54928399,15.5294353 3.73156707,15.5294353 L3.73271784,15.5294353 C4.02674137,15.5290824 4.5607019,15.4176706 4.84471367,14.6777882 L10.3741972,1.94402353 C10.5443971,1.56025882 10.5704047,1.20825882 10.4515294,0.898023529 C10.3319637,0.585905882 10.0759158,0.343435294 9.68913964,0.176611765" id="Fill-3" fill="#FFFFFF" mask="url(#mask-3)"></path>
                        </g>
                        <path d="M32.6910316,11.5376706 C32.442809,11.9973176 32.1174843,12.3492 31.696415,12.6135529 C31.2805242,12.8744941 30.8165309,13.0014353 30.2781974,13.0019059 L30.2757808,13.0019059 C29.7494154,13.0019059 29.2882991,12.8750824 28.8659639,12.6140235 C28.4406367,12.3516706 28.1162327,12.0017882 27.8741092,11.5447294 C27.632446,11.0894353 27.5097732,10.5666118 27.5094272,9.99061176 C27.5090827,9.40261176 27.6310651,8.87308235 27.8720378,8.4172 C28.1135859,7.95990588 28.4376447,7.60955294 28.8622814,7.34637647 C29.285307,7.08425882 29.7469988,6.95696471 30.2739396,6.95661176 L30.2763562,6.95661176 C30.8135389,6.95661176 31.2768417,7.08296471 31.6927325,7.34284706 C32.114032,7.60649412 32.4399321,7.95790588 32.688615,8.41708235 C32.9351114,8.87237647 33.0602009,9.40037647 33.0605468,9.98637647 C33.0608913,10.5604941 32.9366074,11.0824941 32.6910316,11.5376706 M33.0501891,5.12578824 C32.236935,4.63743529 31.3037699,4.38967059 30.276011,4.38967059 L30.2720983,4.38967059 C29.2548114,4.39037647 28.3264796,4.63955294 27.5128803,5.13002353 C26.7011222,5.61943529 26.0508181,6.29531765 25.5800352,7.13872941 C25.110173,7.98096471 24.8657479,8.93908235 24.8537799,9.99237647 L24.8597639,18.4379059 C24.8599941,18.8264941 24.9956707,19.1702588 25.2520638,19.4320235 C25.5081117,19.6933176 25.8439084,19.8314353 26.2233196,19.8314353 L26.2250457,19.8314353 C26.6191869,19.8310824 26.9602772,19.6907294 27.211837,19.4246118 C27.4579882,19.1629647 27.5881411,18.8210824 27.5879109,18.4361412 L27.5851491,14.4954353 C27.8613356,14.7159059 28.1605376,14.9077882 28.481029,15.0695529 C29.1362814,15.4006118 29.8619614,15.5684941 30.6378153,15.5684941 L30.6421882,15.5684941 C31.6044679,15.5679059 32.4815902,15.3163765 33.2493886,14.8213176 C34.0113181,14.3306118 34.6200791,13.6566118 35.0592156,12.8182588 C35.4959355,11.9839059 35.7169997,11.0303765 35.7161964,9.98461176 C35.7153886,8.93343529 35.4723445,7.97296471 34.9937364,7.12943529 C34.5158187,6.28790588 33.8619472,5.61367059 33.0501891,5.12578824" id="Fill-6" fill="#FFFFFF"></path>
                        <path d="M39.9047923,8.69817647 C39.9450695,8.57911765 39.9912157,8.46394118 40.0435761,8.35276471 C40.2618785,7.89005882 40.5721279,7.53605882 40.9918163,7.27064706 C41.4083976,7.00758824 41.9248663,6.87405882 42.5268378,6.87347059 L42.5292544,6.87347059 C43.0415803,6.87347059 43.4778399,6.99170588 43.8252595,7.22452941 C44.1833813,7.46511765 44.4530083,7.78429412 44.6493309,8.20041176 C44.7227505,8.35641176 44.7837416,8.52123529 44.8321893,8.69476471 L39.9047923,8.69817647 Z M47.3985372,8.69276471 C47.3076258,8.09147059 47.140648,7.53464706 46.8990999,7.02876471 C46.5068,6.20770588 45.9296854,5.55370588 45.184097,5.08476471 C44.4413855,4.61770588 43.5484976,4.381 42.5302901,4.381 L42.5251116,4.381 C41.4970074,4.38147059 40.5693661,4.62382353 39.7678499,5.10135294 C38.9651829,5.57982353 38.3285731,6.24876471 37.8751669,7.08935294 C37.4247528,7.92558824 37.1966688,8.89935294 37.1974722,9.98358824 C37.1981648,11.0602941 37.4415542,12.0307647 37.9208528,12.8677059 C38.401072,13.707 39.0735861,14.3733529 39.9197525,14.8484118 C40.7595895,15.3202941 41.7283136,15.5595882 42.7993418,15.5595882 L42.8046353,15.5595882 L42.8046353,15.5595882 C43.4062616,15.5592353 44.0417206,15.4448824 44.6932906,15.2199412 C45.3480827,14.9939412 45.9078206,14.6944118 46.3504095,14.3347647 C46.757094,14.0162941 46.8257954,13.6388824 46.8116409,13.3777059 C46.792538,13.0320588 46.6326951,12.7215882 46.3292352,12.4481765 C46.0907942,12.2428824 45.7984968,12.1419412 45.4799617,12.1484118 C45.1783431,12.1577059 44.8970932,12.259 44.6403548,12.4515882 C44.434826,12.6092353 44.1543817,12.753 43.8063867,12.879 C43.463225,13.0035882 43.1257021,13.0666471 42.8030242,13.067 L42.8004925,13.067 C42.1929974,13.067 41.6513266,12.9312353 41.1900952,12.6637059 C40.7234551,12.3933529 40.3676349,12.0358235 40.1024958,11.5702941 C40.0141162,11.4153529 39.9404664,11.2515882 39.8816617,11.0795882 L46.2074829,11.0751176 C46.5605413,11.0748824 46.8727471,10.951 47.1100374,10.7172353 C47.3525061,10.4787647 47.4804725,10.1647647 47.4800134,9.80935294 C47.4798971,9.46288235 47.4580323,9.12805882 47.414648,8.80558824 L47.3985372,8.69276471 Z" id="Fill-8" fill="#FFFFFF"></path>
                        <path d="M56.2257103,4.76951765 C55.7922126,4.47728235 55.1842571,4.33528235 54.3669753,4.33528235 L54.3612214,4.33528235 C53.5641932,4.33575294 52.8214817,4.53010588 52.153916,4.91292941 C51.9822201,5.01116471 51.81927,5.11881176 51.6650659,5.23563529 C51.6056858,5.07128235 51.5179966,4.92951765 51.4023435,4.81128235 C51.1663192,4.57104706 50.8337446,4.44928235 50.4140562,4.44928235 L50.4119848,4.44928235 C50.0024233,4.4494 49.6723805,4.57516471 49.4308324,4.82245882 C49.1890541,5.06987059 49.0666114,5.40775294 49.0669559,5.82610588 L49.0727106,14.1052824 C49.0731709,14.5397529 49.1981453,14.8824588 49.4438361,15.1234 C49.6846938,15.3602235 50.0125501,15.4801059 50.4185443,15.4801059 L50.41958,15.4801059 L50.4198101,15.4801059 C50.8445619,15.4796353 51.1796682,15.3519882 51.4162679,15.1004588 C51.6478043,14.8537529 51.7649534,14.5181059 51.7646081,14.1031647 L51.7611558,9.14481176 L51.7612709,9.14481176 L51.7608106,8.69492941 C51.7604653,8.24551765 51.8937253,7.88834118 52.1684158,7.60257647 C52.4611735,7.2974 52.8772944,7.08351765 53.4050408,6.96669412 C53.9583343,6.84434118 54.5987418,6.85692941 55.2969182,7.00092941 C55.5123436,7.05151765 55.7186779,7.05904706 55.9090165,7.02328235 C56.1206443,6.98398824 56.3109829,6.88928235 56.475544,6.74104706 C56.6477002,6.58516471 56.7635835,6.37222353 56.8200866,6.10881176 C56.8945419,5.8034 56.9115734,5.23281176 56.2257103,4.76951765" id="Fill-10" fill="#FFFFFF"></path>
                        <path d="M72.6083789,0.371423529 L72.6081488,0.371188235 C72.3582,0.124835294 72.048641,1.17647059e-05 71.6876422,1.17647059e-05 L71.6869518,1.17647059e-05 C71.1946494,0.000482352941 70.7983218,0.244482353 70.5411231,0.705776471 L65.7147643,10.9983647 L60.749852,0.730482353 L60.7407609,0.713188235 C60.4825265,0.2526 60.0864291,0.00918823529 59.5948171,0.00918823529 L59.5938965,0.00918823529 C59.2327827,0.00954117647 58.9229935,0.134835294 58.6731598,0.382011765 C58.4204492,0.632364706 58.2923677,0.955188235 58.2925975,1.34154118 L58.301689,14.1591882 C58.3019192,14.5309529 58.4289649,14.8491882 58.6794891,15.1047176 C58.9297831,15.3601294 59.240608,15.4896588 59.603563,15.4896588 L59.6048289,15.4896588 C59.9684744,15.4893059 60.2795294,15.3593059 60.5297084,15.1034235 C60.7797722,14.8473059 60.9063577,14.5289529 60.9061275,14.1574235 L60.9007189,6.39107059 L64.4561595,14.1353059 C64.6986282,14.6468353 65.1112969,14.9170706 65.6496303,14.9170706 L65.6510113,14.9170706 C66.1101713,14.9167176 66.4963721,14.6920118 66.7678404,14.2669529 L66.7792331,14.2490706 L70.3892205,6.22989412 L70.3947443,14.1500118 C70.3950895,14.5216588 70.5221353,14.8397765 70.7726594,15.0956588 C71.0229534,15.3508353 71.3337783,15.4804824 71.6966183,15.4804824 L71.6978842,15.4804824 C72.0466847,15.4802471 72.3533667,15.3516588 72.6096448,15.0981294 C72.8684545,14.8415412 72.999528,14.5218941 72.9992982,14.1482471 L72.9902067,1.33048235 C72.9899766,0.943894118 72.8615499,0.621305882 72.6083789,0.371423529" id="Fill-12" fill="#FFFFFF"></path>
                        <path d="M77.3608923,8.76147059 C77.4130225,8.58052941 77.4775811,8.40817647 77.5538776,8.24605882 C77.7863346,7.75311765 78.1170679,7.37582353 78.5647202,7.09276471 C79.0079995,6.81276471 79.5555392,6.67052941 80.1920339,6.67005882 L80.1952561,6.67005882 C80.7404943,6.67005882 81.2064439,6.797 81.5801012,7.04735294 C81.9635401,7.30476471 82.2518097,7.64605882 82.4614813,8.09041176 C82.558837,8.29723529 82.6355938,8.52041176 82.6912914,8.75770588 L77.3608923,8.76147059 Z M82.8504439,5.05088235 C82.1087681,4.58452941 81.215535,4.34805882 80.1950259,4.34805882 L80.1903078,4.34805882 C79.1589814,4.34876471 78.2294988,4.59158824 77.4274072,5.06923529 C76.6245101,5.54782353 75.98744,6.217 75.5339188,7.05829412 C75.082584,7.89594118 74.8540397,8.87276471 74.8547286,9.96205882 C74.8555357,11.0426471 75.0992703,12.0153529 75.5790292,12.8534706 C76.0594786,13.6935882 76.7329133,14.3606471 77.5803455,14.8364118 C78.422369,15.3094706 79.3946605,15.5493529 80.4704069,15.5493529 L80.4760457,15.5493529 C81.0785925,15.5488824 81.716123,15.4340588 82.3711453,15.2079412 C83.0285842,14.9811176 83.5894729,14.6813529 84.0332125,14.3206471 C84.4107824,14.0252353 84.4745355,13.6780588 84.4616468,13.4384118 C84.4436947,13.1162941 84.2929429,12.8251176 84.0078954,12.5682941 C83.7823431,12.3737059 83.5151327,12.2813529 83.2139744,12.2884118 C82.9289269,12.2972353 82.6624069,12.3931176 82.4187874,12.5759412 C82.2000247,12.7438235 81.9034695,12.8961765 81.536947,13.0287647 C81.1745673,13.1604118 80.817136,13.2272353 80.4744346,13.2274706 L80.4709823,13.2274706 C79.8312653,13.2274706 79.2594442,13.0839412 78.7709394,12.8005294 C78.283125,12.5180588 77.8953132,12.1279412 77.6182061,11.6412353 C77.499561,11.4331176 77.4055425,11.2084118 77.3371863,10.9698235 L83.9543843,10.9648824 C84.2908715,10.9648824 84.5755737,10.8522941 84.8006657,10.6307647 C85.0261029,10.4086471 85.1450933,10.1159412 85.1447488,9.78429412 C85.1440576,8.73947059 84.9480802,7.79982353 84.5622247,6.99147059 C84.17027,6.17147059 83.5943062,5.51876471 82.8504439,5.05088235 L82.8504439,5.05088235 Z" id="Fill-14" fill="#FFFFFF"></path>
                        <path d="M88.9514838,8.75331765 C89.003614,8.57237647 89.0681726,8.40002353 89.1445842,8.23778824 C89.376811,7.74508235 89.7074293,7.36778824 90.1551966,7.08461176 C90.598706,6.80461176 91.1462457,6.66237647 91.7825104,6.66178824 L91.7851571,6.66178824 C92.3306254,6.66178824 92.7969203,6.78872941 93.1705776,7.0392 C93.5541316,7.29661176 93.8424012,7.63790588 94.0519577,8.08214118 C94.1493134,8.28896471 94.2261853,8.51237647 94.2818829,8.74943529 L88.9514838,8.75331765 Z M94.4410354,5.04272941 L94.4410354,5.04261176 C93.6991295,4.57625882 92.8057813,4.33978824 91.7855024,4.33978824 L91.7808993,4.33978824 C90.7493428,4.34061176 89.8197451,4.58343529 89.0181138,5.06108235 C88.2153318,5.53955294 87.5782616,6.20861176 87.1245103,7.05002353 C86.6730604,7.88767059 86.4445161,8.86461176 86.445434,9.95402353 C86.4461272,11.0344941 86.6898618,12.0073176 87.1696207,12.8453176 C87.6500701,13.6852 88.3235048,14.3523765 89.1708219,14.8281412 C90.0129606,15.3012 90.985252,15.5410824 92.0609984,15.5410824 L92.0666372,15.5410824 C92.669069,15.5407294 93.3067145,15.4260235 93.9617368,15.1999059 C94.6188305,14.9732 95.1797192,14.6733176 95.6239191,14.3124941 C96.001489,14.0167294 96.065127,13.6697882 96.0521232,13.4302588 C96.0342862,13.1080235 95.8834193,12.8168471 95.5984869,12.5601412 C95.3728195,12.3655529 95.1058393,12.2739059 94.8043357,12.2801412 C94.5192882,12.2892 94.2527683,12.3850824 94.0092639,12.5676706 C93.7906162,12.7355529 93.494061,12.8880235 93.1276536,13.0206118 C92.7648136,13.1522588 92.4073823,13.2190824 92.0650261,13.2193176 L92.0615738,13.2193176 C91.4218568,13.2193176 90.8499207,13.0756706 90.361646,12.7924941 C89.8736015,12.5097882 89.4857896,12.1196706 89.2086825,11.6330824 C89.0901525,11.4248471 88.996134,11.2002588 88.9276628,10.9616706 L95.5450909,10.9567294 C95.8816931,10.9564941 96.1662803,10.8441412 96.3912572,10.6227294 C96.6165793,10.4004941 96.7356848,10.1077882 96.7353403,9.77602353 C96.7346491,8.7312 96.5386717,7.79155294 96.1527011,6.98308235 C95.7608616,6.16331765 95.1848977,5.51061176 94.4410354,5.04272941 L94.4410354,5.04272941 Z" id="Fill-16" fill="#FFFFFF"></path>
                        <path d="M103.236401,12.8703882 L103.235826,12.8703882 L102.606005,12.8708588 L102.605085,12.8708588 C102.311061,12.8708588 102.077108,12.7492118 101.868703,12.4878 C101.645682,12.2086235 101.537049,11.8653294 101.536818,11.4387412 L101.533711,7.10897647 L102.768725,7.10815294 C103.114649,7.1078 103.403839,7.00027059 103.628471,6.78815294 C103.85713,6.57168235 103.977732,6.28697647 103.977501,5.96521176 C103.977386,5.61827059 103.85621,5.32085882 103.62709,5.10485882 C103.402688,4.89344706 103.113958,4.78638824 102.768495,4.78638824 L102.767114,4.78638824 L101.532215,4.78721176 L101.530489,2.40756471 C101.530144,2.03615294 101.409427,1.72462353 101.171102,1.48097647 C100.933006,1.23815294 100.62828,1.11509412 100.265555,1.11509412 L100.264289,1.11509412 C99.9006437,1.11544706 99.5956878,1.23897647 99.3580524,1.48227059 C99.1201868,1.7258 98.9998155,2.0378 99.0000457,2.40944706 L99.0017718,4.78909412 L98.4889856,4.78944706 C98.1426017,4.78968235 97.8532964,4.89732941 97.6297004,5.10909412 C97.4008109,5.32509412 97.2799793,5.62285882 97.2802091,5.97015294 C97.2804396,6.29262353 97.4016164,6.57709412 97.630621,6.79274118 C97.8547924,7.00415294 98.1436374,7.11121176 98.4892157,7.11121176 L98.4907118,7.11121176 L99.0032678,7.11085882 L99.0063749,11.4406235 C99.0069503,12.1883882 99.1636862,12.8730941 99.4723245,13.4752118 C99.7829193,14.0820353 100.215611,14.5688588 100.758318,14.9218 C101.304592,15.2774471 101.925896,15.4576824 102.605085,15.4576824 L102.607962,15.4576824 L102.941342,15.4574471 C103.343653,15.4570941 103.682212,15.3400353 103.947466,15.1094471 C104.225609,14.8680353 104.372563,14.5407412 104.372333,14.1628588 C104.371988,13.7993294 104.264966,13.4925059 104.053683,13.2503882 C103.835726,13.0016824 103.553095,12.8703882 103.236401,12.8703882" id="Fill-18" fill="#FFFFFF"></path>
                        <path d="M107.468038,0.219882353 L107.466888,0.219882353 C107.041906,0.220235294 106.671586,0.378941176 106.366169,0.691529412 C106.060868,1.00411765 105.906204,1.38294118 105.906548,1.81741176 C105.906779,2.25188235 106.061904,2.63058824 106.36778,2.94294118 C106.673312,3.25458824 107.043402,3.41270588 107.467923,3.41270588 L107.469074,3.41270588 C107.894171,3.41235294 108.264491,3.25376471 108.569792,2.94117647 C108.875208,2.62858824 109.029758,2.24964706 109.029528,1.81517647 C109.029297,1.38058824 108.874058,1.002 108.568296,0.69 C108.26288,0.378117647 107.892675,0.219882353 107.468038,0.219882353" id="Fill-20" fill="#FFFFFF"></path>
                        <path d="M108.395403,4.77031765 L108.395058,4.76996471 C108.156962,4.52714118 107.846138,4.4042 107.471099,4.4042 L107.469833,4.4042 C107.108374,4.40443529 106.801807,4.52667059 106.558533,4.76725882 C106.311692,5.01114118 106.186832,5.33090588 106.187062,5.71749412 L106.192931,14.1426706 C106.193277,14.5149059 106.31733,14.8299647 106.561295,15.0785529 C106.80503,15.3277294 107.112978,15.4542 107.476968,15.4542 L107.477659,15.4542 C107.855574,15.4539647 108.168125,15.3257294 108.406566,15.0730235 C108.64167,14.8240824 108.76066,14.5103176 108.76043,14.1407882 L108.754561,5.71572941 C108.754216,5.33172941 108.633384,5.01372941 108.395403,4.77031765" id="Fill-22" fill="#FFFFFF"></path>
                        <path d="M120.80048,6.67472941 L120.80048,6.67472941 C120.381022,5.90014118 119.799189,5.30343529 119.070978,4.90096471 C118.351512,4.50378824 117.529282,4.30249412 116.626842,4.30249412 L116.622009,4.30249412 C115.753518,4.30308235 114.95741,4.50272941 114.255666,4.89590588 C114.075224,4.99696471 113.902838,5.10908235 113.739658,5.2312 C113.680048,5.05472941 113.584878,4.8992 113.45438,4.76578824 C113.216285,4.5232 112.90546,4.40014118 112.530652,4.40014118 L112.529271,4.40014118 C112.167927,4.40025882 111.861245,4.52249412 111.617855,4.76331765 C111.371129,5.00731765 111.246154,5.32696471 111.246384,5.71343529 L111.252368,14.1575529 C111.252599,14.5296706 111.376652,14.8446118 111.620732,15.0935529 C111.864467,15.3428471 112.1723,15.4690824 112.5356,15.4690824 L112.536866,15.4690824 C112.915011,15.4689647 113.227562,15.3407294 113.466003,15.0881412 C113.700992,14.8389647 113.820097,14.5252 113.819867,14.1557882 L113.816185,8.81555294 C113.815954,8.41802353 113.916762,8.07814118 114.124248,7.77543529 C114.336796,7.4652 114.630705,7.21237647 114.997802,7.02449412 C115.367892,6.83472941 115.790227,6.73861176 116.253415,6.73825882 L116.256522,6.73825882 C116.767697,6.73825882 117.224096,6.83743529 117.612713,7.03284706 C117.993965,7.22472941 118.289715,7.5112 118.516878,7.90861176 C118.744502,8.30708235 118.860155,8.84061176 118.860616,9.49449412 L118.863953,14.1520235 C118.864183,14.5240235 118.988122,14.8389647 119.232317,15.0879059 C119.476166,15.3372 119.783999,15.4635529 120.147414,15.4635529 L120.148565,15.4635529 C120.512326,15.4632 120.820389,15.3364941 121.064238,15.0867294 C121.308088,14.8369647 121.431566,14.5217882 121.431337,14.1502588 L121.428114,9.49272941 C121.427309,8.39084706 121.216141,7.44272941 120.80048,6.67472941" id="Fill-24" fill="#FFFFFF"></path>
                        <g id="Group-28" transform="translate(122.902985, 4.302118)">
                            <mask id="mask-5" fill="white">
                                <use xlink:href="#path-4"></use>
                            </mask>
                            <g id="Clip-27"></g>
                            <path d="M8.1240714,7.29138824 C7.87722973,7.76315294 7.53004031,8.13891765 7.0919395,8.40809412 C6.65383869,8.67715294 6.13932629,8.81374118 5.56301717,8.81421176 L5.56037038,8.81421176 C4.98463664,8.81421176 4.47081471,8.67832941 4.03328929,8.41032941 C3.59392263,8.14138824 3.24247533,7.76527059 2.988729,7.29232941 C2.73360174,6.81691765 2.60390917,6.25515294 2.60344763,5.62268235 C2.60298855,4.98997647 2.73210573,4.42432941 2.98734807,3.94138824 C3.24028885,3.46268235 3.59093061,3.08327059 4.02937665,2.81397647 C4.4672473,2.54491765 4.98164462,2.40832941 5.55841406,2.40785882 L5.56094577,2.40785882 C6.13644935,2.40785882 6.65027129,2.54385882 7.08791178,2.81174118 C7.52589751,3.08009412 7.87343217,3.45797647 8.1209643,3.93491765 C8.37160353,4.41832941 8.49899455,4.98468235 8.49945611,5.61832941 C8.49991517,6.25150588 8.37355986,6.81444706 8.1240714,7.29138824 L8.1240714,7.29138824 Z M10.9928434,5.61656471 C10.9919228,4.52585882 10.755208,3.54809412 10.2890282,2.70985882 C9.82169764,1.87044706 9.1711634,1.20303529 8.35549266,0.726094118 C7.54200839,0.251152941 6.60193865,0.0103294118 5.561291,0.0103294118 L5.55668789,0.0103294118 C4.50154046,0.0110352941 3.55387559,0.253388235 2.74039132,0.730329412 C1.92529597,1.20821176 1.27579742,1.87668235 0.809732734,2.71691765 C0.344588667,3.55527059 0.109254769,4.53362353 0.110058252,5.62456471 C0.110865857,6.69927059 0.330319033,7.66762353 0.762435799,8.50303529 C1.19742951,9.34362353 1.80273821,10.0123294 2.56167565,10.4900941 C3.32164879,10.9693882 4.20590584,11.2120941 5.18993526,11.2120941 L5.19430821,11.2120941 C6.11044179,11.2113882 6.9340529,10.9649176 7.64189583,10.4795059 C7.95709366,10.2633882 8.24398236,10.0084471 8.50072072,9.71656471 C8.48518523,10.4146824 8.35031416,11.0125647 8.09898446,11.4951529 C7.83534145,12.0015059 7.47802519,12.3883294 7.03716252,12.6451529 C6.5913515,12.9042118 6.09628723,13.0358588 5.56600919,13.0362118 L5.56267193,13.0362118 C4.97473996,13.0362118 4.44423176,12.9263294 3.98587728,12.7099765 C3.53062989,12.4948 3.14811162,12.1906824 2.85477856,11.8139765 C2.65580921,11.5429176 2.39101542,11.3713882 2.06787724,11.3039765 C1.7362233,11.2348 1.41642237,11.3031529 1.11319263,11.5100941 C0.840688636,11.7017412 0.671984726,11.9605647 0.611799089,12.2790353 C0.550347597,12.6019765 0.633318619,12.9269176 0.855878892,13.2238588 C1.41837869,13.9453882 2.11540433,14.5008 2.92750766,14.8750353 C3.73259126,15.2458588 4.60649132,15.4338588 5.52527168,15.4338588 L5.53045018,15.4338588 C6.60101803,15.4331529 7.5605359,15.1733882 8.38242084,14.6617412 C9.20188915,14.1515059 9.84989168,13.4539765 10.3084763,12.5888 C10.7652197,11.7266824 10.9964108,10.7566824 10.9957219,9.70609412 L10.9928434,5.61656471 Z" id="Fill-26" fill="#FFFFFF" mask="url(#mask-5)"></path>
                        </g>
                    </g>
                </g>
            </g>
        </g>
    </g>
</svg>