<?xml version="1.0" encoding="UTF-8"?>
<svg width="24px" height="24px" viewBox="0 0 24 24" version="1.1" xmlns="http://www.w3.org/2000/svg" xmlns:xlink="http://www.w3.org/1999/xlink">
    <title>lnb/privacy_tip</title>
    <defs>
        <path d="M12,3.19 L19,6.3 L19,11 C19,15.52 16.02,19.69 12,20.93 C7.98,19.69 5,15.52 5,11 L5,6.3 L12,3.19 M12,1 L3,5 L3,11 C3,16.55 6.84,21.74 12,23 C17.16,21.74 21,16.55 21,11 L21,5 L12,1 L12,1 Z M11,7 L13,7 L13,9 L11,9 L11,7 Z M11,11 L13,11 L13,17 L11,17 L11,11 Z" id="path-1"></path>
    </defs>
    <g id="lnb/privacy_tip" stroke="none" stroke-width="1" fill="none" fill-rule="evenodd">
        <polygon id="Base" points="-7.46069873e-14 3.90798505e-14 24.0000001 3.90798505e-14 24.0000001 24.0000001 -7.46069873e-14 24.0000001"></polygon>
        <mask id="mask-2" fill="white">
            <use xlink:href="#path-1"></use>
        </mask>
        <use id="Shape" fill="#333333" fill-rule="nonzero" xlink:href="#path-1"></use>
        <rect id="↳-🎨-Color" fill="#555555" mask="url(#mask-2)" x="0" y="0" width="24" height="24"></rect>
    </g>
</svg>