<?xml version="1.0" encoding="UTF-8"?>
<svg width="99px" height="19px" viewBox="0 0 99 19" version="1.1" xmlns="http://www.w3.org/2000/svg" xmlns:xlink="http://www.w3.org/1999/xlink">
    <!-- Generator: Sketch 63.1 (92452) - https://sketch.com -->
    <title>logo_symbol_text</title>
    <desc>Created with Sketch.</desc>
    <defs>
        <polygon id="path-1" points="0.169920595 0.0655521146 11.6453675 0.0655521146 11.6453675 14.1944968 0.169920595 14.1944968"></polygon>
    </defs>
    <g id="Page-2:-HyperCloud-Single-Cluster" stroke="none" stroke-width="1" fill="none" fill-rule="evenodd">
        <g id="20_90_01_Manual" transform="translate(-46.000000, -21.000000)">
            <g id="GNB">
                <g id="Group-7">
                    <g id="Group-9">
                        <g id="logo_symbol_text" transform="translate(18.000000, 21.000000)">
                            <g transform="translate(28.222222, 0.000000)" id="logo">
                                <g>
                                    <g id="Group-21">
                                        <polygon id="Fill-1" fill="#042A54" points="9.6311938 1.007302 8.83189079 5.81951889 5.46323926 5.81951889 6.26343986 1.007302 2.48728293 1.007302 0.310629593 14.102228 4.08633773 14.102228 4.96283339 8.83252271 8.33058733 8.83252271 7.45633564 14.102228 11.2324926 14.102228 13.4055556 1.007302"></polygon>
                                        <path d="M15.8517108,13.4047101 L14.3975257,3.45008682 L17.8460348,3.45008682 L18.1999032,6.8704195 C18.2322386,7.19260117 18.2481787,7.49804613 18.2481787,7.79140346 C18.2481787,8.08662043 18.2336049,8.36974978 18.2053683,8.64683531 C18.3256016,8.31210111 18.4444686,8.00014743 18.5601476,7.70911464 C18.6758266,7.41994148 18.7851296,7.16563647 18.8857794,6.94852415 L20.4734052,3.45008682 L23.7338221,3.45008682 L16.6805917,18.1291114 L13.6642848,18.1291114 L15.8517108,13.4047101 Z" id="Fill-2" fill="#042A54"></path>
                                        <path d="M51.4311979,3.81322694 C51.244472,3.64725457 51.0363409,3.50545744 50.7790234,3.43200188 C50.5239832,3.33762543 50.2666657,3.29113457 50.0107146,3.29113457 C49.5926307,3.29113457 49.1959519,3.40875645 48.8010949,3.64725457 C48.4044161,3.88249833 48.0091037,4.24140778 47.6142467,4.69236913 L47.7772903,3.43200188 L44.5660597,3.43200188 L42.7716691,13.8877966 L46.0311751,13.8877966 L46.9160739,8.7328899 C47.0317529,7.9936852 47.2426165,7.47159283 47.5431997,7.1140781 C47.8456046,6.75981774 48.2431942,6.59198573 48.7305034,6.59198573 C48.9395453,6.59198573 49.150409,6.6389415 49.3603618,6.71239706 C49.5443552,6.78259826 49.7315365,6.87836944 49.8941247,6.99552641 L51.4311979,3.81322694 Z" id="Fill-4" fill="#042A54"></path>
                                        <path d="M22.0702762,18.1314359 L24.6029174,3.45984991 L27.7025679,3.45984991 L27.6574804,4.27158035 C27.9990522,3.93312687 28.3419903,3.6862604 28.6803741,3.52586693 C29.0201242,3.36872782 29.3721709,3.28969335 29.7324153,3.28969335 C30.7493885,3.28969335 31.4858173,3.76994395 31.9430682,4.72951533 C32.400319,5.68908671 32.4900385,6.96665558 32.2149593,8.55803777 C31.9430682,10.1429112 31.3842567,11.4288485 30.5421683,12.4135249 C29.6987136,13.3982013 28.7609851,13.8905396 27.7339925,13.8905396 C27.3787578,13.8905396 27.0727094,13.822198 26.8131148,13.68505 C26.555342,13.5502265 26.33036,13.3382281 26.1399906,13.0532392 L25.2601016,18.1314359 L22.0702762,18.1314359 Z M26.5612625,10.596662 C26.6637341,10.7235821 26.7757697,10.8160989 26.8932704,10.8760721 C27.0139591,10.9392997 27.1396575,10.9676591 27.2767417,10.9676591 C27.6770638,10.9676591 28.0209128,10.7565906 28.3082886,10.3344536 C28.597486,9.91371129 28.806528,9.31304936 28.9427013,8.5329327 C29.0770529,7.76443876 29.0724986,7.15773302 28.9304047,6.71095584 C28.7878554,6.26324885 28.5332705,6.03962781 28.1625512,6.03962781 C28.0272888,6.03962781 27.8861058,6.07868013 27.7390022,6.15864441 C27.5950866,6.23860869 27.4356864,6.35994984 27.2649005,6.52545731 L26.5612625,10.596662 Z" id="Fill-6" fill="#042A54"></path>
                                        <path d="M36.3228842,9.44843074 C36.3105876,9.51723722 36.2937368,9.61626275 36.2818956,9.74132317 C36.2686882,9.86638359 36.2614013,9.97703184 36.2614013,10.0760574 C36.2614013,10.5925708 36.4294546,10.9538048 36.7632842,11.1630137 C37.09848,11.369898 37.4969804,11.4745025 37.9596964,11.4745025 C38.6683441,11.4745025 39.3455671,11.3819857 39.9859004,11.1936977 C40.6271446,11.0049448 41.2151035,10.7441311 41.7461339,10.4098618 L41.3986415,12.9594206 C41.2073613,13.0984283 40.9760033,13.2360412 40.7009241,13.3773734 C40.4299438,13.5149864 40.1211629,13.6423714 39.7805019,13.7525547 C39.4398409,13.8632029 39.0795965,13.9533952 38.6970361,14.0235964 C38.3153865,14.0947274 37.9187078,14.1282009 37.509277,14.1282009 C36.8279551,14.1282009 36.2081161,14.0175526 35.6488492,13.7962561 C35.0900377,13.5721702 34.6059165,13.2504534 34.2033172,12.8338953 C33.802995,12.4154775 33.4896598,11.9026833 33.263767,11.2983021 C33.0360524,10.693456 32.9249277,10.0123649 32.9249277,9.26200239 C32.9249277,8.48049101 33.0415176,7.73198814 33.2737864,7.01416924 C33.5051444,6.29635034 33.8403402,5.66035536 34.275275,5.10246502 C34.7129424,4.54503959 35.2385075,4.10384132 35.852426,3.77654565 C36.4667998,3.44924999 37.1617846,3.28606707 37.9392021,3.28606707 C38.7184413,3.28606707 39.378358,3.39950477 39.9253284,3.63056435 C40.4695661,3.8602292 40.9154312,4.18845469 41.2560922,4.61245134 C41.5967531,5.03737781 41.8404077,5.55761055 41.992521,6.17965828 C42.1409909,6.79891655 42.2165921,7.50046365 42.2165921,8.27918558 C42.2165921,8.51489425 42.2097607,8.72038386 42.1960978,8.89472459 C42.1838012,9.06906532 42.1642178,9.25316913 42.1359812,9.44843074 L36.3228842,9.44843074 Z M38.9406907,7.46327096 C38.9566307,7.39353467 38.9620958,7.31543002 38.9620958,7.22291321 L38.9620958,6.98302036 C38.9620958,6.84540741 38.9511655,6.69384721 38.9320375,6.53345373 C38.9115432,6.37399008 38.8632677,6.22428951 38.7885773,6.08528183 C38.7120652,5.94534434 38.6159697,5.83097682 38.4916376,5.74031964 C38.3686717,5.65012737 38.2079052,5.60456632 38.000685,5.60456632 C37.9319152,5.60456632 37.8330871,5.6194434 37.7032898,5.64594319 C37.5744034,5.67476752 37.4391409,5.75054763 37.2934036,5.87746768 C37.1517652,6.00299301 37.0124039,6.18942136 36.8744088,6.44186674 C36.7382356,6.68966303 36.6366749,7.03230068 36.5692714,7.46327096 L38.9406907,7.46327096 Z" id="Fill-8" fill="#042A54"></path>
                                        <path d="M83.5016039,12.9411497 C83.0024536,13.3744445 82.5105902,13.6970911 82.0278353,13.9095543 C81.5455359,14.1192281 81.0632365,14.226622 80.5777491,14.226622 C79.6614258,14.226622 79.0311119,13.9146683 78.6877184,13.2889013 C78.3461465,12.6631343 78.2864853,11.7077471 78.5078239,10.4236695 L79.7229087,3.39657584 L83.0179382,3.39657584 L81.8880186,9.9410944 C81.7955665,10.4655113 81.8010316,10.8360435 81.9066912,11.0591996 C82.0100736,11.2818908 82.2213927,11.393004 82.5433811,11.393004 C82.6923064,11.393004 82.8576271,11.36232 83.0425314,11.3000223 C83.2251584,11.2391193 83.4332895,11.1493919 83.6555389,11.0354893 L84.978105,3.39657584 L88.2731345,3.39657584 L87.1450366,9.92110333 C87.0639703,10.3939154 87.0730788,10.7016849 87.1728178,10.8420873 C87.2721014,10.9843493 87.5007268,11.0671031 87.8627929,11.0936029 L86.6968944,14.0462375 C86.4477747,14.1103949 86.2173276,14.1568857 86.0082856,14.1847802 C85.7965111,14.2117449 85.6015874,14.226622 85.4212375,14.226622 C84.8810986,14.226622 84.4552724,14.1224825 84.1401155,13.9132736 C83.8245031,13.7035998 83.6127286,13.3790936 83.5016039,12.9411497" id="Fill-10" fill="#042A54"></path>
                                        <path d="M71.9468668,8.72294085 C72.0875944,7.92608749 72.2989135,7.27661015 72.6067835,6.81681554 C72.9146536,6.35981037 73.2457506,6.11759298 73.6246676,6.11759298 C73.9999411,6.11759298 74.2604466,6.35981037 74.4029959,6.81681554 C74.5432681,7.27661015 74.5432681,7.92608749 74.4029959,8.72294085 C74.2604466,9.54118001 74.0468503,10.1929819 73.7394357,10.650452 C73.4333873,11.1093168 73.1032013,11.3506043 72.7028791,11.3506043 C72.347189,11.3506043 72.0875944,11.1093168 71.9468668,10.650452 C71.803862,10.1929819 71.803862,9.54118001 71.9468668,8.72294085 M77.1897665,4.72054259 C76.5526212,3.73168197 75.5137875,3.22679122 74.0951258,3.25003665 C72.7028791,3.22679122 71.4969028,3.73168197 70.5049783,4.72054259 C69.5130537,5.68476306 68.875453,7.0092877 68.5917206,8.72294085 C68.2847614,10.4100942 68.4733091,11.7355487 69.109999,12.7234795 C69.7731037,13.7132699 70.8119375,14.1949152 72.2055505,14.1949152 C73.6246676,14.1949152 74.8279112,13.7132699 75.8207467,12.7234795 C76.7876226,11.7355487 77.4279559,10.4100942 77.7349151,8.72294085 C78.0400526,7.0092877 77.8524159,5.68476306 77.1897665,4.72054259" id="Fill-12" fill="#042A54"></path>
                                        <path d="M93.4890273,11.181889 L94.3384026,6.27384876 C94.1730818,6.20132302 94.0350868,6.15297253 93.9276055,6.12600783 C93.8173917,6.10043785 93.7212961,6.08788532 93.638408,6.08788532 C93.1952755,6.08788532 92.8227345,6.30685728 92.5194188,6.74154683 C92.2142813,7.17856093 91.991121,7.81316119 91.8494826,8.64395288 C91.7001018,9.49799 91.7092104,10.1330552 91.8708877,10.5524027 C92.0330205,10.973145 92.3468111,11.181889 92.8154477,11.181889 L93.4890273,11.181889 Z M96.2653231,13.9504198 L93.0586468,13.9504198 C91.9929427,13.9504198 91.2073275,13.8723152 90.7013458,13.7170357 C90.1935424,13.5617562 89.7617956,13.3037319 89.4061055,12.9387787 C88.9411124,12.4655017 88.6387074,11.8504276 88.4952473,11.0949511 C88.3513317,10.3404044 88.3736477,9.4329028 88.5567302,8.37616552 C88.8190574,6.8531249 89.3796906,5.61553817 90.2413624,4.66340533 C91.0989354,3.70894794 92.0771971,3.23334643 93.1679498,3.23334643 C93.4890273,3.23334643 93.7877888,3.27379348 94.0564919,3.35375776 C94.326106,3.43418695 94.5661171,3.55227374 94.7815351,3.70755322 L95.3612963,0.346728844 L98.6135155,0.346728844 L96.2653231,13.9504198 Z" id="Fill-14" fill="#042A54"></path>
                                        <polygon id="Fill-16" fill="#042A54" points="66.7521514 13.9504198 62.9770997 13.9504198 65.1936731 0.353237565 68.9687248 0.353237565"></polygon>
                                        <g id="Group-20" transform="translate(51.661599, 0.000000)">
                                            <mask id="mask-2" fill="white">
                                                <use xlink:href="#path-1"></use>
                                            </mask>
                                            <g id="Clip-19"></g>
                                            <path d="M10.4535095,12.7119033 C9.89651976,13.1461279 9.21018812,13.5008532 8.39497004,13.7779387 C7.57929653,14.0550242 6.6943978,14.1944968 5.73890756,14.1944968 C4.90456146,14.1944968 4.14171773,14.0782697 3.45128722,13.8486048 C2.76176757,13.61894 2.17471947,13.2530569 1.69105377,12.7518854 C1.2078435,12.2521086 0.832569928,11.6026313 0.568421053,10.8039183 C0.302450462,10.0052053 0.169920595,9.04377429 0.169920595,7.92009017 C0.169920595,7.04141289 0.306093894,6.13856036 0.577074206,5.21199749 C0.850331662,4.28450481 1.25702984,3.44023076 1.80126761,2.67545609 C2.34459452,1.91068142 3.01544158,1.2835197 3.81062078,0.796760383 C4.60488912,0.309071247 5.53259818,0.0654591329 6.59465883,0.0654591329 C7.13844117,0.0654591329 7.70135153,0.159835582 8.2847562,0.348588479 C8.86770544,0.536876467 9.4055672,0.838602158 9.89651976,1.25609009 C10.3851952,1.67264821 10.7941705,2.20822293 11.1198023,2.86141954 C11.4436124,3.51461614 11.6189526,4.31518877 11.6453675,5.26360235 L8.02607247,5.81079979 C8.04019078,5.51372318 8.03062676,5.2017695 7.99738044,4.87633347 C7.96367869,4.55136235 7.88989917,4.26079447 7.77786362,4.0037 C7.66673892,3.74707045 7.5146256,3.53460721 7.32334538,3.36538048 C7.13297602,3.19615374 6.87930201,3.11200528 6.56186794,3.11200528 C6.24534471,3.11200528 5.97937412,3.19336429 5.76122359,3.3560823 C5.5453502,3.5178705 5.36181227,3.72614956 5.21789668,3.97580549 C5.07215937,4.22732105 4.95739124,4.50254695 4.86994885,4.80008846 C4.78478361,5.09762997 4.71510296,5.38354877 4.66272861,5.65366067 C4.57118736,6.07440297 4.49376442,6.54628521 4.43501406,7.06837759 C4.37626371,7.59232959 4.34074024,8.07536964 4.32662194,8.52354155 C4.30066248,9.29714948 4.46552781,9.89781141 4.82303965,10.3255273 C5.17872978,10.7527784 5.7880939,10.9657065 6.64657775,10.9657065 C7.48001299,10.9657065 8.26244017,10.8215848 8.99659187,10.5300871 C9.72937729,10.2395192 10.4011352,9.85643454 11.0086776,9.38222776 L10.4535095,12.7119033 Z" id="Fill-18" fill="#042A54" mask="url(#mask-2)"></path>
                                        </g>
                                    </g>
                                </g>
                            </g>
                        </g>
                    </g>
                </g>
            </g>
        </g>
    </g>
</svg>