<?xml version="1.0" encoding="UTF-8"?>
<svg width="72px" height="14px" viewBox="0 0 72 14" version="1.1" xmlns="http://www.w3.org/2000/svg" xmlns:xlink="http://www.w3.org/1999/xlink">
    <title>logo_hyperauth/blue</title>
    <g id="ch01_Login" stroke="none" stroke-width="1" fill="none" fill-rule="evenodd">
        <g id="Ch2_Forgot_password_02" transform="translate(-605.000000, -216.000000)" fill="#042A54">
            <g id="logo_hyperauth/blue" transform="translate(605.000000, 216.000000)">
                <path d="M22.5728748,2.54010258 C23.3531132,2.54010258 23.9181135,2.91092309 24.2689238,3.65184617 C24.619734,4.39276925 24.6885683,5.37923079 24.4775231,6.60800002 C24.2689238,7.83174361 23.8401944,8.82466668 23.1941305,9.58497437 C22.5470182,10.3452821 21.8275776,10.7254359 21.0396521,10.7254359 C20.7671102,10.7254359 20.5323049,10.6726667 20.3331397,10.5667692 C20.1353722,10.4626667 19.9627623,10.2989744 19.8167079,10.0789231 L19.1416426,14 L16.6943565,14 L18.6374402,2.6714872 L21.0155426,2.6714872 L20.9809508,3.29825643 C21.2430103,3.03692309 21.506118,2.84630771 21.7657316,2.72246155 C22.0263934,2.60112822 22.2964894,2.54010258 22.5728748,2.54010258 Z M13.4534494,2.66394873 L13.724943,5.30492309 C13.7497513,5.55369232 13.7619807,5.78953848 13.7619807,6.0160513 C13.7619807,6.24400002 13.7507995,6.4626154 13.729136,6.67656412 L13.8665425,6.30188463 C13.8892543,6.24157694 13.9118569,6.18232373 13.9343285,6.12410258 L14.0539779,5.82178873 L14.1554194,5.58006976 L15.4692109,2.66394873 L17.970656,2.66394873 L12.5593024,13.9982051 L10.2451425,13.9982051 L11.9233714,10.3503077 L10.8076969,2.66394873 L13.4534494,2.66394873 Z M28.8692557,2.53730258 C29.4671007,2.53730258 29.9733996,2.62489232 30.3930442,2.80330258 C30.8105923,2.98063591 31.1526673,3.23407181 31.4140279,3.56145643 C31.6753886,3.88955899 31.8623244,4.2912513 31.9790282,4.77155899 C32.0929367,5.24971284 32.1509392,5.79140514 32.1509392,6.3926872 C32.1509392,6.5746872 32.145698,6.73335386 32.1352156,6.86796925 C32.1257815,7.00258463 32.1107568,7.14473848 32.0890932,7.29550771 L27.6291902,7.29550771 L27.6133356,7.39229617 C27.6105621,7.41120963 27.6077996,7.43148046 27.6051626,7.45305819 L27.5977431,7.52166155 C27.5876101,7.61822566 27.5820195,7.70366155 27.5820195,7.78012309 C27.5820195,8.17894361 27.7109528,8.45786668 27.9670722,8.61940514 C28.2242399,8.77914873 28.529976,8.85991796 28.8849792,8.85991796 C29.4286653,8.85991796 29.9482419,8.78848207 30.4395161,8.64309745 C30.9314891,8.49735386 31.3825808,8.29596925 31.789996,8.03786668 L31.5233941,10.0064821 C31.3766408,10.1138154 31.1991392,10.2200718 30.9880939,10.3292 C30.7801934,10.4354564 30.5432916,10.5338154 30.281931,10.6188923 C30.0205703,10.7043282 29.7441849,10.7739692 29.4506783,10.8281744 C29.1578705,10.8830975 28.8535321,10.9089436 28.5394101,10.9089436 C28.0166888,10.9089436 27.5411382,10.8235077 27.1120595,10.6526359 C26.6833302,10.4796103 26.3119045,10.2312 26.0030238,9.90955899 C25.69589,9.58648207 25.4554941,9.19053335 25.2821855,8.72386668 C25.1074792,8.25684104 25.0222225,7.73094361 25.0222225,7.15155899 C25.0222225,6.54812309 25.1116721,5.97017437 25.2898726,5.41591796 C25.4673742,4.86166155 25.7245419,4.37058463 26.058231,3.9398154 C26.3940165,3.50940514 26.7972387,3.16873848 27.2682469,2.91602053 C27.7396046,2.66330258 28.2728083,2.53730258 28.8692557,2.53730258 Z M54.0687814,2.55769231 L53.2018886,7.61097436 C53.1309578,8.01589744 53.1351508,8.302 53.2162145,8.47430769 C53.2955312,8.64625641 53.4576587,8.73205128 53.7046934,8.73205128 C53.8189513,8.73205128 53.9457881,8.70835897 54.0876497,8.66025641 C54.2277641,8.61323077 54.3874457,8.54394872 54.5579591,8.456 L55.5726534,2.55769231 L58.1006539,2.55769231 L57.2351587,7.59553846 C57.1729633,7.96061538 57.1799515,8.19825641 57.2564729,8.30666667 C57.3326449,8.41651282 57.50805,8.48041026 57.7858331,8.50087179 L56.8913367,10.7807179 C56.700208,10.8302564 56.5234052,10.8661538 56.3630248,10.8876923 C56.2005479,10.9085128 56.0509993,10.92 55.9126319,10.92 C55.4982285,10.92 55.1715277,10.8395897 54.9297341,10.6780513 C54.6875912,10.5161538 54.5251143,10.2655897 54.4398576,9.9274359 C54.0569013,10.262 53.6795357,10.5111282 53.3091583,10.6751795 C52.9391303,10.8370769 52.5691023,10.92 52.1966284,10.92 C51.4936102,10.92 51.0100231,10.6791282 50.746566,10.1959487 C50.4845065,9.71276923 50.4387334,8.97507692 50.608548,7.98358974 L51.5407809,2.55769231 L54.0687814,2.55769231 Z M63.5182239,0.0215384615 L63.1019296,2.50731702 L64.5830227,2.50731702 L64.2497467,4.56062884 L62.7534136,4.56062884 L62.2541011,7.53036784 L62.2359033,7.67202584 L62.2032025,7.89397783 L62.1909977,8.00047326 C62.1881999,8.03159478 62.186724,8.05833932 62.186724,8.08070691 C62.186724,8.336164 62.2757581,8.5011048 62.4538261,8.57271325 C62.630691,8.64512628 62.7975295,8.6809305 62.9527375,8.6809305 C63.1071433,8.6809305 63.2483144,8.67006855 63.3758496,8.64834464 L63.557477,8.61445131 L63.7171467,8.58116143 L63.3690317,10.7342423 C63.1460456,10.7780924 62.905012,10.8199311 62.6451289,10.8585514 C62.3852458,10.8975739 62.0591888,10.9172864 61.6713694,10.9172864 C61.3605524,10.9172864 61.0986641,10.9007923 60.8812927,10.8678041 C60.6655256,10.8340114 60.4778322,10.7845292 60.3166084,10.7173459 C60.1557857,10.6509673 60.0178231,10.5693015 59.9011163,10.4755669 C59.7844095,10.3810276 59.676927,10.2724081 59.5754603,10.1497082 C59.4531388,10.0048821 59.3460573,9.82747021 59.2514086,9.61626553 C59.1571608,9.40546314 59.1098364,9.11017888 59.1098364,8.73121733 L59.1098364,8.60650599 C59.1098364,8.56879087 59.1125435,8.52179783 59.1194805,8.46552687 L59.1526594,8.22553619 L59.2606328,7.53036784 L59.7595442,4.56062884 L58.6285714,4.56062884 L58.7769615,3.55811061 L62.7690547,0.0215384615 L63.5182239,0.0215384615 Z M4.56709331,0.777777794 L3.95316633,4.4934811 L6.53765083,4.4934811 L7.15088916,0.777777794 L10.0466412,0.777777794 L8.37943175,10.8888889 L5.48230245,10.8888889 L6.15304263,6.81994071 L3.56924678,6.81994071 L2.89678498,10.8888889 L0,10.8888889 L1.669964,0.777777794 L4.56709331,0.777777794 Z M68.7957591,0.0215384615 L68.1643531,3.95924744 C68.4265214,3.7644985 68.6858135,3.61049825 68.9417682,3.49712821 C69.3117962,3.33523077 69.6818242,3.25230769 70.054298,3.25230769 C70.7573163,3.25230769 71.2409034,3.49317949 71.5043605,3.97635897 C71.76642,4.45953846 71.812193,5.19723077 71.6423785,6.18871795 L71.0742335,10.8261457 L68.5462331,10.8261457 L69.0462726,6.57623077 L69.0850077,6.31051558 C69.1143725,6.03565411 69.0978829,5.83227501 69.0347119,5.698 C68.9553953,5.52605128 68.7932678,5.44025641 68.5462331,5.44025641 C68.4319751,5.44025641 68.3051383,5.46394872 68.1632768,5.51205128 C68.0812816,5.53957077 67.9925854,5.57471222 67.8989388,5.6167562 L66.9913724,10.8261457 L64.2045113,10.8261457 L64.8177613,7.72530769 L65.9782775,0.0215384615 L68.7957591,0.0215384615 Z M48.1358575,0.538461549 L49.8482244,10.9085121 L46.9911479,10.9085121 L46.7087141,8.71517837 L43.5219265,8.71517837 L42.2791504,10.9085121 L39.3961594,10.9085121 L44.8846443,0.538461549 L48.1358575,0.538461549 Z M38.1307173,2.5412154 C38.2878132,2.5412154 38.44558,2.56418976 38.6025865,2.61068986 L38.7201764,2.64998463 C38.8846916,2.69724959 39.0230007,2.78115984 39.1474385,2.88198012 L39.2205353,2.94434361 L38.0412677,5.40152309 C37.9165274,5.31106155 37.7729188,5.23711284 37.631756,5.18290771 C37.4706768,5.12618976 37.3088988,5.08993335 37.1485184,5.08993335 C36.7746468,5.08993335 36.4696096,5.21952309 36.2375996,5.49306155 C36.027952,5.74401727 35.8751923,6.09999523 35.7824706,6.59147185 L35.0775496,10.723318 L32.5768033,10.723318 L33.9534892,2.64998463 L36.4171977,2.64998463 L36.292108,3.62316412 C36.5950487,3.27495899 36.8983389,2.99783079 37.2026773,2.81618976 C37.5056181,2.63203591 37.8099565,2.5412154 38.1307173,2.5412154 Z M21.3684494,4.66343591 C21.2646738,4.66343591 21.1563559,4.69358976 21.0434956,4.75533335 C20.9330812,4.81707694 20.8107868,4.91076925 20.6797571,5.03856412 L20.1399145,8.18210258 C20.2185324,8.28010258 20.3044879,8.35153848 20.3946364,8.39784617 C20.4872307,8.44666668 20.5836686,8.46856412 20.6888418,8.46856412 C20.9959755,8.46856412 21.2597821,8.30558976 21.4802614,7.97964104 C21.7021385,7.65476925 21.8625189,7.19097437 21.9669933,6.5886154 C22.07007,5.99523079 22.0665759,5.52676925 21.9575591,5.18179489 C21.848193,4.83610258 21.6528713,4.66343591 21.3684494,4.66343591 Z M46.2484032,2.6923077 L44.3081943,6.62593143 L46.718797,6.62593143 L46.2484032,2.6923077 Z M28.9164264,4.32750771 C28.8636651,4.32750771 28.7878425,4.33899489 28.6882599,4.35945643 C28.5893761,4.38171284 28.4856006,4.44022566 28.3737885,4.53822566 C28.2651212,4.63514873 28.1582009,4.77909745 28.0523289,4.97402053 C27.9478545,5.16535386 27.8699355,5.42991796 27.8182224,5.7626872 L29.6376141,5.7626872 C29.6498435,5.70884104 29.6540365,5.64853335 29.6540365,5.57709745 L29.6540365,5.39186668 C29.6540365,5.28561027 29.6456506,5.16858463 29.6309752,5.04473848 C29.6152517,4.92161027 29.5782139,4.80602053 29.5209102,4.6986872 C29.4622089,4.59063591 29.3884829,4.50232822 29.2930932,4.43232822 C29.1987518,4.3626872 29.0754091,4.32750771 28.9164264,4.32750771 Z" id="logo_hyperauth"></path>
            </g>
        </g>
    </g>
</svg>