<?xml version="1.0" encoding="UTF-8"?>
<svg width="133px" height="26px" viewBox="0 0 133 26" version="1.1" xmlns="http://www.w3.org/2000/svg" xmlns:xlink="http://www.w3.org/1999/xlink">
    <title>Shape</title>
    <g id="Symbols" stroke="none" stroke-width="1" fill="none" fill-rule="evenodd">
        <g id="GNB/gnb" transform="translate(-74.000000, -20.000000)" fill="#FFFFFF">
            <g id="ico+logo_hyperauth" transform="translate(30.000000, 20.000000)">
                <path d="M85.6971159,4.71733336 C87.1383897,4.71733336 88.1820707,5.40600003 88.8300953,6.78200003 C89.4781198,8.15800003 89.6052721,9.99000003 89.2154246,12.272 C88.8300953,14.5446667 88.0381369,16.3886667 86.8447132,17.8006667 C85.6493531,19.2126667 84.3203864,19.9186667 82.8649129,19.9186667 C82.3614675,19.9186667 81.92773,19.8206667 81.5598276,19.624 C81.1945069,19.4306667 80.8756582,19.1266667 80.6058631,18.718 L79.3588676,26 L74.8381863,26 L78.4274937,4.96133336 L82.8203774,4.96133336 L82.7564785,6.12533336 C83.2405606,5.64000003 83.726579,5.28600003 84.206143,5.05600003 C84.6876434,4.8306667 85.1865707,4.71733336 85.6971159,4.71733336 Z M68.8515107,4.94733336 L69.3530197,9.85200003 C69.3988462,10.314 69.4214367,10.752 69.4214367,11.1726667 C69.4214367,11.596 69.4007825,12.002 69.360765,12.3993334 L69.6145854,11.7035 C69.6565392,11.5915 69.6982913,11.4814584 69.7398013,11.3733334 L69.9608203,10.8118934 L69.9608203,10.8118934 L70.1482053,10.3629867 L70.1482053,10.3629867 L72.5750702,4.94733336 L77.1957952,4.94733336 L67.1998225,25.9966667 L62.9250549,25.9966667 L66.0251167,19.222 L63.9642178,4.94733336 L68.8515107,4.94733336 Z M97.3279306,4.71213336 C98.4322832,4.71213336 99.3675299,4.87480003 100.142707,5.20613336 C100.914011,5.5354667 101.545899,6.00613336 102.028691,6.61413336 C102.511482,7.2234667 102.856794,7.9694667 103.072372,8.8614667 C103.282786,9.7494667 103.389929,10.7554667 103.389929,11.8721334 C103.389929,12.2101334 103.380248,12.5048 103.360884,12.7548 C103.343457,13.0048 103.315703,13.2688 103.275686,13.5488 L95.0372541,13.5488 L95.0079671,13.72855 C95.0028439,13.763675 94.9977409,13.8013209 94.9928698,13.8413938 L94.9791643,13.9688 C94.9604464,14.1481334 94.9501193,14.3068 94.9501193,14.4488 C94.9501193,15.1894667 95.1882877,15.7074667 95.6613973,16.0074667 C96.1364432,16.3041334 96.7012057,16.4541334 97.3569755,16.4541334 C98.3612845,16.4541334 99.321058,16.3214667 100.228551,16.0514667 C101.137334,15.7808 101.970601,15.4068 102.723187,14.9274667 L102.230714,18.5834667 C101.959628,18.7828 101.631743,18.9801334 101.241896,19.1828 C100.857857,19.3801334 100.420247,19.5628 99.9374558,19.7208 C99.4546646,19.8794667 98.9441194,20.0088 98.4019474,20.1094667 C97.8610664,20.2114667 97.2988857,20.2594667 96.7186326,20.2594667 C95.7530502,20.2594667 94.8746025,20.1008 94.0819988,19.7834667 C93.2900405,19.4621334 92.6039348,19.0008 92.0333633,18.4034667 C91.4660191,17.8034667 91.0219545,17.0681334 90.7018148,16.2014667 C90.3790934,15.3341334 90.2216054,14.3574667 90.2216054,13.2814667 C90.2216054,12.1608 90.3868387,11.0874667 90.7160146,10.0581334 C91.0438995,9.02880003 91.5189454,8.11680003 92.1353433,7.31680003 C92.7556138,6.5174667 93.5004548,5.88480003 94.3705117,5.4154667 C95.241214,4.94613336 96.2261598,4.71213336 97.3279306,4.71213336 Z M143.877054,4.71000002 L142.275711,14.0946667 C142.144686,14.8466667 142.152431,15.378 142.302174,15.698 C142.44869,16.0173334 142.748175,16.1766667 143.204503,16.1766667 C143.415563,16.1766667 143.649859,16.1326667 143.911908,16.0433334 C144.170731,15.956 144.465698,15.8273334 144.780674,15.664 L146.65504,4.71000002 L151.324819,4.71000002 L149.726057,14.066 C149.611168,14.744 149.624077,15.1853334 149.765429,15.3866667 C149.906136,15.5906667 150.230148,15.7093334 150.743275,15.7473334 L149.090941,19.9813334 C148.737884,20.0733334 148.41129,20.14 148.115032,20.18 C147.814901,20.2186667 147.538651,20.24 147.283056,20.24 C146.517561,20.24 145.914072,20.0906667 145.467426,19.7906667 C145.020134,19.49 144.720003,19.0246667 144.562515,18.3966667 C143.855109,19.018 143.158031,19.4806667 142.473862,19.7853334 C141.790338,20.086 141.106814,20.24 140.418772,20.24 C139.120141,20.24 138.226848,19.7926667 137.740184,18.8953334 C137.256102,17.998 137.171549,16.628 137.485234,14.7866667 L139.207276,4.71000002 L143.877054,4.71000002 Z M161.332275,3.03353804e-08 L160.563287,4.61644592 L163.299195,4.61644592 L162.68356,8.4297393 L159.9195,8.4297393 L158.997159,13.9449689 L158.963544,14.208048 L158.903138,14.6202446 L158.880593,14.8180218 C158.875425,14.8758189 158.872699,14.9254873 158.872699,14.9670271 C158.872699,15.4414475 159.037164,15.7477661 159.366095,15.8807532 C159.692804,16.0152345 160.000992,16.0817281 160.287696,16.0817281 C160.572918,16.0817281 160.833692,16.0615559 161.069278,16.0212115 L161.404784,15.9582668 L161.699729,15.8964427 L161.056684,19.8950215 C160.644779,19.9764574 160.199536,20.0541578 159.719474,20.1258811 C159.239412,20.1983516 158.637113,20.2349605 157.920724,20.2349605 C157.346576,20.2349605 156.86281,20.2043286 156.461277,20.1430649 C156.062707,20.0803069 155.715996,19.9884113 155.418179,19.8636425 C155.121104,19.7403679 154.866257,19.5887029 154.650673,19.4146242 C154.43509,19.2390514 154.236546,19.0373293 154.049114,18.8094582 C153.823159,18.5404955 153.625356,18.2110161 153.450519,17.8187789 C153.276422,17.4272887 153.189003,16.8789037 153.189003,16.1751179 L153.189003,15.9435112 C153.189003,15.8734688 153.194004,15.786196 153.206818,15.6816928 L153.268107,15.2359958 L153.467558,13.9449689 L154.389158,8.4297393 L152.3,8.4297393 L152.574109,6.56791973 L159.948393,3.03353804e-08 L161.332275,3.03353804e-08 Z M52.4364362,1.44444447 L51.3023767,8.34503634 L56.0764939,8.34503634 L57.2092814,1.44444447 L62.5583788,1.44444447 L59.4786725,20.2222223 L54.1270309,20.2222223 L55.3660371,12.6656042 L50.593192,12.6656042 L49.3510056,20.2222223 L44,20.2222223 L47.0847946,1.44444447 L52.4364362,1.44444447 Z M171.081055,2.48689958e-14 L169.914708,7.31288811 C170.398991,6.9512115 170.877961,6.66521103 171.350766,6.45466667 C172.03429,6.154 172.717814,6 173.405856,6 C174.704487,6 175.59778,6.44733333 176.084444,7.34466667 C176.568526,8.242 176.653079,9.612 176.339394,11.4533333 L175.289904,20.0656992 L170.620125,20.0656992 L171.543809,12.173 L171.615361,11.6795289 C171.669605,11.1690719 171.639145,10.7913679 171.522454,10.542 C171.375938,10.2226667 171.076453,10.0633333 170.620125,10.0633333 C170.409065,10.0633333 170.174769,10.1073333 169.91272,10.1966667 C169.761256,10.2477743 169.597415,10.313037 169.424429,10.3911187 L167.747952,20.0656992 L162.6,20.0656992 L163.732809,14.307 L165.87654,2.48689958e-14 L171.081055,2.48689958e-14 Z M132.917626,1.00000002 L136.080748,20.2586654 L130.803093,20.2586654 L130.281375,16.1853313 L124.39467,16.1853313 L122.098986,20.2586654 L116.773461,20.2586654 L126.911912,1.00000002 L132.917626,1.00000002 Z M114.435908,4.71940003 C114.726099,4.71940003 115.01753,4.7620667 115.307556,4.84842403 L115.52477,4.92140003 C115.828666,5.00917781 116.084154,5.16501114 116.314018,5.35224879 L116.449044,5.4680667 L114.270675,10.0314 C114.040252,9.86340003 113.774975,9.7260667 113.514216,9.62540003 C113.216667,9.5200667 112.917827,9.45273336 112.621569,9.45273336 C111.930945,9.45273336 111.367473,9.69340003 110.938899,10.2014 C110.551634,10.6674606 110.269452,11.3285626 110.098175,12.2413049 L108.796029,19.9147334 L104.176595,19.9147334 L106.71964,4.92140003 L111.270657,4.92140003 L111.039588,6.72873336 C111.599187,6.0820667 112.159432,5.56740003 112.721612,5.2300667 C113.281211,4.8880667 113.843392,4.71940003 114.435908,4.71940003 Z M83.4722746,8.6606667 C83.2805781,8.6606667 83.0804908,8.7166667 82.8720128,8.83133336 C82.6680529,8.94600003 82.4421479,9.12000003 82.2001068,9.35733336 L81.2028977,15.1953334 C81.3481223,15.3773334 81.5069013,15.51 81.6734255,15.596 C81.8444678,15.6866667 82.0226101,15.7273334 82.2168883,15.7273334 C82.7842326,15.7273334 83.2715419,15.4246667 83.6788163,14.8193334 C84.0886725,14.216 84.3849307,13.3546667 84.5779181,12.236 C84.7683237,11.134 84.7618693,10.264 84.5604911,9.62333336 C84.3584675,8.98133336 83.997665,8.6606667 83.4722746,8.6606667 Z M129.431078,5.00000002 L125.847081,12.3053012 L130.3,12.3053012 L129.431078,5.00000002 Z M97.4150654,8.03680003 C97.3176035,8.03680003 97.1775424,8.05813336 96.9935912,8.09613336 C96.8109309,8.1374667 96.6192344,8.24613336 96.4126927,8.42813336 C96.21196,8.60813336 96.0144545,8.8754667 95.8188853,9.2374667 C95.6258979,9.59280003 95.4819642,10.0841334 95.3864387,10.7021334 L98.7472593,10.7021334 C98.7698498,10.6021334 98.7775951,10.4901334 98.7775951,10.3574667 L98.7775951,10.0134667 C98.7775951,9.81613336 98.7621045,9.59880003 98.7349959,9.36880003 C98.705951,9.14013336 98.637534,8.9254667 98.5316814,8.72613336 C98.423247,8.5254667 98.2870586,8.3614667 98.1108527,8.2314667 C97.9365832,8.10213336 97.7087419,8.03680003 97.4150654,8.03680003 Z" id="Shape"></path>
            </g>
        </g>
    </g>
</svg>