<?xml version="1.0" encoding="UTF-8"?>
<svg width="134.9px" height="40px" viewBox="0 0 106 30" version="1.1" xmlns="http://www.w3.org/2000/svg" xmlns:xlink="http://www.w3.org/1999/xlink">
    <title>Logo/Wapl/basic</title>
    <g id="Logo/Wapl/basic" stroke="none" stroke-width="1" fill="none" fill-rule="evenodd">
        <g id="Group" transform="translate(35.000000, 2.000000)" fill="#232D3B">
            <path d="M20.0254972,9 C20.9852299,9 21.7715068,9.74800341 21.8410035,10.6967714 L21.8459969,10.8336163 L21.8459969,20.0016978 C21.8459969,23.5460719 18.9932677,26.4193548 15.4742478,26.4193548 C13.6910592,26.4193548 12.0789567,25.6815703 10.9224284,24.4925391 C9.76704024,25.6815703 8.15493774,26.4193548 6.37174911,26.4193548 C2.85272925,26.4193548 -2.06057393e-13,23.5460719 -2.06057393e-13,20.0016978 L-2.06057393e-13,10.8336163 L0.00499339089,10.6967714 C0.0744901874,9.74800341 0.860767055,9 1.82049975,9 C2.78023243,9 3.5665093,9.74800341 3.6360061,10.6967714 L3.64099949,10.8336163 L3.64099949,20.0016978 C3.64099949,21.5207153 4.86359774,22.7521222 6.37174911,22.7521222 C7.87990048,22.7521222 9.10249873,21.5207153 9.10249873,20.0016978 L9.10249873,10.8336163 L9.10749212,10.6967714 C9.17698891,9.74800341 9.96326578,9 10.9229985,9 C11.8827312,9 12.669008,9.74800341 12.7385048,10.6967714 L12.7434982,10.8336163 L12.7434982,20.0016978 C12.7434982,21.5207153 13.9660965,22.7521222 15.4742478,22.7521222 C16.9823992,22.7521222 18.2049975,21.5207153 18.2049975,20.0016978 L18.2049975,10.8336163 L18.2099908,10.6967714 C18.2794876,9.74800341 19.0657645,9 20.0254972,9 Z M30.9484957,9 C34.9702327,9 38.2304946,12.2837519 38.2304946,16.3344652 L38.2304946,24.5857385 C38.2304946,25.5984169 37.4154291,26.4193548 36.4099949,26.4193548 C35.4502622,26.4193548 34.6639853,25.6713514 34.5944885,24.7225835 L34.5894952,24.5857385 L34.5894952,22.7521222 L27.3074962,22.7521222 L27.3074962,24.5857385 C27.3074962,25.552386 26.5648435,26.344328 25.6228625,26.4143255 L25.4869964,26.4193548 C24.5272637,26.4193548 23.7409869,25.6713514 23.6714901,24.7225835 L23.6664967,24.5857385 L23.6664967,16.3344652 C23.6664967,12.2837519 26.9267587,9 30.9484957,9 Z M47.3329934,9 C51.3547304,9 54.6149924,12.2837519 54.6149924,16.3344652 C54.6149924,20.3851785 51.3547304,23.6689304 47.3329934,23.6689304 C46.006564,23.6689304 44.7629663,23.3117305 43.6918483,22.6876247 L43.6919939,24.5857385 C43.6919939,25.5984169 42.8769284,26.4193548 41.8714941,26.4193548 C40.9117614,26.4193548 40.1254846,25.6713514 40.0559878,24.7225835 L40.0509944,24.5857385 L40.0509944,16.3344652 C40.0509944,12.2837519 43.3112564,9 47.3329934,9 Z M58.2559918,9 C59.2157245,9 60.0020014,9.74800341 60.0714982,10.6967714 L60.0764916,10.8336163 L60.0764916,22.7521222 L65.5379908,22.7521222 C66.4977235,22.7521222 67.2840004,23.5001256 67.3534972,24.4488936 L67.3584906,24.5857385 C67.3584906,25.552386 66.6158379,26.344328 65.6738569,26.4143255 L65.5379908,26.4193548 L58.2559918,26.4193548 C57.2505576,26.4193548 56.4354921,25.5984169 56.4354921,24.5857385 L56.4354921,10.8336163 L56.4404855,10.6967714 C56.5099823,9.74800341 57.2962592,9 58.2559918,9 Z M47.3329934,12.6672326 C45.3221249,12.6672326 43.6919939,14.3091086 43.6919939,16.3344652 C43.6919939,18.3598218 45.3221249,20.0016978 47.3329934,20.0016978 C49.3438619,20.0016978 50.9739929,18.3598218 50.9739929,16.3344652 C50.9739929,14.3091086 49.3438619,12.6672326 47.3329934,12.6672326 Z M30.9484957,12.6672326 C28.9376272,12.6672326 27.3074962,14.3091086 27.3074962,16.3344652 L27.3074962,19.0848896 L34.5894952,19.0848896 L34.5894952,16.3344652 C34.5894952,14.3091086 32.9593642,12.6672326 30.9484957,12.6672326 Z" id="Shape-Copy-5"></path>
            <path d="M14.2967691,1.63883588 C14.7157972,1.63883588 15.0948194,1.73478479 15.4299264,1.9268441 C15.7631279,2.11781128 16.0278431,2.37891062 16.2219124,2.70764393 C16.3882611,2.98942119 16.4850557,3.30298046 16.5126329,3.64791575 L16.520655,3.82299618 L16.5199887,5.52019275 L16.5127379,5.59479654 C16.4957471,5.68802215 16.4513728,5.76997199 16.381609,5.83532504 C16.2903091,5.92085249 16.1724754,5.96421756 16.0396145,5.96421756 C15.9333259,5.96421756 15.8366545,5.93646392 15.748452,5.87425781 L15.68387,5.82103873 L15.6362995,5.7644964 C15.5970765,5.70792359 15.5729675,5.64422558 15.5633644,5.57532903 L15.5615441,5.54775 L15.4402979,5.63994378 L15.2911964,5.73356283 C14.9803952,5.91126743 14.6281786,6 14.2384312,6 C13.8283519,6 13.4571538,5.9036485 13.1289847,5.71094048 C12.8031227,5.5195873 12.5447597,5.25815146 12.3559162,4.92925947 C12.1670696,4.60036207 12.0728833,4.23063048 12.0728833,3.82299618 C12.0728833,3.40990716 12.1698516,3.03707614 12.3643336,2.70764393 C12.5585426,2.37867402 12.8247082,2.11746336 13.1605582,1.92650588 C13.497905,1.73469735 13.8779198,1.63883588 14.2967691,1.63883588 Z M0.459163695,0 L4.49177254,0 L4.58173439,0.00735707627 C4.67493847,0.0231275945 4.75699938,0.0642159949 4.82240731,0.128406304 C4.9081403,0.212543293 4.95093624,0.321741351 4.95093624,0.445133588 C4.95093624,0.54065234 4.92309589,0.628061278 4.86087016,0.708620049 L4.80765134,0.767774404 L4.75176967,0.811035271 C4.69501708,0.847358808 4.63113807,0.869739461 4.56225079,0.878659566 L4.49177254,0.883110687 L2.95279198,0.88275 L2.9521302,5.51378006 L2.9447515,5.58600225 C2.92799293,5.6749634 2.88555721,5.7548475 2.82004766,5.82205981 C2.72881688,5.9156619 2.60835184,5.96421756 2.471822,5.96421756 C2.36670969,5.96421756 2.27044466,5.93333824 2.18271765,5.86799949 L2.11851844,5.81247836 L2.07075998,5.75494713 C2.03088906,5.69767181 2.00583667,5.63422138 1.99580241,5.56657974 L1.99078158,5.4976145 L1.99002763,0.88275 L0.442632849,0.882446984 L0.36920185,0.875753611 C0.275997765,0.859983092 0.193936862,0.818894692 0.128528925,0.754704383 C0.0435005447,0.671258884 0,0.564532028 0,0.445133588 C0,0.321741351 0.0427959384,0.212543293 0.128528925,0.128406304 C0.19799822,0.0602302431 0.285117112,0.0189558451 0.383430524,0.00517312831 L0.459163695,0 Z M20.5169829,1.67461832 C20.6551549,1.67461832 20.7743527,1.72185977 20.8576867,1.81727286 C20.9178101,1.88611101 20.9530523,1.96689427 20.9620881,2.06274811 L20.9639306,2.13751306 L20.9553195,2.20376237 C20.9444047,2.25638875 20.9248149,2.30691203 20.8962575,2.35603936 L20.8466593,2.4287718 L19.7264438,3.78825 L20.8832998,5.2412319 L20.9318443,5.30963522 C20.9863618,5.39928819 21.0099095,5.49331914 20.9961561,5.58780055 C20.9795886,5.70161395 20.923724,5.79810528 20.831571,5.86701008 C20.7475219,5.92985532 20.6534217,5.96421756 20.5534441,5.96421756 C20.4866213,5.96421756 20.4252796,5.95523189 20.3632762,5.93175334 L20.3008247,5.90323986 L20.251025,5.87025756 L20.1957695,5.8215874 L20.1419493,5.76172104 L19.0987592,4.4595 L18.0061094,5.81903435 L17.9506854,5.87315798 C17.8722426,5.93474405 17.7746366,5.96421756 17.665717,5.96421756 C17.5349732,5.96421756 17.4201712,5.92003527 17.3352662,5.83232535 C17.2725661,5.76755397 17.2328115,5.69050057 17.2174995,5.59566302 L17.2106218,5.52111437 L17.2163296,5.45271645 C17.2261016,5.39719502 17.2469312,5.3441975 17.2768066,5.29526405 L17.3281524,5.22510445 L18.4946718,3.79275 L17.3885408,2.41415202 L17.3452419,2.35482468 C17.296764,2.27724001 17.2727806,2.19312463 17.2759478,2.10609314 C17.2798819,1.99799007 17.3187719,1.89956196 17.3906433,1.81727286 C17.4573105,1.74094239 17.5469306,1.69544177 17.6603064,1.68071858 L17.7498051,1.67544615 L17.8288832,1.68348822 C17.9019989,1.69715575 17.9688426,1.72633519 18.0342879,1.77682183 L18.0994475,1.83462552 L19.1207832,3.11775 L20.1662093,1.8217353 C20.2067342,1.77931345 20.2525346,1.74560264 20.3036503,1.72199598 C20.3713684,1.69072188 20.4431579,1.67461832 20.5169829,1.67461832 Z M9.4310354,1.63167939 C9.75426159,1.63167939 10.0448277,1.70808508 10.2982941,1.86116069 C10.5510469,2.01380536 10.7480876,2.22896648 10.8876999,2.50299306 C11.0024469,2.72821476 11.0688092,2.98390905 11.0877426,3.26907449 L11.0934187,3.44370229 L11.0928114,5.51949619 L11.0859823,5.59337731 C11.0699604,5.68547273 11.0279322,5.76678597 10.9612437,5.83223301 C10.87184,5.91997233 10.7537615,5.96421756 10.6196706,5.96421756 C10.4868097,5.96421756 10.368976,5.92085249 10.2776761,5.83532504 C10.2036549,5.76598377 10.1590782,5.67906994 10.1442084,5.58064926 L10.1386301,5.50477099 L10.1387666,3.45068595 L10.1337026,3.31721187 C10.1147525,3.08223225 10.0418225,2.89894895 9.91682778,2.76136212 C9.77458626,2.60479095 9.5980382,2.52910305 9.37269748,2.52910305 C9.1605111,2.52910305 8.98757669,2.58633096 8.84976532,2.69805177 L8.78376745,2.75844059 L8.72286331,2.82789777 C8.62358553,2.95503372 8.565856,3.11347245 8.55126379,3.30813948 L8.54769766,3.42932649 L8.54781954,5.51949619 L8.54099047,5.59337731 C8.5249686,5.68547273 8.48294035,5.76678597 8.41625185,5.83223301 C8.3268482,5.91997233 8.20876971,5.96421756 8.07467872,5.96421756 C7.94181787,5.96421756 7.82398412,5.92085249 7.7326843,5.83532504 C7.65866309,5.76598377 7.61408638,5.67906994 7.59921654,5.58064926 L7.5936383,5.50477099 L7.59377475,3.45068595 L7.58871073,3.31721187 C7.56976064,3.08223225 7.49683061,2.89894895 7.37183594,2.76136212 C7.22959441,2.60479095 7.05304636,2.52910305 6.82770564,2.52910305 C6.61437741,2.52910305 6.43958585,2.5853383 6.29959658,2.69499048 L6.23248485,2.75425493 L6.17053936,2.82201518 C6.08806976,2.92274955 6.03359512,3.04120573 6.00750438,3.17596418 L5.99326438,3.2800675 L5.98885057,3.38645038 L5.98824322,5.51949619 L5.98141414,5.59337731 C5.96539227,5.68547273 5.92336403,5.76678597 5.85667553,5.83223301 C5.76727187,5.91997233 5.64919338,5.96421756 5.5151024,5.96421756 C5.37685832,5.96421756 5.2563142,5.92063332 5.16623703,5.83223301 C5.0955999,5.76291086 5.05339015,5.67686666 5.03933173,5.5796713 L5.03406198,5.50477099 L5.03466469,2.12655247 L5.04145667,2.05263232 C5.05721981,1.96128744 5.09823151,1.88002434 5.16309264,1.81333954 C5.25308351,1.72081842 5.37505437,1.67461832 5.5151024,1.67461832 C5.62386183,1.67461832 5.72206058,1.70462782 5.80907103,1.77085582 L5.87222125,1.82741481 L5.91685564,1.88499677 L5.93468713,1.9185 L6.02325107,1.86066813 C6.19357675,1.75892166 6.37881291,1.69106438 6.5776799,1.65713135 L6.72936594,1.63804293 L6.88604356,1.63167939 C7.15539872,1.63167939 7.40207327,1.6847389 7.6280199,1.79388832 L7.76111616,1.86613301 L7.8752837,1.94286888 L7.96615659,2.01577592 L8.05131518,2.09579479 L8.12214438,2.1735 L8.16010862,2.13183802 C8.20727111,2.08437831 8.25731778,2.03995266 8.31021775,1.99859414 L8.39170382,1.93886083 L8.52190717,1.85794144 C8.79105655,1.70700492 9.09533284,1.63167939 9.4310354,1.63167939 Z M14.2967697,2.51479008 C14.055547,2.51479008 13.8409044,2.57103073 13.6487195,2.68378504 C13.4539176,2.79807478 13.3000259,2.95220493 13.185043,3.14863415 C13.0706238,3.34410062 13.013088,3.56786818 13.013088,3.82299618 C13.013088,4.07344491 13.0706533,4.29628115 13.1854717,4.49451616 C13.3002365,4.6926586 13.4535233,4.84618298 13.6473502,4.95783304 C13.8398098,5.06869546 14.0549664,5.1240458 14.2967697,5.1240458 C14.5433402,5.1240458 14.7594021,5.06873109 14.9490203,4.95830509 C15.1403004,4.84691123 15.2911887,4.69369025 15.4036787,4.49581082 C15.5165382,4.29728141 15.5731592,4.07396508 15.5731592,3.82299618 C15.5731592,3.56734859 15.5165665,3.34309611 15.404097,3.14733533 C15.2913951,2.95117 15.1399068,2.7973397 14.9476483,2.68330266 C14.7583031,2.57099365 14.5427608,2.51479008 14.2967697,2.51479008 Z" id="Tmax-Copy-5"></path>
        </g>
        <g id="Group" fill-rule="nonzero">
            <g id="Combined-Shape-Copy-path">
                <path d="M23.5902967,16.8400104 L23.7054264,16.9459338 L24.4527266,17.7068543 L25.1428373,17.0051479 C25.6607974,16.4779285 26.4604085,16.4119974 27.0487264,16.8074298 L27.1713808,16.8992271 L27.2864891,17.0051479 C27.8415099,17.5700904 27.8761987,18.4639739 27.3905555,19.0700341 L27.2864891,19.1872257 L26.596679,19.889133 L27.9118344,21.2275375 C28.4297613,21.754723 28.4945022,22.5685267 28.1060382,23.167467 L28.0158591,23.2923399 L27.9118064,23.4095387 C27.6237401,23.7026368 27.2390972,23.8614116 26.8399569,23.8614116 C26.4905655,23.8614116 26.1524857,23.7398998 25.8804553,23.5131026 L25.7680743,23.4095051 L24.4527266,22.0704051 L22.0130907,24.553653 L23.3290571,25.8883586 C23.8479139,26.4145857 23.9140654,27.2283584 23.526667,27.8279429 L23.4367107,27.9529641 L23.3328684,28.0703314 C23.0447138,28.3646965 22.6592734,28.5241725 22.2590857,28.5241725 C21.9106111,28.5241725 21.5732571,28.4031977 21.301431,28.1773613 L21.1891047,28.0742011 L19.8701272,26.7359317 L17.107551,29.5481272 C16.8915013,29.7679507 16.6211272,29.9122174 16.331056,29.9706118 L16.1845392,29.9926052 L16.0357015,30 C15.6363535,30 15.2518233,29.8412589 14.9638239,29.5479934 C14.4089023,28.9831517 14.3742197,28.0892841 14.8597782,27.4832125 L14.9638264,27.3660182 L17.7222192,24.5566728 L16.9752525,23.8001656 C16.45641,23.2738472 16.3902604,22.4601521 16.7776476,21.8605999 L16.8676014,21.7355849 L16.9714407,21.618222 C17.5253543,21.0522518 18.40357,21.0153663 18.9998921,21.5086176 L19.1152183,21.6143367 L19.8651827,22.3754007 L22.3087742,19.8881264 L21.5616573,19.1278922 C21.0437447,18.6006154 20.9790057,17.7868088 21.3674401,17.1878995 L21.4576123,17.0630338 L21.5616853,16.9458144 C22.1167225,16.3809686 22.9948987,16.3456986 23.5902967,16.8400104 Z" fill="#9D917E"></path>
                <path d="M27.9397811,6.79518804 C28.4948194,7.36003501 28.5295093,8.25402441 28.0438624,8.86000242 L27.9397952,8.97717501 L26.3771415,10.5671391 L29.5560627,13.8025433 C30.1109843,14.3673849 30.1456669,15.2613449 29.6601105,15.8674261 L29.5560627,15.9846211 C29.2680197,16.2778133 28.8834896,16.4365225 28.4841851,16.4365225 C28.1348519,16.4365225 27.7967101,16.3149921 27.5246828,16.08821 L27.4123076,15.9846211 L24.2331891,12.7494178 L12.7588902,24.4278297 L13.5962219,25.2793319 C14.1511457,25.8441758 14.1858285,26.7381456 13.7002701,27.3441303 L13.5962219,27.4613046 C13.3081713,27.7545045 12.9235281,27.9133112 12.5243443,27.9133112 C12.1750965,27.9133112 11.8369483,27.7917492 11.5648676,27.5649868 L11.4524667,27.4614097 L10.6159267,26.6091018 L9.30766757,27.9424841 C9.05562992,28.1990273 8.72971937,28.3526069 8.38467703,28.3869933 L8.23579,28.3943855 C7.83653034,28.3943855 7.45190423,28.2356367 7.16401577,27.9424841 C6.60899506,27.3775416 6.57430626,26.483658 7.05994939,25.8775979 L7.16401577,25.7604062 L13.1297307,19.6878158 L12.3481757,18.9118059 C11.7865615,18.3538736 11.7413175,17.4603341 12.2196966,16.8484068 L12.3223563,16.7299591 C12.8705893,16.1582043 13.7483608,16.1121458 14.3495267,16.5991714 L14.4658921,16.7036864 L15.2726942,17.5055371 L17.6203617,15.1159017 L16.8358919,14.3175839 C16.2808712,13.7526414 16.2461824,12.8587578 16.7318256,12.2526977 L16.8358919,12.1355061 C17.3908352,11.5706424 18.2691154,11.5353713 18.8644328,12.0296869 L18.9795437,12.1356112 L19.7643141,12.9346296 L22.0902256,10.5671391 L21.3052715,9.76841292 C20.7502508,9.20347041 20.715562,8.3094944 21.2012051,7.7034227 L21.3052715,7.58622988 C21.8601953,7.02138598 22.7384648,6.98608323 23.3338069,7.48032165 L23.4489233,7.58622988 L24.2331891,8.38486044 L25.7961293,6.79521661 C26.3880513,6.19259222 27.3478872,6.19259222 27.9397811,6.79518804 Z" fill="#D77D71"></path>
                <path d="M22.9437944,1.81494213 L23.0589091,1.92086968 C23.613932,2.48581442 23.6486209,3.37970781 23.1629763,3.98567107 L23.0589096,4.10284188 L7.92313041,19.5076369 L8.58436285,20.1778691 C9.1407531,20.7412571 9.17769171,21.6351454 8.69363174,22.242373 L8.58987264,22.3598135 C8.30171939,22.6547657 7.91582317,22.8146384 7.51522732,22.8146384 C7.16705305,22.8146384 6.83008174,22.6939313 6.55845265,22.4685061 L6.44619857,22.3655306 L5.779178,21.6899155 L4.42678149,23.0681514 C4.17476486,23.3246732 3.84878762,23.4782689 3.50377285,23.5126597 L3.35490393,23.5200528 C2.95566599,23.5200528 2.57104538,23.3613192 2.28301233,23.0681371 C1.72810384,22.5031955 1.69342206,21.6093216 2.17897855,21.0033513 L2.28302637,20.8861787 L3.63028105,19.514683 L0.446724227,16.2904649 C-0.109663873,15.727079 -0.146602248,14.8332006 0.33747773,14.2258541 L0.441241101,14.108388 C0.994732543,13.5420536 1.87282146,13.504455 2.46949321,13.9971918 L2.58489576,14.1028107 L5.77423346,17.3324043 L8.2949598,14.7656097 L7.52654451,13.9829564 C6.9715238,13.4180139 6.936835,12.5241303 7.42247812,11.9180702 L7.52654451,11.8008786 C8.08148777,11.2360149 8.959768,11.2007438 9.55508532,11.6950595 L9.67019631,11.8009837 L10.4389122,12.5843377 L12.7855908,10.1947023 L12.0167964,9.41243474 C11.4618726,8.84759083 11.4271899,7.95362099 11.9127367,7.34764811 L12.0167824,7.23047635 C12.5716876,6.66553798 13.449956,6.63019645 14.045411,7.1244458 L14.1605516,7.23035688 L14.9295432,8.01343017 L17.2554546,5.64593966 L16.486176,4.8630534 C15.9312521,4.29820949 15.8965694,3.40423964 16.3821393,2.79824322 L16.48619,2.68106643 C17.0412411,2.11620638 17.9194182,2.08086975 18.5148106,2.57516744 L18.629939,2.68108881 L19.3984181,3.46366099 L20.9152433,1.92088397 C21.4701701,1.3559236 22.3484588,1.32061357 22.9437944,1.81494213 Z" fill="#46756C"></path>
                <path d="M14.9786396,0.451966511 C15.5335459,1.01690596 15.5682275,1.91076996 15.0826729,2.51683675 L14.9786255,2.63403008 L4.86088602,12.9326388 C4.57284299,13.2258311 4.18831292,13.3845403 3.78900846,13.3845403 C3.38977052,13.3845403 3.00514991,13.2258066 2.71711686,12.9326246 C2.16221056,12.3676851 2.12752892,11.4738211 2.61308349,10.8677543 L2.7171309,10.750561 L3.53336807,9.91889766 L2.11980173,8.47950769 C1.60176807,7.95231927 1.53701386,7.13849836 1.9255203,6.53958992 L2.01570933,6.41472465 L2.11977365,6.29753501 C2.6747005,5.73257464 3.55298922,5.69726462 4.14832091,6.19158927 L4.26343484,6.29751599 L5.67732048,7.73661899 L8.02399902,5.34799017 L6.61003962,3.90897172 C6.0921107,3.38178407 6.02736958,2.56789116 6.41580687,1.96903677 L6.50597983,1.84418509 L6.61002558,1.72701333 C7.16493082,1.16207496 8.04319916,1.12673343 8.63865802,1.62098668 L8.75379939,1.72689859 L10.1669625,3.1657115 L12.8348704,0.451952222 C13.4268925,-0.150653122 14.3866034,-0.150653122 14.9786396,0.451966511 Z" fill="#72A286"></path>
            </g>
        </g>
    </g>
</svg>