<?xml version="1.0" encoding="UTF-8"?>
<svg id="_레이어_1" data-name="레이어 1" xmlns="http://www.w3.org/2000/svg" width="24" height="24" xmlns:xlink="http://www.w3.org/1999/xlink" version="1.1" viewBox="0 0 24 24">
  <defs>
    <style>
      .cls-1 {
        clip-path: url(#clippath);
      }

      .cls-2 {
        fill: none;
      }

      .cls-2, .cls-3, .cls-4, .cls-5, .cls-6 {
        stroke-width: 0px;
      }

      .cls-7 {
        clip-path: url(#clippath-1);
      }

      .cls-8 {
        clip-path: url(#clippath-3);
      }

      .cls-9 {
        clip-path: url(#clippath-2);
      }

      .cls-3 {
        fill: #64daff;
      }

      .cls-4 {
        fill: #52b3ff;
      }

      .cls-5 {
        fill: #009dff;
      }

      .cls-6 {
        fill: #b696ff;
      }
    </style>
    <clipPath id="clippath">
      <path class="cls-2" d="M18.9,13.5h0c0,0,.6.7.6.7l.6-.6c.4-.4,1.1-.5,1.5-.2h0c0,0,0,.2,0,.2.4.5.5,1.2,0,1.7h0c0,0-.6.7-.6.7l1.1,1.1c.4.4.5,1.1.2,1.6h0c0,0,0,.2,0,.2-.2.2-.5.4-.9.4s-.5,0-.8-.3h0c0,0-1.1-1.2-1.1-1.2l-2,2,1.1,1.1c.4.4.5,1.1.2,1.6h0c0,.1,0,.2,0,.2-.2.2-.5.4-.9.4s-.5,0-.8-.3h0c0,0-1.1-1.2-1.1-1.2l-2.2,2.2c-.2.2-.4.3-.6.3h-.1s-.1,0-.1,0c-.3,0-.6-.1-.9-.4-.4-.5-.5-1.2,0-1.7h0c0,0,2.2-2.3,2.2-2.3l-.6-.6c-.4-.4-.5-1.1-.2-1.6h0c0-.1,0-.2,0-.2.4-.5,1.1-.5,1.6,0h0c0,0,.6.7.6.7l2-2-.6-.6c-.4-.4-.5-1.1-.2-1.6h0c0,0,0-.2,0-.2.4-.5,1.1-.5,1.6,0Z"/>
    </clipPath>
    <clipPath id="clippath-1">
      <path class="cls-2" d="M22.4,5.4c.4.5.5,1.2,0,1.7h0c0,0-1.3,1.4-1.3,1.4l2.5,2.6c.4.5.5,1.2,0,1.7h0c-.2.3-.5.5-.9.5s-.5,0-.8-.3h0c0,0-2.5-2.7-2.5-2.7l-9.2,9.3.7.7c.4.5.5,1.2,0,1.7h0c-.2.3-.5.5-.9.5s-.5,0-.8-.3h0c0,0-.7-.8-.7-.8l-1,1.1c-.2.2-.5.3-.7.4h-.1c-.3,0-.6-.1-.9-.4-.4-.5-.5-1.2,0-1.7h0c0,0,4.8-5,4.8-5l-.6-.6c-.4-.4-.5-1.2-.1-1.7h0c.4-.6,1.1-.6,1.6-.2h0c0,0,.6.7.6.7l1.9-1.9-.6-.6c-.4-.5-.5-1.2,0-1.7h0c.4-.5,1.1-.6,1.6-.2h0c0,0,.6.7.6.7l1.9-1.9-.6-.6c-.4-.5-.5-1.2,0-1.7h0c.4-.5,1.1-.6,1.6-.2h0c0,0,.6.7.6.7l1.3-1.3c.5-.5,1.2-.5,1.7,0Z"/>
    </clipPath>
    <clipPath id="clippath-2">
      <path class="cls-2" d="M18.4,1.5h0c.4.5.5,1.3,0,1.7h0c0,0-12.1,12.4-12.1,12.4l.5.5c.4.5.5,1.2,0,1.7h0c-.2.3-.5.5-.9.5s-.5,0-.8-.3h0c0,0-.5-.6-.5-.6l-1.1,1.1c-.2.2-.5.3-.7.4h-.1c-.3,0-.6-.1-.9-.4-.4-.5-.5-1.2,0-1.7h0c0,0,1.1-1.2,1.1-1.2L.4,13c-.4-.5-.5-1.2,0-1.7h0c.4-.5,1.1-.6,1.6-.2h0c0,0,2.6,2.7,2.6,2.7l2-2.1-.6-.6c-.4-.5-.5-1.2,0-1.7h0c.4-.5,1.1-.6,1.6-.2h0c0,0,.6.7.6.7l1.9-1.9-.6-.6c-.4-.5-.5-1.2,0-1.7h0c.4-.5,1.1-.6,1.6-.2h0c0,0,.6.7.6.7l1.9-1.9-.6-.6c-.4-.5-.5-1.2,0-1.7h0c.4-.5,1.1-.6,1.6-.2h0c0,0,.6.7.6.7l1.2-1.2c.4-.5,1.1-.5,1.6,0Z"/>
    </clipPath>
    <clipPath id="clippath-3">
      <path class="cls-2" d="M12,.4c.4.5.5,1.2,0,1.7h0c0,0-8.1,8.3-8.1,8.3-.2.2-.5.4-.9.4s-.6-.1-.9-.4c-.4-.5-.5-1.2,0-1.7h0c0,0,.7-.8.7-.8l-1.1-1.2c-.4-.4-.5-1.1-.2-1.6h0c0,0,0-.2,0-.2.4-.5,1.1-.5,1.6,0h0c0,0,1.1,1.2,1.1,1.2l1.9-1.9-1.1-1.2c-.4-.4-.5-1.1-.2-1.6h0c0,0,0-.2,0-.2.4-.5,1.1-.5,1.6,0h0c0,0,1.1,1.2,1.1,1.2L10.3.4c.5-.5,1.2-.5,1.7,0Z"/>
    </clipPath>
  </defs>
  <g class="cls-1">
    <rect class="cls-6" x="7.6" y="9.2" width="19.1" height="18.8"/>
  </g>
  <g class="cls-7">
    <rect class="cls-5" x="1.4" y="1.1" width="26.6" height="25.6"/>
  </g>
  <g class="cls-9">
    <rect class="cls-4" x="-4" y="-2.8" width="26.8" height="25.6"/>
  </g>
  <g class="cls-8">
    <rect class="cls-3" x="-2.7" y="-4" width="19" height="18.7"/>
  </g>
</svg>