<?xml version="1.0" encoding="UTF-8"?>
<svg width="24px" height="24px" viewBox="0 0 24 24" version="1.1" xmlns="http://www.w3.org/2000/svg" xmlns:xlink="http://www.w3.org/1999/xlink">
    <title>Icon/common/hide</title>
    <g id="Icon/common/hide" stroke="none" stroke-width="1" fill="none" fill-rule="evenodd">
        <path d="M2.00009723,11.592 C2.1031,11.592 2.2081,11.576 2.3111,11.542 L4.8141,10.723 C5.1681,11.212 5.5791,11.657 6.0321,12.058 L4.4021,14.677 C4.1101,15.146 4.2541,15.763 4.7231,16.055 C4.8871,16.157 5.0691,16.206 5.2501,16.206 C5.5841,16.206 5.9101,16.039 6.1001,15.734 L7.6771,13.2 C8.6841,13.739 9.8111,14.089 11.0000972,14.209 L11.0000972,17.001 C11.0000972,17.553 11.4471,18.001 12.0000972,18.001 C12.5531,18.001 13.0000972,17.553 13.0000972,17.001 L13.0000972,14.186 C14.1641,14.04 15.2711,13.663 16.2601,13.097 L17.9001,15.734 C18.0901,16.039 18.4161,16.206 18.7501,16.206 C18.9311,16.206 19.1131,16.157 19.2771,16.055 C19.7461,15.763 19.8901,15.146 19.5981,14.677 L17.8751,11.908 C18.2831,11.528 18.6571,11.112 18.9841,10.657 L21.6891,11.542 C21.7921,11.576 21.8971,11.592 22.0000972,11.592 C22.4211,11.592 22.8121,11.324 22.9501,10.903 C23.1221,10.377 22.8361,9.813 22.3111,9.641 L19.9591,8.872 C20.0331,8.683 20.1041,8.491 20.1641,8.296 C20.3271,7.768 20.0311,7.208 19.5041,7.045 C18.9731,6.881 18.4151,7.178 18.2541,7.706 C17.4261,10.388 14.8201,12.261 11.9161,12.261 C8.9241,12.261 6.3031,10.397 5.5441,7.727 C5.3931,7.195 4.8361,6.888 4.3091,7.039 C3.7771,7.19 3.4691,7.743 3.6201,8.274 C3.6851,8.5 3.7591,8.72 3.8421,8.937 L1.6891,9.641 C1.1641,9.813 0.8781,10.377 1.0501,10.903 C1.1881,11.324 1.5791,11.592 2.00009723,11.592" id="Fill-1" fill="#000000"></path>
    </g>
</svg>