<?xml version="1.0" encoding="UTF-8"?>
<svg width="148.4px" height="42px" viewBox="0 0 106 30" version="1.1" xmlns="http://www.w3.org/2000/svg" xmlns:xlink="http://www.w3.org/1999/xlink">
    <title>Logo/Wapl/combination</title>
    <g id="Logo/Wapl/combination" stroke="none" stroke-width="1" fill="none" fill-rule="evenodd">
        <path d="M27.9397811,6.79518804 C28.4948194,7.36003501 28.5295093,8.25402441 28.0438624,8.86000242 L27.9397952,8.97717501 L26.3771415,10.5671391 L29.5560627,13.8025433 C30.1109843,14.3673849 30.1456669,15.2613449 29.6601105,15.8674261 L29.5560627,15.9846211 C29.2680197,16.2778133 28.8834896,16.4365225 28.4841851,16.4365225 C28.1348519,16.4365225 27.7967101,16.3149921 27.5246828,16.08821 L27.4123076,15.9846211 L24.2331891,12.7494178 L12.7588902,24.4278297 L13.5962219,25.2793319 C14.1511457,25.8441758 14.1858285,26.7381456 13.7002701,27.3441303 L13.5962219,27.4613046 C13.3081713,27.7545045 12.9235281,27.9133112 12.5243443,27.9133112 C12.1750965,27.9133112 11.8369483,27.7917492 11.5648676,27.5649868 L11.4524667,27.4614097 L10.6159267,26.6091018 L9.30766757,27.9424841 C9.05562992,28.1990273 8.72971937,28.3526069 8.38467703,28.3869933 L8.23579,28.3943855 C7.83653034,28.3943855 7.45190423,28.2356367 7.16401577,27.9424841 C6.60899506,27.3775416 6.57430626,26.483658 7.05994939,25.8775979 L7.16401577,25.7604062 L13.1297307,19.6878158 L12.3481757,18.9118059 C11.7865615,18.3538736 11.7413175,17.4603341 12.2196966,16.8484068 L12.3223563,16.7299591 C12.8705893,16.1582043 13.7483608,16.1121458 14.3495267,16.5991714 L14.4658921,16.7036864 L15.2726942,17.5055371 L17.6203617,15.1159017 L16.8358919,14.3175839 C16.2808712,13.7526414 16.2461824,12.8587578 16.7318256,12.2526977 L16.8358919,12.1355061 C17.3908352,11.5706424 18.2691154,11.5353713 18.8644328,12.0296869 L18.9795437,12.1356112 L19.7643141,12.9346296 L22.0902256,10.5671391 L21.3052715,9.76841292 C20.7502508,9.20347041 20.715562,8.3094944 21.2012051,7.7034227 L21.3052715,7.58622988 C21.8601953,7.02138598 22.7384648,6.98608323 23.3338069,7.48032165 L23.4489233,7.58622988 L24.2331891,8.38486044 L25.7961293,6.79521661 C26.3880513,6.19259222 27.3478872,6.19259222 27.9397811,6.79518804 Z" id="Combined-Shape" fill="#D77D71"></path>
        <path d="M22.9437944,1.81494213 L23.0589091,1.92086968 C23.613932,2.48581442 23.6486209,3.37970781 23.1629763,3.98567107 L23.0589096,4.10284188 L7.92313041,19.5076369 L8.58436285,20.1778691 C9.1407531,20.7412571 9.17769171,21.6351454 8.69363174,22.242373 L8.58987264,22.3598135 C8.30171939,22.6547657 7.91582317,22.8146384 7.51522732,22.8146384 C7.16705305,22.8146384 6.83008174,22.6939313 6.55845265,22.4685061 L6.44619857,22.3655306 L5.779178,21.6899155 L4.42678149,23.0681514 C4.17476486,23.3246732 3.84878762,23.4782689 3.50377285,23.5126597 L3.35490393,23.5200528 C2.95566599,23.5200528 2.57104538,23.3613192 2.28301233,23.0681371 C1.72810384,22.5031955 1.69342206,21.6093216 2.17897855,21.0033513 L2.28302637,20.8861787 L3.63028105,19.514683 L0.446724227,16.2904649 C-0.109663873,15.727079 -0.146602248,14.8332006 0.33747773,14.2258541 L0.441241101,14.108388 C0.994732543,13.5420536 1.87282146,13.504455 2.46949321,13.9971918 L2.58489576,14.1028107 L5.77423346,17.3324043 L8.2949598,14.7656097 L7.52654451,13.9829564 C6.9715238,13.4180139 6.936835,12.5241303 7.42247812,11.9180702 L7.52654451,11.8008786 C8.08148777,11.2360149 8.959768,11.2007438 9.55508532,11.6950595 L9.67019631,11.8009837 L10.4389122,12.5843377 L12.7855908,10.1947023 L12.0167964,9.41243474 C11.4618726,8.84759083 11.4271899,7.95362099 11.9127367,7.34764811 L12.0167824,7.23047635 C12.5716876,6.66553798 13.449956,6.63019645 14.045411,7.1244458 L14.1605516,7.23035688 L14.9295432,8.01343017 L17.2554546,5.64593966 L16.486176,4.8630534 C15.9312521,4.29820949 15.8965694,3.40423964 16.3821393,2.79824322 L16.48619,2.68106643 C17.0412411,2.11620638 17.9194182,2.08086975 18.5148106,2.57516744 L18.629939,2.68108881 L19.3984181,3.46366099 L20.9152433,1.92088397 C21.4701701,1.3559236 22.3484588,1.32061357 22.9437944,1.81494213 Z" id="Combined-Shape" fill="#46756C"></path>
        <path d="M21.5616853,16.9458144 C22.1537249,16.3433122 23.1134251,16.3433496 23.7054264,16.9459338 L23.7054264,16.9459338 L24.4527266,17.7068543 L25.1428373,17.0051479 C25.6977946,16.4402699 26.5760757,16.4049322 27.1713808,16.8992271 L27.1713808,16.8992271 L27.2864891,17.0051479 C27.8785112,17.6077532 27.8785112,18.5846204 27.2864891,19.1872257 L27.2864891,19.1872257 L26.596679,19.889133 L27.9118344,21.2275375 C28.4667561,21.7923792 28.5014387,22.6862467 28.0158591,23.2923399 L28.0158591,23.2923399 L27.9118064,23.4095387 C27.6237401,23.7026368 27.2390972,23.8614116 26.8399569,23.8614116 C26.4406524,23.8614116 26.0561223,23.7027024 25.7680743,23.4095051 L25.7680743,23.4095051 L24.4527266,22.0704051 L22.0130907,24.553653 L23.3290571,25.8883586 C23.8849751,26.4521733 23.9212059,27.3460787 23.4367107,27.9529641 L23.4367107,27.9529641 L23.3328684,28.0703314 C23.0447138,28.3646965 22.6592734,28.5241725 22.2590857,28.5241725 C21.860829,28.5241725 21.4770972,28.3661646 21.1891047,28.0742011 L21.1891047,28.0742011 L19.8701272,26.7359317 L17.107551,29.5481272 C16.855493,29.804588 16.5294935,29.9582075 16.1845392,29.9926052 L16.1845392,29.9926052 L16.0357015,30 C15.6363535,30 15.2518233,29.8412589 14.9638239,29.5479934 C14.3719075,28.9454956 14.3719075,27.9686395 14.9638264,27.3660182 L14.9638264,27.3660182 L17.7222192,24.5566728 L16.9752525,23.8001656 C16.4193498,23.236253 16.3831201,22.3424437 16.8676014,21.7355849 L16.8676014,21.7355849 L16.9714407,21.618222 C17.5622819,21.0145205 18.5221068,21.0127997 19.1152183,21.6143367 L19.1152183,21.6143367 L19.8651827,22.3754007 L22.3087742,19.8881264 L21.5616573,19.1278922 C21.006751,18.5629528 20.9720693,17.6690888 21.4576123,17.0630338 L21.4576123,17.0630338 Z" id="Combined-Shape" fill="#9D917E"></path>
        <path d="M12.8348704,0.451952222 C13.4268925,-0.150653122 14.3866034,-0.150653122 14.9786396,0.451966511 C15.5705396,1.05456858 15.5705396,2.03141372 14.9786255,2.63403008 L14.9786255,2.63403008 L4.86088602,12.9326388 C4.57284299,13.2258311 4.18831292,13.3845403 3.78900846,13.3845403 C3.38977052,13.3845403 3.00514991,13.2258066 2.71711686,12.9326246 C2.12521681,12.3300225 2.12521681,11.3531774 2.7171309,10.750561 L2.7171309,10.750561 L3.53336807,9.91889766 L2.11980173,8.47950769 C1.56476566,7.91466296 1.53007591,7.02077581 2.01570933,6.41472465 L2.01570933,6.41472465 L2.11977365,6.29753501 C2.71169562,5.69491062 3.67153155,5.69491062 4.26343484,6.29751599 L4.26343484,6.29751599 L5.67732048,7.73661899 L8.02399902,5.34799017 L6.61003962,3.90897172 C6.05511578,3.34412781 6.02043304,2.45015797 6.50597983,1.84418509 L6.50597983,1.84418509 L6.61002558,1.72701333 C7.2019245,1.1244124 8.16173877,1.12437499 8.75379939,1.72689859 L8.75379939,1.72689859 L10.1669625,3.1657115 Z" id="Combined-Shape" fill="#72A286"></path>
        <g id="Group-8-Copy" transform="translate(-0.000000, -0.000000)">
            <g id="Group-7-Copy">
                <path d="M27.7816314,6.79518804 C28.333528,7.36003501 28.3680215,8.25402441 27.8851235,8.86000242 L27.7816454,8.97717501 L26.2278369,10.5671391 L29.3887642,13.8025433 C29.9405448,14.3673849 29.9750311,15.2613449 29.4922231,15.8674261 L29.3887642,15.9846211 C29.1023516,16.2778133 28.7199981,16.4365225 28.3229539,16.4365225 C27.975598,16.4365225 27.6393702,16.3149921 27.3688827,16.08821 L27.2571436,15.9846211 L24.0960201,12.7494178 L12.6866701,24.4278297 L13.5192621,25.2793319 C14.0710449,25.8441758 14.1055313,26.7381456 13.6227214,27.3441303 L13.5192621,27.4613046 C13.232842,27.7545045 12.8503761,27.9133112 12.4534518,27.9133112 C12.1061809,27.9133112 11.7699467,27.7917492 11.4994061,27.5649868 L11.3876415,27.4614097 L10.5558366,26.6091018 L9.25498266,27.9424841 C9.00437163,28.1990273 8.68030587,28.3526069 8.3372166,28.3869933 L8.18917232,28.3943855 C7.79217263,28.3943855 7.40972364,28.2356367 7.12346474,27.9424841 C6.57158565,27.3775416 6.53709321,26.483658 7.01998741,25.8775979 L7.12346474,25.7604062 L13.0554115,19.6878158 L12.2782804,18.9118059 C11.7198451,18.3538736 11.6748572,17.4603341 12.1505285,16.8484068 L12.2526071,16.7299591 C12.797737,16.1582043 13.6705399,16.1121458 14.2683029,16.5991714 L14.3840097,16.7036864 L15.186245,17.5055371 L17.5206238,15.1159017 L16.7405944,14.3175839 C16.1887154,13.7526414 16.1542229,12.8587578 16.6371171,12.2526977 L16.7405944,12.1355061 C17.2923965,11.5706424 18.1657054,11.5353713 18.757653,12.0296869 L18.8721124,12.1356112 L19.6524406,12.9346296 L21.9651865,10.5671391 L21.1846756,9.76841292 C20.6327965,9.20347041 20.5983041,8.3094944 21.0811983,7.7034227 L21.1846756,7.58622988 C21.7364584,7.02138598 22.6097565,6.98608323 23.2017287,7.48032165 L23.3161935,7.58622988 L24.0960201,8.38486044 L25.6501135,6.79521661 C26.238685,6.19259222 27.1930879,6.19259222 27.7816314,6.79518804 Z" id="Combined-Shape" fill="#D77D71"></path>
                <path d="M22.8139238,1.81494213 L22.928387,1.92086968 C23.4802682,2.48581442 23.5147608,3.37970781 23.0318651,3.98567107 L22.9283874,4.10284188 L7.87828251,19.5076369 L8.53577212,20.1778691 C9.08901299,20.7412571 9.12574252,21.6351454 8.64442251,22.242373 L8.54125072,22.3598135 C8.25472852,22.6547657 7.87101662,22.8146384 7.4726883,22.8146384 C7.12648483,22.8146384 6.7914209,22.6939313 6.52132933,22.4685061 L6.40971065,22.3655306 L5.74646567,21.6899155 L4.40172424,23.0681514 C4.15113411,23.3246732 3.82700203,23.4782689 3.48394017,23.5126597 L3.33591391,23.5200528 C2.9389358,23.5200528 2.55649229,23.3613192 2.27008962,23.0681371 C1.71832212,22.5031955 1.68383665,21.6093216 2.16664471,21.0033513 L2.27010358,20.8861787 L3.60973229,19.514683 L0.444195599,16.2904649 C-0.109043134,15.727079 -0.145772424,14.8332006 0.335567478,14.2258541 L0.43874351,14.108388 C0.989101982,13.5420536 1.86222058,13.504455 2.45551494,13.9971918 L2.57026428,14.1028107 L5.74154912,17.3324043 L8.2480072,14.7656097 L7.48394143,13.9829564 C6.93206234,13.4180139 6.8975699,12.5241303 7.3804641,11.9180702 L7.48394143,11.8008786 C8.0357435,11.2360149 8.90905233,11.2007438 9.50099994,11.6950595 L9.61545935,11.8009837 L10.379824,12.5843377 L12.7132195,10.1947023 L11.9487768,9.41243474 C11.3969941,8.84759083 11.3625076,7.95362099 11.8453061,7.34764811 L11.9487629,7.23047635 C12.5005271,6.66553798 13.3738241,6.63019645 13.9659087,7.1244458 L14.0803975,7.23035688 L14.8450363,8.01343017 L17.1577823,5.64593966 L16.392858,4.8630534 C15.8410752,4.29820949 15.8065888,3.40423964 16.2894102,2.79824322 L16.3928719,2.68106643 C16.9447813,2.11620638 17.8179876,2.08086975 18.4100098,2.57516744 L18.5244866,2.68108881 L19.2886158,3.46366099 L20.7968551,1.92088397 C21.3486409,1.3559236 22.2219581,1.32061357 22.8139238,1.81494213 Z" id="Combined-Shape" fill="#46756C"></path>
                <path d="M21.4396381,16.9458144 C22.0283265,16.3433122 22.9825944,16.3433496 23.5712448,16.9459338 L23.5712448,16.9459338 L24.314315,17.7068543 L25.0005194,17.0051479 C25.5523354,16.4402699 26.4256451,16.4049322 27.0175805,16.8992271 L27.0175805,16.8992271 L27.1320373,17.0051479 C27.7207083,17.6077532 27.7207083,18.5846204 27.1320373,19.1872257 L27.1320373,19.1872257 L26.4461318,19.889133 L27.7538429,21.2275375 C28.3056235,21.7923792 28.3401098,22.6862467 27.8572788,23.2923399 L27.8572788,23.2923399 L27.753815,23.4095387 C27.4673793,23.7026368 27.0849136,23.8614116 26.6880326,23.8614116 C26.2909883,23.8614116 25.9086349,23.7027024 25.6222173,23.4095051 L25.6222173,23.4095051 L24.314315,22.0704051 L21.8884883,24.553653 L23.1970058,25.8883586 C23.7497772,26.4521733 23.7858028,27.3460787 23.3040501,27.9529641 L23.3040501,27.9529641 L23.2007955,28.0703314 C22.914272,28.3646965 22.5310133,28.5241725 22.1330908,28.5241725 C21.7370885,28.5241725 21.3555287,28.3661646 21.0691664,28.0742011 L21.0691664,28.0742011 L19.7576548,26.7359317 L17.0107158,29.5481272 C16.7600846,29.804588 16.4359304,29.9582075 16.0929286,29.9926052 L16.0929286,29.9926052 L15.9449334,30 C15.5478459,30 15.1654922,29.8412589 14.879123,29.5479934 C14.2905571,28.9454956 14.2905571,27.9686395 14.8791255,27.3660182 L14.8791255,27.3660182 L17.6219047,24.5566728 L16.8791662,23.8001656 C16.3264101,23.236253 16.2903855,22.3424437 16.7721244,21.7355849 L16.7721244,21.7355849 L16.875376,21.618222 C17.4628728,21.0145205 18.4172647,21.0127997 19.007019,21.6143367 L19.007019,21.6143367 L19.7527383,22.3754007 L22.1824981,19.8881264 L21.4396102,19.1278922 C20.8878448,18.5629528 20.8533595,17.6690888 21.3361542,17.0630338 L21.3361542,17.0630338 Z" id="Combined-Shape" fill="#9D917E"></path>
                <path d="M12.7622202,0.451952222 C13.3508912,-0.150653122 14.3051698,-0.150653122 14.8938548,0.451966511 C15.4824045,1.05456858 15.4824045,2.03141372 14.8938409,2.63403008 L14.8938409,2.63403008 L4.83337157,12.9326388 C4.54695897,13.2258311 4.16460549,13.3845403 3.76756124,13.3845403 C3.37058314,13.3845403 2.98813963,13.2258066 2.70173695,12.9326246 C2.11318728,12.3300225 2.11318728,11.3531774 2.70175091,10.750561 L2.70175091,10.750561 L3.51336787,9.91889766 L2.10780285,8.47950769 C1.5559085,7.91466296 1.5214151,7.02077581 2.00429966,6.41472465 L2.00429966,6.41472465 L2.10777493,6.29753501 C2.6963464,5.69491062 3.6507493,5.69491062 4.23930219,6.29751599 L4.23930219,6.29751599 L5.64518471,7.73661899 L7.97858016,5.34799017 L6.5726243,3.90897172 C6.02084154,3.34412781 5.98635511,2.45015797 6.46915353,1.84418509 L6.46915353,1.84418509 L6.57261034,1.72701333 C7.16115889,1.1244124 8.11554025,1.12437499 8.70424959,1.72689859 L8.70424959,1.72689859 L10.1094137,3.1657115 Z" id="Combined-Shape" fill="#72A286"></path>
            </g>
            <path d="M54.6670066,11.6129032 C55.6267393,11.6129032 56.4130162,12.3609066 56.482513,13.3096746 L56.4875064,13.4465195 L56.4875064,22.614601 C56.4875064,26.1589751 53.6347771,29.0322581 50.1157573,29.0322581 C48.3325686,29.0322581 46.7204661,28.2944736 45.5639378,27.1054423 C44.4085497,28.2944736 42.7964472,29.0322581 41.0132585,29.0322581 C37.4942387,29.0322581 34.6415094,26.1589751 34.6415094,22.614601 L34.6415094,13.4465195 L34.6465028,13.3096746 C34.7159996,12.3609066 35.5022765,11.6129032 36.4620092,11.6129032 C37.4217419,11.6129032 38.2080187,12.3609066 38.2775155,13.3096746 L38.2825089,13.4465195 L38.2825089,22.614601 C38.2825089,24.1336185 39.5051072,25.3650255 41.0132585,25.3650255 C42.5214099,25.3650255 43.7440082,24.1336185 43.7440082,22.614601 L43.7440082,13.4465195 L43.7490015,13.3096746 C43.8184983,12.3609066 44.6047752,11.6129032 45.5645079,11.6129032 C46.5242406,11.6129032 47.3105175,12.3609066 47.3800143,13.3096746 L47.3850076,13.4465195 L47.3850076,22.614601 C47.3850076,24.1336185 48.6076059,25.3650255 50.1157573,25.3650255 C51.6239086,25.3650255 52.8465069,24.1336185 52.8465069,22.614601 L52.8465069,13.4465195 L52.8515003,13.3096746 C52.9209971,12.3609066 53.7072739,11.6129032 54.6670066,11.6129032 Z M65.5900051,11.6129032 C69.6117421,11.6129032 72.8720041,14.8966551 72.8720041,18.9473684 L72.8720041,27.1986418 C72.8720041,28.2113201 72.0569386,29.0322581 71.0515043,29.0322581 C70.0917716,29.0322581 69.3054948,28.2842547 69.235998,27.3354867 L69.2310046,27.1986418 L69.2310046,25.3650255 L61.9490056,25.3650255 L61.9490056,27.1986418 C61.9490056,28.1652893 61.206353,28.9572312 60.2643719,29.0272287 L60.1285059,29.0322581 C59.1687732,29.0322581 58.3824963,28.2842547 58.3129995,27.3354867 L58.3080061,27.1986418 L58.3080061,18.9473684 C58.3080061,14.8966551 61.5682681,11.6129032 65.5900051,11.6129032 Z M81.9745028,11.6129032 C85.9962398,11.6129032 89.2565018,14.8966551 89.2565018,18.9473684 C89.2565018,22.9980817 85.9962398,26.2818336 81.9745028,26.2818336 C80.6480734,26.2818336 79.4044757,25.9246337 78.3333577,25.3005279 L78.3335033,27.1986418 C78.3335033,28.2113201 77.5184378,29.0322581 76.5130036,29.0322581 C75.5532709,29.0322581 74.766994,28.2842547 74.6974972,27.3354867 L74.6925038,27.1986418 L74.6925038,18.9473684 C74.6925038,14.8966551 77.9527658,11.6129032 81.9745028,11.6129032 Z M92.8975013,11.6129032 C93.857234,11.6129032 94.6435108,12.3609066 94.7130076,13.3096746 L94.718001,13.4465195 L94.718001,25.3650255 L100.1795,25.3650255 C101.139233,25.3650255 101.92551,26.1130289 101.995007,27.0617968 L102,27.1986418 C102,28.1652893 101.257347,28.9572312 100.315366,29.0272287 L100.1795,29.0322581 L92.8975013,29.0322581 C91.892067,29.0322581 91.0770015,28.2113201 91.0770015,27.1986418 L91.0770015,13.4465195 L91.0819949,13.3096746 C91.1514917,12.3609066 91.9377686,11.6129032 92.8975013,11.6129032 Z M81.9745028,15.2801358 C79.9636343,15.2801358 78.3335033,16.9220118 78.3335033,18.9473684 C78.3335033,20.9727251 79.9636343,22.614601 81.9745028,22.614601 C83.9853713,22.614601 85.6155023,20.9727251 85.6155023,18.9473684 C85.6155023,16.9220118 83.9853713,15.2801358 81.9745028,15.2801358 Z M65.5900051,15.2801358 C63.5791366,15.2801358 61.9490056,16.9220118 61.9490056,18.9473684 L61.9490056,21.6977929 L69.2310046,21.6977929 L69.2310046,18.9473684 C69.2310046,16.9220118 67.6008736,15.2801358 65.5900051,15.2801358 Z" id="Shape-Copy-5" fill="#232D3B"></path>
            <path d="M50.928833,2.84043339 C51.4414569,2.84043339 51.905139,2.96423843 52.3150969,3.21205691 C52.7227235,3.45846617 53.0465666,3.79536854 53.2839841,4.21954056 C53.487489,4.58312412 53.6059041,4.98771673 53.6396411,5.43279452 L53.649455,5.65870475 L53.6486399,7.84863581 L53.6397695,7.94489876 C53.6189836,8.06518987 53.5646976,8.1709316 53.4793511,8.25525812 C53.3676582,8.36561612 53.2235046,8.42157104 53.0609674,8.42157104 C52.9309377,8.42157104 52.8126734,8.38575989 52.7047696,8.30549395 L52.6257624,8.23682417 L52.5675663,8.16386632 C52.5195822,8.09086915 52.4900881,8.00867816 52.4783401,7.91977939 L52.4761132,7.88419355 L52.3277849,8.00315327 L52.1453795,8.12395203 C51.7651565,8.35324829 51.3342674,8.46774194 50.8574644,8.46774194 C50.3557881,8.46774194 49.9016777,8.34341742 49.5002074,8.09476191 C49.1015596,7.84785458 48.7854876,7.51051801 48.5544632,7.08614125 C48.323435,6.66175751 48.2082109,6.18468449 48.2082109,5.65870475 C48.2082109,5.12568666 48.3268385,4.64461437 48.5647607,4.21954056 C48.8023491,3.79506325 49.1279665,3.45801723 49.5388333,3.21162049 C49.9515313,2.96412561 50.4164278,2.84043339 50.928833,2.84043339 Z M34.0004036,0.725806452 L38.9337524,0.725806452 L39.0438085,0.735299453 C39.157831,0.755648509 39.2582214,0.8086658 39.3382391,0.891492005 C39.4431218,1.00005586 39.4954768,1.14095658 39.4954768,1.30017237 C39.4954768,1.42342237 39.4614179,1.5362081 39.3852932,1.6401549 L39.3201872,1.7164831 L39.2518235,1.77230358 C39.1823945,1.81917266 39.1042472,1.84805092 39.019973,1.85956073 L38.9337524,1.86530411 L37.0510189,1.86483871 L37.0502093,7.84036136 L37.0411824,7.9335513 C37.0206806,8.04833987 36.9687663,8.15141613 36.8886242,8.23814168 C36.7770158,8.35891858 36.6296432,8.42157104 36.4626175,8.42157104 C36.3340268,8.42157104 36.2162597,8.38172676 36.1089376,8.2974187 L36.0303986,8.22577853 L35.9719726,8.15154469 C35.923196,8.07764105 35.8925478,7.99576953 35.8802722,7.90848999 L35.8741299,7.81950259 L35.8732075,1.86483871 L33.9801804,1.86444772 L33.8903475,1.85581111 C33.776325,1.83546205 33.6759346,1.78244476 33.5959169,1.69961856 C33.4918962,1.59194695 33.4386792,1.45423487 33.4386792,1.30017237 C33.4386792,1.14095658 33.4910343,1.00005586 33.5959169,0.891492005 C33.6809032,0.803522894 33.7874813,0.750265607 33.9077544,0.732481456 L34.0004036,0.725806452 Z M58.538419,2.88660428 C58.7074537,2.88660428 58.853276,2.947561 58.9552238,3.07067465 C59.0287766,3.15949808 59.0718906,3.26373454 59.0829447,3.38741692 L59.0851987,3.48388782 L59.0746642,3.5693708 C59.0613115,3.63727581 59.037346,3.70246713 59.0024099,3.76585724 L58.9417332,3.85970555 L57.5713019,5.61387097 L58.986558,7.48868633 L59.0459456,7.57694867 C59.1126403,7.69262992 59.1414476,7.81396018 59.1246223,7.93587168 C59.1043542,8.08272767 59.0360115,8.20723263 58.9232747,8.29614204 C58.8204522,8.37723267 58.7053333,8.42157104 58.5830243,8.42157104 C58.5012758,8.42157104 58.4262324,8.40997663 58.3503797,8.37968173 L58.2739789,8.34289014 L58.2130557,8.30033234 L58.145458,8.23753212 L58.0796164,8.16028521 L56.8034151,6.48 L55.4667066,8.23423787 L55.3989029,8.30407482 C55.3029387,8.3835407 55.1835311,8.42157104 55.0502827,8.42157104 C54.8903354,8.42157104 54.7498908,8.36456164 54.6460211,8.25138755 C54.5693161,8.16781158 54.5206818,8.06838783 54.5019495,7.94601681 L54.4935356,7.849825 L54.5005183,7.76156962 C54.512473,7.68992905 54.5379552,7.62154516 54.5745037,7.55840523 L54.6373183,7.4678767 L56.0643962,5.61967742 L54.7111953,3.84084132 L54.658225,3.76428991 C54.5989188,3.66418066 54.5695785,3.55564469 54.5734531,3.44334599 C54.5782659,3.30385816 54.6258425,3.17685414 54.7137675,3.07067465 C54.7953257,2.97218373 54.9049637,2.91347325 55.0436636,2.89447559 L55.1531531,2.88767245 L55.2498944,2.89804931 C55.3393415,2.91568484 55.4211157,2.95333572 55.5011791,3.01847978 L55.5808931,3.09306519 L56.8303585,4.74870968 L58.1092952,3.07643265 C58.1588719,3.02169478 58.2149024,2.97819695 58.2774355,2.94773675 C58.3602794,2.90738307 58.4481041,2.88660428 58.538419,2.88660428 Z M44.9762691,2.83119921 C45.3716924,2.83119921 45.7271606,2.9297872 46.0372422,3.12730412 C46.3464509,3.32426498 46.5875035,3.60189223 46.7583002,3.95547492 C46.8986775,4.24608356 46.9798627,4.57601168 47.0030251,4.94396709 L47.0099692,5.16929328 L47.0092262,7.84773702 L47.0008717,7.94306749 C46.9812711,8.06190029 46.9298553,8.16682061 46.848271,8.2512684 C46.7388977,8.36448043 46.5944448,8.42157104 46.4304027,8.42157104 C46.2678655,8.42157104 46.1237119,8.36561612 46.012019,8.25525812 C45.9214641,8.16578551 45.8669305,8.05363864 45.8487393,7.92664421 L45.8419151,7.82873676 L45.842082,5.17830445 L45.8358869,5.00607983 C45.812704,4.70288032 45.7234841,4.46638575 45.5705701,4.28885435 C45.3965569,4.08682703 45.1805743,3.98916523 44.9049006,3.98916523 C44.6453194,3.98916523 44.4337577,4.06300769 44.2651642,4.20716357 L44.1844248,4.28508463 L44.1099168,4.3747068 C43.988464,4.53875319 43.9178397,4.74319026 43.8999881,4.99437352 L43.8956255,5.15074386 L43.8957746,7.84773702 L43.8874201,7.94306749 C43.8678195,8.06190029 43.8164037,8.16682061 43.7348194,8.2512684 C43.6254462,8.36448043 43.4809932,8.42157104 43.3169511,8.42157104 C43.1544139,8.42157104 43.0102603,8.36561612 42.8985674,8.25525812 C42.8080125,8.16578551 42.753479,8.05363864 42.7352877,7.92664421 L42.7284635,7.82873676 L42.7286304,5.17830445 L42.7224353,5.00607983 C42.6992524,4.70288032 42.6100325,4.46638575 42.4571185,4.28885435 C42.2831053,4.08682703 42.0671228,3.98916523 41.791449,3.98916523 C41.5304709,3.98916523 41.3166372,4.06172684 41.1453794,4.20321353 L41.0632773,4.27968379 L40.9874954,4.36711636 C40.8866051,4.49709619 40.8199627,4.64994288 40.7880443,4.82382474 L40.7706236,4.95815161 L40.7652239,5.09541985 L40.7644809,7.84773702 L40.7561264,7.94306749 C40.7365258,8.06190029 40.68511,8.16682061 40.6035257,8.2512684 C40.4941524,8.36448043 40.3496995,8.42157104 40.1856574,8.42157104 C40.0165345,8.42157104 39.8690652,8.36533331 39.758868,8.2512684 C39.6724531,8.16182046 39.6208152,8.05079568 39.6036166,7.92538233 L39.5971698,7.82873676 L39.5979071,3.46974512 L39.6062162,3.37436428 C39.6255003,3.25649992 39.6756725,3.15164431 39.7550213,3.0655994 C39.8651129,2.94621732 40.0143276,2.88660428 40.1856574,2.88660428 C40.3187098,2.88660428 40.4388426,2.92532621 40.545288,3.0107817 L40.6225438,3.08376104 L40.6771479,3.15806035 L40.6989623,3.20129032 L40.8073082,3.12666855 C41.0156785,2.99538278 41.2422898,2.907825 41.4855765,2.86404045 L41.6711438,2.83941023 L41.8628175,2.83119921 C42.192337,2.83119921 42.4941097,2.89966309 42.7705247,3.04050106 L42.9333499,3.13372002 L43.0730184,3.23273404 L43.184189,3.32680763 L43.288369,3.43005779 L43.3750189,3.53032258 L43.421463,3.47656519 C43.4791598,3.41532686 43.5403851,3.35800343 43.6051011,3.3046376 L43.7047882,3.22756237 L43.8640743,3.12315025 C44.193342,2.92839344 44.5655827,2.83119921 44.9762691,2.83119921 Z M50.9288336,3.97069687 C50.6337305,3.97069687 50.3711445,4.04326546 50.1360323,4.1887549 C49.8977186,4.33622552 49.7094531,4.53510313 49.5687872,4.7885602 C49.4288108,5.04077499 49.3584235,5.32950733 49.3584235,5.65870475 C49.3584235,5.9818644 49.4288469,6.26939503 49.5693116,6.52518214 C49.7097107,6.78084981 49.8972364,6.97894577 50.1343572,7.12301037 C50.3698053,7.26605866 50.6330202,7.33747845 50.9288336,7.33747845 C51.2304791,7.33747845 51.4948015,7.26610463 51.7267736,7.12361946 C51.9607788,6.97988546 52.1453701,6.78218096 52.2829863,6.52685267 C52.4210545,6.27068569 52.4903227,5.98253558 52.4903227,5.65870475 C52.4903227,5.32883688 52.4210892,5.03947885 52.2834981,4.7868843 C52.1456226,4.53376774 51.9602973,4.33527703 51.7250951,4.18813247 C51.493457,4.04321761 51.2297703,3.97069687 50.9288336,3.97069687 Z" id="Tmax-Copy-5" fill="#232D3B" fill-rule="nonzero"></path>
        </g>
    </g>
</svg>