<?xml version="1.0" encoding="UTF-8"?>
<svg width="24px" height="24px" viewBox="0 0 24 24" version="1.1" xmlns="http://www.w3.org/2000/svg" xmlns:xlink="http://www.w3.org/1999/xlink">
    <title>Icon/common/show</title>
    <g id="Icon/common/show" stroke="none" stroke-width="1" fill="none" fill-rule="evenodd">
        <path d="M11.9998,12.4017 C13.7618,12.4017 15.1968,13.8817 15.1968,15.7007 C15.1968,17.5197 13.7618,18.9997 11.9998,18.9997 C10.2378,18.9997 8.8038,17.5197 8.8038,15.7007 C8.8038,13.8817 10.2378,12.4017 11.9998,12.4017 Z M11.9998,14.4017 C11.3408,14.4017 10.8038,14.9847 10.8038,15.7007 C10.8038,16.4167 11.3408,16.9997 11.9998,16.9997 C12.6598,16.9997 13.1968,16.4167 13.1968,15.7007 C13.1968,14.9847 12.6598,14.4017 11.9998,14.4017 Z M12.0002972,5 C12.5523,5 13.0002972,5.448 13.0002972,6 L13.0002972,6 L13.0002972,8.819 C14.1643,8.966 15.2693,9.343 16.2593,9.91 L16.2593,9.91 L17.9003,7.27 C18.1903,6.8 18.8083,6.655 19.2773,6.948 C19.7463,7.24 19.8893,7.856 19.5983,8.325 L19.5983,8.325 L17.8743,11.099 C18.2833,11.481 18.6573,11.898 18.9843,12.353 L18.9843,12.353 L21.6893,11.467 C22.2133,11.292 22.7783,11.581 22.9503,12.106 C23.1223,12.631 22.8363,13.195 22.3113,13.367 L22.3113,13.367 L19.9593,14.137 C20.0333,14.327 20.1043,14.519 20.1643,14.716 C20.3273,15.243 20.0313,15.803 19.5033,15.966 C19.4063,15.996 19.3063,16.011 19.2083,16.011 C18.7813,16.011 18.3863,15.734 18.2533,15.305 C17.4253,12.62 14.8203,10.745 11.9163,10.745 C8.9243,10.745 6.3033,12.611 5.5433,15.284 C5.3923,15.815 4.8393,16.122 4.3083,15.972 C3.7773,15.821 3.4693,15.268 3.6193,14.737 C3.6843,14.511 3.7593,14.289 3.8423,14.072 L3.8423,14.072 L1.6893,13.367 C1.1643,13.195 0.8783,12.631 1.0503,12.106 C1.2213,11.582 1.7893,11.294 2.3113,11.467 L2.3113,11.467 L4.8133,12.286 C5.1673,11.797 5.5783,11.351 6.0323,10.95 L6.0323,10.95 L4.4013,8.325 C4.1103,7.856 4.2543,7.239 4.7233,6.948 C5.1933,6.656 5.8083,6.8 6.1003,7.27 L6.1003,7.27 L7.6773,9.807 C8.6843,9.267 9.8103,8.917 11.0002972,8.796 L11.0002972,8.796 L11.0002972,6 C11.0002972,5.448 11.4483,5 12.0002972,5 Z" id="Combined-Shape" fill="#000000"></path>
    </g>
</svg>